<?xml version="1.0" encoding="UTF-8" standalone="no"?>
<!-- Created with Inkscape (http://www.inkscape.org/) -->

<svg
   width="1024"
   height="1024"
   viewBox="0 0 270.93333 270.93333"
   version="1.1"
   id="svg1"
   xml:space="preserve"
   inkscape:version="1.4.2 (ebf0e940d0, 2025-05-08)"
   sodipodi:docname="configs-zip.svg"
   xmlns:inkscape="http://www.inkscape.org/namespaces/inkscape"
   xmlns:sodipodi="http://sodipodi.sourceforge.net/DTD/sodipodi-0.dtd"
   xmlns="http://www.w3.org/2000/svg"
   xmlns:svg="http://www.w3.org/2000/svg"><sodipodi:namedview
     id="namedview1"
     pagecolor="#ffffff"
     bordercolor="#000000"
     borderopacity="0.25"
     inkscape:showpageshadow="2"
     inkscape:pageopacity="0.0"
     inkscape:pagecheckerboard="0"
     inkscape:deskcolor="#d1d1d1"
     inkscape:document-units="px"
     inkscape:zoom="0.59063552"
     inkscape:cx="396.18342"
     inkscape:cy="561.25984"
     inkscape:window-width="2560"
     inkscape:window-height="1020"
     inkscape:window-x="0"
     inkscape:window-y="0"
     inkscape:window-maximized="1"
     inkscape:current-layer="layer1" /><defs
     id="defs1" /><g
     inkscape:label="Camada 1"
     inkscape:groupmode="layer"
     id="layer1"><g
       id="g1"
       transform="matrix(0.79639301,0,0,0.79639301,51.387329,16.293646)"><path
         style="fill:#0bd0a1"
         d="m -0.04979288,314.127 c 2.22818708,-0.0443 5.80006188,-0.0442 7.93749958,2.2e-4 2.1374373,0.0444 0.3143756,0.0807 -4.0512492,0.0805 -4.36562473,-1.2e-4 -6.1144374,-0.0365 -3.88625038,-0.0808 z M 212.92343,314.134 c 0.47294,-0.0587 1.24684,-0.0587 1.71979,0 0.47294,0.0587 0.086,0.10672 -0.8599,0.10672 -0.94588,0 -1.33284,-0.048 -0.85989,-0.10672 z M -6.8130211,313.87803 c 0.2546615,-0.0666 0.6713802,-0.0666 0.9260416,0 0.2546615,0.0665 0.046302,0.121 -0.4630208,0.121 -0.5093229,0 -0.7176822,-0.0545 -0.4630208,-0.121 z m 224.3716911,-9.7e-4 c 0.25743,-0.0671 0.61462,-0.0627 0.79375,0.01 0.17913,0.0725 -0.0315,0.12736 -0.46806,0.12197 -0.43656,-0.005 -0.58312,-0.0647 -0.32569,-0.13177 z M -9.0619793,313.6206 c 0.181901,-0.0734 0.4795573,-0.0734 0.6614583,0 0.181901,0.0734 0.033073,0.13345 -0.3307291,0.13345 -0.3638021,0 -0.5126302,-0.06 -0.3307292,-0.13345 z m 228.8645693,0 c 0.1819,-0.0734 0.47956,-0.0734 0.66146,0 0.1819,0.0734 0.0331,0.13345 -0.33073,0.13345 -0.3638,0 -0.51263,-0.06 -0.33073,-0.13345 z m -230.452069,-0.26459 c 0.181901,-0.0734 0.479557,-0.0734 0.6614581,0 0.181901,0.0734 0.033073,0.13346 -0.3307291,0.13346 -0.363802,0 -0.51263,-0.0601 -0.330729,-0.13346 z m 232.320689,-0.006 c 0.191,-0.0764 0.4192,-0.067 0.50712,0.0209 0.0879,0.0879 -0.0683,0.15045 -0.34727,0.13896 -0.30822,-0.0127 -0.37092,-0.0754 -0.15985,-0.15985 z m -233.627069,-0.26458 c 0.190996,-0.0764 0.419199,-0.067 0.507118,0.0209 0.08792,0.0879 -0.06835,0.15045 -0.347266,0.13896 -0.308224,-0.0127 -0.370919,-0.0754 -0.159852,-0.15985 z m -1.322917,-0.26458 c 0.190996,-0.0764 0.419199,-0.067 0.507118,0.0209 0.08792,0.0879 -0.06835,0.15046 -0.347266,0.13897 -0.308224,-0.0127 -0.370919,-0.0754 -0.159852,-0.15985 z m -11.592057,-3.78801 c -0.218281,-0.14107 -0.277812,-0.25648 -0.132291,-0.25648 0.145521,0 0.443177,0.11541 0.661458,0.25648 0.218281,0.14106 0.277813,0.25648 0.132292,0.25648 -0.145521,0 -0.443177,-0.11542 -0.661459,-0.25648 z m -4.034895,-2.00342 c -0.989129,-0.53661 -0.928921,-0.76011 0.06615,-0.24554 0.436562,0.22575 0.79375,0.46694 0.79375,0.53596 0,0.17026 -0.02843,0.16066 -0.859896,-0.29042 z m -5.788436,-3.75127 c -0.329108,-0.41964 -0.319749,-0.429 0.09989,-0.0999 0.44073,0.34565 0.580887,0.56292 0.363126,0.56292 -0.05494,0 -0.263301,-0.20836 -0.46302,-0.46302 z m -1.852084,-1.32292 c -0.329107,-0.41964 -0.319749,-0.429 0.09989,-0.0999 0.254662,0.19972 0.463021,0.40808 0.463021,0.46302 0,0.21776 -0.217272,0.0776 -0.562916,-0.36313 z M 247.91457,301.5251 c 0,-0.0549 0.20836,-0.2633 0.46302,-0.46302 0.41964,-0.32911 0.429,-0.31975 0.0999,0.0999 -0.34565,0.44073 -0.56292,0.58089 -0.56292,0.36313 z m -285.907416,-0.76 -0.504028,-0.59531 0.595313,0.50402 c 0.327422,0.27722 0.595312,0.54511 0.595312,0.59532 0,0.21173 -0.212935,0.0554 -0.686597,-0.50403 z m -1.579005,-1.32292 -0.777106,-0.85989 0.859896,0.7771 c 0.472943,0.42741 0.859896,0.81436 0.859896,0.8599 0,0.2044 -0.218315,0.0244 -0.942686,-0.77711 z m 289.073921,0.76 c 0,-0.0549 0.20836,-0.2633 0.46302,-0.46302 0.41964,-0.32911 0.429,-0.31975 0.0999,0.0999 -0.34565,0.44073 -0.56292,0.58088 -0.56292,0.36312 z m -292.239373,-3.67042 -1.844987,-1.91822 1.918229,1.84498 c 1.055026,1.01475 1.918229,1.87795 1.918229,1.91823 0,0.19408 -0.277846,-0.0633 -1.991471,-1.84499 z m 294.356043,1.84547 c 0,-0.04 0.92273,-0.96276 2.05052,-2.05052 l 2.05052,-1.97776 -1.97776,2.05052 c -1.83689,1.90448 -2.12328,2.17125 -2.12328,1.97776 z m -297.276008,-5.02047 -0.777105,-0.85989 0.859896,0.7771 c 0.472942,0.42741 0.859895,0.81437 0.859895,0.8599 0,0.20441 -0.218315,0.0244 -0.942686,-0.77711 z m 302.699958,-0.7276 c 0.26339,-0.29104 0.53842,-0.52917 0.61119,-0.52917 0.0728,0 -0.0832,0.23813 -0.3466,0.52917 -0.26339,0.29104 -0.53842,0.52917 -0.61118,0.52917 -0.0728,0 0.0832,-0.23813 0.34659,-0.52917 z m -304.031369,-0.8599 -0.504027,-0.59531 0.595312,0.50403 c 0.559447,0.47366 0.715762,0.6866 0.504028,0.6866 -0.05021,0 -0.318097,-0.26789 -0.595313,-0.59532 z m 304.957419,-0.29833 c 0,-0.0549 0.20836,-0.2633 0.46302,-0.46302 0.41964,-0.32911 0.429,-0.31975 0.0999,0.0999 -0.34564,0.44073 -0.56291,0.58088 -0.56291,0.36312 z m -306.015752,-1.02458 -0.504028,-0.59531 0.595313,0.50402 c 0.559447,0.47367 0.715761,0.6866 0.504028,0.6866 -0.05021,0 -0.318097,-0.26789 -0.595313,-0.59531 z m 307.074082,-0.29833 c 0,-0.0549 0.20836,-0.26331 0.46302,-0.46302 0.41964,-0.32911 0.429,-0.31975 0.0999,0.0999 -0.34564,0.44073 -0.56291,0.58089 -0.56291,0.36313 z m -308.008734,-0.8923 c -0.329107,-0.41964 -0.319749,-0.429 0.0999,-0.0999 0.254662,0.19972 0.463021,0.40808 0.463021,0.46302 0,0.21776 -0.217272,0.0776 -0.562916,-0.36313 z m -2.876667,-4.29948 c -0.155761,-0.29104 -0.22367,-0.52916 -0.15091,-0.52916 0.07276,0 0.259732,0.23812 0.415493,0.52916 0.155761,0.29105 0.22367,0.52917 0.15091,0.52917 -0.07276,0 -0.259732,-0.23812 -0.415493,-0.52917 z m -0.79375,-1.32291 c -0.155761,-0.29104 -0.22367,-0.52917 -0.15091,-0.52917 0.07276,0 0.259732,0.23813 0.415493,0.52917 0.155761,0.29104 0.22367,0.52916 0.15091,0.52916 -0.07276,0 -0.259732,-0.23812 -0.415493,-0.52916 z m -1.467923,-2.67042 c -0.232749,-0.45009 -0.376208,-0.86531 -0.318798,-0.92272 0.05741,-0.0574 0.302388,0.31084 0.544396,0.81834 0.544137,1.14106 0.355603,1.2283 -0.225598,0.10438 z m -1.542099,-3.29294 c -0.255317,-0.66534 -0.179999,-0.83702 0.131904,-0.30065 0.154434,0.26557 0.225054,0.5386 0.156932,0.60672 -0.06812,0.0681 -0.198098,-0.0696 -0.288836,-0.30607 z M 98.028119,269.3668 c -2.388474,-0.12578 -2.814644,-0.20836 -2.376379,-0.46051 0.293721,-0.16898 0.981557,-0.3912 1.528524,-0.49381 1.01255,-0.18996 1.66747,-0.91871 1.415568,-1.57515 -0.07397,-0.19277 0.03214,-0.57042 0.235795,-0.83922 0.203658,-0.26881 0.389748,-0.7864 0.413533,-1.1502 0.03571,-0.54613 0.08039,-0.5 0.256303,0.26459 0.207638,0.90248 0.209797,0.89911 0.08484,-0.1323 -0.07052,-0.58208 -0.244211,-2.86482 -0.385978,-5.07275 -0.141767,-2.20793 -0.409957,-5.58673 -0.595978,-7.50844 -0.284454,-2.93859 -0.280529,-3.55171 0.0247,-3.85693 0.307499,-0.3075 0.02672,-0.36578 -1.838796,-0.38168 -1.210941,-0.0103 -7.142804,-0.1198 -13.181919,-0.24328 -9.669618,-0.19772 -11.296012,-0.29204 -13.626041,-0.79019 -3.488231,-0.74578 -7.554911,-2.11702 -10.544094,-3.55536 -2.248209,-1.0818 -7.200247,-4.19834 -8.10903,-5.10338 -0.218281,-0.21738 0.529501,0.20419 1.661737,0.93682 2.999159,1.94066 7.86712,4.35369 10.930267,5.4181 3.733198,1.29725 7.16392,1.98804 11.411596,2.29777 4.323235,0.31524 40.810143,0.31396 54.445353,-0.002 8.70314,-0.20162 9.80054,-0.27888 12.71838,-0.89544 12.91207,-2.72839 23.72026,-10.26029 30.68609,-21.38418 0.97382,-1.55513 1.41913,-1.66699 0.56512,-0.14196 -6.50121,11.60948 -17.55086,19.51547 -31.20575,22.32762 -3.00394,0.61864 -4.02562,0.68328 -14.08676,0.89126 -5.96635,0.12333 -12.25393,0.23294 -13.97238,0.24357 -1.74523,0.0108 -3.06044,0.12293 -2.97941,0.25403 0.0798,0.12909 -0.062,0.21839 -0.31512,0.19844 -0.39515,-0.0311 -0.47115,0.2567 -0.53786,2.037 -0.0427,1.14029 0.0168,2.01618 0.1323,1.94641 0.11548,-0.0698 0.23924,0.60461 0.27501,1.49861 0.0491,1.2276 -0.006,1.52832 -0.2234,1.22858 -0.23241,-0.31979 -0.25128,-0.2941 -0.0972,0.13229 0.10521,0.29105 0.25003,0.80047 0.32184,1.13206 0.0946,0.43664 0.2617,0.56127 0.60609,0.45197 0.3145,-0.0998 0.52347,0.01 0.61709,0.32315 0.17879,0.5988 0.0214,6.95656 -0.21153,8.54387 -0.20683,1.40961 0.0274,1.84506 1.11746,2.07694 0.7395,0.15731 0.7771,0.21488 0.43993,0.6735 -0.28518,0.38789 -0.8604,0.54471 -2.53948,0.69234 -2.56104,0.22517 -8.95676,0.23388 -13.060457,0.0178 z m 1.860745,-19.76156 c -0.618797,-0.6188 -0.852261,-0.2138 -0.256341,0.44468 0.274301,0.3031 0.541107,0.42396 0.592907,0.26857 0.0518,-0.15538 -0.0997,-0.47635 -0.336566,-0.71325 z m -158.605473,19.05708 c 0.0127,-0.30822 0.07539,-0.37092 0.159852,-0.15985 0.07643,0.191 0.06703,0.4192 -0.02089,0.50712 -0.08792,0.0879 -0.150453,-0.0684 -0.138964,-0.34727 z m -0.529167,-2.38125 c 0.0127,-0.30822 0.07539,-0.37092 0.159852,-0.15985 0.07643,0.191 0.06703,0.4192 -0.02089,0.50712 -0.08792,0.0879 -0.150452,-0.0683 -0.138964,-0.34727 z m -0.264583,-1.32291 c 0.0127,-0.30823 0.07539,-0.37092 0.159852,-0.15986 0.07643,0.191 0.06703,0.4192 -0.02089,0.50712 -0.08792,0.0879 -0.150453,-0.0684 -0.138964,-0.34726 z m 330.199979,-0.52917 c 0.0127,-0.30823 0.0754,-0.37092 0.15986,-0.15985 0.0764,0.19099 0.067,0.4192 -0.0209,0.50711 -0.0879,0.0879 -0.15046,-0.0684 -0.13897,-0.34726 z M -59.754054,263.525 c 0,-0.36381 0.06005,-0.51263 0.133452,-0.33073 0.0734,0.1819 0.0734,0.47955 0,0.66145 -0.0734,0.18191 -0.133452,0.0331 -0.133452,-0.33072 z m -0.244976,-2.11667 c 0,-0.50932 0.05445,-0.71768 0.121,-0.46302 0.06655,0.25466 0.06655,0.67138 0,0.92604 -0.06655,0.25466 -0.121,0.0463 -0.121,-0.46302 z M 271.23968,260.35 c 0,-0.36381 0.06,-0.51263 0.13345,-0.33073 0.0734,0.1819 0.0734,0.47955 0,0.66145 -0.0734,0.18191 -0.13345,0.0331 -0.13345,-0.33072 z m -331.489003,-1.7198 c 0.002,-0.7276 0.05337,-0.99385 0.114186,-0.59167 0.06081,0.40218 0.05919,0.9975 -0.0036,1.32292 -0.0628,0.32542 -0.11256,-0.004 -0.110574,-0.73125 z M 271.5935,149.48958 c 0,-59.445252 0.0303,-83.763767 0.0674,-54.041138 0.0371,29.722628 0.0371,78.359658 0,108.082288 -0.0371,29.72263 -0.0674,5.40411 -0.0674,-54.04115 z m -332.06837,95.38229 c -1.61e-4,-3.63802 0.0371,-5.163 0.08281,-3.38884 0.04571,1.77416 0.04584,4.75072 2.93e-4,6.61458 -0.04554,1.86387 -0.08294,0.41228 -0.0831,-3.22574 z m 200.46149,-5.53218 c 0.0606,-0.0595 1.65806,-0.60536 3.54983,-1.21297 4.2509,-1.36533 10.03085,-4.20229 13.36146,-6.55816 1.38245,-0.97787 3.76722,-3.02809 5.2995,-4.55606 6.2951,-6.27741 9.94899,-13.10466 12.53186,-23.41563 0.0729,-0.29104 0.0649,0.11927 -0.0178,0.9118 -0.47809,4.581 -3.64768,12.18441 -7.17512,17.21216 -6.18185,8.81114 -15.17806,14.9679 -25.30154,17.31569 -1.78299,0.41351 -2.45253,0.5038 -2.24816,0.30317 z m -200.485499,-7.69698 c 9.61e-4,-1.16417 0.04748,-1.60751 0.103369,-0.9852 0.05589,0.62231 0.05511,1.57481 -0.0017,2.11667 -0.05685,0.54185 -0.102583,0.0327 -0.101622,-1.13147 z m 304.058219,-4.82865 c 0.30505,-1.45285 0.9891,-3.64394 1.21424,-3.88937 0.13537,-0.14758 0.23057,0.0982 0.23057,0.59531 0,0.46566 -0.11906,0.84666 -0.26458,0.84666 -0.35827,0 -0.33674,1.14493 0.0284,1.51008 0.21426,0.21426 0.14316,0.37317 -0.26459,0.59139 -0.30666,0.16412 -0.55757,0.47281 -0.55757,0.68597 0,0.21316 -0.12133,0.38756 -0.26962,0.38756 -0.15479,0 -0.20456,-0.30991 -0.11686,-0.7276 z M -60.470635,212.725 c 0,-5.02047 0.03558,-7.0743 0.07907,-4.56406 0.04349,2.51023 0.04349,6.61789 0,9.12812 -0.04349,2.51023 -0.07907,0.45641 -0.07907,-4.56406 z m 306.130235,3.9026 c 0.62809,-6.52703 0.66623,-11.47337 0.52664,-68.30255 -0.0885,-36.03444 -0.25365,-61.630357 -0.40984,-63.526087 -0.76567,-9.292506 -3.72759,-19.590587 -8.463,-29.424288 -2.11649,-4.395174 -2.30675,-4.967433 -1.72567,-5.190414 0.42215,-0.161995 0.94976,0.511302 0.94976,1.212025 0,0.201566 0.47625,1.004803 1.05833,1.784971 0.58208,0.780167 1.05833,1.563755 1.05833,1.741304 0,0.377423 1.11544,2.842687 1.51172,3.341087 0.55556,0.69874 2.53025,5.480171 3.64765,8.832277 1.28188,3.845543 2.83014,9.892974 3.41464,13.337413 0.97837,5.765514 0.99072,6.725738 0.88787,69.056242 -0.0935,56.6882 -0.13351,61.19158 -0.56715,63.89688 -0.25659,1.60073 -0.63646,3.09838 -0.84417,3.32812 -0.2077,0.22974 -0.37764,0.61669 -0.37764,0.8599 0,0.2432 -0.18026,0.44218 -0.40057,0.44218 -0.32381,0 -0.37495,-0.26617 -0.2669,-1.38906 z m -282.648349,-8.18885 c -0.245087,-0.24509 -0.316733,-13.92803 -0.31414,-59.99427 0.0035,-62.762451 0.02521,-64.067114 1.181342,-71.102196 C -34.332942,66.4586 -29.85569,55.452455 -22.902558,44.846882 -17.391196,36.440433 -8.9239229,27.676394 -0.50907854,21.668542 10.6279,13.7172 23.468141,8.4740659 37.173956,6.2811999 l 3.704166,-0.5926492 51.858331,0.00105 c 55.916987,0.00113 66.071197,0.1265523 66.843687,0.8256394 0.35396,0.3203301 0.74052,0.3777632 1.60403,0.2383171 0.62573,-0.1010472 2.44321,-0.2410765 4.03883,-0.3111762 2.50988,-0.1102647 2.94514,-0.067282 3.22738,0.3187025 0.23533,0.3218366 1.06352,0.5346975 2.97217,0.7639096 1.45527,0.1747641 2.58553,0.2200127 2.5117,0.1005523 -0.0738,-0.1194603 0.15241,-0.2172006 0.50276,-0.2172006 0.90688,0 6.47942,1.2512673 7.66781,1.7217454 0.54865,0.2172066 1.32256,0.3990104 1.71979,0.4040085 0.90933,0.011441 5.11434,1.4577033 5.35083,1.8403523 0.0969,0.156833 0.3516,0.217855 0.56594,0.135605 0.74227,-0.284834 2.88365,0.904595 3.2141,1.785268 0.25081,0.66844 -0.38897,0.598916 -2.72007,-0.295587 C 186.43569,11.541692 179.35219,9.7137764 173.69895,8.7324598 170.01756,8.0934268 161.51796,7.6380653 156.23645,7.796916 153.32603,7.884452 126.29885,8.0530174 96.176036,8.1715059 36.268295,8.4071514 39.663933,8.3122081 32.279164,9.9580846 25.240782,11.52676 19.922195,13.43219 12.83229,16.925095 c -8.5847848,4.229371 -14.738559,8.60141 -21.792419,15.482744 -7.919684,7.725982 -13.315444,15.088843 -17.672467,24.115219 -4.75744,9.855912 -7.066179,18.515277 -7.750483,29.069655 -0.168826,2.603887 -0.326076,26.984387 -0.40854,63.341007 -0.09775,43.09685 -0.214418,59.2045 -0.430703,59.4651 -0.367573,0.4429 -1.341442,0.46491 -1.766427,0.0399 z m -23.518846,-6.95854 c 0.0015,-0.87313 0.05088,-1.19842 0.109766,-0.72287 0.05889,0.47555 0.05767,1.18993 -0.0027,1.5875 -0.06037,0.39758 -0.108551,0.008 -0.107066,-0.86463 z m 235.448745,0.79375 c 0.005,-0.43657 0.0647,-0.58313 0.13178,-0.3257 0.0671,0.25743 0.0627,0.61462 -0.01,0.79375 -0.0725,0.17913 -0.12736,-0.0315 -0.12197,-0.46805 z m -93.317197,-3.51405 c -0.505943,-0.68772 -0.534984,-1.24761 -0.66174,-12.75783 l -0.132574,-12.03854 -1.479149,-1.85208 c -4.084066,-5.11377 -6.235241,-9.85245 -7.263072,-15.99933 -0.643271,-3.84704 -0.425697,-9.43912 0.507756,-13.05032 2.025737,-7.83686 7.261354,-15.0166 14.320446,-19.63802 2.704402,-1.7705 4.191754,-2.51137 7.143749,-3.55839 11.750141,-4.16758 25.405601,-1.07134 34.840701,7.89977 2.29665,2.1837 2.7875,3.32244 0.56462,1.30989 -2.43361,-2.20336 -4.77845,-3.84771 -7.80641,-5.47435 -1.83155,-0.98393 -2.16136,-1.07653 -3.30729,-0.92863 -1.29927,0.16768 -2.57542,1.0088 -2.3645,1.55845 0.12027,0.3134 -0.50231,2.25455 -1.22767,3.82781 -0.23482,0.50932 -0.58295,1.45121 -0.77362,2.09309 -0.42842,1.4423 -1.17168,2.00362 -3.38937,2.5597 -2.10854,0.52871 -2.38125,0.73781 -2.38125,1.82579 v 0.85753 l -2.77366,0.1858 c -5.1623,0.3458 -8.425504,1.77274 -11.790072,5.15559 -5.02823,5.05556 -6.377993,12.17366 -3.441001,18.14645 1.165328,2.36986 3.457672,4.84694 5.676459,6.13391 l 1.297769,0.75275 -0.06527,6.87542 c -0.0359,3.78148 -0.15972,7.35167 -0.275155,7.93375 l -0.209881,1.05834 -0.03448,-1.45521 c -0.01896,-0.80036 -0.149894,-1.6338 -0.290958,-1.85208 -0.208672,-0.3229 -0.257236,-0.32758 -0.260532,-0.0251 -0.0031,0.28122 -0.136222,0.25212 -0.546873,-0.11951 -0.532804,-0.48218 -0.554602,-0.47684 -1.18111,0.28972 -0.351059,0.42953 -0.64257,0.93774 -0.647803,1.12935 -0.0052,0.19161 -0.307172,0.73863 -0.670974,1.2156 -0.363802,0.47697 -0.661458,1.00481 -0.661458,1.17297 0,0.16817 -0.104821,0.30576 -0.232935,0.30576 -0.264697,0 -2.677482,3.47818 -2.677482,3.85976 0,0.137 -0.509381,0.74275 -1.131959,1.3461 -0.622578,0.60336 -1.391812,1.61363 -1.70941,2.24505 -0.317597,0.63143 -0.989762,1.78478 -1.493699,2.56302 -0.503938,0.77823 -1.056718,2.00051 -1.228401,2.71616 -0.171683,0.71566 -0.521952,1.44814 -0.778376,1.62775 -0.453384,0.31756 -0.964167,1.84302 -0.840225,2.50934 0.08912,0.47915 -0.0291,0.40228 -0.623138,-0.40519 z M 36.249474,157.66962 c 0.0017,-37.66801 -0.02201,-36.97486 1.453657,-42.51913 2.11163,-7.93366 6.239497,-14.89107 12.390064,-20.88309 3.895057,-3.794655 9.062333,-7.392503 12.286879,-8.555056 l 0.723047,-0.260682 -0.661458,0.527663 c -0.363802,0.290215 -0.776135,0.530311 -0.916295,0.533547 -0.14016,0.0032 -1.805397,1.04768 -3.700526,2.320987 -4.021515,2.701991 -9.250862,7.695261 -12.122803,11.575521 -3.234782,4.37049 -5.850504,9.71185 -7.212589,14.72826 -1.575647,5.80293 -1.511363,4.19795 -1.684967,42.06908 -0.08783,19.16031 -0.248991,34.92617 -0.358131,35.03524 -0.109141,0.10908 -0.197736,-15.44848 -0.196878,-34.57234 z m 63.810396,30.82006 c -0.758698,-0.37808 -1.500639,-0.91386 -1.648762,-1.19063 -0.360707,-0.67398 -0.248625,-0.64462 1.361307,0.35668 1.356995,0.84398 1.449385,0.86157 4.992675,0.95024 4.01697,0.10052 5.38295,-0.14459 6.62363,-1.18856 0.9375,-0.78886 1.39343,-0.64042 0.63864,0.20792 -1.11604,1.25439 -2.3351,1.53971 -6.6051,1.54594 -3.76423,0.005 -4.0587,-0.0319 -5.36239,-0.68159 z m -160.532439,-7.77926 c 0,-4.29287 0.03639,-6.04904 0.08086,-3.90261 0.04447,2.14643 0.04447,5.65878 0,7.80521 -0.04447,2.14643 -0.08086,0.39026 -0.08086,-3.9026 z m -0.0099,-17.85938 c 3.35e-4,-2.32833 0.04081,-3.24541 0.08995,-2.03796 0.04914,1.20746 0.04886,3.11246 -6.09e-4,4.23334 -0.04947,1.12087 -0.08967,0.13296 -0.08934,-2.19538 z m 174.032819,3.33035 c 0.0485,-0.13285 0.97293,-0.87699 2.05428,-1.65365 1.14018,-0.81892 2.50171,-2.11305 3.24115,-3.08072 0.70128,-0.91773 1.27506,-1.50658 1.27506,-1.30857 0,0.52469 -1.35445,2.57364 -2.37509,3.59293 -1.63455,1.63239 -4.51,3.31158 -4.1954,2.45001 z M 7.85208,165.19097 c -0.518092,-0.51809 0.1915434,-0.61536 4.120315,-0.56478 l 4.299479,0.0554 -3.96875,0.15388 c -2.285781,0.0886 0.799662,0.15388 7.276041,0.15388 6.476379,0 9.561822,-0.0653 7.276041,-0.15388 l -3.968749,-0.15388 4.056944,-0.0554 c 3.147173,-0.0429 4.032233,0.0188 3.946751,0.27537 -0.0854,0.25631 -2.669802,0.34624 -11.48455,0.39965 -6.255897,0.0379 -11.4549817,-0.0117 -11.553522,-0.11024 z m 172.72822,-0.0447 c -0.074,-0.074 -0.13448,-0.23369 -0.13448,-0.35496 0,-0.12127 5.24867,-0.22049 11.66372,-0.22049 9.21338,0 11.64055,0.0695 11.55346,0.33073 -0.0858,0.25727 -2.64664,0.33611 -11.52924,0.35496 -6.28044,0.0133 -11.4795,-0.0363 -11.55346,-0.11024 z M 18.590616,164.64556 c 0.402183,-0.0608 0.997495,-0.0592 1.322916,0.004 0.325421,0.0628 -0.0036,0.11256 -0.731242,0.11057 -0.727604,-0.002 -0.993858,-0.0534 -0.591674,-0.11418 z m -79.086281,-17.40493 c -8.07e-4,-1.30969 0.04393,-1.87883 0.09942,-1.26476 0.05549,0.61408 0.05615,1.68564 0.0015,2.38125 -0.05468,0.69562 -0.100083,0.19319 -0.100889,-1.11649 z M 7.4083323,122.53012 c 0,-13.04777 0.1100524,-23.042337 0.2716731,-24.672395 C 8.585849,88.721661 11.828169,78.703125 16.530135,70.511464 27.74787,50.968176 46.219422,36.669159 66.410413,31.898632 c 6.847993,-1.617976 6.417913,-1.599893 38.099997,-1.601951 22.24632,-0.0014 29.61679,0.07829 31.75,0.343478 10.71789,1.332384 21.27254,5.183173 30.80232,11.238012 3.51165,2.231161 5.66646,3.894753 5.04478,3.894753 -0.0921,0 -1.11275,-0.654844 -2.26811,-1.455209 -1.15535,-0.800364 -2.1712,-1.455208 -2.25743,-1.455208 -0.0862,0 -1.42409,-0.753435 -2.97302,-1.6743 -4.87992,-2.901183 -9.38498,-4.905143 -14.93467,-6.643305 -3.98509,-1.248126 -8.27174,-2.194847 -10.63575,-2.348938 -1.01864,-0.0664 -2.14974,-0.198441 -2.51354,-0.29343 -0.3638,-0.09499 -2.15475,-0.244575 -3.97989,-0.332412 l -3.31843,-0.159705 -0.44894,0.685165 c -0.30231,0.461374 -0.35595,0.742633 -0.16425,0.861114 0.15658,0.09677 0.22594,0.400637 0.15412,0.675255 -0.0885,0.338644 0.0105,0.502875 0.30768,0.510397 0.27257,0.0069 0.13192,0.18195 -0.37202,0.46302 -1.41577,0.789653 -1.93562,1.258739 -2.21798,2.001406 -0.15125,0.397834 -0.60334,0.866796 -1.00463,1.042138 -0.40129,0.175342 -0.72962,0.497397 -0.72962,0.715679 0,0.218281 -0.26789,0.434921 -0.59531,0.481422 -0.43572,0.06188 -0.60581,0.274675 -0.63448,0.79375 -0.0358,0.647466 -0.0754,1.022713 -0.18656,1.767536 -0.0217,0.145521 -0.33701,0.610524 -0.70064,1.03334 -0.36362,0.422817 -0.66113,0.925166 -0.66113,1.116332 0,0.520919 -1.00858,2.353496 -1.57977,2.870411 -0.27566,0.249476 -0.44159,0.608957 -0.36872,0.798846 0.0729,0.189889 0.005,0.423854 -0.15014,0.519923 -0.15544,0.09607 -0.28262,0.392074 -0.28262,0.657791 0,0.265717 -0.30308,0.681706 -0.67351,0.924421 -0.37043,0.242714 -0.79291,0.702891 -0.93886,1.022617 -0.26678,0.584437 -1.38266,1.427913 -3.2082,2.425039 -0.54126,0.295641 -1.39421,0.924482 -1.89544,1.397425 -0.50123,0.472943 -1.16132,0.859896 -1.46687,0.859896 -0.30555,0 -0.76229,0.108532 -1.01498,0.241183 -0.25269,0.132651 -1.05474,0.414866 -1.78235,0.627144 -0.75362,0.219871 -1.32291,0.541516 -1.32291,0.747439 0,0.198813 -0.3242,0.516859 -0.72043,0.706769 -0.73183,0.350757 -1.822,1.357329 -3.2392,2.990805 l -0.78463,0.904368 -12.57683,0.16888 C 76.587701,61.59959 75.206101,61.714422 69.751521,63.100184 61.403058,65.22115 52.768261,70.244406 46.285897,76.751209 37.888886,85.179877 32.704975,95.794207 31.50105,107.02396 c -0.140409,1.30969 -0.27697,9.88219 -0.303467,19.05 -0.0265,9.16781 -0.107217,17.0557 -0.179375,17.52865 L 30.88701,144.4625 H 19.147671 7.4083323 Z m -67.9463333,20.74176 c 0.0054,-0.43657 0.06469,-0.58313 0.131774,-0.3257 0.06708,0.25743 0.06267,0.61462 -0.0098,0.79375 -0.07248,0.17913 -0.127362,-0.0315 -0.12197,-0.46805 z m 0.05491,-10.45104 c 0,-2.25558 0.04058,-3.17831 0.09018,-2.05053 0.0496,1.12779 0.0496,2.97326 0,4.10105 -0.0496,1.12778 -0.09018,0.20505 -0.09018,-2.05052 z m -0.04511,-5.55625 c 0,-0.50933 0.05445,-0.71769 0.121,-0.46302 0.06655,0.25466 0.06655,0.67138 0,0.92604 -0.06655,0.25466 -0.121,0.0463 -0.121,-0.46302 z M 174.11671,115.73316 c 0.0127,-0.30822 0.0754,-0.37092 0.15985,-0.15985 0.0764,0.191 0.067,0.4192 -0.0209,0.50712 -0.0879,0.0879 -0.15046,-0.0684 -0.13897,-0.34727 z m -1.06135,-3.36055 c -0.48532,-1.48655 -1.69991,-4.30333 -2.69909,-6.25951 -0.99918,-1.95618 -1.8136,-3.62306 -1.80981,-3.70417 0.004,-0.0811 0.5394,0.68597 1.19025,1.70462 1.14239,1.78794 3.46522,7.25008 4.09009,9.61785 0.56836,2.15364 0.11401,1.35337 -0.77144,-1.35879 z M -60.494199,103.1875 c 0,-1.38244 0.04459,-1.94799 0.0991,-1.25677 0.0545,0.69123 0.0545,1.82232 0,2.51354 -0.0545,0.69123 -0.0991,0.12568 -0.0991,-1.25677 z m 0.229162,-32.620318 c -0.06303,-31.094469 -0.03411,-32.045233 1.15701,-38.023424 3.706048,-18.600613 17.178515,-35.1357649 34.766361,-42.669771 5.108718,-2.188392 9.66368,-3.477086 15.3458325,-4.341658 2.8596003,-0.435104 9.66643767,-0.463812 113.1093735,-0.477039 l 110.06666,-0.01408 -110.06666,0.147138 c -102.5318498,0.13707 -110.2749595,0.17847 -113.1093735,0.604766 -13.0180445,1.957913 -24.2232415,7.5756891 -33.6143945,16.8527285 -8.750996,8.6446605 -14.342359,19.3706335 -16.688944,32.0145815 -0.613753,3.307046 -0.61381,3.309599 -0.759851,34.395832 l -0.146053,31.088544 z m 233.409677,-24.066654 -0.50402,-0.595313 0.66145,0.526347 c 0.36381,0.289491 0.71107,0.557382 0.7717,0.595313 0.0606,0.03793 -0.0102,0.06897 -0.15743,0.06897 -0.14722,0 -0.49448,-0.26789 -0.7717,-0.595312 z m 98.10484,-7.739062 c 0.005,-0.436563 0.0647,-0.583125 0.13178,-0.325694 0.0671,0.257431 0.0627,0.614618 -0.01,0.79375 -0.0725,0.179131 -0.12736,-0.03149 -0.12197,-0.468056 z m -45.16303,-1.719792 c 0.0899,-0.145521 0.27555,-0.264583 0.41249,-0.264583 0.13693,0 0.24896,0.119062 0.24896,0.264583 0,0.145521 -0.18562,0.264583 -0.41249,0.264583 -0.22687,0 -0.3389,-0.119062 -0.24896,-0.264583 z m 44.86776,-0.683507 c 0.0127,-0.308224 0.0754,-0.370919 0.15985,-0.159852 0.0764,0.190996 0.067,0.419199 -0.0209,0.507118 -0.0879,0.08792 -0.15045,-0.06835 -0.13896,-0.347266 z m -0.26459,-1.852083 c 0.0127,-0.308225 0.0754,-0.370919 0.15986,-0.159853 0.0764,0.190997 0.067,0.4192 -0.0209,0.507119 -0.0879,0.08792 -0.15046,-0.06835 -0.13897,-0.347266 z m -0.26458,-1.322917 c 0.0127,-0.308224 0.0754,-0.370919 0.15985,-0.159852 0.0764,0.190996 0.067,0.419199 -0.0209,0.507118 -0.0879,0.08792 -0.15045,-0.06835 -0.13896,-0.347266 z m -0.26458,-1.322916 c 0.0127,-0.308225 0.0754,-0.370919 0.15985,-0.159853 0.0764,0.190996 0.067,0.419199 -0.0209,0.507118 -0.0879,0.08792 -0.15045,-0.06835 -0.13896,-0.347265 z m -58.0688,-7.408393 c -0.0989,-0.257682 -0.0397,-0.378641 0.15359,-0.314193 0.39551,0.131836 0.61328,0.733176 0.26551,0.733176 -0.14208,0 -0.33067,-0.188542 -0.4191,-0.418983 z m -1.35105,-0.903933 c -0.0899,-0.145521 -0.0374,-0.264584 0.11668,-0.264584 0.15411,0 0.2802,0.119063 0.2802,0.264584 0,0.145521 -0.0525,0.264583 -0.11668,0.264583 -0.0642,0 -0.19026,-0.119062 -0.2802,-0.264583 z m -2.91041,-2.116667 c -0.0899,-0.145521 -0.0445,-0.264583 0.10106,-0.264583 0.14552,0 0.33817,0.119062 0.4281,0.264583 0.0899,0.145521 0.0445,0.264584 -0.10106,0.264584 -0.14552,0 -0.33817,-0.119063 -0.4281,-0.264584 z m -1.45521,-0.730105 c 0,-0.110516 0.22511,-0.34152 0.50024,-0.513342 0.39698,-0.247919 0.60178,-0.230922 0.99218,0.08235 0.46807,0.375587 0.46305,0.386798 -0.10336,0.23093 -0.34786,-0.09573 -0.59531,-0.04643 -0.59531,0.118592 0,0.155327 -0.1786,0.282413 -0.39688,0.282413 -0.21828,0 -0.39687,-0.09042 -0.39687,-0.200939 z m 59.30964,-1.794768 c -0.44331,-0.972951 -0.35873,-1.180516 0.12061,-0.296006 0.22385,0.413047 0.35748,0.800503 0.29697,0.861014 -0.0605,0.06051 -0.24842,-0.193743 -0.41758,-0.565008 z m -1.10131,-2.237627 c -0.15576,-0.291041 -0.22367,-0.529166 -0.15091,-0.529166 0.0728,0 0.25973,0.238125 0.41549,0.529166 0.15576,0.291042 0.22367,0.529167 0.15091,0.529167 -0.0728,0 -0.25973,-0.238125 -0.41549,-0.529167 z m -1.32292,-2.381249 c -0.15576,-0.291042 -0.22367,-0.529167 -0.15091,-0.529167 0.0728,0 0.25973,0.238125 0.4155,0.529167 0.15576,0.291041 0.22367,0.529166 0.15091,0.529166 -0.0728,0 -0.25974,-0.238125 -0.4155,-0.529166 z m -2.67958,-4.167188 c -0.32911,-0.4196436 -0.31975,-0.429002 0.0999,-0.0999 0.25467,0.19972 0.46303,0.408079 0.46303,0.463021 0,0.217761 -0.21728,0.0776 -0.56292,-0.363126 z m -0.79375,-1.058333 c -0.32911,-0.4196438 -0.31975,-0.4290022 0.0999,-0.099895 0.44073,0.3456436 0.58089,0.5629156 0.36313,0.5629156 -0.0549,0 -0.2633,-0.2083593 -0.46302,-0.4630208 z m -0.79375,-1.0583333 c -0.32911,-0.4196438 -0.31975,-0.4290022 0.0999,-0.099895 0.25467,0.1997193 0.46303,0.4080787 0.46303,0.4630208 0,0.2177611 -0.21728,0.077603 -0.56292,-0.363126 z m -1.05833,-1.3229166 c -0.32911,-0.4196438 -0.31975,-0.4290022 0.0999,-0.099895 0.44073,0.3456437 0.58089,0.5629157 0.36313,0.5629157 -0.0549,0 -0.2633,-0.2083594 -0.46302,-0.4630209 z m -1.568,-1.8520832 -0.9118,-0.9921874 0.99219,0.9117982 c 0.92351,0.848682 1.11384,1.0725767 0.9118,1.0725767 -0.0442,0 -0.4907,-0.4464844 -0.99219,-0.9921875 z m -4.62841,-4.63020808 -1.04589,-1.12447911 1.12448,1.04588404 c 0.61847,0.57523622 1.12448,1.08125185 1.12448,1.12447915 0,0.2001777 -0.23041,-1.297e-4 -1.20307,-1.04588408 z m -1.99195,-1.71979162 -0.64144,-0.7276041 0.72761,0.6414331 c 0.40018,0.3527881 0.7276,0.68021 0.7276,0.72760409 0,0.20750592 -0.21426,0.0386226 -0.81377,-0.64143309 z m -1.33664,-1.0583332 c -0.32911,-0.4196439 -0.31975,-0.4290023 0.0999,-0.099895 0.44073,0.3456437 0.58089,0.5629157 0.36313,0.5629157 -0.0549,0 -0.2633,-0.2083594 -0.46302,-0.4630208 z m -1.05834,-0.79375 c -0.3291,-0.4196439 -0.31974,-0.4290023 0.0999,-0.099895 0.44073,0.3456436 0.58089,0.5629156 0.36312,0.5629156 -0.0549,0 -0.2633,-0.2083593 -0.46302,-0.4630206 z m -1.05833,-0.79375 c -0.32911,-0.4196438 -0.31975,-0.4290022 0.0999,-0.099895 0.44072,0.3456437 0.58088,0.5629157 0.36312,0.5629157 -0.0549,0 -0.2633,-0.2083594 -0.46302,-0.4630207 z m -7.37458,-4.2994789 c -0.80037,-0.4228318 -1.36196,-0.7744022 -1.24798,-0.7812676 0.28119,-0.016937 2.83548,1.2867332 2.83548,1.447183 0,0.1767529 0.0367,0.1921466 -1.5875,-0.6659154 z m -13.54336,-4.9432401 c 0.19099,-0.07643 0.4192,-0.06703 0.50712,0.02089 0.0879,0.08792 -0.0683,0.150453 -0.34727,0.138964 -0.30822,-0.0127 -0.37092,-0.07539 -0.15985,-0.159852 z m -1.33945,-0.259071 c 0.1819,-0.0734 0.47955,-0.0734 0.66145,0 0.1819,0.0734 0.0331,0.133452 -0.33073,0.133452 -0.3638,0 -0.51263,-0.06005 -0.33072,-0.133452 z m -1.32292,-0.264584 c 0.1819,-0.0734 0.47956,-0.0734 0.66146,0 0.1819,0.0734 0.0331,0.133452 -0.33073,0.133452 -0.3638,0 -0.51263,-0.06005 -0.33073,-0.133452 z m -1.71476,-0.272708 c 0.25743,-0.06708 0.61462,-0.06267 0.79375,0.0098 0.17913,0.07248 -0.0315,0.127362 -0.46805,0.12197 -0.43657,-0.0054 -0.58313,-0.06469 -0.3257,-0.131773 z m -2.1217,-0.263614 c 0.25466,-0.06655 0.67138,-0.06655 0.92604,0 0.25466,0.06655 0.0463,0.121 -0.46302,0.121 -0.50932,0 -0.71768,-0.05445 -0.46302,-0.121 z m -2.90678,-0.272059 c 0.40218,-0.06082 0.9975,-0.05919 1.32292,0.0036 0.32542,0.0628 -0.004,0.112561 -0.73124,0.110574 -0.72761,-0.002 -0.99386,-0.05337 -0.59168,-0.114185 z"
         id="path3" /><path
         style="fill:#11da74"
         d="m 136.31333,293.10541 c -0.42108,-0.42107 -0.403,-1.13425 0.038,-1.50027 0.24845,-0.2062 4.89021,-0.33129 15.41197,-0.41533 18.03075,-0.14403 20.80623,-0.38624 29.07937,-2.53776 8.51269,-2.21381 15.48469,-5.17382 23.24403,-9.86842 15.49956,-9.37763 28.72498,-24.91896 35.83819,-42.11384 1.06121,-2.56528 2.26475,-6.00456 3.56465,-10.18646 0.0679,-0.21828 0.0822,-0.0694 0.0318,0.33073 -0.0503,0.40018 0.0246,0.7276 0.16644,0.7276 0.14188,0 0.25797,-0.1744 0.25797,-0.38756 0,-0.21316 0.25091,-0.52185 0.55757,-0.68597 0.40775,-0.21822 0.47885,-0.37713 0.26459,-0.59139 -0.37656,-0.37656 -0.38008,-1.43695 -0.005,-1.56191 0.15829,-0.0528 0.24018,-0.44964 0.18198,-0.88194 l -0.10581,-0.78602 -0.2975,0.66146 c -0.44247,0.98378 -0.39075,0.37557 0.19239,-2.26236 0.2879,-1.30232 0.52602,-2.68824 0.52917,-3.07984 0.003,-0.39159 0.11369,-0.77871 0.24564,-0.86026 0.13194,-0.0816 0.17759,0.09 0.10143,0.38126 -0.0963,0.36839 -0.008,0.52953 0.28926,0.52953 0.24204,0 0.42773,-0.21565 0.42773,-0.49677 0,-0.27322 0.17859,-0.64498 0.39687,-0.82614 0.55679,-0.46209 0.52777,-0.0523 -0.27864,3.9355 -3.55913,17.60047 -12.35334,33.68333 -25.77812,47.14309 -4.13637,4.14715 -7.41552,6.94599 -11.66878,9.95963 -12.08419,8.56221 -25.12077,13.62567 -39.39887,15.30268 -4.36601,0.5128 -32.78375,0.57321 -33.2862,0.0708 z m -23.07167,-23.47197 c -3.32016,-0.13442 -3.57902,-0.17425 -1.92351,-0.29596 1.49182,-0.10968 1.99722,-0.2553 2.29577,-0.66146 0.35533,-0.48341 0.32475,-0.53317 -0.42579,-0.69283 -1.09001,-0.23188 -1.32429,-0.66733 -1.11746,-2.07694 0.23292,-1.58731 0.39032,-7.94507 0.21153,-8.54387 -0.0936,-0.31354 -0.30259,-0.42297 -0.61709,-0.32315 -0.34439,0.1093 -0.51153,-0.0153 -0.60609,-0.45197 -0.0718,-0.33159 -0.21663,-0.84101 -0.32184,-1.13206 -0.15412,-0.42639 -0.13525,-0.45208 0.0972,-0.13229 0.21784,0.29974 0.27252,-9.8e-4 0.2234,-1.22858 -0.0358,-0.894 -0.15953,-1.56838 -0.27501,-1.49861 -0.11549,0.0698 -0.17502,-0.80612 -0.1323,-1.94641 0.0667,-1.7803 0.14271,-2.06815 0.53786,-2.037 0.2531,0.0199 0.3949,-0.0694 0.31512,-0.19844 -0.081,-0.1311 1.23418,-0.24324 2.97941,-0.25403 1.71845,-0.0106 8.00603,-0.12024 13.97238,-0.24357 10.06114,-0.20798 11.08282,-0.27262 14.08676,-0.89126 12.61134,-2.59724 23.67469,-10.03001 29.90891,-20.09394 1.11973,-1.80758 1.37935,-2.49394 0.81032,-2.14227 -0.19077,0.11791 -0.23358,0.0725 -0.11401,-0.12099 0.1053,-0.17038 0.29632,-0.24497 0.42448,-0.16576 0.12817,0.0792 0.36226,-0.0974 0.5202,-0.39256 0.16429,-0.30699 0.18086,-0.53658 0.0387,-0.53658 -0.13664,0 0.0887,-0.62507 0.50075,-1.38906 2.07031,-3.83855 4.08779,-9.83512 4.87362,-14.48593 0.67127,-3.97279 0.7241,-5.42869 0.79715,-21.96762 0.0395,-8.94557 0.088,-17.21717 0.10776,-18.38134 l 0.0359,-2.11667 h 11.65441 11.65442 l -0.0927,21.56354 c -0.1019,23.70291 -0.0518,22.8891 -1.83112,29.76563 -2.35576,9.10449 -6.56261,17.50008 -12.92624,25.79687 -2.70844,3.5312 -9.82232,10.52856 -13.52209,13.30059 -7.91141,5.92758 -16.06653,9.97419 -24.65361,12.23322 -6.32611,1.66424 -7.69237,1.78215 -21.34762,1.84236 -6.76672,0.0298 -14.02953,-0.0156 -16.13958,-0.10106 z M 75.600614,240.4881 c -7.181645,-0.77641 -14.739863,-3.88532 -21.228742,-8.73199 -9.061259,-6.76802 -14.983233,-15.95658 -17.350912,-26.92175 -0.63511,-2.94131 -0.937426,-9.96591 -0.577052,-13.40832 0.209406,-2.00031 0.232815,-1.83306 0.425855,3.04271 0.245957,6.21232 0.493362,8.21234 1.495799,12.09202 3.247712,12.56945 11.884679,23.06365 23.679226,28.77106 4.915532,2.37864 8.954587,3.62658 13.23746,4.08997 1.305126,0.14121 14.398268,0.33746 29.095872,0.43611 28.06382,0.18838 30.31671,0.1272 35.43385,-0.96223 2.52998,-0.53863 3.37909,-0.52469 1.28722,0.0211 -0.6968,0.18181 -1.12518,0.38324 -0.95195,0.44763 0.17323,0.0644 0.76854,-0.009 1.32292,-0.16284 0.55438,-0.15395 1.18655,-0.26992 1.40483,-0.25772 0.55484,0.031 -1.81807,0.67339 -4.49791,1.21765 -2.04094,0.4145 -4.9532,0.461 -31.48542,0.50272 -16.080051,0.0253 -30.161022,-0.054 -31.291046,-0.17615 z m 68.812266,-2.01468 c 0.191,-0.0764 0.4192,-0.067 0.50712,0.0209 0.0879,0.0879 -0.0683,0.15045 -0.34727,0.13897 -0.30822,-0.0127 -0.37091,-0.0754 -0.15985,-0.15986 z m 99.291,-13.18071 c 0.0276,-0.50118 0.46852,-1.34511 0.48388,-0.92605 0.008,0.21829 -0.10088,0.57547 -0.24194,0.79375 -0.14106,0.21829 -0.24994,0.27782 -0.24194,0.1323 z m 1.85033,-9.28247 c 0.0127,-0.30822 0.0754,-0.37092 0.15985,-0.15985 0.0764,0.19099 0.067,0.4192 -0.0209,0.50712 -0.0879,0.0879 -0.15045,-0.0683 -0.13896,-0.34727 z m 1.60839,-0.37483 c 0,-0.3638 0.06,-0.51263 0.13345,-0.33072 0.0734,0.1819 0.0734,0.47955 0,0.66145 -0.0734,0.1819 -0.13345,0.0331 -0.13345,-0.33073 z m 0.24369,-2.00642 c 0.0127,-0.30822 0.0754,-0.37092 0.15985,-0.15985 0.0764,0.19099 0.067,0.4192 -0.0209,0.50712 -0.0879,0.0879 -0.15046,-0.0684 -0.13897,-0.34727 z M 90.752078,202.15276 c -6.206215,-0.13728 -6.524648,-0.16972 -7.47682,-0.76172 -1.314739,-0.81743 -2.325556,-2.55501 -2.27042,-3.90283 l 0.04234,-1.03509 0.11048,0.91041 c 0.06076,0.50073 0.350919,1.2151 0.64479,1.5875 0.293871,0.3724 0.500293,0.4985 0.458716,0.28022 -0.137095,-0.71976 0.35154,-2.24306 0.826149,-2.57549 0.256424,-0.17961 0.606693,-0.91209 0.778376,-1.62775 0.171683,-0.71565 0.724463,-1.93793 1.228401,-2.71616 0.503937,-0.77824 1.176102,-1.93159 1.493699,-2.56302 0.317598,-0.63142 1.086832,-1.64169 1.70941,-2.24505 0.622578,-0.60335 1.131959,-1.2091 1.131959,-1.3461 0,-0.38158 2.412785,-3.85976 2.677482,-3.85976 0.128114,0 0.232935,-0.13759 0.232935,-0.30576 0,-0.16816 0.297656,-0.696 0.661458,-1.17297 0.363802,-0.47697 0.66574,-1.02399 0.670974,-1.2156 0.0052,-0.19161 0.296744,-0.69982 0.647803,-1.12935 0.626508,-0.76656 0.648306,-0.7719 1.18111,-0.28972 0.410651,0.37163 0.543808,0.40073 0.546873,0.11951 0.0033,-0.30244 0.05186,-0.29776 0.260532,0.0251 0.141064,0.21828 0.271995,1.05172 0.290958,1.85208 l 0.03448,1.45521 0.218908,-1.05834 c 0.1204,-0.58208 0.250444,-3.91583 0.288988,-7.40833 l 0.07008,-6.35 0.150094,8.99584 c 0.115616,6.92935 0.23563,9.17816 0.522449,9.78958 0.204795,0.43656 0.394946,1.02229 0.422559,1.30162 0.05874,0.59422 0.636995,1.07941 2.102529,1.76415 1.54246,0.72068 8.49046,0.72655 10.05417,0.008 1.09898,-0.50465 2.05444,-1.38301 1.94101,-1.78438 -0.036,-0.12735 0.1674,-0.64827 0.45198,-1.15759 0.48101,-0.86087 0.52297,-1.5713 0.59622,-10.09481 l 0.0788,-9.16876 0.58266,-0.15381 c 1.72152,-0.45444 5.54159,-4.30526 5.89882,-5.94629 0.0835,-0.38378 0.44418,-1.53122 0.80142,-2.54987 1.26749,-3.61414 1.26347,-8.37167 -0.01,-11.50499 -1.80754,-4.44838 -5.83244,-8.1768 -10.42801,-9.65986 -0.77534,-0.25022 -2.32315,-0.60867 -3.43958,-0.79657 l -2.02986,-0.34162 1.65364,-0.0271 1.65365,-0.0271 v -0.89365 c 0,-1.12605 0.26122,-1.33029 2.38125,-1.86189 2.21769,-0.55608 2.96095,-1.1174 3.38937,-2.5597 0.19067,-0.64188 0.5388,-1.58377 0.77362,-2.09309 0.72536,-1.57326 1.34794,-3.51441 1.22767,-3.82781 -0.21092,-0.54965 1.06523,-1.39077 2.3645,-1.55845 1.14593,-0.1479 1.47574,-0.0553 3.30729,0.92863 3.01567,1.62004 5.57055,3.40628 7.61886,5.3267 0.59759,0.56028 1.2691,1.04549 1.49224,1.07824 0.81915,0.12022 3.4632,3.9186 4.97668,7.14937 2.20626,4.70964 3.16018,9.07546 3.16018,14.4632 0,7.37285 -2.10359,13.72021 -6.46651,19.51204 l -1.96641,2.61043 -0.083,12.28226 c -0.082,12.13748 -0.09,12.29533 -0.67589,13.39141 -0.6596,1.23401 -1.85678,2.23537 -3.21692,2.69077 -0.93564,0.31326 -22.4406,0.34191 -35.745412,0.0476 z m -9.944846,-10.72672 c 2.77e-4,-2.61937 0.03987,-3.65515 0.08799,-2.30172 0.04812,1.35343 0.04789,3.49655 -5.04e-4,4.7625 -0.04839,1.26595 -0.08776,0.1586 -0.08749,-2.46078 z M 19.248436,144.52872 30.956248,144.457 v -0.65871 c 0,-0.36229 0.132949,-0.6587 0.295442,-0.6587 0.177266,0 0.231627,0.23812 0.135904,0.59531 -0.08775,0.32742 -0.161163,0.68461 -0.16315,0.79375 -0.002,0.10914 -5.331659,0.16994 -11.843716,0.13511 l -11.840104,-0.0633 z m 161.109194,0.022 c -0.097,-0.097 -0.17639,-7.57728 -0.17639,-16.6228 0,-9.66173 -0.11638,-17.63872 -0.2821,-19.33663 -0.54309,-5.56406 -1.72154,-10.206738 -3.82293,-15.061057 -2.75866,-6.372643 -5.82344,-10.928644 -10.65593,-15.84074 -7.89552,-8.025591 -17.7254,-13.072289 -29.55675,-15.174549 -2.42682,-0.431212 -5.0111,-0.470126 -31.22083,-0.470126 H 76.067704 l -3.439583,0.739156 c -8.316215,1.787131 -15.418631,5.124608 -21.791125,10.239811 -2.858188,2.294268 -7.299926,6.757319 -9.019937,9.063219 -0.624143,0.836745 -1.190332,1.521354 -1.258198,1.521354 -0.22347,0 1.490926,-2.208869 3.568359,-4.59756 6.475494,-7.445704 16.288534,-13.538799 25.624301,-15.910594 5.45458,-1.385762 6.83618,-1.500594 20.215929,-1.680256 l 12.57683,-0.16888 0.78463,-0.904368 c 1.4172,-1.633476 2.50737,-2.640048 3.2392,-2.990805 0.39623,-0.18991 0.72043,-0.507956 0.72043,-0.706769 0,-0.205923 0.56929,-0.527568 1.32291,-0.747439 0.72761,-0.212278 1.52966,-0.494493 1.78235,-0.627144 0.25269,-0.132651 0.70943,-0.241183 1.01498,-0.241183 0.30555,0 0.96564,-0.386953 1.46687,-0.859896 0.50123,-0.472943 1.35418,-1.101784 1.89544,-1.397425 1.82554,-0.997126 2.94142,-1.840602 3.2082,-2.425039 0.14595,-0.319726 0.56843,-0.779903 0.93886,-1.022617 0.37043,-0.242715 0.67351,-0.658704 0.67351,-0.924421 0,-0.265717 0.12718,-0.561723 0.28262,-0.657791 0.15544,-0.09607 0.223,-0.330034 0.15014,-0.519923 -0.0729,-0.189889 0.0931,-0.54937 0.36872,-0.798846 0.57119,-0.516915 1.57977,-2.349492 1.57977,-2.870411 0,-0.191166 0.29751,-0.693515 0.66113,-1.116332 0.36363,-0.422816 0.67891,-0.887819 0.70064,-1.03334 0.11119,-0.744823 0.15079,-1.12007 0.18656,-1.767536 0.0287,-0.519075 0.19876,-0.731868 0.63448,-0.79375 0.32742,-0.0465 0.59531,-0.263141 0.59531,-0.481422 0,-0.218282 0.32833,-0.540337 0.72962,-0.715679 0.40129,-0.175342 0.85338,-0.644304 1.00463,-1.042138 0.28236,-0.742667 0.80221,-1.211753 2.21798,-2.001406 0.50394,-0.28107 0.64459,-0.456123 0.37202,-0.46302 -0.29723,-0.0075 -0.39623,-0.171753 -0.30768,-0.510397 0.0718,-0.274618 0.002,-0.578483 -0.15412,-0.675255 -0.1917,-0.118481 -0.13806,-0.39974 0.16425,-0.861114 l 0.44894,-0.685165 3.31843,0.159705 c 1.82514,0.08784 3.61609,0.237423 3.97989,0.332412 0.3638,0.09499 1.4949,0.227033 2.51354,0.29343 2.36401,0.154091 6.65066,1.100812 10.63575,2.348938 5.54969,1.738162 10.05475,3.742122 14.93467,6.643305 1.54893,0.920865 2.88679,1.6743 2.97302,1.6743 0.0862,0 1.10208,0.654844 2.25743,1.455208 2.19016,1.517218 2.71845,1.767984 2.10601,0.99966 -0.64394,-0.807827 3.49051,2.504558 6.54106,5.240488 9.49044,8.511639 16.74808,19.430849 21.288,32.028056 1.31957,3.6615 2.24185,7.160229 3.0942,11.738044 l 0.68969,3.704166 0.0974,23.349481 0.0974,23.34948 h -11.6096 c -6.38528,0 -11.68898,-0.0794 -11.78599,-0.17639 z m -6.28386,-97.523825 c -0.0606,-0.03793 -0.40789,-0.305822 -0.7717,-0.595313 l -0.66145,-0.526347 0.50402,0.595313 c 0.27722,0.327422 0.62448,0.595312 0.7717,0.595312 0.14722,0 0.21807,-0.03103 0.15743,-0.06897 z M 31.038234,140.89063 c 0.0015,-0.87313 0.05088,-1.19842 0.109766,-0.72287 0.05889,0.47555 0.05767,1.18993 -0.0027,1.5875 -0.06037,0.39758 -0.108551,0.008 -0.107066,-0.86463 z m 71.570486,-5.07554 c 0.19099,-0.0764 0.4192,-0.067 0.50712,0.0209 0.0879,0.0879 -0.0684,0.15046 -0.34727,0.13897 -0.30822,-0.0127 -0.37092,-0.0754 -0.15985,-0.15986 z M -34.904111,120.76025 c 0.0127,-0.30823 0.07539,-0.37092 0.159853,-0.15986 0.07643,0.191 0.06703,0.4192 -0.02089,0.50712 -0.08792,0.0879 -0.150453,-0.0684 -0.138965,-0.34726 z m 0.04584,-6.32796 c 0.0029,-0.58208 0.05712,-0.78905 0.120406,-0.45993 0.06329,0.32912 0.06088,0.80537 -0.0053,1.05833 -0.06622,0.25297 -0.118003,-0.0163 -0.115066,-0.5984 z m 66.180115,-2.91041 c 5.23e-4,-1.74625 0.04334,-2.42619 0.09516,-1.51099 0.05181,0.91521 0.05138,2.34396 -9.51e-4,3.175 -0.05234,0.83104 -0.09473,0.0822 -0.09421,-1.66401 z m -66.156137,-1.05833 c 9.61e-4,-1.16417 0.04748,-1.60751 0.103369,-0.9852 0.05589,0.62231 0.05511,1.57481 -0.0017,2.11667 -0.05685,0.54185 -0.102583,0.0327 -0.101622,-1.13147 z m 66.386435,-3.70417 c 0.0029,-0.58208 0.05712,-0.78906 0.120406,-0.45994 0.06329,0.32912 0.06088,0.80537 -0.0053,1.05834 -0.06622,0.25296 -0.118003,-0.0163 -0.115066,-0.5984 z m 0.259244,-1.98438 c 0,-0.50932 0.05445,-0.71768 0.121,-0.46302 0.06655,0.25466 0.06655,0.67138 0,0.92604 -0.06655,0.25467 -0.121,0.0463 -0.121,-0.46302 z m 0.244975,-1.5875 c 0,-0.3638 0.06005,-0.51263 0.133452,-0.33073 0.0734,0.18191 0.0734,0.47956 0,0.66146 -0.0734,0.1819 -0.133452,0.0331 -0.133452,-0.33073 z M 167.63421,101.43211 C 162.91723,93.976177 153.933,87.194072 144.67086,84.097314 c -6.63061,-2.21692 -5.81719,-2.150812 -27.85733,-2.264007 -25.056169,-0.128686 -41.189334,0.210341 -44.185409,0.928523 -3.122646,0.748522 -5.871776,1.609224 -7.52895,2.357175 -0.806786,0.364136 -1.883602,0.833159 -2.392925,1.042273 l -0.926042,0.380207 0.661459,-0.551897 0.661458,-0.551897 -0.992187,0.394739 c -1.614041,0.642143 -1.131136,0.186973 0.666284,-0.628016 2.833814,-1.284912 6.941561,-2.609431 9.912953,-3.196372 2.806717,-0.554413 3.289994,-0.562437 33.050799,-0.54877 20.09083,0.0092 30.80913,0.10871 32.01458,0.297145 4.71285,0.736712 10.4741,2.743221 14.76251,5.141439 2.84393,1.590411 6.93585,4.807974 9.93966,7.815747 2.73416,2.737764 6.51683,7.543617 6.12713,7.784467 -0.10924,0.0675 -0.53703,-0.41217 -0.95064,-1.06596 z m -135.313269,0.43248 c 0,-0.3638 0.06005,-0.51263 0.133452,-0.33073 0.0734,0.1819 0.0734,0.47956 0,0.66146 -0.0734,0.1819 -0.133452,0.0331 -0.133452,-0.33073 z m 0.267777,-1.19063 c -0.0043,-0.29104 0.09455,-0.767289 0.219613,-1.058331 0.289721,-0.674218 0.289721,0.02139 0,0.926041 -0.170293,0.53174 -0.213361,0.55769 -0.219613,0.13229 z m -67.452333,-3.307289 c 0,-0.509323 0.05445,-0.717682 0.121,-0.463021 0.06655,0.254662 0.06655,0.67138 0,0.926042 -0.06655,0.254661 -0.121,0.0463 -0.121,-0.463021 z m 68.22376,0.529167 c -0.008,-0.218282 0.100872,-0.575469 0.241936,-0.79375 0.312558,-0.48365 0.312558,-0.0659 0,0.661458 -0.149935,0.348917 -0.232345,0.393979 -0.241936,0.132292 z m 0.922765,-2.645834 c 0.09731,-0.363802 0.287276,-0.840052 0.422143,-1.058333 0.17042,-0.275825 0.191247,-0.195124 0.06828,0.264583 -0.09731,0.363802 -0.287276,0.840052 -0.422142,1.058334 -0.170421,0.275824 -0.191248,0.195124 -0.06828,-0.264584 z m 0.660839,-1.719791 c 0,-0.145521 0.170155,-0.56224 0.378124,-0.926042 0.207968,-0.363802 0.378123,-0.542396 0.378123,-0.396875 0,0.145521 -0.170155,0.56224 -0.378123,0.926042 -0.207969,0.363802 -0.378124,0.542396 -0.378124,0.396875 z m 19.295831,-2.08427 c 0,-0.05494 0.208359,-0.263302 0.463021,-0.463021 0.419644,-0.329107 0.429002,-0.319749 0.09989,0.0999 -0.345644,0.440729 -0.562916,0.580887 -0.562916,0.363126 z M 37.438539,88.370838 c 0.225755,-0.436562 0.469995,-0.79375 0.542756,-0.79375 0.07276,0 -0.05242,0.357188 -0.278173,0.79375 -0.225755,0.436562 -0.469995,0.79375 -0.542755,0.79375 -0.07276,0 0.05242,-0.357188 0.278172,-0.79375 z m -72.057178,0 c 0,-0.363802 0.06005,-0.51263 0.133452,-0.330729 0.0734,0.181901 0.0734,0.479557 0,0.661458 -0.0734,0.181901 -0.133452,0.03307 -0.133452,-0.330729 z m 93.356135,-0.113674 c 0,-0.07276 0.238125,-0.259732 0.529167,-0.415493 0.291042,-0.15576 0.529167,-0.22367 0.529167,-0.150909 0,0.07276 -0.238125,0.259732 -0.529167,0.415493 -0.291042,0.15576 -0.529167,0.22367 -0.529167,0.150909 z m 1.532398,-1.010335 c 0.269009,-0.32431 0.271857,-0.435337 0.01338,-0.521496 -0.213698,-0.07123 -0.16655,-0.171571 0.134991,-0.287283 0.301753,-0.115793 0.40089,-0.0767 0.284217,0.112081 -0.119609,0.193533 0.0077,0.230574 0.383134,0.111432 0.846851,-0.26878 0.675363,0.04973 -0.297596,0.552741 -0.733812,0.379372 -0.809783,0.384141 -0.518123,0.03253 z M 38.364581,86.783338 c 0.15576,-0.291042 0.342732,-0.529167 0.415493,-0.529167 0.07276,0 0.0049,0.238125 -0.15091,0.529167 -0.155761,0.291042 -0.342733,0.529167 -0.415493,0.529167 -0.07276,0 -0.0049,-0.238125 0.15091,-0.529167 z m 0.977229,-1.607842 c 0.262888,-0.447751 0.647053,-0.953766 0.853699,-1.124479 0.206645,-0.170713 0.042,0.195629 -0.365889,0.814092 -0.856459,1.298625 -1.194216,1.513535 -0.48781,0.310387 z m -76.362587,-1.456915 c 0.0127,-0.308224 0.07539,-0.370919 0.159852,-0.159852 0.07643,0.190996 0.06703,0.419199 -0.02089,0.507118 -0.08792,0.08792 -0.150453,-0.06835 -0.138964,-0.347266 z m 2.910416,-2.645833 c 0.0127,-0.308224 0.07539,-0.370919 0.159853,-0.159852 0.07643,0.190996 0.06703,0.419199 -0.02089,0.507118 -0.08792,0.08792 -0.150453,-0.06835 -0.138965,-0.347266 z M 245.02504,71.018582 c 0.0127,-0.308224 0.0754,-0.370919 0.15985,-0.159852 0.0764,0.190996 0.067,0.419199 -0.0209,0.507118 -0.0879,0.08792 -0.15046,-0.06835 -0.13897,-0.347266 z m -0.92803,-2.907267 c -0.0973,-0.38775 -0.12592,-0.756027 -0.0636,-0.818393 0.0624,-0.06237 0.19302,0.203857 0.29034,0.591608 0.0973,0.38775 0.12591,0.756027 0.0635,0.818393 -0.0624,0.06237 -0.19302,-0.203857 -0.29034,-0.591608 z m -0.91435,-2.785202 c -0.16234,-0.465706 -0.28678,-0.977799 -0.27653,-1.137985 0.0103,-0.160186 0.18932,0.174608 0.39793,0.743985 0.2086,0.569378 0.33304,1.081472 0.27653,1.137986 -0.0565,0.05651 -0.23558,-0.27828 -0.39793,-0.743986 z m -1.73602,-4.405962 c -0.55012,-1.273215 -1.12444,-2.468641 -1.27628,-2.656503 -0.39593,-0.489863 -1.51621,-2.958483 -1.51621,-3.341087 0,-0.177549 -0.47625,-0.961137 -1.05833,-1.741304 -0.58208,-0.780168 -1.05833,-1.583405 -1.05833,-1.784971 0,-0.680927 -0.52835,-1.373735 -0.93008,-1.219578 -0.57715,0.221475 -0.50169,0.55849 0.66549,2.97208 1.53596,3.176165 1.299,2.985076 -0.61594,-0.496698 C 223.84183,31.16961 204.552,16.35688 180.84415,10.561141 172.81344,8.5979128 168.48727,8.2084537 154.671,8.2049249 c -6.09975,-0.00156 -11.04084,-0.050866 -10.98021,-0.1095741 0.0606,-0.058708 4.2179,-0.1833865 9.23837,-0.2770639 9.10659,-0.1699206 16.36497,0.1495521 20.76979,0.9141681 5.65331,0.9813374 12.73675,2.809237 16.53646,4.267279 2.3311,0.894503 2.97088,0.964027 2.72007,0.295587 -0.33045,-0.880673 -2.47183,-2.070102 -3.2141,-1.785268 -0.21434,0.08225 -0.46901,0.02123 -0.56594,-0.135605 -0.23649,-0.382648 -4.4415,-1.8289106 -5.35083,-1.8403518 -0.39723,-0.005 -1.17114,-0.1868019 -1.71979,-0.4040085 -1.18839,-0.4704781 -6.76093,-1.7217454 -7.66781,-1.7217454 -0.35035,0 -0.57659,0.09774 -0.50276,0.2172006 0.0738,0.1194604 -1.05643,0.074212 -2.5117,-0.1005523 -1.90865,-0.2292121 -2.73684,-0.442073 -2.97217,-0.7639096 -0.28224,-0.3859847 -0.7175,-0.4289672 -3.22738,-0.3187025 -1.59562,0.0701 -3.4131,0.210129 -4.03883,0.3111762 -0.89562,0.144632 -1.24732,0.084509 -1.65294,-0.2825765 C 159.05849,6.0431584 157.99521,5.9954658 146.646,5.8930222 139.84252,5.8316102 134.15697,5.7355558 134.01145,5.679567 133.86593,5.623578 141.36687,5.61409 150.6802,5.658481 c 17.93017,0.085463 18.82198,0.1371816 25.79687,1.4960383 17.90035,3.4873657 32.89121,11.4098627 45.51446,24.0538747 8.65842,8.672664 15.28061,18.617884 19.72684,29.625833 0.49518,1.225957 0.86166,2.267678 0.8144,2.314937 -0.0472,0.04726 -0.53602,-0.955798 -1.08613,-2.229013 z M 226.7479,37.041674 c 0,-0.145521 -0.11203,-0.264583 -0.24896,-0.264583 -0.13694,0 -0.32256,0.119062 -0.41249,0.264583 -0.0899,0.145521 0.0221,0.264583 0.24896,0.264583 0.22687,0 0.41249,-0.119062 0.41249,-0.264583 z M 212.66435,24.556649 c -0.0576,-0.172806 -0.24619,-0.361349 -0.4191,-0.418984 -0.19334,-0.06445 -0.25247,0.05651 -0.15359,0.314193 0.18455,0.480937 0.73143,0.581004 0.57269,0.104791 z m -1.52686,-1.008724 c 0,-0.145521 -0.12609,-0.264584 -0.2802,-0.264584 -0.15411,0 -0.20661,0.119063 -0.11668,0.264584 0.0899,0.145521 0.21603,0.264583 0.2802,0.264583 0.0642,0 0.11668,-0.119062 0.11668,-0.264583 z m -2.77813,-2.116667 c -0.0899,-0.145521 -0.28258,-0.264583 -0.4281,-0.264583 -0.14552,0 -0.191,0.119062 -0.10106,0.264583 0.0899,0.145521 0.28258,0.264584 0.4281,0.264584 0.14552,0 0.191,-0.119063 0.10106,-0.264584 z m -1.19062,-0.811579 c 0,-0.165024 0.24745,-0.214318 0.59531,-0.118592 0.56641,0.155868 0.57143,0.144657 0.10336,-0.23093 -0.3904,-0.313268 -0.5952,-0.330265 -0.99218,-0.08235 -0.60072,0.375153 -0.64979,0.714281 -0.10337,0.714281 0.21828,0 0.39688,-0.127086 0.39688,-0.282413 z m 32.97331,41.679473 c -0.25532,-0.665346 -0.18,-0.837023 0.1319,-0.300656 0.15444,0.265576 0.22506,0.538602 0.15693,0.606724 -0.0681,0.06812 -0.19809,-0.06961 -0.28883,-0.306068 z M 238.69195,58.832 c -0.32514,-0.669247 -0.54688,-1.261106 -0.49274,-1.315243 0.0541,-0.05414 0.36942,0.444174 0.70063,1.107356 0.33121,0.663183 0.55294,1.255043 0.49274,1.315244 -0.0602,0.0602 -0.37548,-0.43811 -0.70063,-1.107357 z M -46.302081,6.5146975 c 0,-0.054942 0.208359,-0.2633015 0.46302,-0.4630208 0.419644,-0.3291075 0.429003,-0.3197491 0.0999,0.099895 -0.345644,0.4407291 -0.562915,0.5808871 -0.562915,0.363126 z m 3.307291,-3.6042717 c 0.864014,-0.8731249 1.630466,-1.5874999 1.703227,-1.5874999 0.07276,0 -0.574629,0.714375 -1.438644,1.5874999 -0.864014,0.873125 -1.630466,1.5875 -1.703226,1.5875 -0.07276,0 0.574629,-0.714375 1.438643,-1.5875 z m 3.307291,-3.0103113 c 0,-0.05494216 0.20836,-0.26330152 0.463021,-0.46302081 0.419644,-0.32910743 0.429003,-0.31974903 0.09989,0.0998948 -0.345644,0.44072914 -0.562916,0.5808871 -0.562916,0.36312598 z m 1.5875,-1.3229166 c 0,-0.054942 0.20836,-0.2633015 0.463021,-0.4630208 0.419644,-0.3291074 0.429002,-0.319749 0.09989,0.099895 -0.345644,0.4407292 -0.562916,0.5808871 -0.562916,0.363126 z M -6.3996096,-14.46823 c 0.190996,-0.07643 0.4191992,-0.06703 0.507118,0.02089 0.087919,0.08792 -0.068351,0.150452 -0.3472656,0.138964 -0.3082245,-0.0127 -0.3709192,-0.07539 -0.1598524,-0.159852 z m 6.45237186,-0.280648 c 1.26594664,-0.0484 3.40907144,-0.04862 4.76249974,-5.05e-4 1.3534283,0.04812 0.3176538,0.08771 -2.3017211,0.08799 -2.61937482,2.77e-4 -3.7267252,-0.03909 -2.46077864,-0.08748 z"
         id="path2" /><path
         style="fill:#1c314f"
         d="m 2.116666,314.05493 c -8.9952234,-0.1626 -9.911235,-0.22355 -13.361458,-0.88917 -26.228955,-5.06012 -46.478766,-27.38062 -48.797425,-53.78734 -0.329203,-3.74923 -0.341868,-129.2462 -0.01875,-185.824248 0.220999,-38.697412 0.125334,-36.396328 1.803964,-43.391664 1.353159,-5.639002 4.602974,-12.986836 7.957392,-17.991666 9.284775,-13.8529918 23.127585,-22.987893 39.319406,-25.946965 5.2361969,-0.95692 18.3184487,-1.057537 126.470825,-0.972703 111.73177,0.08764 103.17073,-0.02828 110.13286,1.491231 6.04148,1.318572 14.00968,4.7110849 19.24838,8.1951273 14.79201,9.8375425 24.57344,25.9245217 26.32471,43.2947667 0.2112,2.094781 0.27028,33.830398 0.21082,113.241661 -0.0784,104.65354 -0.1069,110.45123 -0.55474,112.66288 -2.19027,10.81659 -6.17899,19.2772 -12.96835,27.50761 -9.9744,12.09148 -23.37366,19.83627 -38.14785,22.04953 -3.01118,0.45109 -8.45843,0.47718 -105.56875,0.50558 -56.316555,0.0165 -106.7395209,-0.0486 -112.051031,-0.14463 z M 169.59953,293.03465 c 14.2781,-1.67701 27.31468,-6.74047 39.39887,-15.30268 4.25326,-3.01364 7.53241,-5.81248 11.66878,-9.95963 15.18203,-15.22158 24.20582,-33.33065 26.91418,-54.01176 0.432,-3.29878 0.46481,-7.96284 0.46514,-66.12308 4e-4,-69.573042 0.14047,-63.831362 -1.76207,-72.231245 C 242.41994,58.344154 234.25861,43.495652 221.99153,31.208394 207.95505,17.148826 191.03539,8.9380048 170.39166,6.1678549 167.02821,5.7165193 163.14527,5.6885507 103.84895,5.6885507 H 40.878122 L 37.173956,6.2811999 C 23.468141,8.4740659 10.6279,13.7172 -0.50907854,21.668542 -10.069309,28.494152 -18.894182,38.004797 -24.935371,47.992977 c -7.227951,11.950311 -11.106513,23.762151 -12.090608,36.820951 -0.423542,5.620342 -0.388132,123.199462 0.03723,123.624822 0.417694,0.41769 1.396637,0.40564 1.751181,-0.0216 0.195355,-0.23539 0.361783,-19.22606 0.54432,-62.11093 0.277625,-65.224414 0.23533,-63.209636 1.468977,-69.97662 2.218253,-12.167884 8.453014,-25.529418 16.727579,-35.848383 2.675359,-3.33636 9.0312635,-9.740994 12.7925249,-12.8906 4.9121972,-4.113378 10.3390255,-7.614851 16.5177461,-10.657503 7.111702,-3.502091 12.424313,-5.40575 19.465585,-6.9750694 7.577845,-1.6889081 3.026358,-1.5800689 70.776036,-1.69246 44.08739,-0.073137 62.59,-0.017938 64.95521,0.1937827 4.6106,0.4127167 7.99085,0.9593032 12.30312,1.9894127 25.26465,6.035187 45.77256,22.402374 57.02422,45.510561 3.93611,8.083812 6.11479,14.793124 7.86138,24.209374 l 0.66253,3.571875 0.25131,61.9125 c 0.17738,43.70032 0.16805,63.00211 -0.0317,65.61666 -1.16571,15.25647 -7.04011,30.85792 -16.51142,43.85169 -5.2107,7.14859 -11.88827,13.9288 -18.8686,19.15859 -12.23114,9.16379 -26.41109,14.82179 -41.36791,16.50637 -1.38244,0.15571 -9.28894,0.33722 -17.56999,0.40337 -10.52176,0.084 -15.16352,0.20913 -15.41197,0.41533 -0.44103,0.36602 -0.45911,1.0792 -0.038,1.50027 0.50245,0.50245 28.92019,0.44204 33.2862,-0.0708 z m -25.1423,-23.78824 c 8.33989,-1.30484 17.61239,-4.84846 25.25349,-9.65099 8.4305,-5.29868 16.84901,-13.42727 22.37318,-21.60271 4.38868,-6.49498 7.8533,-14.11291 9.7469,-21.43125 1.78195,-6.88686 1.72952,-6.02506 1.83127,-30.09636 l 0.0926,-21.89427 h -11.6544 -11.65441 l -0.0359,2.4474 c -0.0198,1.34607 -0.0683,9.7665 -0.10778,18.71207 -0.0395,8.94558 -0.14953,17.04183 -0.24449,17.99167 -1.57431,15.747 -9.99571,29.25379 -23.01809,36.91786 -4.4893,2.6421 -9.22289,4.45953 -14.54302,5.5837 -2.91784,0.61656 -4.01524,0.69382 -12.71838,0.89544 -13.63521,0.31587 -50.122122,0.31715 -54.445357,0.002 -4.247676,-0.30973 -7.678398,-1.00052 -11.411596,-2.29777 -3.063147,-1.06441 -7.931108,-3.47744 -10.930267,-5.4181 -1.132236,-0.73263 -1.880018,-1.1542 -1.661737,-0.93682 0.908783,0.90504 5.860821,4.02158 8.10903,5.10338 2.989183,1.43834 7.055863,2.80958 10.544094,3.55536 2.330029,0.49815 3.956423,0.59247 13.626041,0.79019 6.039115,0.12348 11.970978,0.23296 13.181919,0.24328 1.865512,0.0159 2.146295,0.0742 1.838796,0.38168 -0.305226,0.30522 -0.309151,0.91834 -0.0247,3.85693 0.186021,1.92171 0.454211,5.30051 0.595978,7.50844 0.141767,2.20793 0.315457,4.49067 0.385978,5.07275 0.124958,1.03141 0.122799,1.03478 -0.08484,0.1323 -0.175912,-0.76459 -0.220598,-0.81072 -0.256303,-0.26459 -0.02379,0.3638 -0.209875,0.88139 -0.413533,1.1502 -0.203658,0.2688 -0.309766,0.64645 -0.235795,0.83922 0.260787,0.6796 -0.407565,1.39895 -1.465902,1.57775 -0.570559,0.0964 -1.25672,0.34146 -1.524803,0.54459 -0.433277,0.3283 -0.281678,0.37447 1.364659,0.41556 22.626558,0.5648 43.414638,0.50841 47.487448,-0.12882 z M 99.632523,250.04992 c -0.274301,-0.30309 -0.425754,-0.62406 -0.336561,-0.71325 0.226735,-0.22674 1.044408,0.637 0.929468,0.98182 -0.0518,0.15539 -0.318606,0.0345 -0.592907,-0.26857 z m 38.834667,-9.88841 c 7.20962,-1.49465 12.57819,-3.69847 17.92168,-7.35693 5.74518,-3.93348 10.17046,-8.84946 13.66906,-15.18479 2.30565,-4.17511 4.31039,-9.82341 4.65351,-13.11112 0.0827,-0.79253 0.0907,-1.20284 0.0178,-0.9118 -0.81354,3.24773 -1.93494,6.75057 -2.9045,9.07265 -6.46021,15.47204 -20.1161,25.30997 -37.54874,27.05072 -3.79934,0.37939 -55.128909,0.11972 -58.993782,-0.29844 -9.192128,-0.99455 -19.80493,-6.5437 -26.494937,-13.8535 -5.14148,-5.61781 -8.577724,-11.88353 -10.42411,-19.00753 -1.488415,-5.74282 -1.453829,-4.66207 -1.453829,-45.42952 0,-40.41432 -0.02374,-39.62632 1.359176,-45.10909 3.199692,-12.68563 12.289316,-23.777954 24.398405,-29.774054 2.913135,-1.442508 6.252287,-2.618958 9.828876,-3.462911 3.15223,-0.743819 18.913882,-1.082359 44.317701,-0.951888 18.68237,0.09595 19.69658,0.125972 22.14252,0.655443 16.23611,3.514619 28.50898,14.191541 33.98117,29.5623 1.14435,3.21434 1.51273,3.80398 0.73252,1.1725 -2.03169,-6.85252 -5.95081,-13.302704 -11.32503,-18.639025 -2.92885,-2.908192 -7.05902,-6.138926 -9.82665,-7.686669 -4.28841,-2.398218 -10.04966,-4.404727 -14.76251,-5.141439 -1.20545,-0.188435 -11.92375,-0.287918 -32.01458,-0.297145 -29.760805,-0.01367 -30.244082,-0.0056 -33.050799,0.54877 -6.805209,1.344238 -13.709095,4.590248 -19.041013,8.95254 -2.675365,2.188841 -7.19014,6.950342 -8.971506,9.461788 -4.43221,6.24871 -7.269463,13.47075 -8.154529,20.7568 -0.221946,1.8271 -0.280833,13.24365 -0.215628,41.80416 l 0.0897,39.29063 0.588312,2.5604 c 2.150739,9.36027 6.105526,16.48255 12.734013,22.93304 7.247537,7.05292 16.771547,11.7342 25.881092,12.72118 1.130024,0.12244 15.270526,0.1957 31.423338,0.16281 25.93139,-0.0528 29.61155,-0.11014 31.44324,-0.48988 z m 36.60574,-38.21325 c -0.0671,-0.25743 -0.12638,-0.11087 -0.13178,0.3257 -0.005,0.43656 0.0495,0.64718 0.12197,0.46805 0.0725,-0.17913 0.0769,-0.53632 0.01,-0.79375 z m -48.57544,0.15687 c 1.36014,-0.4554 2.55732,-1.45676 3.21692,-2.69077 0.58589,-1.09608 0.59385,-1.25393 0.67589,-13.39141 l 0.083,-12.28226 1.96641,-2.61043 c 4.36292,-5.79183 6.46651,-12.13919 6.46651,-19.51204 0,-9.22619 -3.17356,-17.01494 -9.49806,-23.3107 -9.44115,-9.39826 -23.31272,-12.71112 -35.348811,-8.44212 -2.951995,1.04702 -4.439347,1.78789 -7.143749,3.55839 -7.059092,4.62142 -12.294709,11.80116 -14.320446,19.63802 -0.933453,3.6112 -1.151027,9.20328 -0.507756,13.05032 1.027889,6.14723 3.179625,10.88695 7.263354,15.99933 l 1.479431,1.85208 v 12.17083 12.17084 l 0.725264,1.23374 c 0.398894,0.67856 1.172801,1.512 1.719791,1.85209 0.952172,0.592 1.270605,0.62444 7.47682,0.76172 13.304812,0.29428 34.809772,0.26563 35.745412,-0.0476 z m -25.45707,-13.82224 c -1.44954,-0.51801 -2.496351,-1.3683 -3.045827,-2.47403 -0.448358,-0.90225 -0.50826,-1.90431 -0.627932,-10.50424 l -0.132292,-9.50683 -1.322916,-0.76717 c -2.242211,-1.30027 -4.531686,-3.76913 -5.701606,-6.14833 -2.936354,-5.97149 -1.589319,-13.07799 3.441001,-18.15355 1.62912,-1.64377 2.458051,-2.23712 4.509563,-3.22794 4.033479,-1.94805 7.593159,-2.23807 11.786689,-0.96029 4.33624,1.32127 8.36462,4.64867 10.23156,8.45116 1.24756,2.54097 1.57406,4.03381 1.56241,7.14375 -0.0204,5.45883 -2.17154,9.70887 -6.36382,12.57333 l -1.87101,1.2784 -0.001,8.88299 c -9.5e-4,5.69033 -0.10699,9.26305 -0.29504,9.94044 -0.17221,0.6203 -0.74621,1.5101 -1.38846,2.15236 -0.64226,0.64225 -1.53206,1.21625 -2.15236,1.38846 -1.46431,0.40651 -7.43182,0.35913 -8.62849,-0.0685 z M 30.890152,164.90156 c 0.08704,-0.26125 -2.340169,-0.33073 -11.553522,-0.33073 -6.415043,0 -11.6637143,0.0992 -11.6637143,0.22049 0,0.12127 0.080624,0.30111 0.1791643,0.39965 0.09854,0.0985 5.297625,0.14815 11.553522,0.11024 8.814748,-0.0534 11.399155,-0.14334 11.48455,-0.39965 z m 0.339685,-20.6375 c 0.005,-0.25466 0.0064,-6.59473 0.0033,-14.08906 -0.0084,-19.9725 0.339744,-25.40566 1.994741,-31.134494 2.283193,-7.90335 6.347236,-14.912947 12.148152,-20.952937 7.813281,-8.135291 16.441265,-12.980401 27.252082,-15.303615 l 3.439583,-0.739156 H 104.6427 c 31.5756,0 30.05563,-0.07149 36.85409,1.733342 18.21551,4.835785 32.50276,19.118624 37.11366,37.1022 1.33669,5.21339 1.39097,6.10411 1.55158,25.4582 l 0.1515,18.25625 11.71985,0.0689 11.71985,0.0689 -0.0974,-23.35224 -0.0974,-23.352241 -0.68969,-3.704166 c -0.85235,-4.577815 -1.77463,-8.076544 -3.0942,-11.738044 -6.18108,-17.151012 -17.43916,-31.144556 -32.7976,-40.766673 -9.76922,-6.120447 -20.0125,-9.848436 -30.71646,-11.179087 -2.13321,-0.265187 -9.50368,-0.344923 -31.75,-0.343478 -31.682084,0.0021 -31.252004,-0.01602 -38.099997,1.601951 -18.188088,4.297301 -35.537478,16.722795 -46.727543,33.465893 -6.046407,9.046917 -9.647086,17.913414 -11.545513,28.430271 -0.554561,3.072142 -0.5760433,3.93709 -0.6631159,26.699164 -0.049493,12.93829 -0.028776,23.68368 0.046039,23.87864 0.1108652,0.28891 2.3154978,0.35449 11.9182889,0.35449 11.041382,0 11.782828,-0.0291 11.791268,-0.46303 z M 174.27656,115.57331 c -0.0845,-0.21107 -0.14715,-0.14837 -0.15985,0.15985 -0.0115,0.27892 0.051,0.43519 0.13897,0.34727 0.0879,-0.0879 0.0973,-0.31612 0.0209,-0.50712 z"
         id="path1" /></g></g></svg>

