<?xml version="1.0" encoding="UTF-8" standalone="no"?>
<!-- Created with Inkscape (http://www.inkscape.org/) -->

<svg
   width="512"
   height="512"
   viewBox="0 0 135.46666 135.46667"
   version="1.1"
   id="svg1"
   xml:space="preserve"
   inkscape:version="1.4 (1:1.4+202410161351+e7c3feb100)"
   sodipodi:docname="cpa.svg"
   xmlns:inkscape="http://www.inkscape.org/namespaces/inkscape"
   xmlns:sodipodi="http://sodipodi.sourceforge.net/DTD/sodipodi-0.dtd"
   xmlns="http://www.w3.org/2000/svg"
   xmlns:svg="http://www.w3.org/2000/svg"><sodipodi:namedview
     id="namedview1"
     pagecolor="#ffffff"
     bordercolor="#000000"
     borderopacity="0.25"
     inkscape:showpageshadow="2"
     inkscape:pageopacity="0.0"
     inkscape:pagecheckerboard="0"
     inkscape:deskcolor="#d1d1d1"
     inkscape:document-units="px"
     inkscape:zoom="0.8615467"
     inkscape:cx="98.659771"
     inkscape:cy="289.01509"
     inkscape:window-width="1920"
     inkscape:window-height="1020"
     inkscape:window-x="0"
     inkscape:window-y="0"
     inkscape:window-maximized="1"
     inkscape:current-layer="layer1"
     showgrid="false" /><defs
     id="defs1" /><g
     inkscape:label="Camada 1"
     inkscape:groupmode="layer"
     id="layer1"><rect
       style="fill:#ffffff;fill-opacity:1;stroke-width:0.219381"
       id="rect27"
       width="135.46666"
       height="135.46666"
       x="2.7270507e-06"
       y="2.7270507e-06"
       ry="22.917292" /><g
       id="g14"
       transform="matrix(0.39228866,0,0,0.39228866,-13.246271,-43.663332)"><path
         style="fill:#edcc6b"
         d="m 76.3226,442.71531 c -4.5392,-0.48625 -10.79647,-2.26991 -14.85561,-4.23465 -4.47818,-2.16756 -9.5423,-6.05057 -12.68167,-9.72391 -5.87882,-6.87872 -9.46395,-15.33284 -10.68246,-25.1904 -0.38392,-3.10586 -0.38694,-233.12261 -0.003,-237.20589 1.11727,-11.8859 5.53211,-21.63595 13.23886,-29.23768 6.54102,-6.45189 15.139,-10.44008 25.11629,-11.65024 2.88721,-0.35019 233.43087,-0.60125 247.12082,-0.26911 6.55442,0.15902 10.50739,0.37113 12.30312,0.66018 21.27326,3.4242 36.33441,19.97112 38.7872,42.61352 0.32706,3.01916 0.52849,186.35458 0.23649,215.23853 l -0.17253,17.06562 -0.719,3.3073 c -2.44895,11.26467 -7.26396,19.67026 -15.49943,27.05741 -5.98005,5.36406 -13.91497,9.12055 -23.16189,10.96513 l -3.70417,0.73891 -126.73541,0.0318 c -69.70448,0.0175 -127.56885,-0.0574 -128.58749,-0.16656 z m 26.45833,-177.26839 c 0.26339,-0.29105 0.41936,-0.52917 0.3466,-0.52917 -0.0728,0 -0.3478,0.23812 -0.61119,0.52917 -0.26338,0.29104 -0.41935,0.52916 -0.34659,0.52916 0.0728,0 0.34779,-0.23812 0.61118,-0.52916 z"
         id="path14" /><path
         style="fill:#47c0c6"
         d="m 262.45696,431.57301 c -4.58541,-0.14013 -35.03088,-0.19907 -70.51145,-0.13652 -72.82547,0.1284 -69.91009,0.20172 -81.62396,-2.05283 -1.0914,-0.21006 -2.31081,-0.44292 -2.70979,-0.51747 -0.82215,-0.15361 -1.35275,-0.31937 -5.19217,-1.62207 -1.50843,-0.5118 -2.81811,-0.94241 -2.91042,-0.95692 -0.0923,-0.0145 0.12983,-0.11354 0.49363,-0.22007 0.52543,-0.15386 0.25338,-0.26259 -1.32291,-0.52873 -7.80673,-1.31805 -13.86002,-4.26646 -18.55307,-9.03675 -4.97691,-5.05882 -8.18231,-11.46311 -9.65593,-19.29224 -0.4089,-2.17243 -0.71267,-5.16846 -0.88525,-8.73125 -0.30515,-6.29936 -0.52164,-8.81067 -0.77547,-8.99583 -0.0997,-0.0728 -0.51247,-0.88023 -0.91715,-1.79436 -0.40468,-0.91414 -1.42306,-2.58101 -2.26306,-3.70417 -4.65528,-6.22448 -6.90345,-12.75828 -7.43951,-21.62126 -0.30126,-4.98098 -0.29476,-140.80833 0.008,-159.67604 0.19608,-12.23372 0.28698,-14.23778 0.76203,-16.80104 2.67656,-14.44206 10.18073,-25.87965 19.46228,-29.6637 4.26277,-1.73791 1.37883,-1.65364 58.2362,-1.70174 46.72811,-0.0395 51.7733,-0.003 53.60747,0.38659 2.84453,0.60443 4.66406,1.27164 7.39591,2.71203 5.27019,2.77874 8.84836,6.51817 13.54244,14.15277 0.55937,0.90978 0.94238,0.9641 9.0515,1.28363 7.38526,0.29102 8.83806,0.52873 13.36146,2.18626 l 3.04271,1.11495 47.4927,0.14238 c 53.66977,0.1609 48.62413,-0.0617 53.57813,2.36424 6.2349,3.05324 10.96153,8.47209 13.27981,15.22467 1.6255,4.7347 1.49233,-0.9856 1.65392,71.04063 0.0811,36.16192 0.14544,82.95348 0.14291,103.98124 -0.005,42.024 0.0804,39.62543 -1.60466,45.02439 -2.37402,7.60628 -8.01759,14.33521 -15.09728,18.00077 -4.23015,2.19019 -7.28142,3.08052 -12.99318,3.79126 -0.76412,0.0951 -1.33248,0.26485 -1.26301,0.37725 0.38195,0.61801 -2.23327,1.83651 -5.51143,2.56792 -1.03973,0.23198 -2.54526,0.57391 -3.34562,0.75985 -3.90307,0.90675 -5.34512,1.15643 -7.54063,1.30563 -1.30969,0.089 -3.45281,0.26228 -4.7625,0.38507 -1.30969,0.12279 -6.13172,0.23703 -10.71562,0.25387 -4.58391,0.0168 -10.83469,0.0787 -13.89063,0.13741 -3.05593,0.0587 -9.18765,-0.004 -13.62604,-0.13982 z m 46.96354,-6.14706 c 9.87786,-3.52494 16.01846,-9.58913 18.84978,-18.61526 l 0.72939,-2.32524 V 341.7792 279.07296 l -0.5972,-2.24062 c -2.39946,-9.00263 -9.59113,-16.19398 -18.59452,-18.59371 l -2.23953,-0.59692 h -94.72083 c -79.77641,0 -95.01304,0.058 -96.57291,0.36758 -11.49292,2.281 -19.58856,11.36692 -20.77176,23.31262 -0.35657,3.59992 -0.34444,118.02691 0.0128,120.87602 0.30881,2.46275 1.30362,5.85311 2.30154,7.84377 2.83778,5.66077 7.71818,10.68928 12.90117,13.29268 2.21499,1.11259 5.61961,2.45317 6.87916,2.70871 0.58209,0.11809 43.50412,0.19749 95.38229,0.17645 l 94.32395,-0.0383 z"
         id="path11" /><path
         style="fill:#b05db9"
         d="m 262.45696,431.57301 c -4.58541,-0.14013 -35.03088,-0.19907 -70.51145,-0.13652 -72.82547,0.1284 -69.91009,0.20172 -81.62396,-2.05283 -1.0914,-0.21006 -2.31081,-0.44292 -2.70979,-0.51747 -0.82215,-0.15361 -1.35275,-0.31937 -5.19217,-1.62207 -1.50843,-0.5118 -2.81811,-0.94241 -2.91042,-0.95692 -0.0923,-0.0145 0.12983,-0.11354 0.49363,-0.22007 0.52543,-0.15386 0.25338,-0.26259 -1.32291,-0.52873 -5.66772,-0.95691 -10.83408,-2.97082 -14.81667,-5.77572 -1.79711,-1.26569 -5.30882,-4.67836 -6.37289,-6.19316 -0.34075,-0.48509 0.3882,0.18034 1.6199,1.47874 3.85703,4.06591 7.15459,6.18617 12.2224,7.85878 2.47938,0.8183 6.01643,1.45105 6.68253,1.19544 0.775,-0.29739 0.97917,-1.45072 0.53022,-2.99507 -0.22809,-0.78459 -0.33227,-1.5599 -0.23151,-1.72293 0.10716,-0.17339 0.0643,-0.22294 -0.10322,-0.1194 -0.32822,0.20285 -0.70701,-0.74874 -0.45827,-1.15122 0.0907,-0.14682 0.0426,-0.26695 -0.10691,-0.26695 -0.14954,0 -0.19586,-0.19813 -0.10294,-0.44028 0.12136,-0.31627 0.0721,-0.38042 -0.17492,-0.22776 -0.23049,0.14246 -0.30374,0.0921 -0.22214,-0.15267 0.0669,-0.20085 -0.0435,-0.53044 -0.24548,-0.7324 -0.20196,-0.20196 -0.30456,-0.53045 -0.228,-0.72997 0.0766,-0.19951 0.0374,-0.36276 -0.087,-0.36276 -0.12444,0 -0.28782,-0.32742 -0.36307,-0.7276 -0.0753,-0.40018 -0.3903,-1.91823 -0.70011,-3.37344 -0.39499,-1.85533 -0.54094,-3.35728 -0.48852,-5.02708 0.0819,-2.60991 0.10302,-2.59765 1.13676,0.66146 0.93153,2.93685 2.11513,5.16295 4.24801,7.98961 3.6983,4.90125 7.43645,7.6089 14.41839,10.44362 l 2.4966,1.01364 h 94.85312 94.85312 l 2.24896,-0.7532 c 9.73214,-3.25942 16.13419,-9.53847 18.98207,-18.61739 l 0.72939,-2.32524 V 341.7792 279.07296 l -0.5972,-2.24062 c -2.39946,-9.00263 -9.59113,-16.19398 -18.59452,-18.59371 l -2.23953,-0.59692 h -94.72083 c -103.31641,0 -95.99764,-0.1104 -100.67395,1.51858 -4.78755,1.66773 -9.26077,5.15362 -12.14327,9.463 -0.86248,1.28943 -1.64626,2.59052 -1.74173,2.89131 -0.0955,0.3008 -0.28462,0.5469 -0.42033,0.5469 -0.13572,0 -0.33584,-3.3e-4 -0.44472,-7.4e-4 -0.21084,-7.9e-4 -0.13733,-10.07862 0.19494,-26.72218 0.1975,-9.89279 0.2235,-10.2581 0.90197,-12.67175 1.35225,-4.81056 4.4837,-10.23131 7.54115,-13.05425 3.07666,-2.84067 7.02524,-5.0227 11.13907,-6.15557 1.56578,-0.43118 3.92327,-0.4935 26.32604,-0.69591 13.53344,-0.12228 28.65437,-0.33293 33.60208,-0.46812 8.9209,-0.24375 9.50112,-0.30563 12.03854,-1.28382 0.21828,-0.0842 0.45641,-0.16645 0.52917,-0.18288 0.0728,-0.0164 0.78713,-0.34549 1.5875,-0.73123 2.39115,-1.15243 3.90459,-2.39979 5.58722,-4.60496 0.87627,-1.14838 1.79332,-2.32774 2.03789,-2.62081 0.24457,-0.29306 0.61363,-0.85861 0.82012,-1.25677 0.20649,-0.39816 0.47438,-0.72392 0.59531,-0.72392 0.12093,0 0.21987,-0.1786 0.21987,-0.39688 0,-0.21828 0.10616,-0.39687 0.23591,-0.39687 0.12974,0 0.30373,-0.27026 0.38663,-0.60058 0.0829,-0.33032 0.42323,-0.89307 0.75629,-1.25056 0.33305,-0.35749 0.60754,-0.71231 0.60998,-0.78849 0.002,-0.0762 0.23281,-0.40121 0.51196,-0.7223 0.27914,-0.32108 0.53076,-0.74201 0.55914,-0.93539 0.0614,-0.41863 5.9054,-9.52132 6.26287,-9.75518 0.13608,-0.089 0.228,-0.24372 0.20425,-0.34376 -0.0882,-0.37151 4.95902,-8.09238 5.9182,-9.05328 0.30914,-0.30969 1.03832,-1.17753 1.6204,-1.92852 0.58208,-0.751 1.99801,-2.16449 3.14651,-3.14109 1.1485,-0.97661 2.23247,-1.91562 2.40883,-2.08671 0.49385,-0.47908 2.23603,-1.14414 2.99716,-1.14414 0.37546,0 1.70037,-0.34978 2.94425,-0.77728 1.24387,-0.4275 2.7676,-0.90834 3.38606,-1.06853 0.61846,-0.16019 1.12448,-0.38538 1.12448,-0.50041 0,-0.25843 -2.10275,-1.24284 -3.70417,-1.73412 -0.65484,-0.20089 -0.9525,-0.37361 -0.66146,-0.3838 0.29105,-0.0102 2.07698,0.54101 3.96875,1.2249 l 3.43959,1.24345 47.4927,0.14598 c 53.6684,0.16497 48.62454,-0.0579 53.57813,2.36784 6.2349,3.05324 10.96153,8.47209 13.27981,15.22467 1.6255,4.7347 1.49233,-0.9856 1.65392,71.04063 0.0811,36.16192 0.14544,82.95348 0.14291,103.98124 -0.005,42.024 0.0804,39.62543 -1.60466,45.02439 -2.37402,7.60628 -8.01759,14.33521 -15.09728,18.00077 -4.23015,2.19019 -7.28142,3.08052 -12.99318,3.79126 -0.76412,0.0951 -1.33248,0.26485 -1.26301,0.37725 0.38195,0.61801 -2.23327,1.83651 -5.51143,2.56792 -1.03973,0.23198 -2.54526,0.57391 -3.34562,0.75985 -3.90307,0.90675 -5.34512,1.15643 -7.54063,1.30563 -1.30969,0.089 -3.45281,0.26228 -4.7625,0.38507 -1.30969,0.12279 -6.13172,0.23703 -10.71562,0.25387 -4.58391,0.0168 -10.83469,0.0787 -13.89063,0.13741 -3.05593,0.0587 -9.18765,-0.004 -13.62604,-0.13982 z M 76.42114,412.09222 c -0.32911,-0.41964 -0.31975,-0.429 0.0999,-0.0999 0.44073,0.34564 0.58089,0.56291 0.36313,0.56291 -0.0549,0 -0.2633,-0.20836 -0.46302,-0.46302 z m -1.28917,-1.91823 c -0.15576,-0.29104 -0.22367,-0.52917 -0.15091,-0.52917 0.0728,0 0.25973,0.23813 0.41549,0.52917 0.15577,0.29104 0.22367,0.52917 0.15091,0.52917 -0.0728,0 -0.25973,-0.23813 -0.41549,-0.52917 z m -1.2015,-2.13427 c -0.0959,-0.1552 -0.11766,-0.33893 -0.0483,-0.40828 0.0693,-0.0694 0.1966,0.0576 0.28277,0.28218 0.17891,0.46623 0.0264,0.54823 -0.23447,0.1261 z m 20.61397,-11.62406 c 0,-1.52797 0.0437,-2.15305 0.0972,-1.38906 0.0534,0.76398 0.0534,2.01414 0,2.77812 -0.0534,0.76399 -0.0972,0.13891 -0.0972,-1.38906 z m -24.64275,-2.91042 c 0,-0.50932 0.0544,-0.71768 0.121,-0.46302 0.0666,0.25466 0.0666,0.67138 0,0.92604 -0.0666,0.25466 -0.121,0.0463 -0.121,-0.46302 z m -0.32989,-3.8585 c -0.006,-3.33752 -0.48565,-9.97281 -0.73432,-10.14892 -0.11477,-0.0813 -0.53978,-0.89572 -0.94446,-1.80985 -0.40468,-0.91414 -1.42306,-2.58101 -2.26306,-3.70417 -4.65528,-6.22448 -6.90345,-12.75828 -7.43951,-21.62126 -0.30126,-4.98098 -0.29476,-140.80833 0.008,-159.67604 0.19608,-12.23372 0.28698,-14.23778 0.76203,-16.80104 2.67656,-14.44206 10.18073,-25.87965 19.46228,-29.6637 4.26277,-1.73791 1.37883,-1.65364 58.2362,-1.70174 46.72811,-0.0395 51.7733,-0.003 53.60747,0.38659 2.84453,0.60443 4.66406,1.27164 7.39591,2.71203 5.27298,2.78021 8.83816,6.50673 13.5477,14.1608 0.55411,0.90055 1.10139,0.98343 8.25249,1.2497 l 5.55625,0.20688 -7.14375,0.0417 c -3.92906,0.0229 -34.23046,0.0711 -67.33645,0.10701 l -60.19271,0.0653 -1.71979,0.6132 c -3.02535,1.07871 -5.23107,2.57593 -8.21502,5.57625 -5.0125,5.04 -8.13341,10.77212 -9.95517,18.2845 -0.46056,1.89924 -0.48286,6.31294 -0.5196,102.87225 -0.0211,55.48832 -0.1108,100.96027 -0.1993,101.04878 -0.0885,0.0885 -0.16267,-0.90073 -0.16483,-2.19829 z M 228.01152,163.66618 c 0.191,-0.0764 0.4192,-0.067 0.50712,0.0209 0.0879,0.0879 -0.0683,0.15045 -0.34727,0.13896 -0.30822,-0.0127 -0.37092,-0.0754 -0.15985,-0.15985 z m -1.73129,-0.2672 c 0.25743,-0.0671 0.61462,-0.0627 0.79375,0.01 0.17913,0.0725 -0.0315,0.12737 -0.46806,0.12197 -0.43656,-0.005 -0.58312,-0.0647 -0.32569,-0.13177 z"
         id="path10" /><path
         style="fill:#6269c8"
         d="m 262.45696,431.57301 c -4.58541,-0.14013 -35.03088,-0.19907 -70.51145,-0.13652 -72.82547,0.1284 -69.91009,0.20172 -81.62396,-2.05283 -1.0914,-0.21006 -2.31081,-0.44292 -2.70979,-0.51747 -0.82215,-0.15361 -1.35275,-0.31937 -5.19217,-1.62207 -1.50843,-0.5118 -2.81811,-0.94241 -2.91042,-0.95692 -0.0923,-0.0145 0.12983,-0.11354 0.49363,-0.22007 0.52543,-0.15386 0.25338,-0.26259 -1.32291,-0.52873 -5.66772,-0.95691 -10.83408,-2.97082 -14.81667,-5.77572 -1.79711,-1.26569 -5.30882,-4.67836 -6.37289,-6.19316 -0.34075,-0.48509 0.3882,0.18034 1.6199,1.47874 3.85703,4.06591 7.15459,6.18617 12.2224,7.85878 2.47938,0.8183 6.01643,1.45105 6.68253,1.19544 0.775,-0.29739 0.97917,-1.45072 0.53022,-2.99507 -0.22809,-0.78459 -0.33227,-1.5599 -0.23151,-1.72293 0.10716,-0.17339 0.0643,-0.22294 -0.10322,-0.1194 -0.32822,0.20285 -0.70701,-0.74874 -0.45827,-1.15122 0.0907,-0.14682 0.0426,-0.26695 -0.10691,-0.26695 -0.14954,0 -0.19586,-0.19813 -0.10294,-0.44028 0.12136,-0.31627 0.0721,-0.38042 -0.17492,-0.22776 -0.23049,0.14246 -0.30374,0.0921 -0.22214,-0.15267 0.0669,-0.20085 -0.0435,-0.53044 -0.24548,-0.7324 -0.20196,-0.20196 -0.30456,-0.53045 -0.228,-0.72997 0.0766,-0.19951 0.0374,-0.36276 -0.087,-0.36276 -0.12444,0 -0.28782,-0.32742 -0.36307,-0.7276 -0.0753,-0.40018 -0.3903,-1.91823 -0.70011,-3.37344 -0.39499,-1.85533 -0.54094,-3.35728 -0.48852,-5.02708 0.0819,-2.60991 0.10302,-2.59765 1.13676,0.66146 0.93153,2.93685 2.11513,5.16295 4.24801,7.98961 3.6983,4.90125 7.43645,7.6089 14.41839,10.44362 l 2.4966,1.01364 h 94.85312 94.85312 l 2.24896,-0.7532 c 9.73214,-3.25942 16.13419,-9.53847 18.98207,-18.61739 l 0.72939,-2.32524 V 341.7792 279.07296 l -0.5972,-2.24062 c -1.25216,-4.69805 -4.47041,-9.91535 -7.97877,-12.9349 -3.03496,-2.61211 -6.70067,-4.58834 -10.47403,-5.64666 -2.08073,-0.58359 -2.44909,-0.59627 -21.69583,-0.74646 l -19.57917,-0.1528 19.84375,0.022 19.84375,0.022 2.24896,0.67592 c 2.90144,0.87202 4.27975,1.49217 7.09542,3.19247 5.08584,3.07118 9.72919,9.12706 11.45461,14.93916 0.31738,1.0691 0.67635,1.94382 0.79771,1.94382 0.66581,0 2.68035,5.50497 3.29203,8.99583 0.24224,1.38245 0.54038,3.09106 0.66255,3.79692 0.12216,0.70585 0.34052,1.65835 0.48524,2.11666 0.14471,0.45831 0.38472,1.78579 0.53334,2.94996 1.44489,11.31792 1.96077,14.64374 1.67815,10.81874 -0.10093,-1.36594 -0.0464,-1.93848 0.19901,-2.09016 0.26362,-0.16293 0.30571,0.0764 0.19122,1.0875 -0.11511,1.01649 -0.014,1.58207 0.46822,2.61934 1.06524,2.29134 1.24721,7.51624 1.97656,56.75312 0.14335,9.67713 0.335,17.93697 0.42589,18.35519 0.25051,1.15274 -0.39429,22.82341 -0.73315,24.6396 -0.1629,0.87312 -0.45682,1.90901 -0.65316,2.30196 -0.19634,0.39296 -0.35698,1.09629 -0.35698,1.56297 0,0.55354 -0.53753,1.7768 -1.54626,3.51887 -1.76828,3.05377 -2.13038,3.85794 -1.5025,3.33685 0.57266,-0.47527 0.52353,0.0442 -0.12427,1.31403 -0.28996,0.56837 -0.42393,1.09722 -0.29771,1.17522 0.27275,0.16857 3.86645,-1.68875 4.64628,-2.40132 0.29934,-0.27353 0.87488,-0.66629 1.27897,-0.87282 0.4041,-0.20653 1.83285,-1.51489 3.175,-2.90747 3.13889,-3.25681 5.29741,-6.85313 6.6571,-11.09141 1.83887,-5.73194 1.72103,-0.38346 1.79608,-81.52349 0.0374,-40.38538 0.13029,-86.34625 0.20653,-102.13526 0.11418,-23.64371 0.15923,-17.48341 0.25543,34.925 0.23183,126.29983 0.19856,141.37372 -0.31806,144.10152 -1.93044,10.19301 -7.67951,18.20351 -16.24876,22.6403 -4.23015,2.19019 -7.28142,3.08052 -12.99318,3.79126 -0.76412,0.0951 -1.33248,0.26485 -1.26301,0.37725 0.38195,0.61801 -2.23327,1.83651 -5.51143,2.56792 -1.03973,0.23198 -2.54526,0.57391 -3.34562,0.75985 -3.90307,0.90675 -5.34512,1.15643 -7.54063,1.30563 -1.30969,0.089 -3.45281,0.26228 -4.7625,0.38507 -1.30969,0.12279 -6.13172,0.23703 -10.71562,0.25387 -4.58391,0.0168 -10.83469,0.0787 -13.89063,0.13741 -3.05593,0.0587 -9.18765,-0.004 -13.62604,-0.13982 z m 73.55416,-14.25527 c 0.15577,-0.29104 0.34274,-0.52917 0.4155,-0.52917 0.0728,0 0.005,0.23813 -0.15091,0.52917 -0.15576,0.29104 -0.34273,0.52917 -0.4155,0.52917 -0.0728,0 -0.005,-0.23813 0.15091,-0.52917 z m 2.01057,-3.57187 c 0.5179,-1.28574 0.63704,-1.43183 0.62938,-0.77171 -0.003,0.27892 -0.24208,0.80478 -0.53078,1.16858 l -0.52489,0.66146 z M 76.42114,412.09222 c -0.32911,-0.41964 -0.31975,-0.429 0.0999,-0.0999 0.44073,0.34564 0.58089,0.56291 0.36313,0.56291 -0.0549,0 -0.2633,-0.20836 -0.46302,-0.46302 z m -1.28917,-1.91823 c -0.15576,-0.29104 -0.22367,-0.52917 -0.15091,-0.52917 0.0728,0 0.25973,0.23813 0.41549,0.52917 0.15577,0.29104 0.22367,0.52917 0.15091,0.52917 -0.0728,0 -0.25973,-0.23813 -0.41549,-0.52917 z m -1.2015,-2.13427 c -0.0959,-0.1552 -0.11766,-0.33893 -0.0483,-0.40828 0.0693,-0.0694 0.1966,0.0576 0.28277,0.28218 0.17891,0.46623 0.0264,0.54823 -0.23447,0.1261 z m 20.61397,-11.62406 c 0,-1.52797 0.0437,-2.15305 0.0972,-1.38906 0.0534,0.76398 0.0534,2.01414 0,2.77812 -0.0534,0.76399 -0.0972,0.13891 -0.0972,-1.38906 z m -24.64275,-2.91042 c 0,-0.50932 0.0544,-0.71768 0.121,-0.46302 0.0666,0.25466 0.0666,0.67138 0,0.92604 -0.0666,0.25466 -0.121,0.0463 -0.121,-0.46302 z m -0.2855,-3.83646 c -0.0775,-3.81758 -0.55157,-10.0101 -0.77871,-10.17096 -0.11477,-0.0813 -0.53978,-0.89572 -0.94446,-1.80985 -0.40468,-0.91414 -1.42306,-2.58101 -2.26306,-3.70417 -4.65528,-6.22448 -6.90345,-12.75828 -7.43951,-21.62126 -0.30126,-4.98098 -0.29476,-140.80833 0.008,-159.67604 0.19608,-12.23372 0.28698,-14.23778 0.76203,-16.80104 2.67656,-14.44206 10.18073,-25.87965 19.46228,-29.6637 4.26277,-1.73791 1.37883,-1.65364 58.2362,-1.70174 46.72811,-0.0395 51.7733,-0.003 53.60747,0.38659 2.84453,0.60443 4.66406,1.27164 7.39591,2.71203 4.63756,2.44518 8.05944,5.74168 11.62723,11.2012 0.99852,1.52797 1.97334,3.00051 2.16625,3.27232 0.28953,0.40793 0.8804,0.53227 3.38498,0.71233 1.66883,0.11998 4.63165,0.22501 6.58406,0.23341 1.9524,0.008 3.48874,0.0764 3.41407,0.15103 -0.19439,0.19439 -129.76171,0.15894 -131.62698,-0.036 -5.39033,-0.56341 -12.55131,4.21815 -17.48361,11.67422 -2.20097,3.32716 -5.05222,9.75317 -4.71614,10.62899 0.0741,0.19317 0.006,0.35122 -0.15236,0.35122 -0.15793,0 -0.22636,0.23241 -0.15208,0.51648 0.0743,0.28406 0.017,0.55585 -0.12741,0.60397 -0.14437,0.0481 -0.29907,0.61937 -0.3438,1.26946 -0.0447,0.65008 -0.16518,1.39122 -0.26768,1.64697 -0.10249,0.25576 -0.11008,0.87155 -0.0169,1.36843 0.10718,0.57128 0.0565,0.97324 -0.1378,1.09333 -0.23283,0.1439 -0.26641,19.68544 -0.1386,80.6524 0.0928,44.25437 0.22688,84.8678 0.29802,90.25207 0.0711,5.38427 0.0308,14.07583 -0.0897,19.31458 -0.12047,5.23875 -0.24079,8.45344 -0.26736,7.14375 z M 65.07781,163.31775 c 0,-0.6718 0.44258,-0.68961 0.65311,-0.0263 0.15443,0.48656 0.20024,0.48804 1.41103,0.0455 0.68828,-0.25157 1.37549,-0.41605 1.52712,-0.36551 0.15163,0.0505 0.55748,-0.20804 0.90188,-0.57464 0.3444,-0.3666 0.82561,-0.66654 1.06935,-0.66654 0.43446,0 3.85131,-1.68868 4.34615,-2.14796 0.13825,-0.12831 0.46683,-0.23329 0.73019,-0.23329 0.26337,0 0.68273,-0.23813 0.93193,-0.52917 0.2492,-0.29104 0.69779,-0.52917 0.99687,-0.52917 0.29908,0 0.77864,-0.15533 1.06568,-0.34519 0.28704,-0.18985 1.35533,-0.67618 2.37398,-1.08073 2.91718,-1.15854 4.46463,-1.79292 4.90347,-2.01017 0.22306,-0.11043 0.81837,-0.2811 1.32292,-0.37925 0.50455,-0.0982 1.45314,-0.39928 2.10798,-0.66916 0.65484,-0.26988 1.96453,-0.69453 2.91042,-0.94366 0.94588,-0.24913 2.24701,-0.61799 2.8914,-0.81969 0.64439,-0.2017 1.44103,-0.36673 1.77032,-0.36673 0.32929,0 0.66417,-0.10591 0.74417,-0.23535 0.08,-0.12944 0.59304,-0.31122 1.14009,-0.40395 2.73319,-0.46331 3.77102,-0.67807 5.22797,-1.08183 0.87313,-0.24196 2.06375,-0.53357 2.64584,-0.64801 0.58208,-0.11445 1.45244,-0.4144 1.93412,-0.66657 0.48169,-0.25217 1.34313,-0.52117 1.91431,-0.59778 0.57119,-0.0766 1.18911,-0.32474 1.37317,-0.5514 0.28302,-0.34853 0.26322,-0.38533 -0.12837,-0.23857 -0.88614,0.33209 -0.45674,-0.33456 0.46302,-0.71886 1.2793,-0.53453 1.15811,-0.74574 -0.30226,-0.52674 -0.82923,0.12435 -1.17279,0.0944 -1.05744,-0.0922 0.25021,-0.40484 -2.73182,-0.55019 -14.64759,-0.71396 -6.45541,-0.0887 -11.2722,-0.0402 -12.59886,0.12698 -4.55007,0.57326 -8.26021,2.36955 -11.69043,5.66002 -3.10305,2.97663 -5.78826,6.8508 -7.5683,10.9194 -0.41005,0.93723 -0.42828,1.16436 -0.12135,1.51129 0.4968,0.56153 0.75811,0.5268 0.75811,-0.10075 z m 32.2467,108.8099 c -0.0783,-0.47871 0.1084,-17.49124 0.29402,-26.78907 0.1975,-9.89279 0.2235,-10.2581 0.90197,-12.67175 1.35225,-4.81056 4.4837,-10.23131 7.54115,-13.05425 3.07666,-2.84067 7.02524,-5.02269 11.13907,-6.15557 1.56578,-0.43118 3.92327,-0.4935 26.32604,-0.69591 13.53344,-0.12228 28.65437,-0.33293 33.60208,-0.46812 8.9209,-0.24375 9.50112,-0.30563 12.03854,-1.28382 0.21828,-0.0842 0.45641,-0.16644 0.52917,-0.18288 0.0728,-0.0164 0.78713,-0.34549 1.5875,-0.73123 2.39115,-1.15243 3.90459,-2.39979 5.58722,-4.60496 0.87627,-1.14838 1.79332,-2.32774 2.03789,-2.6208 0.24457,-0.29307 0.61363,-0.85862 0.82012,-1.25678 0.20649,-0.39816 0.47438,-0.72392 0.59531,-0.72392 0.12093,0 0.21987,-0.1786 0.21987,-0.39688 0,-0.21828 0.10616,-0.39687 0.23591,-0.39687 0.12974,0 0.30373,-0.27026 0.38663,-0.60058 0.0829,-0.33032 0.42323,-0.89307 0.75629,-1.25056 0.33305,-0.35749 0.60754,-0.71231 0.60998,-0.78849 0.002,-0.0762 0.23281,-0.40121 0.51196,-0.7223 0.27914,-0.32108 0.53076,-0.74201 0.55914,-0.93539 0.0614,-0.41863 5.9054,-9.52132 6.26287,-9.75518 0.13608,-0.089 0.24314,-0.26762 0.2379,-0.39688 -0.0193,-0.47671 4.9251,-8.03899 5.88455,-9.00016 0.30914,-0.30969 1.03832,-1.17753 1.6204,-1.92852 0.58208,-0.751 1.99801,-2.16449 3.14651,-3.14109 1.1485,-0.97661 2.23247,-1.91562 2.40883,-2.08671 0.49385,-0.47908 2.23603,-1.14414 2.99716,-1.14414 0.37546,0 1.70037,-0.34978 2.94425,-0.77728 1.24387,-0.4275 2.7676,-0.90834 3.38606,-1.06853 0.61846,-0.16019 1.12448,-0.38947 1.12448,-0.50951 0,-0.27894 -2.75409,-1.49995 -3.96875,-1.75952 -0.50932,-0.10884 -0.76631,-0.25312 -0.57109,-0.32061 0.19522,-0.0675 1.90274,0.38783 3.79449,1.01183 3.14814,1.03842 3.38705,1.16165 2.82005,1.45457 -0.34072,0.17602 -1.15023,0.40805 -1.79892,0.51562 -2.69274,0.44655 -6.3732,2.19172 -9.05517,4.2937 -2.39678,1.87847 -4.15862,4.20468 -9.27116,12.24098 -4.68205,7.35963 -9.23738,14.49214 -13.51852,21.16666 -2.03554,3.17353 -4.75895,7.30657 -6.10201,9.26042 -0.3501,0.50932 -2.63461,4.0812 -5.07667,7.9375 -5.48706,8.66469 -16.00661,25.1071 -19.80524,30.95625 l -2.83518,4.36562 -25.71269,0.13838 c -25.58584,0.1377 -25.72312,0.1413 -27.82934,0.72893 -2.85552,0.79669 -4.69397,1.54012 -6.74688,2.7283 -3.8244,2.21348 -7.31993,5.81895 -9.27568,9.56741 -1.02066,1.95623 -1.26731,2.29711 -1.34011,1.85209 z M 352.19248,189.5115 c 0,-0.3638 0.0601,-0.51263 0.13346,-0.33073 0.0734,0.18191 0.0734,0.47956 0,0.66146 -0.0734,0.1819 -0.13346,0.0331 -0.13346,-0.33073 z M 228.01152,163.66618 c 0.191,-0.0764 0.4192,-0.067 0.50712,0.0209 0.0879,0.0879 -0.0683,0.15045 -0.34727,0.13896 -0.30822,-0.0127 -0.37092,-0.0754 -0.15985,-0.15985 z m -1.73129,-0.2672 c 0.25743,-0.0671 0.61462,-0.0627 0.79375,0.01 0.17913,0.0725 -0.0315,0.12737 -0.46806,0.12197 -0.43656,-0.005 -0.58312,-0.0647 -0.32569,-0.13177 z"
         id="path9" /><path
         style="fill:#bf575b"
         d="m 262.45696,431.57301 c -4.58541,-0.14013 -35.03088,-0.19907 -70.51145,-0.13652 -72.82547,0.1284 -69.91009,0.20172 -81.62396,-2.05283 -1.0914,-0.21006 -2.31081,-0.44292 -2.70979,-0.51747 -0.82215,-0.15361 -1.35275,-0.31937 -5.19217,-1.62207 -1.50843,-0.5118 -2.81811,-0.94241 -2.91042,-0.95692 -0.0923,-0.0145 0.12983,-0.11354 0.49363,-0.22007 0.52543,-0.15386 0.25338,-0.26259 -1.32291,-0.52873 -5.66772,-0.95691 -10.83408,-2.97082 -14.81667,-5.77572 -1.83487,-1.29229 -5.36453,-4.73537 -6.34888,-6.19316 -0.32756,-0.48509 -0.0842,-0.28667 0.54083,0.44093 5.27028,6.13539 11.62616,9.58632 19.97303,10.84436 3.09851,0.46701 15.46835,0.57565 15.46835,0.13585 0,-0.14552 -0.1389,-0.26459 -0.30868,-0.26459 -0.16977,0 -0.24605,-0.0626 -0.16949,-0.13918 0.0765,-0.0765 1.07866,0.25087 2.22691,0.7276 l 2.08772,0.86679 h 94.85312 94.85312 l 2.24896,-0.7532 c 9.73214,-3.25942 16.13419,-9.53847 18.98207,-18.61739 l 0.72939,-2.32524 V 341.7792 279.07296 l -0.5972,-2.24062 c -1.25216,-4.69805 -4.47041,-9.91535 -7.97877,-12.9349 -3.03496,-2.61211 -6.70067,-4.58834 -10.47403,-5.64666 -2.08073,-0.58359 -2.44909,-0.59627 -21.69583,-0.74646 l -19.57917,-0.1528 19.84375,0.022 19.84375,0.022 2.24896,0.67592 c 2.90144,0.87202 4.27975,1.49217 7.09542,3.19247 5.08584,3.07118 9.72919,9.12706 11.45461,14.93916 0.31738,1.0691 0.67635,1.94382 0.79771,1.94382 0.66581,0 2.68035,5.50497 3.29203,8.99583 0.24224,1.38245 0.54038,3.09106 0.66255,3.79692 0.12216,0.70585 0.34052,1.65835 0.48524,2.11666 0.14471,0.45831 0.38472,1.78579 0.53334,2.94996 1.44489,11.31792 1.96077,14.64374 1.67815,10.81874 -0.10093,-1.36594 -0.0464,-1.93848 0.19901,-2.09016 0.26362,-0.16293 0.30571,0.0764 0.19122,1.0875 -0.11511,1.01649 -0.014,1.58207 0.46822,2.61934 1.06524,2.29134 1.24721,7.51624 1.97656,56.75312 0.14335,9.67713 0.335,17.93697 0.42589,18.35519 0.25051,1.15274 -0.39429,22.82341 -0.73315,24.6396 -0.1629,0.87312 -0.45682,1.90901 -0.65316,2.30196 -0.19634,0.39296 -0.35698,1.09629 -0.35698,1.56297 0,0.55354 -0.53753,1.7768 -1.54626,3.51887 -1.76828,3.05377 -2.13038,3.85794 -1.5025,3.33685 0.57266,-0.47527 0.52353,0.0442 -0.12427,1.31403 -0.28996,0.56837 -0.42393,1.09722 -0.29771,1.17522 0.27275,0.16857 3.86645,-1.68875 4.64628,-2.40132 0.29934,-0.27353 0.87488,-0.66629 1.27897,-0.87282 0.4041,-0.20653 1.83285,-1.51489 3.175,-2.90747 3.13889,-3.25681 5.29741,-6.85313 6.6571,-11.09141 1.83887,-5.73194 1.72103,-0.38346 1.79608,-81.52349 0.0374,-40.38538 0.13029,-86.34625 0.20653,-102.13526 0.11418,-23.64371 0.15923,-17.48341 0.25543,34.925 0.23183,126.29983 0.19856,141.37372 -0.31806,144.10152 -1.93044,10.19301 -7.67951,18.20351 -16.24876,22.6403 -4.23015,2.19019 -7.28142,3.08052 -12.99318,3.79126 -0.76412,0.0951 -1.33248,0.26485 -1.26301,0.37725 0.38195,0.61801 -2.23327,1.83651 -5.51143,2.56792 -1.03973,0.23198 -2.54526,0.57391 -3.34562,0.75985 -3.90307,0.90675 -5.34512,1.15643 -7.54063,1.30563 -1.30969,0.089 -3.45281,0.26228 -4.7625,0.38507 -1.30969,0.12279 -6.13172,0.23703 -10.71562,0.25387 -4.58391,0.0168 -10.83469,0.0787 -13.89063,0.13741 -3.05593,0.0587 -9.18765,-0.004 -13.62604,-0.13982 z m 73.55416,-14.25527 c 0.15577,-0.29104 0.34274,-0.52917 0.4155,-0.52917 0.0728,0 0.005,0.23813 -0.15091,0.52917 -0.15576,0.29104 -0.34273,0.52917 -0.4155,0.52917 -0.0728,0 -0.005,-0.23813 0.15091,-0.52917 z m 2.01057,-3.57187 c 0.5179,-1.28574 0.63704,-1.43183 0.62938,-0.77171 -0.003,0.27892 -0.24208,0.80478 -0.53078,1.16858 l -0.52489,0.66146 z M 76.42114,412.09222 c -0.32911,-0.41964 -0.31975,-0.429 0.0999,-0.0999 0.44073,0.34564 0.58089,0.56291 0.36313,0.56291 -0.0549,0 -0.2633,-0.20836 -0.46302,-0.46302 z m -2.49067,-4.0525 c -0.0959,-0.1552 -0.11766,-0.33893 -0.0483,-0.40828 0.0693,-0.0694 0.1966,0.0576 0.28277,0.28218 0.17891,0.46623 0.0264,0.54823 -0.23447,0.1261 z m -4.02878,-14.53448 c 0,-0.50932 0.0544,-0.71768 0.121,-0.46302 0.0666,0.25466 0.0666,0.67138 0,0.92604 -0.0666,0.25466 -0.121,0.0463 -0.121,-0.46302 z m -0.32989,-3.9026 c -0.006,-3.30209 -0.48724,-9.92984 -0.73432,-10.10482 -0.11477,-0.0813 -0.53978,-0.89572 -0.94446,-1.80985 -0.40468,-0.91414 -1.42306,-2.58101 -2.26306,-3.70417 -4.65528,-6.22448 -6.90345,-12.75828 -7.43951,-21.62126 -0.30126,-4.98098 -0.29476,-140.80833 0.008,-159.67604 0.19608,-12.23372 0.28698,-14.23778 0.76203,-16.80104 2.67656,-14.44206 10.18073,-25.87965 19.46228,-29.6637 4.26277,-1.73791 1.37883,-1.65364 58.2362,-1.70174 46.72811,-0.0395 51.7733,-0.003 53.60747,0.38659 2.84453,0.60443 4.66406,1.27164 7.39591,2.71203 4.63756,2.44518 8.05944,5.74168 11.62723,11.2012 0.99852,1.52797 1.97799,3.00652 2.17658,3.28567 0.29694,0.41738 0.82779,0.53941 2.98811,0.6869 1.44486,0.0986 -25.65507,0.19767 -60.22207,0.22006 -69.02796,0.0447 -64.00346,-0.0758 -67.65122,1.62197 -2.2993,1.07013 -3.57984,2.00564 -6.0334,4.40772 -5.9959,5.87012 -9.79744,13.65435 -10.70717,21.92455 -0.20983,1.90755 -0.23889,30.31293 -0.10415,101.79843 0.1028,54.53393 0.10881,99.1526 0.0134,99.1526 -0.0955,0 -0.1753,-1.04179 -0.17746,-2.3151 z M 65.07781,163.31775 c 0,-0.6718 0.44258,-0.68961 0.65311,-0.0263 0.15443,0.48656 0.20024,0.48804 1.41103,0.0455 0.68828,-0.25157 1.37549,-0.41605 1.52712,-0.36551 0.15163,0.0505 0.55748,-0.20804 0.90188,-0.57464 0.3444,-0.3666 0.82561,-0.66654 1.06935,-0.66654 0.43446,0 3.85131,-1.68869 4.34615,-2.14796 0.13825,-0.12831 0.46683,-0.23329 0.73019,-0.23329 0.26337,0 0.68273,-0.23813 0.93193,-0.52917 0.2492,-0.29104 0.69779,-0.52917 0.99687,-0.52917 0.29908,0 0.77864,-0.15533 1.06568,-0.34519 0.28704,-0.18985 1.35533,-0.67618 2.37398,-1.08073 2.91718,-1.15854 4.46463,-1.79292 4.90347,-2.01017 0.22306,-0.11043 0.81837,-0.2811 1.32292,-0.37925 0.50455,-0.0982 1.45314,-0.39928 2.10798,-0.66916 0.65484,-0.26988 1.96453,-0.69453 2.91042,-0.94366 0.94588,-0.24913 2.24701,-0.61799 2.8914,-0.81969 0.64439,-0.2017 1.44103,-0.36673 1.77032,-0.36673 0.32929,0 0.66417,-0.10591 0.74417,-0.23535 0.08,-0.12944 0.59304,-0.31122 1.14009,-0.40395 2.73319,-0.46331 3.77102,-0.67807 5.22797,-1.08183 0.87313,-0.24196 2.06375,-0.53357 2.64584,-0.64801 0.58208,-0.11445 1.45244,-0.41441 1.93412,-0.66657 0.48169,-0.25217 1.34313,-0.52117 1.91431,-0.59778 0.57119,-0.0766 1.18911,-0.32474 1.37317,-0.5514 0.28302,-0.34853 0.26322,-0.38533 -0.12837,-0.23858 -0.88614,0.3321 -0.45674,-0.33455 0.46302,-0.71885 1.2793,-0.53453 1.15811,-0.74574 -0.30226,-0.52674 -0.82923,0.12435 -1.17279,0.0944 -1.05744,-0.0922 0.25021,-0.40484 -2.73182,-0.5502 -14.64759,-0.71396 -6.45541,-0.0887 -11.2722,-0.0402 -12.59886,0.12698 -4.55007,0.57326 -8.26021,2.36955 -11.69043,5.66002 -3.10305,2.97663 -5.78826,6.8508 -7.5683,10.9194 -0.41005,0.93723 -0.42828,1.16436 -0.12135,1.51129 0.4968,0.56153 0.75811,0.5268 0.75811,-0.10075 z m 287.11467,26.19375 c 0,-0.3638 0.0601,-0.51263 0.13346,-0.33073 0.0734,0.1819 0.0734,0.47956 0,0.66146 -0.0734,0.1819 -0.13346,0.0331 -0.13346,-0.33073 z m -116.9876,-23.54791 c -0.48365,-0.31256 -0.0659,-0.31256 0.66146,0 0.34891,0.14993 0.39398,0.23234 0.13229,0.24193 -0.21828,0.008 -0.57547,-0.10087 -0.79375,-0.24193 z m -5.87044,-2.03283 c 0.19099,-0.0764 0.4192,-0.067 0.50712,0.0209 0.0879,0.0879 -0.0684,0.15045 -0.34727,0.13897 -0.30822,-0.0127 -0.37092,-0.0754 -0.15985,-0.15986 z m -2.92696,-0.52365 c 0.18191,-0.0734 0.47956,-0.0734 0.66146,0 0.1819,0.0734 0.0331,0.13345 -0.33073,0.13345 -0.3638,0 -0.51263,-0.06 -0.33073,-0.13345 z m -5.28279,-0.28473 c 0.76886,-0.0536 1.95948,-0.053 2.64583,0.001 0.68635,0.0543 0.0573,0.0982 -1.39793,0.0975 -1.45521,-6.9e-4 -2.01677,-0.0451 -1.2479,-0.0987 z"
         id="path8" /></g></g></svg>

