<?xml version="1.0" encoding="UTF-8" standalone="no"?>
<!-- Created with Inkscape (http://www.inkscape.org/) -->

<svg
   width="512"
   height="512"
   viewBox="0 0 135.46666 135.46667"
   version="1.1"
   id="svg1"
   xml:space="preserve"
   inkscape:version="1.4 (1:1.4+202410161351+e7c3feb100)"
   sodipodi:docname="cpplay.svg"
   xmlns:inkscape="http://www.inkscape.org/namespaces/inkscape"
   xmlns:sodipodi="http://sodipodi.sourceforge.net/DTD/sodipodi-0.dtd"
   xmlns="http://www.w3.org/2000/svg"
   xmlns:svg="http://www.w3.org/2000/svg"><sodipodi:namedview
     id="namedview1"
     pagecolor="#ffffff"
     bordercolor="#000000"
     borderopacity="0.25"
     inkscape:showpageshadow="2"
     inkscape:pageopacity="0.0"
     inkscape:pagecheckerboard="0"
     inkscape:deskcolor="#d1d1d1"
     inkscape:document-units="px"
     inkscape:zoom="0.43077335"
     inkscape:cx="414.37104"
     inkscape:cy="487.49534"
     inkscape:window-width="1920"
     inkscape:window-height="1020"
     inkscape:window-x="0"
     inkscape:window-y="0"
     inkscape:window-maximized="1"
     inkscape:current-layer="layer1" /><defs
     id="defs1" /><g
     inkscape:label="Camada 1"
     inkscape:groupmode="layer"
     id="layer1"><rect
       style="fill:#ffffff;fill-opacity:1;stroke-width:0.219381"
       id="rect27"
       width="135.46666"
       height="135.46666"
       x="2.7270507e-06"
       y="2.7270507e-06"
       ry="22.917292" /><g
       id="g27"
       transform="matrix(0.43270194,0,0,0.43270194,-61.232074,17.905086)"><g
         id="g23"><path
           style="fill:#fbcc5f"
           d="m 248.66903,240.8219 c -2.1189,-0.75136 -5.6648,-2.6082 -22.98215,-12.03482 -10.41061,-5.66697 -17.12467,-9.46559 -21.89106,-12.38532 -43.48376,-26.63669 -63.83894,-63.52592 -57.47218,-104.15552 4.78599,-30.541863 23.26031,-57.390586 52.25445,-75.941376 7.38363,-4.724133 16.38414,-9.292383 24.85983,-12.617717 13.42485,-5.26708 20.69596,-8.414167 26.45833,-11.451719 9.07933,-4.7860379 16.16203,-9.5802702 23.11545,-15.6466891 1.43563,-1.2524997 3.40017,-2.9652995 4.36563,-3.8062216 2.31575,-2.0170361 5.42103,-3.5526643 7.86155,-3.8877013 5.93462,-0.814711 11.25542,2.8285976 12.54685,8.5911813 0.1965,0.8768346 0.23869,11.1526227 0.13837,33.7038607 -0.21625,48.612871 -0.20031,48.171874 -1.98728,55.005373 -2.22789,8.519606 -6.24551,15.586709 -12.29557,21.628239 -4.0934,4.08764 -7.2375,6.38335 -11.91688,8.70132 -8.2818,4.10246 -15.01558,5.38311 -26.72291,5.08225 -7.5724,-0.19459 -8.83441,-0.0691 -11.40637,1.13449 -4.47802,2.09552 -7.86542,8.46857 -8.96676,16.87005 -0.46264,3.52922 -0.51653,9.97425 -0.11609,13.88487 1.3006,12.70167 6.48622,25.00266 15.71738,37.28375 4.11707,5.47732 6.26922,7.97801 12.92871,15.02248 7.66946,8.11282 10.21764,11.7462 11.81324,16.84419 0.80264,2.56443 0.99244,6.56386 0.42563,8.96857 -0.9175,3.89254 -3.52061,7.25625 -6.89642,8.91147 -1.71323,0.84002 -2.05701,0.9109 -4.7625,0.98195 -2.6499,0.0696 -3.11248,0.007 -5.06925,-0.68696 z"
           id="path23" /><path
           style="fill:#f9a165"
           d="m 219.86604,26.45834 c 0.20696,-0.334856 -0.1433,-0.334856 -0.66146,0 -0.34202,0.221032 -0.33504,0.25704 0.0505,0.260532 0.24607,0.0022 0.52099,-0.115011 0.61092,-0.260532 z"
           id="path22" /><path
           style="fill:#f9a165"
           d="m 248.66903,240.8219 c -2.1189,-0.75136 -5.6648,-2.6082 -22.98215,-12.03482 -10.41061,-5.66697 -17.12467,-9.46559 -21.89106,-12.38532 -43.48376,-26.63669 -63.83894,-63.52592 -57.47218,-104.15552 3.3406,-21.318102 13.18342,-40.661786 28.82469,-56.647998 8.00722,-8.183802 14.86088,-13.694265 24.21251,-19.467296 4.76326,-2.940501 13.82851,-7.611441 17.70112,-9.120643 2.32068,-0.904398 2.91068,-0.772737 4.30343,-0.941735 26.90154,-3.264277 57.8362,82.877232 52.52594,88.061702 -2.81075,2.74417 -7.73613,4.81058 -15.66041,6.5702 -2.43488,0.54067 -3.39471,0.5908 -12.03854,0.62876 -8.93637,0.0392 -9.47519,0.0696 -11.09056,0.62475 -0.93381,0.32093 -2.20311,0.93114 -2.82066,1.35603 -3.80775,2.6198 -6.68377,8.64693 -7.65253,16.03699 -0.46232,3.52681 -0.51733,10.23099 -0.11609,14.14945 1.3006,12.70167 6.48622,25.00266 15.71738,37.28375 4.11707,5.47732 6.26922,7.97801 12.92871,15.02248 7.66946,8.11282 10.21764,11.7462 11.81324,16.84419 0.80264,2.56443 0.99244,6.56386 0.42563,8.96857 -0.9175,3.89254 -3.52061,7.25625 -6.89642,8.91147 -1.71323,0.84002 -2.05701,0.9109 -4.7625,0.98195 -2.6499,0.0696 -3.11248,0.007 -5.06925,-0.68696 z"
           id="path21" /></g><g
         id="g26"
         transform="rotate(180,298.04675,115.15605)"><path
           style="fill:#efa903;fill-opacity:1"
           d="m 248.66903,240.8219 c -2.1189,-0.75136 -5.6648,-2.6082 -22.98215,-12.03482 -10.41061,-5.66697 -17.12467,-9.46559 -21.89106,-12.38532 -43.48376,-26.63669 -63.83894,-63.52592 -57.47218,-104.15552 4.78599,-30.541863 23.26031,-57.390586 52.25445,-75.941376 7.38363,-4.724133 16.38414,-9.292383 24.85983,-12.617717 13.42485,-5.26708 20.69596,-8.414167 26.45833,-11.451719 9.07933,-4.7860379 16.16203,-9.5802702 23.11545,-15.6466891 1.43563,-1.2524997 3.40017,-2.9652995 4.36563,-3.8062216 2.31575,-2.0170361 5.42103,-3.5526643 7.86155,-3.8877013 5.93462,-0.814711 11.25542,2.8285976 12.54685,8.5911813 0.1965,0.8768346 0.23869,11.1526227 0.13837,33.7038607 -0.21625,48.612871 -0.20031,48.171874 -1.98728,55.005373 -2.22789,8.519606 -6.24551,15.586709 -12.29557,21.628239 -4.0934,4.08764 -7.2375,6.38335 -11.91688,8.70132 -8.2818,4.10246 -15.01558,5.38311 -26.72291,5.08225 -7.5724,-0.19459 -8.83441,-0.0691 -11.40637,1.13449 -4.47802,2.09552 -7.86542,8.46857 -8.96676,16.87005 -0.46264,3.52922 -0.51653,9.97425 -0.11609,13.88487 1.3006,12.70167 6.48622,25.00266 15.71738,37.28375 4.11707,5.47732 6.26922,7.97801 12.92871,15.02248 7.66946,8.11282 10.21764,11.7462 11.81324,16.84419 0.80264,2.56443 0.99244,6.56386 0.42563,8.96857 -0.9175,3.89254 -3.52061,7.25625 -6.89642,8.91147 -1.71323,0.84002 -2.05701,0.9109 -4.7625,0.98195 -2.6499,0.0696 -3.11248,0.007 -5.06925,-0.68696 z"
           id="path24" /><path
           style="fill:#f9a165"
           d="m 219.86604,26.45834 c 0.20696,-0.334856 -0.1433,-0.334856 -0.66146,0 -0.34202,0.221032 -0.33504,0.25704 0.0505,0.260532 0.24607,0.0022 0.52099,-0.115011 0.61092,-0.260532 z"
           id="path25" /><path
           style="fill:#f8883a;fill-opacity:1"
           d="m 248.66903,240.8219 c -2.1189,-0.75136 -5.6648,-2.6082 -22.98215,-12.03482 -10.41061,-5.66697 -17.12467,-9.46559 -21.89106,-12.38532 -43.48376,-26.63669 -63.83894,-63.52592 -57.47218,-104.15552 3.3406,-21.318102 13.18342,-40.661786 28.82469,-56.647998 8.00722,-8.183802 14.86088,-13.694265 24.21251,-19.467296 4.76326,-2.940501 13.82851,-7.611441 17.70112,-9.120643 2.32068,-0.904398 2.91068,-0.772737 4.30343,-0.941735 26.90154,-3.264277 57.8362,82.877232 52.52594,88.061702 -2.81075,2.74417 -7.73613,4.81058 -15.66041,6.5702 -2.43488,0.54067 -3.39471,0.5908 -12.03854,0.62876 -8.93637,0.0392 -9.47519,0.0696 -11.09056,0.62475 -0.93381,0.32093 -2.20311,0.93114 -2.82066,1.35603 -3.80775,2.6198 -6.68377,8.64693 -7.65253,16.03699 -0.46232,3.52681 -0.51733,10.23099 -0.11609,14.14945 1.3006,12.70167 6.48622,25.00266 15.71738,37.28375 4.11707,5.47732 6.26922,7.97801 12.92871,15.02248 7.66946,8.11282 10.21764,11.7462 11.81324,16.84419 0.80264,2.56443 0.99244,6.56386 0.42563,8.96857 -0.9175,3.89254 -3.52061,7.25625 -6.89642,8.91147 -1.71323,0.84002 -2.05701,0.9109 -4.7625,0.98195 -2.6499,0.0696 -3.11248,0.007 -5.06925,-0.68696 z"
           id="path26" /></g></g></g></svg>

