<?xml version="1.0" encoding="UTF-8" standalone="no"?>
<!-- Created with Inkscape (http://www.inkscape.org/) -->

<svg
   width="1024"
   height="1024"
   viewBox="0 0 270.93333 270.93333"
   version="1.1"
   id="svg1"
   xml:space="preserve"
   inkscape:version="1.4 (e7c3feb100, 2024-10-09)"
   sodipodi:docname="extrai-legendas.svg"
   xmlns:inkscape="http://www.inkscape.org/namespaces/inkscape"
   xmlns:sodipodi="http://sodipodi.sourceforge.net/DTD/sodipodi-0.dtd"
   xmlns="http://www.w3.org/2000/svg"
   xmlns:svg="http://www.w3.org/2000/svg"><sodipodi:namedview
     id="namedview1"
     pagecolor="#ffffff"
     bordercolor="#000000"
     borderopacity="0.25"
     inkscape:showpageshadow="2"
     inkscape:pageopacity="0.0"
     inkscape:pagecheckerboard="0"
     inkscape:deskcolor="#d1d1d1"
     inkscape:document-units="px"
     inkscape:zoom="0.33496072"
     inkscape:cx="373.17809"
     inkscape:cy="609.02664"
     inkscape:window-width="1920"
     inkscape:window-height="1005"
     inkscape:window-x="0"
     inkscape:window-y="0"
     inkscape:window-maximized="1"
     inkscape:current-layer="layer1"
     showgrid="false" /><defs
     id="defs1" /><g
     inkscape:label="Camada 1"
     inkscape:groupmode="layer"
     id="layer1"><g
       id="g6"
       transform="matrix(1.1378816,0,0,1.1378816,-11.717338,-16.903376)"><path
         style="fill:#faab4c;stroke-width:0.561938"
         d="m 96.529168,245.66528 c -5.246982,-5.45962 -10.298763,-10.93115 -10.294352,-11.1497 0.0045,-0.21732 0.234745,-0.43518 2.004901,-1.89612 5.984217,-4.9389 14.643873,-12.5813 24.680803,-21.78154 6.15276,-5.63987 8.7447,-8.0988 15.53606,-14.73879 6.5094,-6.36431 7.73228,-7.60688 7.73228,-7.85681 0,-0.0935 -0.3178,-0.30423 -0.70622,-0.4684 -3.55425,-1.50223 -8.25809,-4.22381 -12.54434,-7.25797 -1.39856,-0.99003 -3.45022,-2.61177 -4.64555,-3.6721 -2.12206,-1.88241 -2.40903,-2.07167 -2.81317,-1.85538 -0.18836,0.10081 -2.28084,2.1363 -4.64996,4.5233 -18.10922,18.24596 -24.802232,25.02237 -32.925383,33.33569 -5.112094,5.23177 -9.754581,9.99559 -10.316638,10.58629 -0.562056,0.59068 -1.078,1.03931 -1.146545,0.99695 -0.133696,-0.0826 -4.254531,-4.55505 -16.594125,-18.00991 -0.840216,-0.91616 -1.527669,-1.73097 -1.527669,-1.8107 0,-0.0797 1.856639,-1.83811 4.125859,-3.90753 13.97112,-12.74099 21.298341,-19.56569 21.298341,-19.83766 0,-0.20208 -1.350737,-1.7649 -6.997858,-8.09661 -2.747463,-3.08053 -4.004423,-4.5971 -4.004423,-4.83146 0,-0.13428 4.539911,-4.2925 8.474626,-7.76213 0.286156,-0.25233 0.471399,-0.50766 0.411659,-0.5674 -0.233564,-0.23356 -2.660795,-0.0629 -5.317977,0.37394 -0.449758,0.0739 -1.419889,0.14497 -2.155854,0.15784 -0.735965,0.0129 -1.739553,0.0754 -2.230193,0.13901 -0.55216,0.0716 -0.964016,0.0589 -1.080877,-0.0332 -0.127538,-0.10053 -0.754711,-0.0698 -1.932832,0.0948 -0.959223,0.13396 -3.818118,0.48655 -6.353101,0.78355 -4.277627,0.50115 -4.935157,0.54117 -9.143794,0.55648 -3.723055,0.0135 -4.827455,-0.0315 -6.170196,-0.25151 -4.697574,-0.76986 -7.927192,-2.26421 -10.481915,-4.85003 -3.593102,-3.63683 -5.845941,-9.57226 -7.339651,-19.33739 -0.873331,-5.70938 -1.579727,-14.39863 -1.580626,-19.44304 -4.78e-4,-2.67703 0.0045,-2.71861 0.334044,-2.85587 0.18399,-0.0766 2.977307,-0.4146 6.207368,-0.75112 3.230061,-0.33651 9.853736,-1.0401 14.719273,-1.56352 4.865538,-0.52342 10.753248,-1.15043 13.083797,-1.39334 5.853347,-0.61009 17.184806,-1.80387 26.316277,-2.77244 4.211346,-0.44669 9.371542,-0.99211 11.4671,-1.21205 l 3.810105,-0.39988 0.186148,-1.04761 c 0.250956,-1.41229 1.454442,-5.5331 2.305959,-7.895719 2.106999,-5.846082 5.331561,-12.247977 8.869801,-17.609669 4.23239,-6.413584 10.07968,-12.936429 15.61514,-17.419203 0.80163,-0.649193 1.45749,-1.193789 1.45746,-1.210214 -4e-5,-0.01643 -11.45766,-0.0309 -25.461371,-0.03217 -14.003718,-0.0013 -25.578384,-0.04935 -25.721487,-0.106844 -0.24609,-0.09887 -0.260189,-1.248736 -0.260189,-21.214956 V 19.202662 l 0.483205,-0.08594 c 0.265764,-0.04727 15.938444,-0.06703 34.828172,-0.04391 l 34.34498,0.04204 0.0378,16.317577 c 0.0211,9.102805 0.0949,16.317577 0.16696,16.317577 0.071,0 0.42197,-0.129326 0.77991,-0.287391 0.35793,-0.158065 1.55823,-0.560222 2.66733,-0.893682 3.87135,-1.163956 8.22563,-2.012794 13.37816,-2.607981 1.76164,-0.203493 3.54331,-0.43453 3.95927,-0.513415 4.44829,-0.843601 11.97595,-1.139555 17.21962,-0.676998 10.69111,0.943089 20.75058,4.513299 30.24611,10.734663 9.98693,6.543324 17.26422,14.033178 23.15566,23.832029 1.60209,2.664676 4.27508,8.115183 5.50639,11.228126 2.9504,7.459133 4.54526,14.297243 5.11414,21.927403 0.23074,3.09478 0.096,11.58522 -0.22656,14.27323 -0.82885,6.90777 -2.70297,14.11959 -5.21599,20.07174 -4.79984,11.36857 -12.55952,21.58129 -22.33291,29.39294 -10.17387,8.13175 -23.26641,13.69161 -36.02225,15.29717 -3.55848,0.4479 -21.07846,0.54886 -24.45779,0.14094 -0.3329,-0.0402 -0.73644,0.009 -0.91665,0.1107 -0.47717,0.27048 -4.71442,3.92986 -7.65298,6.60928 -4.31683,3.93614 -8.3551,7.86076 -15.8206,15.37534 -11.2785,11.35264 -17.05744,17.59184 -26.86909,29.00909 -1.87983,2.18745 -3.469799,3.97718 -3.533269,3.97718 -0.06347,0 -1.449622,-1.3883 -3.080339,-3.0851 z M 109.57932,227.9878 c 0.77692,-0.51738 1.78006,-1.60778 1.78006,-1.93491 0,-0.35292 -1.13031,-1.80558 -1.92563,-2.47481 -0.26183,-0.22032 -0.60962,-0.40058 -0.77286,-0.40058 -0.16826,0 -0.77308,0.46712 -1.39665,1.07868 -1.33452,1.30881 -1.33263,1.35302 0.12346,2.8859 1.11636,1.17524 1.48385,1.31705 2.19162,0.84572 z m 7.01977,-6.68737 c 0.25696,-0.13288 0.82234,-0.57747 1.25639,-0.98799 1.09126,-1.03206 1.07052,-1.29153 -0.21183,-2.65088 -0.55056,-0.58363 -1.13598,-1.11207 -1.30094,-1.17433 -0.4017,-0.15159 -0.86243,0.10992 -1.89823,1.07745 -1.09386,1.02175 -1.10286,1.27597 -0.0877,2.47636 0.62006,0.73322 1.48812,1.48485 1.73058,1.49849 0.0245,10e-4 0.25479,-0.10622 0.51175,-0.2391 z m 7.39805,-7.32071 c 1.73679,-1.39685 1.75409,-1.60906 0.26019,-3.19134 -1.38902,-1.47119 -1.53171,-1.47879 -2.93364,-0.15629 -0.70225,0.66247 -1.04354,1.09585 -1.04354,1.32512 0,0.40586 1.35074,2.07247 1.99938,2.46693 0.55148,0.33538 0.84125,0.2604 1.71761,-0.44442 z m 7.66389,-7.34921 c 0.91769,-0.85249 0.99766,-0.97367 0.89983,-1.36344 -0.12558,-0.50037 -2.11128,-2.6078 -2.45582,-2.60636 -0.61929,0.003 -2.53959,1.77053 -2.53959,2.33812 0,0.25612 0.3257,0.70472 1.06588,1.46808 1.40471,1.44867 1.63307,1.461 3.0297,0.1636 z m -52.813692,-1.93442 c 1.34958,-1.25976 1.344831,-1.47973 -0.0645,-2.98883 -0.581067,-0.6222 -1.217158,-1.1716 -1.413539,-1.22089 -0.429866,-0.10789 -0.873876,0.16185 -1.970544,1.1971 -0.963516,0.90956 -1.138588,1.28919 -0.848336,1.83953 0.23448,0.44457 1.782255,1.98811 2.229704,2.22359 0.447938,0.23574 0.977655,-0.0334 2.067215,-1.0505 z m -13.117383,-4.93446 c 0.740994,-0.55894 0.951226,-0.98637 0.951226,-1.93399 0,-0.71446 -0.07223,-0.98836 -0.362798,-1.37571 -0.514837,-0.68629 -1.490469,-1.12964 -2.216128,-1.00704 -1.065744,0.18006 -2.104476,1.35671 -2.104476,2.3839 0,0.60101 0.54322,1.51354 1.152704,1.93636 0.471512,0.3271 0.683789,0.37816 1.381604,0.3323 0.508038,-0.0334 0.967799,-0.16229 1.197868,-0.33582 z m 71.440185,-1.09347 c 1.09313,-0.79793 2.14099,-1.83456 2.14099,-2.11807 0,-0.36982 -0.43638,-0.36947 -2.28218,0.002 -2.47501,0.49788 -2.76551,0.81753 -1.7154,1.88752 0.75166,0.76588 1.06739,0.80478 1.85659,0.2287 z m -51.011938,-1.9338 c 0.24532,-0.15094 0.797295,-0.60572 1.226604,-1.01061 1.071313,-1.01038 1.05672,-1.31125 -0.127239,-2.62306 -1.146945,-1.2708 -1.608791,-1.53361 -2.177292,-1.23898 -0.57869,0.29991 -2.267366,2.09659 -2.267366,2.41237 0,0.31384 2.37841,2.73607 2.685791,2.73527 0.117405,-3.1e-4 0.414182,-0.12405 0.659502,-0.27499 z m -13.592031,-3.83534 c 1.756479,-0.70281 1.982344,-2.94468 0.413705,-4.10633 -0.539231,-0.39934 -1.59613,-0.50062 -2.163294,-0.20733 -0.656092,0.33928 -1.330468,1.17459 -1.44616,1.79127 -0.133331,0.71072 0.30543,1.70785 0.972912,2.21104 0.790625,0.59602 1.324466,0.6708 2.222837,0.31135 z m 21.220136,-3.92392 c 1.587819,-1.33655 1.579643,-1.50883 -0.156927,-3.30627 -1.283276,-1.32826 -1.437893,-1.32376 -2.872955,0.0837 -0.765101,0.75036 -1.104253,1.19247 -1.104253,1.43949 0,0.50825 2.184917,2.68131 2.69595,2.68131 0.237025,0 0.756734,-0.32457 1.438185,-0.89819 z m 6.216203,-7.15475 c 0.95629,-0.71701 1.84138,-1.68349 1.84138,-2.01069 0,-0.35337 -1.57381,-2.30242 -2.076294,-2.57134 -0.530925,-0.28414 -0.854208,-0.15154 -1.845776,0.75705 -1.237377,1.13383 -1.356351,1.34106 -1.078141,1.87788 0.313208,0.60435 2.103043,2.2687 2.43974,2.2687 0.159596,0 0.483194,-0.14472 0.719091,-0.3216 z m 13.32687,-8.71565 c 0.14311,-0.12483 0.25988,-0.30022 0.25951,-0.38977 -3.8e-4,-0.0895 -0.71,-0.93222 -1.57693,-1.87262 -0.86692,-0.9404 -2.58141,-2.9643 -3.80996,-4.49755 -1.64105,-2.04808 -2.31736,-2.7872 -2.54894,-2.78572 -0.52513,0.003 -0.98426,0.17091 -0.98426,0.35914 0,0.68755 6.25246,8.66685 7.44663,9.50328 0.35011,0.24523 0.66338,0.16349 1.21395,-0.31676 z M 103.3114,159.26037 c 0.15929,-0.1009 0.0864,-0.2545 -0.33385,-0.70395 l -0.53759,-0.57489 -0.29473,0.3717 c -0.29932,0.37749 -0.38189,0.76197 -0.20222,0.94164 0.14268,0.14268 1.12791,0.11784 1.36839,-0.0345 z m -10.611303,-6.11365 c 0.981285,-0.99425 2.352859,-2.24604 3.047932,-2.78173 1.356609,-1.04554 2.071097,-1.77129 2.077514,-2.11026 0.0022,-0.11622 -0.103858,-0.33049 -0.235677,-0.47615 -0.227152,-0.251 -0.294046,-0.22093 -1.279343,0.57516 -0.571817,0.46201 -1.408015,1.27843 -1.858218,1.81427 -1.450969,1.72699 -2.739691,2.98144 -3.062873,2.98144 -0.169132,0 -0.768063,-0.27361 -1.330962,-0.60802 -1.154491,-0.68587 -1.392275,-0.68514 -2.190453,0.007 l -0.520377,0.45107 0.817733,0.76955 c 0.449758,0.42325 1.075876,0.95681 1.391376,1.1857 0.528733,0.38357 0.604393,0.39986 0.966421,0.20807 0.216026,-0.11445 1.195648,-1.02157 2.176927,-2.01583 z m -11.168278,-1.58635 c 0.99081,-0.79221 2.470529,-2.0172 3.288267,-2.72219 0.817738,-0.705 2.657648,-2.24509 4.088686,-3.42244 1.431038,-1.17735 3.286677,-2.74016 4.123633,-3.47291 l 1.521735,-1.33228 -0.09061,-0.60698 c -0.218554,-1.46402 -0.452326,-2.24245 -0.673438,-2.24245 -0.123536,0 -0.966433,0.90577 -1.873103,2.01282 -2.591025,3.16366 -4.671124,5.38784 -11.153331,11.92588 -0.709408,0.71553 -1.232112,1.30095 -1.161572,1.30095 0.07055,0 0.938926,-0.64818 1.929736,-1.4404 z m -39.977476,-1.1597 c 4.906424,-0.52915 10.827586,-1.16529 13.158141,-1.41364 2.330549,-0.24835 4.429974,-0.49111 4.665381,-0.53946 l 0.428012,-0.0879 -0.09716,-1.28493 c -0.187732,-2.48272 -0.207102,-2.54871 -0.748265,-2.54871 -0.462554,0 -2.377966,0.19879 -17.183087,1.78327 -3.884253,0.41569 -7.764792,0.82756 -8.623411,0.91525 -0.858625,0.0877 -1.637646,0.23563 -1.731152,0.32876 -0.191852,0.19108 0.03625,3.46259 0.261408,3.74948 0.06929,0.0883 0.311241,0.13789 0.537674,0.11024 0.226427,-0.0276 4.426034,-0.48321 9.332459,-1.01236 z m -2.09485,-10.41393 c 13.941736,-1.48029 19.737136,-2.12548 19.817954,-2.2063 0.0994,-0.0994 -0.211199,-3.66947 -0.329544,-3.78781 -0.08109,-0.0811 -6.430069,0.55523 -21.556585,2.16049 -3.516273,0.37316 -6.454885,0.73518 -6.530258,0.8045 -0.139872,0.12863 0.117192,3.43006 0.288685,3.70755 0.123722,0.20018 -0.261122,0.2316 8.309748,-0.67843 z M 168.6853,134.77958 c 2.47053,-0.80646 5.078,-2.45409 6.43064,-4.06342 2.0746,-2.46831 3.03809,-5.25567 3.03818,-8.78941 6e-5,-2.36131 -0.36655,-3.97505 -1.36797,-6.02152 -1.21238,-2.47758 -2.88068,-4.20971 -5.39857,-5.6051 -1.52108,-0.84297 -3.96458,-1.77291 -4.91266,-1.86966 -0.64008,-0.0653 -0.7966,-0.0157 -1.51903,0.48191 -0.99692,0.6866 -2.63367,2.3963 -3.39372,3.54498 -4.43997,6.7102 -2.9893,16.43331 3.14235,21.06155 0.76894,0.58041 2.56924,1.64031 2.78615,1.64031 0.0174,0 0.55497,-0.17084 1.19463,-0.37964 z m -89.531228,-1.33085 c 7.286768,-0.77723 13.404434,-1.48069 13.594807,-1.56324 0.376134,-0.1631 0.372121,-0.0118 0.07978,-3.00797 -0.0825,-0.84553 -0.08864,-0.85491 -0.55982,-0.85491 -0.262021,0 -3.28294,0.30298 -6.713152,0.67329 -3.430207,0.37031 -9.378134,1.00608 -13.217611,1.41282 -3.839472,0.40674 -7.027843,0.78954 -7.085262,0.85067 -0.098,0.10434 0.0916,2.83642 0.247601,3.56795 0.03922,0.18399 0.146407,0.33453 0.238161,0.33453 0.09176,0 6.12873,-0.63591 13.415497,-1.41314 z m -40.832038,-6.37516 c 3.210421,-0.3519 5.880516,-0.68319 5.933541,-0.73621 0.132247,-0.13225 -0.21502,-4.13973 -0.372363,-4.29707 -0.122604,-0.1226 -12.778585,1.14283 -12.928432,1.29267 -0.08459,0.0846 0.257137,4.10844 0.363535,4.28059 0.116074,0.18782 0.951266,0.12342 7.003719,-0.53998 z m 15.089523,-1.85359 c 0.126122,-0.12612 -0.180292,-3.93572 -0.336949,-4.18919 -0.125942,-0.20378 -3.767533,0.12028 -4.084635,0.36348 -0.178089,0.13658 -0.182197,0.45164 -0.02731,2.09361 0.100289,1.06306 0.226753,2.00367 0.281031,2.09023 0.109291,0.17432 3.966875,-0.15716 4.167846,-0.35813 z m 17.199484,-1.4376 c 2.663229,-0.28778 8.555507,-0.93011 13.093946,-1.42741 4.538444,-0.4973 8.418331,-0.91417 8.621972,-0.92639 0.472056,-0.0283 0.555257,-0.39119 0.578572,-2.52329 l 0.01759,-1.609 -0.780566,0.0891 c -0.429315,0.049 -5.56433,0.59144 -11.411153,1.20547 -15.674091,1.64609 -15.945373,1.67658 -16.06057,1.80513 -0.07559,0.0844 0.176977,3.45084 0.290528,3.8725 0.02602,0.0965 1.165797,-0.002 5.649683,-0.48607 z m 33.701989,-16.3027 c 1.95117,-5.69184 6.37316,-16.625935 9.29861,-22.9923 1.04972,-2.28442 1.17325,-2.644069 1.09797,-3.19661 -0.0828,-0.607582 -0.0328,-0.697255 2.07379,-3.720285 1.18725,-1.703734 2.15864,-3.153359 2.15864,-3.22139 0,-0.06803 -0.0836,-0.154358 -0.18585,-0.191838 -0.14868,-0.05451 -0.14868,-0.107545 0,-0.265145 0.10221,-0.10835 0.18585,-0.378761 0.18585,-0.600912 0,-0.222153 0.0765,-0.429431 0.17012,-0.46062 0.24554,-0.08185 -0.13052,-1.157509 -0.40467,-1.157509 -0.13057,0 -0.21149,-0.153374 -0.21149,-0.400865 v -0.400865 l -0.53388,0.512375 c -0.78968,0.757868 -3.10712,3.5432 -4.57038,5.493138 -1.26074,1.680055 -3.51915,5.2914 -3.51915,5.627348 0,0.09413 0.12561,0.171153 0.27915,0.171153 0.15353,0 0.36313,0.101184 0.46576,0.224853 0.13868,0.167095 0.23716,0.182902 0.3834,0.06154 0.10823,-0.08982 0.25431,-0.127755 0.32463,-0.08429 0.22049,0.136267 1.13567,-0.256252 1.77116,-0.759646 0.33551,-0.265764 0.65092,-0.483209 0.70091,-0.483209 0.05,0 -0.50314,1.187578 -1.22918,2.639062 -3.18017,6.357703 -6.04201,13.466321 -7.80506,19.387265 -1.16946,3.9275 -1.9188,7.33693 -1.42749,6.49499 0.0797,-0.13648 0.51937,-1.3408 0.97716,-2.67624 z m 16.30014,-40.527184 c 6.01872,-5.736821 10.80209,-9.333969 17.26336,-12.982247 0.64202,-0.362505 1.0702,-0.678801 0.95153,-0.702881 -0.26846,-0.05447 -1.21861,0.320352 -3.23392,1.275745 -0.85862,0.407048 -2.02947,0.951932 -2.60189,1.210854 -4.39101,1.986195 -11.59775,7.071715 -15.38833,10.858956 l -1.70982,1.708306 0.59473,0.100509 c 0.32709,0.05528 0.7787,0.06512 1.00358,0.02186 0.25035,-0.04816 0.40887,-0.0138 0.40887,0.08862 0,0.092 0.19779,0.167265 0.43953,0.167265 0.35799,0 0.77954,-0.324087 2.27236,-1.746984 z m -36.346638,-14.053371 0.04113,-2.19618 -2.940416,0.04033 -2.94041,0.04033 -0.0417,1.999672 c -0.02293,1.09982 -0.0078,2.088131 0.03372,2.196246 0.05968,0.155542 0.673545,0.188141 2.940939,0.15618 l 2.865514,-0.04039 z m 0.0034,-7.423386 c 0.269922,-0.26992 0.246326,-4.04052 -0.02669,-4.267112 -0.142092,-0.117923 -1.067222,-0.157781 -3.010764,-0.129714 l -2.805641,0.04051 -0.04158,2.074354 c -0.02287,1.140894 -0.0083,2.161207 0.03248,2.267363 0.102245,0.266447 5.586634,0.280123 5.852161,0.01459 z m 0.104077,-19.89332 V 23.426566 L 82.1595,23.352226 c -1.217979,-0.04089 -2.572824,-0.05142 -3.010759,-0.02341 l -0.796256,0.05093 v 2.117312 c 0,1.164523 0.04597,2.16329 0.102172,2.219483 0.05619,0.05619 1.411038,0.08407 3.010759,0.06195 l 2.908593,-0.04022 z M 17.782045,108.42348 c -0.04866,-0.0787 -0.419852,-4.78355 -0.824914,-10.455222 -1.069256,-14.971699 -1.123652,-15.873948 -0.966292,-16.026903 0.07662,-0.07448 3.350788,-0.476488 7.275922,-0.89336 6.373516,-0.676902 15.326813,-1.649481 29.512885,-3.205925 10.96475,-1.203012 21.716834,-2.306066 22.814654,-2.34055 l 1.181779,-0.03712 0.112258,0.594717 c 0.112657,0.596812 0.294686,3.12614 1.246587,17.321165 0.643094,9.590018 0.640604,8.885648 0.03175,8.990538 -0.265769,0.0458 -4.397202,0.48345 -9.180961,0.9726 -4.783764,0.48915 -10.638022,1.09075 -13.009458,1.33689 -13.222803,1.37244 -30.417275,3.11207 -34.493654,3.48985 -1.390152,0.12883 -2.771582,0.27073 -3.069842,0.31532 -0.29826,0.0446 -0.582083,0.0167 -0.630719,-0.062 z m 32.32137,-14.451344 c 1.538166,-0.196374 1.703095,-0.405562 1.56529,-1.985327 -0.173622,-1.990331 -0.335173,-2.129498 -2.275434,-1.960101 -1.495627,0.130578 -2.102959,0.329572 -2.259077,0.740194 -0.18662,0.490852 0.104358,2.768833 0.39465,3.089604 0.276726,0.30578 0.874769,0.332639 2.574571,0.11563 z m 11.522664,-0.888071 c 1.220188,-0.199446 1.313711,-0.354673 1.203571,-1.99764 -0.09633,-1.436867 -0.320715,-1.966909 -0.865379,-2.044199 -0.758246,-0.107598 -3.160522,0.193883 -3.420637,0.429282 -0.465544,0.421314 -0.243662,3.179015 0.287583,3.574244 0.298726,0.222246 1.563504,0.239584 2.794862,0.03831 z m 10.695289,-0.585332 c 1.092504,-0.1793 1.323073,-0.537031 1.200823,-1.863086 -0.127296,-1.380837 -0.325188,-1.977756 -0.694533,-2.094981 -0.498878,-0.158339 -2.990945,0.08868 -3.377846,0.334825 -0.342153,0.217675 -0.351335,0.272762 -0.282784,1.696318 0.09055,1.88049 0.229221,2.068781 1.514374,2.056211 0.498416,-0.0049 1.236399,-0.06305 1.639966,-0.129287 z M 25.041278,87.29495 c 1.092503,-0.179301 1.323078,-0.537031 1.200828,-1.863086 -0.19951,-2.164135 -0.386276,-2.324298 -2.509319,-2.151878 -1.755141,0.142543 -1.969695,0.338035 -1.911051,1.741264 0.05248,1.256379 0.264926,2.061622 0.594525,2.253727 0.304959,0.177741 1.603514,0.187622 2.625017,0.01997 z M 36.17643,86.635579 c 1.525741,-0.637495 1.873103,-2.613187 0.661244,-3.760959 -1.029404,-0.974965 -2.396263,-0.957443 -3.339628,0.04281 -1.718891,1.822558 0.348008,4.69184 2.678384,3.718146 z"
         id="path3"
         sodipodi:nodetypes="scsssssssscssssssssssscssscsccssscssssscssssscsscsscssssssssssscsssscssssssssssssssssssscsssssssssscssscssssscsssssssscscsccssssssssssssssssssssssssssssssscssssscssscsssssssccsssccsssscsssssssssscsssssscsssssssssssssscsssssssssssssssssssssssssssscssscssccccsssssssscsscssssssssssscssssssscssssssccccscscccsscscccccsscsssccsssssscssssssssssssssssssssssssssscsssscssssssss" /><path
         style="fill:#756f8b;stroke-width:0.561938"
         d="m 96.529168,245.66528 c -5.246982,-5.45962 -10.298763,-10.93115 -10.294352,-11.1497 0.0045,-0.21732 0.234745,-0.43518 2.004901,-1.89612 5.984217,-4.9389 14.643873,-12.5813 24.680803,-21.78154 6.1352,-5.62377 8.73058,-8.08547 15.53606,-14.7358 5.91039,-5.77565 7.88652,-7.77793 7.87439,-7.9786 -0.003,-0.0598 -1.25811,-0.72194 -2.78775,-1.47143 -6.00484,-2.94224 -11.80199,-6.76898 -15.9393,-10.52165 -0.85863,-0.7788 -1.65434,-1.41745 -1.76825,-1.41923 -0.21654,-0.003 -3.00657,2.77252 -18.978409,18.88225 -8.446372,8.51929 -26.35228,26.77428 -29.269662,29.84029 -0.562056,0.59068 -1.078,1.03931 -1.146545,0.99695 -0.133696,-0.0826 -4.254531,-4.55505 -16.594125,-18.00991 -0.840216,-0.91616 -1.527669,-1.73097 -1.527669,-1.8107 0,-0.0797 1.856639,-1.83811 4.125859,-3.90753 13.97112,-12.74099 21.298341,-19.56569 21.298341,-19.83766 0,-0.20208 -1.350737,-1.7649 -6.997858,-8.09661 -2.747463,-3.08053 -4.004423,-4.5971 -4.004423,-4.83146 0,-0.13897 6.610345,-6.18556 8.437561,-7.71799 0.566141,-0.4748 0.603319,-0.63782 0.160326,-0.703 -0.177589,-0.0261 -0.347115,-0.1212 -0.376723,-0.21126 -0.02961,-0.0901 1.202902,-1.30161 2.738921,-2.69231 1.536025,-1.3907 3.621968,-3.30992 4.635441,-4.26494 1.720447,-1.62122 3.84204,-3.21223 4.283476,-3.21223 0.446045,0 0.101082,0.50611 -1.457196,2.1379 -0.907457,0.95028 -1.601035,1.72777 -1.541279,1.72777 0.143615,0 3.324771,-2.54731 5.19838,-4.16259 0.817738,-0.705 2.657648,-2.24509 4.088686,-3.42244 1.431038,-1.17735 3.286677,-2.74016 4.123633,-3.47291 l 1.521735,-1.33228 -0.0875,-0.60698 c -0.0481,-0.33384 -0.221628,-1.14222 -0.385562,-1.79641 -0.163929,-0.65419 -0.332072,-1.33997 -0.373644,-1.52397 -0.04158,-0.18399 -0.159141,-0.33453 -0.261268,-0.33453 -0.102127,0 -0.61285,0.51853 -1.134936,1.15227 -3.746769,4.54811 -6.625231,7.51552 -10.539075,10.86478 -4.720873,4.03987 -10.807694,9.48295 -11.745681,10.50345 -0.592924,0.64509 -1.080085,0.82223 -2.259982,0.82176 -0.596919,-2.4e-4 -2.142395,0.0767 -3.434387,0.17104 -1.534946,0.11204 -2.399606,0.12094 -2.49486,0.0257 -0.179264,-0.17927 1.347421,-1.68229 6.107545,-6.01288 3.425599,-3.11649 8.632503,-8.16277 7.860338,-7.61786 -1.157554,0.81687 -12.163128,10.30625 -13.914707,11.99774 -1.876858,1.81247 -2.108489,1.98903 -2.719119,2.07268 -0.36712,0.0503 -3.042649,0.36868 -5.945617,0.70753 -4.341098,0.50672 -5.571945,0.60166 -6.933207,0.53476 -8.649693,-0.42505 -16.000976,-5.91629 -20.71093,-15.4706 -3.076512,-6.24082 -4.928026,-12.9782 -6.683684,-24.32094 -0.411361,-2.65765 -0.823111,-5.23044 -0.915004,-5.71732 -0.149515,-0.79216 -0.139378,-0.90549 0.09645,-1.07793 0.144941,-0.10598 0.378359,-0.19269 0.518709,-0.19269 0.269899,0 6.154804,-0.62094 19.834059,-2.09276 4.579331,-0.49272 10.500493,-1.12288 13.158141,-1.40036 6.648237,-0.69413 17.766075,-1.86561 26.910993,-2.8356 4.211346,-0.44669 9.371542,-0.99212 11.4671,-1.21205 l 3.810105,-0.39989 0.186148,-1.04761 c 0.250956,-1.41229 1.454442,-5.5331 2.305959,-7.895713 2.106999,-5.846082 5.331566,-12.247978 8.869806,-17.60967 4.23239,-6.413583 10.07968,-12.936429 15.61514,-17.419203 0.80163,-0.649192 1.45749,-1.193789 1.45746,-1.210214 -4e-5,-0.01642 -11.45766,-0.0309 -25.461376,-0.03217 C 82.747836,61.63361 71.17317,61.58556 71.030067,61.528067 70.783977,61.429197 70.769878,60.279331 70.769878,40.31311 V 19.202668 l 0.483205,-0.08594 c 0.265764,-0.04727 15.938444,-0.06703 34.828177,-0.04391 l 34.34498,0.04204 0.0378,16.317578 c 0.0211,9.102804 0.0949,16.317577 0.16696,16.317577 0.071,0 0.42197,-0.129326 0.77991,-0.287391 0.35793,-0.158065 1.55823,-0.560222 2.66733,-0.893682 3.87135,-1.163956 8.22563,-2.012795 13.37816,-2.607981 1.76164,-0.203494 3.54331,-0.43453 3.95927,-0.513416 4.44829,-0.843601 11.97595,-1.139555 17.21962,-0.676998 10.69111,0.94309 20.75058,4.513299 30.24611,10.734664 9.98693,6.543324 17.26422,14.033178 23.15566,23.832029 1.60209,2.664676 4.27508,8.115183 5.50639,11.228126 2.9504,7.459126 4.54526,14.297246 5.11414,21.927406 0.23074,3.09478 0.096,11.58522 -0.22656,14.27323 -0.82885,6.90776 -2.70297,14.11959 -5.21599,20.07174 -4.79984,11.36856 -12.55952,21.58129 -22.33291,29.39293 -10.17387,8.13176 -23.26641,13.69162 -36.02225,15.29717 -3.55848,0.4479 -21.07846,0.54886 -24.45779,0.14095 -0.3329,-0.0402 -0.73644,0.009 -0.91665,0.1107 -0.47717,0.27048 -4.71442,3.92986 -7.65298,6.60928 -4.31683,3.93614 -8.3551,7.86076 -15.8206,15.37534 -11.2785,11.35264 -17.05744,17.59184 -26.86909,29.00909 -1.87983,2.18745 -3.469804,3.97718 -3.533274,3.97718 -0.06347,0 -1.449622,-1.3883 -3.080339,-3.0851 z M 109.57932,227.9878 c 0.77692,-0.51738 1.78006,-1.60778 1.78006,-1.93491 0,-0.35292 -1.13031,-1.80558 -1.92563,-2.47481 -0.26183,-0.22032 -0.60962,-0.40058 -0.77286,-0.40058 -0.16826,0 -0.77308,0.46712 -1.39665,1.07868 -1.33452,1.30881 -1.33263,1.35302 0.12346,2.8859 1.11636,1.17524 1.48385,1.31705 2.19162,0.84572 z m 7.01977,-6.68737 c 0.25696,-0.13288 0.82234,-0.57747 1.25639,-0.98799 1.09126,-1.03206 1.07052,-1.29153 -0.21183,-2.65088 -0.55056,-0.58363 -1.13598,-1.11207 -1.30094,-1.17433 -0.4017,-0.15159 -0.86243,0.10992 -1.89823,1.07745 -1.09386,1.02175 -1.10286,1.27597 -0.0877,2.47636 0.62006,0.73322 1.48812,1.48485 1.73058,1.49849 0.0245,10e-4 0.25479,-0.10622 0.51175,-0.2391 z m 7.39805,-7.32071 c 1.73679,-1.39685 1.75409,-1.60906 0.26019,-3.19134 -1.38902,-1.47119 -1.53171,-1.47879 -2.93364,-0.15629 -0.70225,0.66247 -1.04354,1.09585 -1.04354,1.32512 0,0.40586 1.35074,2.07247 1.99938,2.46693 0.55148,0.33538 0.84125,0.2604 1.71761,-0.44442 z m 7.66389,-7.34921 c 0.91769,-0.85249 0.99766,-0.97367 0.89983,-1.36344 -0.12558,-0.50037 -2.11128,-2.6078 -2.45582,-2.60636 -0.61929,0.003 -2.53959,1.77053 -2.53959,2.33812 0,0.25612 0.3257,0.70472 1.06588,1.46808 1.40471,1.44867 1.63307,1.461 3.0297,0.1636 z m -52.813692,-1.93442 c 1.34958,-1.25976 1.344831,-1.47973 -0.0645,-2.98883 -0.581067,-0.6222 -1.217158,-1.1716 -1.413539,-1.22089 -0.429866,-0.10789 -0.873876,0.16185 -1.970544,1.1971 -0.963516,0.90956 -1.138588,1.28919 -0.848336,1.83953 0.23448,0.44457 1.782255,1.98811 2.229704,2.22359 0.447938,0.23574 0.977655,-0.0334 2.067215,-1.0505 z m -13.117383,-4.93446 c 0.740994,-0.55894 0.951226,-0.98637 0.951226,-1.93399 0,-0.71446 -0.07223,-0.98836 -0.362798,-1.37571 -0.514837,-0.68629 -1.490469,-1.12964 -2.216128,-1.00704 -1.065744,0.18006 -2.104476,1.35671 -2.104476,2.3839 0,0.60101 0.54322,1.51354 1.152704,1.93636 0.471512,0.3271 0.683789,0.37816 1.381604,0.3323 0.508038,-0.0334 0.967799,-0.16229 1.197868,-0.33582 z m 71.440185,-1.09347 c 1.09313,-0.79793 2.14099,-1.83456 2.14099,-2.11807 0,-0.36982 -0.43638,-0.36947 -2.28218,0.002 -2.47501,0.49788 -2.76551,0.81753 -1.7154,1.88752 0.75166,0.76588 1.06739,0.80478 1.85659,0.2287 z m -51.011938,-1.9338 c 0.24532,-0.15094 0.797295,-0.60572 1.226604,-1.01061 1.071313,-1.01038 1.05672,-1.31125 -0.127239,-2.62306 -1.146945,-1.2708 -1.608791,-1.53361 -2.177292,-1.23898 -0.57869,0.29991 -2.267366,2.09659 -2.267366,2.41237 0,0.31384 2.37841,2.73607 2.685791,2.73527 0.117405,-3.1e-4 0.414182,-0.12405 0.659502,-0.27499 z m -13.592031,-3.83534 c 1.756479,-0.70281 1.982344,-2.94468 0.413705,-4.10633 -0.539231,-0.39934 -1.59613,-0.50062 -2.163294,-0.20733 -0.656092,0.33928 -1.330468,1.17459 -1.44616,1.79127 -0.133331,0.71072 0.30543,1.70785 0.972912,2.21104 0.790625,0.59602 1.324466,0.6708 2.222837,0.31135 z m 21.220136,-3.92392 c 1.587819,-1.33655 1.579643,-1.50883 -0.156927,-3.30627 -1.283276,-1.32826 -1.437893,-1.32376 -2.872955,0.0837 -0.765101,0.75036 -1.104253,1.19247 -1.104253,1.43949 0,0.50825 2.184917,2.68131 2.69595,2.68131 0.237025,0 0.756734,-0.32457 1.438185,-0.89819 z m 82.248663,-3.12272 c 10.61891,-0.75021 21.26943,-4.47261 30.28475,-10.58462 7.61514,-5.16275 14.5061,-12.61083 19.14458,-20.69237 4.24484,-7.39571 7.18855,-16.37029 8.17299,-24.91731 0.75331,-6.54029 0.64315,-14.30916 -0.2915,-20.55837 -2.50906,-16.775937 -11.13828,-31.704529 -24.52698,-42.431802 -5.87379,-4.706182 -11.37111,-7.897693 -17.67013,-10.258531 -6.78934,-2.544605 -15.45501,-3.761433 -22.1738,-3.113633 -6.54843,0.631376 -12.15961,1.79866 -16.90998,3.517753 -3.9093,1.414722 -9.24413,4.371515 -13.68132,7.582785 -6.66341,4.822421 -12.96746,11.327166 -17.49895,18.056054 -6.44254,9.566637 -10.3458,19.724484 -11.82625,30.776654 -0.60829,4.54108 -0.60983,11.4871 -0.003,16.42909 0.92356,7.52952 3.98268,16.48614 8.02343,23.49137 3.20724,5.56021 6.60372,9.97618 11.1064,14.44014 5.21279,5.16796 10.10943,8.68082 16.62772,11.92875 3.96101,1.97369 7.63718,3.35169 11.9687,4.48642 5.92202,1.55138 13.35328,2.26449 19.254,1.84762 z m -6.69057,-11.23774 c -9.33834,-0.47884 -17.71128,-3.44094 -25.70179,-9.09251 -5.55492,-3.92892 -10.98154,-10.01529 -14.57254,-16.34423 -3.11847,-5.49614 -5.47236,-12.56468 -6.47554,-19.44548 -0.77366,-5.30659 -0.67252,-11.3086 0.28437,-16.87512 2.63107,-15.305621 11.93435,-29.054736 24.85304,-36.729748 11.72399,-6.965238 25.36419,-8.519884 38.17835,-4.351389 7.85442,2.555076 15.7162,7.568434 20.93565,13.350419 6.31421,6.994715 10.70789,15.777728 12.58685,25.161248 2.20306,11.00202 1.15522,22.46919 -2.99273,32.75141 -4.1121,10.19338 -11.5523,19.0296 -20.68737,24.569 -6.3469,3.84869 -12.95646,6.13293 -19.64338,6.78869 -1.74579,0.1712 -5.38684,0.28838 -6.76491,0.21771 z m 24.26636,-13.25519 c 3.00998,-1.4833 4.22352,-5.37627 2.69074,-8.63175 -0.4932,-1.04751 -1.9444,-2.52106 -2.9371,-2.98234 -2.21486,-1.02918 -4.67109,-0.60976 -6.46834,1.10452 -2.60998,2.4895 -2.70607,6.8628 -0.20574,9.36313 1.26269,1.26269 2.45816,1.71168 4.43975,1.66746 1.34896,-0.0301 1.58516,-0.0797 2.48069,-0.52102 z m -42.66506,-3.34063 c 2.35172,-1.08029 3.85665,-3.71173 3.63519,-6.35635 -0.16281,-1.94425 -1.07863,-3.62551 -2.61032,-4.79203 -1.20127,-0.91488 -2.20381,-1.21136 -3.79942,-1.12364 -2.22571,0.12237 -3.92244,1.31745 -4.96229,3.49513 -0.53838,1.12749 -0.55244,1.20048 -0.55244,2.86676 0,1.61351 0.0267,1.76612 0.47354,2.70944 0.5013,1.05822 1.5456,2.29371 2.36877,2.80246 1.60311,0.99077 3.80635,1.15185 5.44697,0.39823 z m 24.5327,-8.51638 c 5.88231,-0.87822 11.0595,-3.38682 15.17959,-7.35528 3.49814,-3.3694 5.71208,-6.86382 7.23557,-11.42044 3.34281,-9.99803 1.18434,-21.04002 -5.63388,-28.82102 -3.91356,-4.466187 -9.59044,-7.719748 -15.70433,-9.000542 -1.43379,-0.300364 -2.05718,-0.342615 -5.05511,-0.342615 -3.8235,0 -5.10838,0.168048 -8.04505,1.052208 -6.2452,1.880275 -11.38014,5.772677 -15.04726,11.406159 -2.66919,4.10045 -4.37324,9.8011 -4.58687,15.3447 -0.43431,11.27003 5.6182,21.62673 15.54954,26.60749 2.63868,1.32334 5.1937,2.1125 8.18964,2.52949 1.99478,0.27764 6.05803,0.27756 7.91816,-1.5e-4 z m -4.89378,-12.76918 c -5.42563,-1.03474 -9.68646,-4.93112 -11.39517,-10.42046 -0.59685,-1.91742 -0.74324,-3.21562 -0.65647,-5.82157 0.0914,-2.74551 0.36842,-3.98375 1.36261,-6.09103 1.96964,-4.17483 5.168,-6.94657 9.28974,-8.05059 1.93259,-0.51765 5.26246,-0.55012 7.02009,-0.0684 5.65955,1.55097 9.60495,5.945 10.91095,12.15162 0.34488,1.63903 0.34681,4.95522 0.004,6.53671 -1.23086,5.67513 -5.01074,9.9452 -10.15027,11.4666 -1.62006,0.47958 -4.68175,0.62207 -6.3853,0.29717 z m 4.70696,-0.54186 c 1.37359,-0.22034 3.24661,-0.89542 4.42013,-1.59314 1.17239,-0.69704 2.83906,-2.17935 3.45187,-3.07005 l 0.42765,-0.62155 -4.01525,-0.0189 c -2.20838,-0.0104 -4.05309,-0.0567 -4.09935,-0.103 -0.0462,-0.0463 0.0129,-0.20161 0.13142,-0.34521 0.11854,-0.14361 0.5263,-0.86325 0.90612,-1.59922 1.65931,-3.21514 2.10917,-7.03583 1.2348,-10.48724 -0.35668,-1.4079 -1.57107,-3.79094 -2.50578,-4.91716 -0.89837,-1.08242 -2.44224,-2.38698 -4.03396,-3.40866 l -1.03442,-0.66395 4.52838,-0.0743 c 4.36106,-0.0716 5.37339,-0.0328 6.01519,0.23089 0.2709,0.11127 0.27805,0.0984 0.0803,-0.14435 -0.36495,-0.44813 -1.8076,-1.35846 -2.90524,-1.83326 -1.84849,-0.79958 -2.89672,-0.99742 -5.20379,-0.98213 -2.45315,0.0163 -3.71412,0.29649 -5.61811,1.24861 -0.67163,0.33586 -1.44632,0.72065 -1.72154,0.85509 -0.70537,0.34457 -2.44917,1.99573 -3.32318,3.14664 -0.40618,0.53486 -1.0669,1.64311 -1.46825,2.46276 -2.91474,5.95256 -1.75614,13.43003 2.79341,18.02838 2.11998,2.14271 4.73717,3.42248 8.0739,3.948 0.78015,0.12288 2.93942,0.0904 3.86567,-0.0582 z M 134.3744,125.56462 c 1.02276,-0.30372 2.38943,-1.558 2.86865,-2.63273 0.77568,-1.73959 0.29705,-3.88226 -1.15218,-5.15792 -1.94229,-1.70968 -4.5783,-1.52512 -6.34917,0.4445 -1.57736,1.75441 -1.50308,4.47687 0.16791,6.1534 1.23944,1.24356 2.8473,1.6731 4.46479,1.19275 z m 78.00006,-0.42598 c 2.24973,-1.31843 3.06417,-4.22479 1.79584,-6.4085 -1.80378,-3.1056 -6.24405,-2.90566 -7.83424,0.35277 -0.44791,0.91781 -0.53973,2.5448 -0.20114,3.56418 0.29476,0.88746 1.20329,1.96497 2.0998,2.49036 1.2098,0.70899 2.93112,0.70948 4.13974,0.001 z M 198.51543,96.781591 c 1.55052,-0.328643 2.65944,-1.079586 3.53877,-2.396385 1.4875,-2.227548 1.44769,-5.25925 -0.0987,-7.513717 -0.64914,-0.946389 -1.36966,-1.538272 -2.52795,-2.076611 -0.7268,-0.337793 -1.07338,-0.403793 -2.13458,-0.406489 -1.13171,-0.0029 -1.37137,0.04821 -2.2458,0.478692 -3.63765,1.790808 -4.62598,7.078799 -1.88381,10.079169 0.88045,0.963361 1.66924,1.460606 2.79822,1.763992 1.00639,0.27044 1.54368,0.285452 2.5538,0.07135 z m -49.16887,-0.440326 c 1.13794,-0.425759 2.46536,-1.675596 3.04078,-2.863052 1.22528,-2.528562 0.8158,-5.488654 -1.02911,-7.43937 -2.95268,-3.122021 -7.48761,-2.374744 -9.35827,1.542076 -0.51386,1.075919 -0.53271,1.174634 -0.5257,2.751432 0.008,1.885503 0.2786,2.772925 1.21827,4.001012 0.73994,0.967058 1.43979,1.511718 2.50528,1.949753 1.17445,0.482834 2.94727,0.507681 4.14875,0.05815 z m -49.34405,85.479085 c 0.95629,-0.71701 1.84138,-1.68349 1.84138,-2.01069 0,-0.35337 -1.57381,-2.30242 -2.076294,-2.57134 -0.530925,-0.28414 -0.854208,-0.15154 -1.845776,0.75705 -1.237377,1.13383 -1.356351,1.34106 -1.078141,1.87788 0.313208,0.60435 2.103043,2.2687 2.43974,2.2687 0.159596,0 0.483194,-0.14472 0.719091,-0.3216 z m 13.32687,-8.71565 c 0.14311,-0.12483 0.25988,-0.30022 0.25951,-0.38977 -3.8e-4,-0.0895 -0.71,-0.93222 -1.57693,-1.87262 -0.86692,-0.9404 -2.58141,-2.9643 -3.80996,-4.49755 -2.21135,-2.75982 -2.23954,-2.78774 -2.81379,-2.78774 -0.85673,0 -0.86517,0.29206 -0.0442,1.52959 1.74074,2.62392 5.86414,7.69938 6.7714,8.33485 0.35011,0.24523 0.66338,0.16349 1.21395,-0.31676 z m -19.800514,-4.75277 c 0.700007,-0.55198 2.960376,-2.40861 5.023044,-4.12586 2.06267,-1.71724 3.94826,-3.18628 4.1902,-3.26452 0.27514,-0.089 0.4399,-0.24407 0.4399,-0.4141 0,-0.14952 0.10511,-0.43227 0.23358,-0.62834 0.2748,-0.41939 0.15742,-0.72633 -0.60319,-1.5774 -0.26145,-0.29256 -0.60075,-0.74417 -0.75399,-1.00359 -0.15325,-0.25943 -0.35383,-0.47168 -0.44575,-0.47168 -0.0919,0 -0.79672,0.58563 -1.56624,1.30141 -0.769525,0.71578 -2.215764,1.98796 -3.213867,2.82705 -0.998098,0.83911 -2.035139,1.79887 -2.304532,2.13281 -0.269393,0.33395 -0.664964,0.81805 -0.879046,1.07579 -1.121837,1.35061 -1.762182,2.87364 -1.765003,4.19799 -0.0017,0.70611 0.0724,0.95403 0.284391,0.95403 0.04827,0 0.660491,-0.45162 1.360503,-1.00359 z m 10.859644,-5.96039 c -0.31787,-0.4464 -0.76046,-0.86335 -0.76046,-0.7164 0,0.10866 0.89726,1.13848 0.99194,1.13848 0.038,0 -0.0662,-0.18993 -0.23148,-0.42208 z m -11.688413,-9.24482 c 0.981285,-0.99425 2.352859,-2.24604 3.047932,-2.78173 1.38892,-1.07044 2.071377,-1.77214 2.077514,-2.13609 0.0022,-0.13043 -0.128431,-0.35699 -0.290286,-0.50348 -0.283442,-0.2565 -0.303992,-0.2554 -0.55755,0.03 -0.144795,0.16296 -0.589749,0.55524 -0.988787,0.87173 -0.399043,0.31648 -1.0922,1.01187 -1.540346,1.54529 -1.447295,1.72269 -2.736246,2.97704 -3.059142,2.97704 -0.169132,0 -0.768063,-0.27361 -1.330962,-0.60802 -1.154491,-0.68587 -1.392275,-0.68514 -2.190453,0.007 l -0.520377,0.45107 0.817733,0.76955 c 0.449758,0.42325 1.075876,0.95681 1.391376,1.1857 0.528733,0.38357 0.604393,0.39986 0.966421,0.20806 0.216026,-0.11444 1.195648,-1.02157 2.176927,-2.01583 z m -51.145754,-2.74605 c 4.906424,-0.52915 10.827586,-1.16529 13.158141,-1.41364 2.330549,-0.24835 4.429974,-0.49111 4.665381,-0.53946 l 0.428012,-0.0879 -0.09716,-1.28493 c -0.187732,-2.48272 -0.207102,-2.54871 -0.748265,-2.54871 -0.462554,0 -2.377966,0.19879 -17.183087,1.78327 -3.884253,0.41569 -7.764792,0.82756 -8.623411,0.91525 -0.858625,0.0877 -1.637646,0.23563 -1.731152,0.32876 -0.191852,0.19108 0.03625,3.46259 0.261408,3.74948 0.06929,0.0883 0.311241,0.13789 0.537674,0.11024 0.226427,-0.0276 4.426034,-0.48321 9.332459,-1.01236 z m -2.09485,-10.41393 c 13.941736,-1.48029 19.737136,-2.12548 19.817954,-2.2063 0.0994,-0.0994 -0.211199,-3.66947 -0.329544,-3.78781 -0.08109,-0.0811 -6.430069,0.55523 -21.556585,2.16049 -3.516273,0.37316 -6.454885,0.73518 -6.530258,0.8045 -0.139872,0.12863 0.117192,3.43006 0.288685,3.70755 0.123722,0.20018 -0.261122,0.2316 8.309748,-0.67843 z m 39.694579,-6.53801 c 7.286768,-0.77723 13.404434,-1.48069 13.594807,-1.56324 0.376134,-0.1631 0.372121,-0.0118 0.07978,-3.00797 -0.0825,-0.84553 -0.08864,-0.85491 -0.55982,-0.85491 -0.262021,0 -3.28294,0.30298 -6.713152,0.67329 -3.430207,0.37031 -9.378134,1.00608 -13.217611,1.41282 -3.839472,0.40674 -7.027843,0.78954 -7.085262,0.85067 -0.098,0.10434 0.0916,2.83642 0.247601,3.56795 0.03922,0.18399 0.146407,0.33453 0.238161,0.33453 0.09176,0 6.12873,-0.63591 13.415497,-1.41314 z m -40.832038,-6.37516 c 3.210421,-0.3519 5.880516,-0.68319 5.933541,-0.73621 0.132247,-0.13225 -0.21502,-4.13973 -0.372363,-4.29707 -0.122604,-0.1226 -12.778585,1.14283 -12.928432,1.29267 -0.08459,0.0846 0.257137,4.10844 0.363535,4.28059 0.116074,0.18782 0.951266,0.12342 7.003719,-0.53998 z m 15.089523,-1.85359 c 0.126122,-0.12612 -0.180292,-3.93572 -0.336949,-4.18919 -0.125942,-0.20378 -3.767533,0.12028 -4.084635,0.36348 -0.178089,0.13658 -0.182197,0.45164 -0.02731,2.09361 0.100289,1.06306 0.226753,2.00367 0.281031,2.09023 0.109291,0.17432 3.966875,-0.15716 4.167846,-0.35813 z m 17.199484,-1.4376 c 2.663229,-0.28778 8.555507,-0.93011 13.093946,-1.42741 4.538444,-0.4973 8.418331,-0.91417 8.621972,-0.92639 0.472056,-0.0283 0.555257,-0.39119 0.578572,-2.52329 l 0.01759,-1.609 -0.780566,0.0891 c -0.429315,0.049 -5.56433,0.59144 -11.411153,1.20547 -15.674091,1.64609 -15.945373,1.67658 -16.06057,1.80513 -0.07559,0.0844 0.176977,3.45084 0.290528,3.8725 0.02602,0.0965 1.165797,-0.002 5.649683,-0.48607 z m 33.701989,-16.3027 c 1.95117,-5.69184 6.37316,-16.625935 9.29861,-22.9923 1.04972,-2.28442 1.17325,-2.644069 1.09797,-3.19661 -0.0828,-0.607582 -0.0328,-0.697255 2.07379,-3.720285 1.18725,-1.703734 2.15864,-3.153359 2.15864,-3.22139 0,-0.06803 -0.0836,-0.154358 -0.18585,-0.191838 -0.14868,-0.05451 -0.14868,-0.107545 0,-0.265145 0.10221,-0.10835 0.18585,-0.378761 0.18585,-0.600912 0,-0.222153 0.0765,-0.429431 0.17012,-0.46062 0.24554,-0.08185 -0.13052,-1.157509 -0.40467,-1.157509 -0.13057,0 -0.21149,-0.153374 -0.21149,-0.400865 v -0.400865 l -0.53388,0.512375 c -0.78968,0.757868 -3.10712,3.5432 -4.57038,5.493138 -1.26074,1.680055 -3.51915,5.2914 -3.51915,5.627348 0,0.09413 0.12561,0.171153 0.27915,0.171153 0.15353,0 0.36313,0.101184 0.46576,0.224853 0.13868,0.167095 0.23716,0.182902 0.3834,0.06154 0.10823,-0.08982 0.25431,-0.127755 0.32463,-0.08429 0.22049,0.136267 1.13567,-0.256252 1.77116,-0.759646 0.33551,-0.265764 0.65092,-0.483209 0.70091,-0.483209 0.05,0 -0.50314,1.187578 -1.22918,2.639062 -3.18017,6.357703 -6.04201,13.466321 -7.80506,19.387265 -1.16946,3.9275 -1.9188,7.33693 -1.42749,6.49499 0.0797,-0.13648 0.51937,-1.3408 0.97716,-2.67624 z m 16.30014,-40.527184 c 6.01872,-5.736821 10.80209,-9.333969 17.26336,-12.982247 0.64202,-0.362505 1.0702,-0.678801 0.95153,-0.702881 -0.26846,-0.05447 -1.21861,0.320352 -3.23392,1.275745 -0.85862,0.407048 -2.02947,0.951932 -2.60189,1.210854 -4.39101,1.986195 -11.59775,7.071715 -15.38833,10.858956 l -1.70982,1.708306 0.59473,0.100509 c 0.32709,0.05528 0.7787,0.06512 1.00358,0.02186 0.25035,-0.04816 0.40887,-0.0138 0.40887,0.08862 0,0.092 0.19779,0.167265 0.43953,0.167265 0.35799,0 0.77954,-0.324087 2.27236,-1.746984 z m -36.346638,-14.053371 0.04113,-2.19618 -2.940416,0.04033 -2.94041,0.04033 -0.0417,1.999672 c -0.02293,1.09982 -0.0078,2.088131 0.03372,2.196246 0.05968,0.155542 0.673545,0.188141 2.940939,0.15618 l 2.865514,-0.04039 z m 31.367388,1.428693 3.45679,-0.09774 V 52.343839 50.4576 l -1.80749,-0.09719 c -3.1264,-0.168106 -8.0722,-0.119546 -8.27297,0.08123 -0.11827,0.11826 -0.17842,0.759917 -0.17842,1.903098 0,1.14318 0.0602,1.784838 0.17842,1.903098 0.2069,0.206902 1.55813,0.223219 6.62367,0.07999 z m 16.21036,-10.565668 0.0415,-1.966343 -11.19243,-0.04083 c -6.15583,-0.02246 -11.30951,0.0117 -11.45261,0.07591 -0.22737,0.102014 -0.26019,0.347404 -0.26019,1.945224 0,1.005665 0.045,1.873502 0.10004,1.928525 0.055,0.05502 5.19004,0.0829 11.41116,0.06195 l 11.31111,-0.03809 z m -47.574309,1.713589 c 0.269921,-0.26992 0.246325,-4.04052 -0.02669,-4.267112 -0.142092,-0.117923 -1.067222,-0.157781 -3.010765,-0.129714 l -2.80564,0.04051 -0.04158,2.074354 c -0.02287,1.140894 -0.0083,2.161207 0.03248,2.267363 0.102245,0.266447 5.586634,0.280123 5.852161,0.01459 z m 41.920189,-8.444218 5.09228,-7.87e-4 V 35.02262 33.014506 l -11.18814,0.03811 -11.18813,0.03811 -0.0419,1.837588 c -0.0303,1.328183 0.0109,1.901334 0.14867,2.067539 0.16862,0.203475 0.87528,0.21881 6.13774,0.133194 3.27095,-0.05322 8.2387,-0.09711 11.03945,-0.09754 z m 6.73143,-9.154249 c 0.0797,-0.209757 0.145,-1.081188 0.145,-1.936514 0,-1.532531 -0.006,-1.557243 -0.38138,-1.700135 -0.59622,-0.226682 -23.44712,-0.19443 -23.67496,0.03342 -0.19132,0.191308 -0.26296,3.701835 -0.0793,3.885491 0.0545,0.05451 5.44209,0.09912 11.97238,0.09912 h 11.87326 z M 84.374047,25.582419 v -2.155853 l -2.214509,-0.07434 c -1.217979,-0.04089 -2.572824,-0.05142 -3.010759,-0.02341 l -0.796255,0.05093 v 2.117312 c 0,1.164523 0.04597,2.16329 0.102171,2.219483 0.05619,0.05619 1.411039,0.08407 3.010759,0.06195 l 2.908593,-0.04022 z M 17.782045,108.42348 c -0.04866,-0.0787 -0.419852,-4.78355 -0.824914,-10.455222 -1.069256,-14.971699 -1.123652,-15.873948 -0.966292,-16.026903 0.07662,-0.07448 3.350788,-0.476488 7.275922,-0.89336 6.373516,-0.676902 15.326813,-1.649481 29.512885,-3.205925 10.96475,-1.203012 21.716834,-2.306066 22.814654,-2.34055 l 1.181779,-0.03712 0.112258,0.594717 c 0.112657,0.596812 0.294686,3.12614 1.246587,17.321165 0.643094,9.590018 0.640604,8.885648 0.03175,8.990538 -0.265769,0.0458 -4.397202,0.48345 -9.180961,0.9726 -4.783764,0.48915 -10.638022,1.09075 -13.009458,1.33689 -13.222803,1.37244 -30.417275,3.11207 -34.493654,3.48985 -1.390152,0.12883 -2.771582,0.27073 -3.069842,0.31532 -0.29826,0.0446 -0.582083,0.0167 -0.630719,-0.062 z m 32.32137,-14.451344 c 1.538166,-0.196374 1.703095,-0.405562 1.56529,-1.985327 -0.173622,-1.990331 -0.335173,-2.129498 -2.275434,-1.960101 -1.495627,0.130578 -2.102959,0.329572 -2.259077,0.740194 -0.18662,0.490852 0.104358,2.768833 0.39465,3.089604 0.276726,0.30578 0.874769,0.332639 2.574571,0.11563 z m 11.522664,-0.888071 c 1.220188,-0.199446 1.313711,-0.354673 1.203571,-1.99764 -0.09633,-1.436867 -0.320715,-1.966909 -0.865379,-2.044199 -0.758246,-0.107598 -3.160522,0.193883 -3.420637,0.429282 -0.465544,0.421314 -0.243662,3.179015 0.287583,3.574244 0.298726,0.222246 1.563504,0.239584 2.794862,0.03831 z m 10.695289,-0.585332 c 1.092504,-0.1793 1.323073,-0.537031 1.200823,-1.863086 -0.127296,-1.380837 -0.325188,-1.977756 -0.694533,-2.094981 -0.498878,-0.158339 -2.990945,0.08868 -3.377846,0.334825 -0.342153,0.217675 -0.351335,0.272762 -0.282784,1.696318 0.09055,1.88049 0.229221,2.068781 1.514374,2.056211 0.498416,-0.0049 1.236399,-0.06305 1.639966,-0.129287 z M 25.041278,87.29495 c 1.092503,-0.179301 1.323078,-0.537031 1.200828,-1.863086 -0.19951,-2.164135 -0.386276,-2.324298 -2.509319,-2.151878 -1.755141,0.142543 -1.969695,0.338035 -1.911051,1.741264 0.05248,1.256379 0.264926,2.061622 0.594525,2.253727 0.304959,0.177741 1.603514,0.187622 2.625017,0.01997 z M 36.17643,86.635579 c 1.525741,-0.637495 1.873103,-2.613187 0.661244,-3.760959 -1.029404,-0.974965 -2.396263,-0.957443 -3.339628,0.04281 -1.718891,1.822558 0.348008,4.69184 2.678384,3.718146 z"
         id="path2" /><path
         style="fill:#3f3651;stroke-width:0.561938"
         d="m 96.603462,245.44226 c -5.003005,-5.20879 -10.072605,-10.73324 -10.062327,-10.96511 0.0056,-0.12266 0.790889,-0.85863 1.745453,-1.63548 6.40557,-5.21303 22.143292,-19.23961 31.695262,-28.24909 3.26819,-3.08257 13.96261,-13.53031 15.50079,-15.14324 0.63374,-0.66454 1.15226,-1.30022 1.15226,-1.41261 0,-0.11693 -1.11689,-0.75259 -2.61076,-1.4859 -6.20782,-3.04725 -11.5905,-6.58112 -16.17443,-10.61891 -1.62261,-1.42929 -1.94705,-1.65596 -2.15585,-1.50622 -0.13519,0.0969 -5.12992,5.07168 -11.0994,11.05497 -5.969481,5.98327 -11.331003,11.29278 -11.914491,11.79889 l -1.060889,0.92019 -0.251294,-0.52956 c -0.138208,-0.29125 -0.344361,-0.56527 -0.458109,-0.60892 -0.113753,-0.0437 -0.446499,-0.50795 -0.739438,-1.03178 -0.292944,-0.52383 -0.59094,-0.95242 -0.66221,-0.95242 -0.07128,0 -0.170121,-0.18453 -0.219656,-0.41006 -0.04956,-0.22553 -0.456289,-0.79732 -0.903889,-1.27064 -0.531077,-0.56158 -0.813828,-0.98733 -0.813828,-1.22541 0,-0.20066 -0.08692,-0.36484 -0.193149,-0.36484 -0.106235,0 -0.280604,-0.24184 -0.38749,-0.53742 -0.106881,-0.29559 -0.412283,-0.78065 -0.678665,-1.07793 -0.266381,-0.29728 -0.595519,-0.75794 -0.731424,-1.0237 -0.135905,-0.26577 -0.312286,-0.48322 -0.391963,-0.48322 -0.07967,0 -0.144863,-0.0761 -0.144863,-0.16922 0,-0.0931 -0.270803,-0.46301 -0.601785,-0.82209 l -0.601785,-0.65286 0.31142,-0.5532 c 0.171279,-0.30426 0.984398,-1.32261 1.806924,-2.26301 1.919846,-2.19497 3.842973,-4.57836 3.842973,-4.76272 0,-0.31927 -1.111902,-1.18446 -1.522218,-1.18446 -0.08256,0 -0.407315,-0.29221 -0.72168,-0.64934 -0.459464,-0.52198 -0.645409,-0.63523 -0.94799,-0.57739 -0.325599,0.0622 -0.37642,0.0192 -0.37642,-0.31909 0,-0.21508 -0.08159,-0.52169 -0.18131,-0.68137 -0.226607,-0.36286 -0.129954,-0.4697 3.080563,-3.40521 4.014954,-3.67104 13.336156,-11.61443 13.629006,-11.61443 0.0661,0 0.29911,0.28435 0.51788,0.63189 0.21877,0.34754 0.58561,0.86639 0.81521,1.15301 0.28403,0.35456 0.39048,0.62423 0.33307,0.84374 -0.13501,0.51632 1.8995,3.48926 4.61216,6.73953 2.03701,2.44073 3.01935,3.41827 3.43503,3.41827 0.40645,0 1.41278,-0.80867 1.41278,-1.13529 0,-0.11682 -0.82046,-1.16366 -1.82324,-2.3263 -1.00278,-1.16264 -2.55266,-3.01712 -3.44418,-4.12106 -2.09823,-2.5982 -2.45666,-2.97359 -2.83916,-2.97359 -0.22612,0 -0.6224,-0.40367 -1.38329,-1.40906 -0.5865,-0.77497 -1.06638,-1.46929 -1.06638,-1.54293 0,-0.0736 0.10037,-0.21716 0.22303,-0.31896 0.43841,-0.36385 0.25896,-0.94707 -0.59473,-1.93283 -0.44975,-0.51935 -0.81773,-0.99789 -0.81773,-1.06343 0,-0.0655 -0.15482,-0.2206 -0.34404,-0.34458 -0.32804,-0.21495 -0.37817,-0.19351 -1.07793,0.461 -1.790163,1.67438 -4.336958,3.66983 -6.017592,4.71485 l -0.440453,0.27387 v -0.46849 c 0,-0.25768 0.06229,-0.43001 0.138406,-0.38297 0.07612,0.047 0.180432,0.0175 0.231794,-0.0656 0.05136,-0.0831 0.02703,-0.15111 -0.05406,-0.15111 -0.241808,0 -0.354931,-0.59186 -0.158394,-0.82867 0.146267,-0.17625 0.127308,-0.32186 -0.09587,-0.73626 -0.153005,-0.28412 -0.329886,-0.51658 -0.393059,-0.51658 -0.06318,0 -0.114872,-0.17388 -0.114872,-0.3864 0,-0.21252 -0.09169,-0.59723 -0.203759,-0.85491 -0.112067,-0.25768 -0.289578,-0.76958 -0.394469,-1.13756 -0.104897,-0.36798 -0.329268,-0.79228 -0.498608,-0.94288 -0.212514,-0.189 -0.309089,-0.45778 -0.311752,-0.86768 -0.0034,-0.55535 0.08771,-0.68388 1.408588,-1.98245 1.678763,-1.6504 3.503658,-3.19493 3.774878,-3.19493 0.106869,0 0.315298,0.26831 0.463172,0.59624 0.147874,0.32792 0.296501,0.56859 0.330285,0.53481 0.03377,-0.0338 -0.08232,-0.39556 -0.258014,-0.80395 -0.303149,-0.7047 -0.306959,-0.76666 -0.07474,-1.21573 0.241864,-0.46771 0.238554,-0.48209 -0.285628,-1.24319 -0.29168,-0.4235 -0.530324,-0.85654 -0.530324,-0.9623 0,-0.10576 -0.194155,-0.25998 -0.43145,-0.3427 -0.342159,-0.11928 -0.495242,-0.32537 -0.739714,-0.99585 -0.705176,-1.93402 -1.182295,-3.73777 -1.265822,-4.78546 -0.110157,-1.38172 -0.84978,-4.34176 -1.106232,-4.42724 -0.203568,-0.0679 -0.251119,-0.0167 -3.009837,3.2378 -2.120289,2.50134 -6.04957,6.54004 -7.859113,8.07799 -2.867105,2.43676 -8.391359,7.29836 -10.17431,8.95386 -3.247633,3.01547 -3.468998,3.1884 -4.083539,3.18991 -0.30003,5.7e-4 -1.810903,0.0679 -3.357492,0.14922 -1.546589,0.0813 -2.845268,0.11459 -2.885953,0.0739 -0.122733,-0.12274 0.317411,-0.55002 4.880199,-4.73755 4.434689,-4.06998 11.792805,-11.23243 12.073589,-11.75253 0.13935,-0.25814 0.113961,-0.2551 -0.293573,0.0351 -0.24536,0.17472 -1.808666,1.50822 -3.474005,2.96334 -1.665338,1.45513 -4.165289,3.60552 -5.55544,4.77865 -5.554542,4.68741 -6.316266,5.3545 -8.177378,7.16143 -1.514244,1.47015 -2.045529,1.89665 -2.45321,1.96934 -1.993864,0.35555 -11.243572,1.29059 -12.766813,1.29059 -3.070403,0 -5.549113,-0.607 -8.5687,-2.09835 -8.793493,-4.34304 -14.466581,-14.05733 -17.746492,-30.38812 -0.5571,-2.7738 -1.812296,-10.59772 -2.030795,-12.65832 -0.05824,-0.54928 -0.03832,-0.94876 0.05001,-1.00336 0.08073,-0.0499 4.552392,-0.55642 9.937032,-1.1256 5.384639,-0.56919 11.964685,-1.27018 14.622333,-1.55776 2.657648,-0.28759 13.730554,-1.46065 24.606461,-2.60682 10.875907,-1.14617 21.128389,-2.23026 22.783292,-2.4091 1.654908,-0.17884 3.048499,-0.28558 3.09687,-0.23721 0.04838,0.0484 -0.0513,0.94686 -0.221448,1.99663 -0.170167,1.04977 -0.444567,3.21147 -0.609777,4.80378 -0.165204,1.59231 -0.349076,2.94319 -0.408596,3.00196 -0.05952,0.0588 -1.780862,0.27917 -3.825205,0.48978 -2.044348,0.21061 -4.921293,0.51393 -6.393223,0.67405 -1.471925,0.16011 -5.88771,0.6299 -9.812849,1.04398 -3.92514,0.41408 -7.253703,0.78829 -7.396806,0.83158 -0.19728,0.0597 -0.260189,0.23946 -0.260189,0.74359 0,1.03459 0.304121,3.53748 0.447713,3.68468 0.07515,0.077 2.227805,-0.0943 5.155942,-0.41025 18.430461,-1.98898 21.593713,-2.32389 21.94974,-2.32389 h 0.398359 v 1.18944 c 0,0.69383 0.06195,1.18943 0.148677,1.18943 0.0862,0 0.148678,-0.4793 0.148678,-1.14056 0,-0.87596 0.06014,-1.207 0.259211,-1.42698 0.227714,-0.25162 0.262594,-0.67762 0.287038,-3.50568 0.03641,-4.2116 0.363939,-8.15983 0.859103,-10.35586 0.110628,-0.49065 0.280575,-1.46078 0.377656,-2.15586 0.210165,-1.50472 1.187151,-4.97444 2.156017,-7.656992 2.137945,-5.919457 5.679902,-12.900873 8.957452,-17.655693 1.23054,-1.785162 1.5721,-2.139383 0.57161,-0.592783 -1.72098,2.660363 -3.80392,6.4867 -3.80392,6.987759 0,0.230868 0.13039,0.267797 0.92925,0.263203 0.51109,-0.0029 1.01203,0.05245 1.1132,0.123086 0.10118,0.07064 0.28782,0.08858 0.41475,0.03987 0.12693,-0.04871 0.35309,-0.01218 0.50258,0.08117 0.14948,0.09335 0.37139,0.131509 0.49314,0.08479 0.12175,-0.04672 0.64489,-0.776515 1.16253,-1.621769 2.06686,-3.374949 3.21723,-5.171186 4.19779,-6.554561 1.2164,-1.716125 1.65597,-2.117226 0.59226,-0.540433 -3.54641,5.257025 -6.73506,11.634673 -8.81104,17.623003 -0.79461,2.292095 -1.78389,5.90254 -1.78389,6.51038 0,0.44287 0.45646,0.57255 1.26377,0.35904 0.3271,-0.0865 0.76362,-0.16705 0.97005,-0.17896 0.20644,-0.0119 0.57282,-0.17701 0.81419,-0.36687 0.24136,-0.18986 0.45917,-0.28423 0.484,-0.20972 0.0248,0.0745 -0.25596,1.33381 -0.62401,2.79841 -1.13282,4.50801 -1.30876,5.57903 -0.95262,5.79914 0.28056,0.17339 0.52494,-0.31742 1.25753,-2.52556 1.79971,-5.42462 6.39393,-16.849766 9.59287,-23.856017 0.81823,-1.792067 1.16756,-2.726409 1.14494,-3.062338 -0.0381,-0.565826 0.82785,-1.939642 3.23862,-5.138015 2.54592,-3.377666 3.83845,-4.842321 7.4813,-8.477594 5.45538,-5.444024 10.33916,-9.213804 16.66908,-12.866846 3.31067,-1.910607 8.52195,-4.306071 11.96188,-5.49851 1.69527,-0.587654 1.72549,-0.713353 0.14869,-0.618234 -1.78453,0.107648 -0.86574,-0.0789 2.37887,-0.483011 1.39015,-0.17314 3.39733,-0.444673 4.46038,-0.603406 3.10208,-0.463196 4.01615,-0.566086 6.6886,-0.752891 3.17728,-0.222093 9.54955,-0.102438 12.26804,0.23036 12.06961,1.477566 23.18242,6.18904 33.67591,14.27751 7.53801,5.810358 13.52881,12.636343 18.2245,20.765206 1.4358,2.485557 3.77319,7.296183 4.8639,10.010465 2.96048,7.367275 4.70902,14.712091 5.22749,21.958091 0.19793,2.76628 0.19922,9.05448 0.002,11.8665 -0.95769,13.68541 -6.0678,27.28241 -14.37859,38.25867 -2.87824,3.80135 -6.97288,8.24091 -10.37142,11.24504 -7.22928,6.39034 -16.19029,11.52489 -25.57288,14.65296 -5.31932,1.77341 -9.91667,2.7434 -15.16531,3.19971 -2.74243,0.23843 -16.90599,0.31633 -20.39658,0.1122 l -2.8524,-0.16682 -0.54304,0.4142 c -2.62492,2.00212 -10.12568,8.858 -16.20772,14.81424 -13.77231,13.48746 -24.76302,25.22714 -35.58665,38.01172 -0.84808,1.00173 -1.593503,1.82132 -1.656501,1.82132 -0.063,0 -1.415855,-1.35484 -3.006354,-3.01076 z m 13.153828,-17.3621 c 0.88266,-0.58465 1.89945,-1.69306 1.89945,-2.0706 0,-0.16328 -0.3982,-0.75952 -0.88487,-1.32498 -1.77622,-2.06376 -2.0562,-2.10949 -3.64941,-0.5961 -1.26201,1.19879 -1.33051,1.42667 -0.69152,2.3005 0.62872,0.85978 2.04487,2.14099 2.3665,2.14099 0.15442,0 0.58635,-0.20242 0.95985,-0.44981 z m 7.30286,-6.8194 c 0.83599,-0.57518 1.88189,-1.72671 1.88189,-2.07197 0,-0.65994 -2.23231,-2.99923 -2.86207,-2.99923 -0.64148,0 -2.78776,2.00418 -2.78776,2.60318 0,0.36661 1.413,2.08519 2.10762,2.56344 0.63593,0.43783 0.908,0.42219 1.66032,-0.0954 z m 6.88647,-6.97819 c 1.16658,-0.92226 1.68599,-1.50668 1.68599,-1.89696 0,-0.42511 -1.62981,-2.3647 -2.33126,-2.77437 -0.34717,-0.20276 -0.54788,-0.23295 -0.83154,-0.12511 -0.4661,0.17722 -2.29526,1.87311 -2.40991,2.23433 -0.14267,0.4495 0.14337,0.92958 1.22323,2.05306 1.25926,1.31013 1.57409,1.3703 2.66349,0.50905 z m 6.98123,-6.74066 c 0.23591,-0.17688 0.74673,-0.62598 1.13515,-0.998 1.0562,-1.01157 1.00623,-1.34324 -0.42859,-2.84506 -1.51437,-1.58506 -1.68674,-1.5905 -3.26367,-0.1029 -1.06472,1.00439 -1.14192,1.11746 -1.04055,1.52396 0.0644,0.25811 0.58385,0.91397 1.26044,1.59134 1.26736,1.2688 1.59674,1.38587 2.33722,0.83066 z m 6.80385,-9.04965 c 2.23563,-1.79847 2.49482,-2.67179 0.79296,-2.67179 -0.56611,0 -0.78469,-0.0712 -0.98768,-0.32193 l -0.26069,-0.32193 -0.65522,0.6 c -0.36038,0.33001 -0.92733,0.73761 -1.25989,0.90579 -0.75614,0.38237 -1.00687,0.67788 -0.88935,1.04816 0.13564,0.42737 1.50923,1.65822 1.85052,1.65822 0.1622,0 0.7964,-0.40343 1.40935,-0.89652 z M 93.467317,189.6002 c 0.974306,-0.77239 1.834673,-1.74964 1.834673,-2.0839 0,-0.67543 -2.377859,-3.14415 -3.028432,-3.14415 -0.408074,0 -2.084803,1.32795 -2.612564,2.06912 -0.5561,0.78097 -0.429147,1.1171 0.938476,2.48472 1.490778,1.49078 1.758441,1.5537 2.867847,0.67421 z m 85.226153,-3.80205 c 7.62354,-1.02168 13.89122,-2.94643 20.60985,-6.32912 6.13623,-3.08947 10.59147,-6.26339 15.44138,-11.00046 7.35084,-7.17982 12.5692,-15.42825 15.85271,-25.05763 3.13831,-9.20358 4.16583,-17.99365 3.40645,-29.14119 -1.09107,-16.016631 -7.89174,-30.963565 -19.31221,-42.445598 -5.7576,-5.788632 -12.63747,-10.68602 -19.32834,-13.758736 -5.68031,-2.608628 -10.02752,-3.856371 -16.41221,-4.710658 -3.19684,-0.427745 -8.91187,-0.461156 -12.2086,-0.07137 -3.45165,0.408101 -7.49629,1.108739 -10.0992,1.749445 -1.30233,0.320569 -2.50214,0.582852 -2.66625,0.582852 -0.42359,0 -3.80981,1.170309 -4.25706,1.471282 -0.39527,0.265987 -0.6323,0.383276 -2.75186,1.361688 -0.73597,0.339727 -1.53884,0.767947 -1.78416,0.951598 -0.24532,0.183651 -0.77001,0.476714 -1.16598,0.65125 -0.39596,0.174536 -1.1068,0.60272 -1.57964,0.951521 -0.47284,0.3488 -1.08372,0.767993 -1.3575,0.931541 -1.18369,0.707073 -1.5654,0.972947 -3.5098,2.444688 -1.12819,0.853937 -2.42409,1.890976 -2.87979,2.304533 -0.4557,0.413556 -1.25857,1.110122 -1.78416,1.547923 -2.58965,2.157123 -7.8122,7.735276 -10.04284,10.726661 -3.91082,5.244562 -7.57744,11.699696 -9.75426,17.172485 -1.54298,3.879265 -2.38717,6.651575 -3.30499,10.853605 -0.84436,3.86575 -0.90691,4.30108 -1.58003,10.99632 -0.20636,2.05266 -0.10926,5.75353 0.24593,9.37277 0.6376,6.49681 2.70747,13.99359 5.78814,20.96382 1.32748,3.0035 2.90277,5.95287 4.264,7.98336 0.31222,0.46571 0.56766,0.90144 0.56766,0.96827 0,0.17105 1.387,2.19751 2.04931,2.99415 0.30393,0.36556 0.78676,1.01382 1.07296,1.44057 1.03106,1.53737 2.35255,3.0226 5.49814,6.1794 3.85903,3.87276 5.34245,5.08125 10.63732,8.66586 3.75298,2.54075 8.36847,4.74298 13.59081,6.4847 4.93201,1.6449 8.99101,2.38383 16.66175,3.03325 1.5487,0.13111 8.48743,-0.0537 10.09247,-0.26878 z m -9.64644,-11.33742 c -9.20588,-0.64144 -16.73029,-3.21466 -24.23409,-8.28762 -4.6323,-3.13168 -9.36646,-7.78414 -12.72284,-12.50328 -3.04529,-4.28175 -5.87034,-9.92384 -6.92342,-13.8272 -2.42481,-8.98788 -2.90287,-12.26533 -2.76468,-18.95401 0.12542,-6.07069 1.04827,-11.11145 3.10148,-16.94084 3.85241,-10.937603 11.73462,-20.996154 20.97057,-26.760718 6.88718,-4.298591 13.51495,-6.580396 21.23487,-7.310727 2.57898,-0.24398 7.79835,-0.09114 10.4819,0.306942 5.47574,0.812281 10.89772,2.6409 15.76004,5.315237 0.98128,0.53972 2.11868,1.156214 2.52755,1.369987 2.28835,1.196443 6.36385,4.361593 8.92638,6.932478 13.88864,13.933947 18.68368,36.099281 12.10743,55.967311 -4.63104,13.99121 -14.98197,25.38602 -28.16987,31.01078 -6.52694,2.7838 -13.92378,4.12562 -20.29532,3.68166 z m 24.42101,-12.87192 c 2.48941,-1.14844 4.02149,-4.11275 3.56123,-6.89036 -0.34725,-2.09561 -1.68619,-4.00826 -3.49127,-4.98721 -0.89144,-0.48346 -0.98504,-0.5018 -2.56074,-0.5018 -1.48694,0 -1.71934,0.0387 -2.55901,0.42661 -0.6098,0.28169 -1.20504,0.72174 -1.75218,1.29536 -3.43375,3.59993 -2.09143,9.4103 2.52704,10.93855 0.37195,0.12308 1.1238,0.18118 2.00717,0.15511 1.15758,-0.0342 1.5668,-0.11289 2.26776,-0.43626 z M 151.11687,158.074 c 3.22131,-1.58585 4.54066,-5.63576 2.90337,-8.91227 -2.304,-4.6107 -8.32742,-4.79913 -10.74932,-0.33627 -1.99019,3.66735 -0.31561,8.14619 3.56022,9.5222 1.30099,0.46188 3.01379,0.35251 4.28573,-0.27366 z m 23.50564,-8.35092 c 10.44519,-1.19419 19.14619,-7.88562 22.90094,-17.61178 2.13976,-5.54274 2.59976,-11.65381 1.31369,-17.45248 -2.01006,-9.06305 -8.18437,-16.528374 -16.62493,-20.101109 -1.55494,-0.658176 -2.79742,-1.04037 -6.25158,-1.923027 -1.77925,-0.454659 -4.99028,-0.57476 -7.62568,-0.285219 -9.3721,1.029672 -17.63692,6.880132 -21.73809,15.387845 -0.86729,1.79916 -1.97892,5.04408 -2.28878,6.68112 -0.65092,3.43893 -0.80155,8.64098 -0.33149,11.44833 1.72634,10.31018 8.2206,18.50525 17.61313,22.2259 3.71542,1.47179 8.82704,2.11126 13.03279,1.63042 z m -3.81647,-13.07175 c -1.39934,-0.25377 -4.27042,-1.26044 -4.09504,-1.43582 0.027,-0.027 0.81448,0.18634 1.75007,0.47398 0.97919,0.30105 2.34632,0.59372 3.22158,0.68967 5.54061,0.60741 10.70345,-2.21719 13.23603,-7.24145 0.32911,-0.65291 0.92992,-2.28079 0.9291,-2.51737 -1e-5,-0.006 -1.77676,-0.007 -3.9483,-0.004 -3.90166,0.006 -3.94739,0.002 -3.87221,-0.29736 0.23034,-0.91861 0.53414,-3.26032 0.53466,-4.12114 0.002,-3.11373 -1.1197,-6.49675 -2.96348,-8.93882 -0.33233,-0.44016 -0.60424,-0.86904 -0.60424,-0.95306 0,-0.084 0.28436,-0.1985 0.63189,-0.25441 0.34754,-0.0559 0.79916,-0.13227 1.00359,-0.16971 0.20443,-0.0374 1.40774,-0.10567 2.67401,-0.15163 1.26628,-0.046 2.53749,-0.10168 2.82492,-0.12382 0.28742,-0.0221 0.63967,0.0185 0.78278,0.0902 0.45467,0.22805 0.29074,-0.12516 -0.49786,-1.07277 -0.95969,-1.15317 -2.22182,-2.09059 -3.92536,-2.91543 -2.04496,-0.99015 -3.33149,-1.27833 -5.72416,-1.28216 -2.28249,-0.004 -3.50684,0.25259 -5.49418,1.1499 -1.32208,0.59693 -1.96245,0.70648 -1.34508,0.2301 0.59652,-0.46029 2.6351,-1.2066 4.16303,-1.52407 2.69485,-0.55992 6.04536,-0.17122 8.56712,0.99391 4.27025,1.97298 7.43864,6.32526 8.39256,11.5285 0.24422,1.33213 0.2464,4.45307 0.004,5.7985 -1.01458,5.63244 -5.01116,10.26153 -10.15197,11.75866 -1.20818,0.35185 -4.80726,0.52296 -6.0935,0.28969 z m -5.49669,-2.24433 -0.351,-0.30618 0.40887,0.24894 c 0.22487,0.13692 0.40887,0.27471 0.40887,0.30619 0,0.11609 -0.12423,0.0498 -0.46674,-0.24895 z m -1.32631,-0.9758 c -0.44486,-0.378 -0.83568,-0.76271 -0.86848,-0.85491 -0.0328,-0.0922 0.30173,0.16124 0.7434,0.56321 0.44167,0.40197 0.86659,0.78667 0.94428,0.85491 0.0777,0.0682 0.10714,0.12406 0.0654,0.12406 -0.0417,0 -0.43978,-0.30927 -0.88465,-0.68727 z m -1.64337,-1.65443 c -0.47344,-0.52349 -0.77996,-0.92925 -0.70196,-0.92925 0.0336,0 0.31273,0.30108 0.62032,0.66906 0.61403,0.73458 0.66894,0.90957 0.0816,0.26019 z m -2.4983,-16.9123 c 0,-0.0818 0.1282,-0.38285 0.28489,-0.66905 0.15669,-0.28622 0.2849,-0.45348 0.2849,-0.3717 0,0.0818 -0.12821,0.38284 -0.2849,0.66905 -0.15669,0.28621 -0.28489,0.45347 -0.28489,0.3717 z m 2.66376,-4.28389 c 0,-0.0256 0.21745,-0.24303 0.48321,-0.48321 l 0.48322,-0.43668 -0.43669,0.48321 c -0.40705,0.45041 -0.52974,0.55154 -0.52974,0.43668 z m 1.56114,-1.44027 c 0.14801,-0.16355 0.30256,-0.29736 0.34345,-0.29736 0.0409,0 -0.0468,0.13381 -0.19477,0.29736 -0.14801,0.16355 -0.30256,0.29736 -0.34345,0.29736 -0.0409,0 0.0468,-0.13381 0.19477,-0.29736 z m -29.12214,16.42442 c 1.03002,-0.60134 1.96385,-1.63128 2.52353,-2.78326 0.47647,-0.98068 0.51561,-1.15808 0.43471,-1.96982 -0.40132,-4.02675 -4.96423,-5.87055 -7.9785,-3.22398 -0.28999,0.25462 -0.75528,0.88346 -1.03397,1.39742 -0.46346,0.85472 -0.50672,1.04235 -0.50672,2.19826 0,1.01111 0.067,1.39979 0.33525,1.94407 1.21989,2.47552 4.17718,3.63328 6.2257,2.43731 z m 77.39255,-0.25527 c 0.97077,-0.56892 1.59141,-1.25352 2.09165,-2.30723 0.4012,-0.8451 0.43731,-1.04546 0.38847,-2.15585 -0.11905,-2.70675 -1.84442,-4.41598 -4.46104,-4.41932 -0.99737,-10e-4 -1.25606,0.059 -2.07692,0.48393 -2.74059,1.41872 -3.37254,5.04456 -1.27855,7.33573 1.11576,1.22082 1.93307,1.57599 3.46768,1.50693 0.96754,-0.0435 1.33347,-0.13052 1.86871,-0.44419 z m -12.8472,-28.686567 c 2.2792,-0.84825 3.75384,-3.172432 3.75384,-5.916429 0,-2.746902 -1.37322,-4.93223 -3.80171,-6.049975 -0.74083,-0.340979 -1.08358,-0.405809 -2.14547,-0.405809 -1.04814,0 -1.40774,0.06628 -2.10755,0.388453 -2.25114,1.036364 -3.69095,3.402242 -3.69095,6.064916 0,1.939748 0.60371,3.402965 1.95046,4.727336 1.57299,1.546859 3.86955,1.999796 6.04138,1.191508 z M 149.73462,96.40303 c 3.9768,-1.860968 4.81303,-7.537292 1.58679,-10.771054 -0.386,-0.386902 -1.15402,-0.926069 -1.70669,-1.198151 -0.93584,-0.460711 -1.10722,-0.494694 -2.49479,-0.494694 -1.3476,0 -1.57513,0.04178 -2.382,0.437359 -1.62579,0.797079 -2.9388,2.446005 -3.44024,4.320386 -0.56038,2.09469 0.0831,4.576485 1.62366,6.262088 1.33461,1.460279 2.66491,2.016092 4.64824,1.942082 0.96226,-0.03591 1.38566,-0.1333 2.16503,-0.498016 z m -49.61657,85.65292 c 0.64798,-0.44828 1.88376,-1.75754 1.9652,-2.08204 0.0557,-0.22216 -0.0242,-0.53165 -0.21839,-0.84596 -0.4227,-0.68394 -2.171052,-2.33846 -2.471088,-2.33846 -0.428494,0 -0.867739,0.3039 -1.898756,1.31366 -1.180801,1.15646 -1.242238,1.4533 -0.501552,2.42335 0.505278,0.66174 1.611308,1.64582 2.025518,1.80218 0.269933,0.1019 0.718433,-0.009 1.099068,-0.27273 z m 0.16707,-27.63187 c -0.463763,-0.86459 -0.869235,-1.57199 -0.901052,-1.57199 -0.06951,0 1.127122,2.46411 1.422722,2.92966 0.11445,0.18027 0.23363,0.30224 0.26482,0.27105 0.0312,-0.0312 -0.32272,-0.76412 -0.78649,-1.62872 z m -56.935457,-3.95195 c 16.191091,-1.75375 16.319044,-1.76915 16.54024,-1.99035 0.162726,-0.16272 0.168211,-0.51872 0.03029,-1.96571 -0.09263,-0.97186 -0.202826,-1.8841 -0.244876,-2.0272 -0.09476,-0.32249 -0.373931,-0.32629 -2.925603,-0.0398 -1.079596,0.1212 -5.776524,0.62506 -10.437629,1.1197 -12.229336,1.29778 -14.919835,1.6021 -15.089063,1.70668 -0.08282,0.0512 -0.150037,0.40693 -0.149368,0.79053 0.0017,0.83949 0.272051,3.28876 0.383191,3.46859 0.04355,0.0705 0.26424,0.12811 0.490432,0.12811 0.226191,0 5.357262,-0.53573 11.402381,-1.19052 z M 39.041568,140.2871 c 17.431081,-1.85076 20.207287,-2.17136 20.393362,-2.35504 0.148779,-0.14686 0.154038,-0.58477 0.02534,-2.11096 -0.0893,-1.0591 -0.221021,-1.98627 -0.292713,-2.06038 -0.07766,-0.0802 -3.724646,0.24059 -9.020471,0.79358 -16.140326,1.68539 -19.392331,2.05256 -19.546718,2.20694 -0.104565,0.10457 -0.09622,0.75551 0.02647,2.06311 0.164626,1.75487 0.300941,2.28206 0.590098,2.28206 0.05944,0 3.58053,-0.36869 7.824638,-0.81931 z m 40.872093,-6.68365 c 7.114315,-0.76445 13.058729,-1.4393 13.209806,-1.49967 0.251917,-0.10067 0.265966,-0.23433 0.169425,-1.61226 -0.0579,-0.82637 -0.151027,-1.77012 -0.206962,-2.09721 l -0.101694,-0.59472 -1.034147,0.0256 c -0.568777,0.0141 -3.543111,0.30041 -6.609626,0.63628 -3.066514,0.33586 -8.753505,0.94341 -12.637758,1.3501 -3.884253,0.4067 -7.212816,0.77399 -7.396806,0.81619 -0.28946,0.0664 -0.334185,0.1715 -0.331954,0.78013 0.0051,1.3204 0.296063,3.51151 0.482475,3.62999 0.101205,0.0643 0.485082,0.0806 0.853067,0.0362 0.36798,-0.0444 6.48986,-0.7062 13.604174,-1.47065 z m -43.191398,-6.10373 c 5.846075,-0.63154 7.279591,-0.8018 7.619822,-0.90502 0.304824,-0.0925 0.308493,-0.17738 0.105049,-2.42988 -0.19243,-2.13058 -0.234665,-2.33336 -0.50784,-2.43819 -0.120733,-0.0463 -1.041261,0.0106 -2.045625,0.12651 -1.004369,0.11591 -3.866748,0.41893 -6.360844,0.67338 -2.879064,0.29372 -4.605411,0.5313 -4.728324,0.65072 -0.157652,0.15316 -0.160462,0.55839 -0.01517,2.1822 0.210075,2.34754 0.300524,2.66333 0.762617,2.66273 0.186013,-2.4e-4 2.512646,-0.23534 5.170294,-0.52245 z m 15.214082,-1.76161 c 1.71117,-0.20059 1.93567,-0.32245 1.817236,-0.98645 -0.03647,-0.20443 -0.106004,-0.9404 -0.154533,-1.63547 -0.129982,-1.86165 -0.222353,-2.34617 -0.465055,-2.4393 -0.39684,-0.15228 -4.281723,0.34727 -4.450934,0.57234 -0.110134,0.14648 -0.100249,0.81648 0.03332,2.25847 0.104448,1.12761 0.222994,2.13642 0.263431,2.2418 0.09175,0.2391 0.84438,0.2362 2.956538,-0.0114 z m 19.428244,33.36934 c 0,-0.0758 0.22418,-0.32671 0.498176,-0.55755 0.621936,-0.52395 3.369489,-3.04439 6.171235,-5.6611 1.999062,-1.86704 3.657185,-3.14083 3.84458,-2.95344 0.143918,0.14392 -5.26865,5.59638 -7.431006,7.48578 -1.778433,1.55394 -2.161428,1.82417 -2.585349,1.82417 -0.273698,0 -0.497636,-0.062 -0.497636,-0.13786 z m 19.520121,-6.62692 c -0.192126,-0.13548 -0.367788,-0.46148 -0.422971,-0.78498 -0.113736,-0.66675 -0.352172,-1.49929 -0.530464,-1.8522 -0.07173,-0.142 -0.130426,-0.39054 -0.130426,-0.55232 0,-0.16178 -0.13042,-0.36394 -0.289819,-0.44925 -0.275008,-0.14718 -0.375314,-0.29643 -0.982707,-1.46213 l -0.256188,-0.49168 0.504171,-0.52419 c 0.520473,-0.54116 5.440036,-4.85661 5.612174,-4.92301 0.05322,-0.0206 0.573824,1.37031 1.156857,3.09077 l 1.060063,3.1281 -0.507885,0.38739 c -0.27934,0.21306 -1.391832,1.33118 -2.472203,2.48472 -1.080366,1.15353 -2.065039,2.11603 -2.18816,2.1389 -0.123115,0.0229 -0.371717,-0.0627 -0.552442,-0.19012 z m 16.16297,-74.41424 c 0.17468,-0.245321 0.35106,-0.446038 0.39194,-0.446038 0.0409,0 -0.0686,0.200717 -0.24327,0.446038 -0.17468,0.245321 -0.35106,0.446039 -0.39194,0.446039 -0.0409,0 0.0686,-0.200718 0.24327,-0.446039 z m 5.35245,-0.799533 c 0,-0.03087 0.11709,-0.147958 0.2602,-0.260188 0.23581,-0.184939 0.24107,-0.17968 0.0561,0.05613 -0.19423,0.247663 -0.31633,0.326423 -0.31633,0.204054 z m 0.44604,-0.594717 c 0,-0.03087 0.11709,-0.147959 0.2602,-0.26019 0.23581,-0.184938 0.24107,-0.179679 0.0561,0.05614 -0.19422,0.247662 -0.31632,0.326423 -0.31632,0.204054 z m 9.96153,-15.210197 c 0,-0.07329 -2.53529,-0.104464 -5.79909,-0.0713 -6.66927,0.06776 -8.53626,-0.01834 -8.6029,-0.396711 -0.12813,-0.72746 -0.14855,-6.777144 -0.0236,-6.991171 0.11803,-0.202164 0.14411,-0.176143 0.14783,0.147493 0.002,0.216129 0.0881,0.419383 0.19037,0.451676 0.31221,0.09863 10.17481,-0.129045 10.35271,-0.238993 0.23974,-0.148166 0.22794,-3.89533 -0.0127,-4.044075 -0.1905,-0.117733 -10.02509,-0.34135 -10.33998,-0.235109 -0.13199,0.04453 -0.18955,0.521249 -0.19863,1.645103 -0.009,1.151991 -0.0481,1.464106 -0.14278,1.147495 -0.0715,-0.239197 -0.12587,-1.844936 -0.12082,-3.568309 0.0239,-8.171736 -0.0311,-16.594465 -0.11564,-17.694286 -0.10861,-1.413068 0.0599,-4.0984 0.25722,-4.0984 0.0741,0 0.1348,0.200718 0.1348,0.446039 0,0.254993 0.0796,0.448222 0.18585,0.451135 1.89815,0.05206 23.96606,-0.03969 24.12399,-0.100293 0.1825,-0.07003 0.22228,-0.455019 0.22228,-2.150903 v -2.065606 l -7.91718,-0.01903 c -4.35445,-0.01046 -9.7645,-0.06064 -12.02233,-0.11151 -2.25783,-0.05087 -4.21483,-0.07085 -4.34888,-0.04441 -0.20811,0.04105 -0.24439,0.290887 -0.24825,1.709815 -0.003,1.101341 -0.0513,1.581679 -0.14332,1.424333 -0.13808,-0.236191 -0.19622,-1.264137 -0.17576,-3.107879 0.006,-0.53153 -0.036,-1.745781 -0.093,-2.698338 l -0.10376,-1.73192 0.66906,-0.09077 c 1.26474,-0.171586 31.31916,-0.292816 31.4218,-0.126745 0.0526,0.08516 0.0979,7.505075 0.10063,16.488692 l 0.005,16.33385 -1.37894,0.5252 c -4.63233,1.76433 -8.6829,4.013466 -15.61484,8.670361 -0.22496,0.151134 -0.40903,0.21619 -0.40903,0.144568 z m 9.0365,-15.589353 c 0.14476,-0.04841 0.1802,-0.55159 0.14868,-2.110951 l -0.0414,-2.047392 -11.59506,-0.101061 c -6.37728,-0.05558 -11.62496,-0.07116 -11.66151,-0.03462 -0.0942,0.0942 -0.0666,4.163975 0.0293,4.319149 0.0774,0.12531 22.74383,0.100672 23.12003,-0.02513 z m -7.66121,-8.674622 7.24813,-0.01845 V 35.10668 c 0,-1.140006 -0.0518,-2.104766 -0.11516,-2.14391 -0.0633,-0.03914 -5.19836,-0.08831 -11.41116,-0.109263 l -11.29599,-0.03809 -0.041,2.244706 c -0.0364,1.994952 -0.0134,2.250135 0.20643,2.29351 0.13607,0.02684 2.02787,0.0069 4.204,-0.04426 2.17614,-0.05119 7.21826,-0.101364 11.20473,-0.11151 z m 28.48142,11.77435 c 0.10733,-0.04295 0.23556,-0.03767 0.28497,0.01174 0.0494,0.04941 -0.0384,0.08454 -0.19514,0.07809 -0.17321,-0.0071 -0.20844,-0.04236 -0.0898,-0.08983 z"
         id="path1" /></g></g></svg>

