<?xml version="1.0" encoding="UTF-8" standalone="no"?>
<!-- Created with Inkscape (http://www.inkscape.org/) -->

<svg
   width="1024"
   height="1024"
   viewBox="0 0 270.93333 270.93333"
   version="1.1"
   id="svg1"
   xml:space="preserve"
   inkscape:version="1.4.2 (ebf0e940d0, 2025-05-08)"
   sodipodi:docname="metapacks.svg"
   xmlns:inkscape="http://www.inkscape.org/namespaces/inkscape"
   xmlns:sodipodi="http://sodipodi.sourceforge.net/DTD/sodipodi-0.dtd"
   xmlns="http://www.w3.org/2000/svg"
   xmlns:svg="http://www.w3.org/2000/svg"><sodipodi:namedview
     id="namedview1"
     pagecolor="#ffffff"
     bordercolor="#000000"
     borderopacity="0.25"
     inkscape:showpageshadow="2"
     inkscape:pageopacity="0.0"
     inkscape:pagecheckerboard="0"
     inkscape:deskcolor="#d1d1d1"
     inkscape:document-units="px"
     inkscape:zoom="0.72248176"
     inkscape:cx="396.5498"
     inkscape:cy="561.25984"
     inkscape:window-width="2560"
     inkscape:window-height="1020"
     inkscape:window-x="0"
     inkscape:window-y="0"
     inkscape:window-maximized="1"
     inkscape:current-layer="layer1" /><defs
     id="defs1" /><g
     inkscape:label="Camada 1"
     inkscape:groupmode="layer"
     id="layer1"><g
       id="g1"
       transform="matrix(1.7054532,0,0,1.7054532,-45.724234,-67.300071)"><path
         style="fill:#f6b12e"
         d="m 100.14479,173.97281 c -3.346977,-1.34691 -8.130186,-3.24813 -10.629351,-4.22493 l -4.543937,-1.77602 0.150425,-3.38229 c 0.276123,-6.20859 -1.067636,-11.3277 -4.178685,-15.91889 -3.388842,-5.00114 -8.918059,-8.90017 -14.665115,-10.34137 -3.284421,-0.82365 -9.343501,-0.83291 -12.303124,-0.0188 -1.091407,0.30021 -2.162969,0.58684 -2.38125,0.63694 -0.342002,0.0785 -0.406721,-0.72285 -0.468083,-5.79588 -0.04325,-3.57572 0.02709,-5.88698 0.179168,-5.88698 0.305176,0 14.547086,4.93657 29.321699,10.16357 6.794902,2.40392 11.284974,3.85716 11.906249,3.85354 1.346286,-0.008 2.949988,-0.77663 3.910109,-1.87444 0.435314,-0.49774 2.856123,-3.79031 5.379575,-7.31681 2.52345,-3.52651 4.69634,-6.47873 4.82865,-6.5605 0.14353,-0.0887 0.24055,7.89704 0.24055,19.80033 0,19.46692 -0.19004,31.1749 -0.5051,31.11914 -0.086,-0.0152 -2.8948,-1.12969 -6.24178,-2.4766 z m -9.921873,-38.35944 c -3.728378,-1.36086 -28.275584,-9.94015 -42.068747,-14.7031 -4.729427,-1.63313 -8.739991,-3.04477 -8.912365,-3.13698 -0.21767,-0.11643 -0.04737,-0.61192 0.557487,-1.62203 0.478992,-0.79991 2.809096,-4.7286 5.17801,-8.73042 2.368913,-4.00183 4.398159,-7.37732 4.509436,-7.501095 0.253453,-0.281925 55.732982,17.911785 56.276152,18.454955 0.052,0.052 -0.7343,1.21028 -1.74731,2.57398 -1.01302,1.36369 -3.91703,5.33695 -6.453358,8.82945 -2.960795,4.07698 -4.79192,6.37021 -5.115511,6.40648 -0.277201,0.0311 -1.277908,-0.226 -2.223794,-0.57124 z m 33.081023,-5.37582 c -1.23247,-1.41685 -3.31606,-3.81611 -4.63021,-5.33169 -1.31414,-1.51558 -3.1335,-3.5913 -4.043,-4.61271 -0.90951,-1.0214 -1.65365,-1.96318 -1.65365,-2.09282 0,-0.12964 3.42305,-1.90805 7.60677,-3.95201 17.91863,-8.75417 40.93657,-19.792068 41.27348,-19.792068 0.21097,0 0.74023,0.616083 5.90972,6.879168 5.06337,6.13451 5.87639,7.1549 5.77291,7.24539 -0.0581,0.0508 -4.15371,2.12802 -9.10142,4.61608 -4.94771,2.48806 -15.6038,7.91994 -23.68021,12.07084 -8.0764,4.15091 -14.80344,7.54684 -14.94896,7.54651 -0.14552,-3.2e-4 -1.27296,-1.15983 -2.50543,-2.57669 z m -16.0154,-16.70823 -2.11667,-0.72922 -0.0681,-17.109423 c -0.0479,-12.048553 0.0159,-17.109424 0.21583,-17.109424 0.61708,0 1.32595,0.593854 2.13657,1.789905 0.83186,1.227394 1.97266,2.500622 10.95325,12.224762 0.87775,0.950422 2.65946,2.904113 3.95936,4.341534 2.93562,3.246196 3.9162,3.929856 5.63663,3.929856 0.70621,0 1.65138,-0.18997 2.10037,-0.42216 0.71581,-0.37016 6.83073,-6.782405 10.54378,-11.056455 0.71465,-0.822625 1.41843,-1.54891 1.56395,-1.613967 0.22545,-0.10079 13.27796,3.864004 13.52109,4.107128 0.0472,0.0472 -2.38042,1.261198 -5.39472,2.69777 -7.50404,3.576325 -18.88628,9.056704 -30.85991,14.858574 -5.51844,2.67399 -10.04282,4.85247 -10.05416,4.84107 -0.0113,-0.0114 -0.97313,-0.34888 -2.1373,-0.74995 z"
         id="path5" /><path
         style="fill:#e78d20"
         d="m 106.73223,172.77292 c 0,-2.11006 0.0411,-2.97326 0.0913,-1.91823 0.0502,1.05502 0.0502,2.78143 0,3.83645 -0.0502,1.05503 -0.0913,0.19183 -0.0913,-1.91822 z m 4.92194,-22.5425 c 0,-15.18043 0.0984,-26.14069 0.23348,-25.99531 0.12841,0.13824 1.50841,1.73963 3.06667,3.55864 7.88753,9.20743 8.33405,9.63701 10.32789,9.936 0.67279,0.1009 1.56836,0.0385 2.16097,-0.15051 0.86548,-0.27606 15.85516,-7.94247 28.99301,-14.82836 2.14715,-1.12538 3.95268,-1.96722 4.01229,-1.87077 0.21132,0.34192 -0.0713,29.99831 -0.28782,30.19804 -0.31211,0.28795 -10.05827,5.55518 -10.27898,5.55518 -0.17695,0 -4.24941,-2.91558 -9.38793,-6.72106 -9.5236,-7.05298 -10.3088,-7.56644 -11.57091,-7.56644 -1.42413,0 -2.81714,0.76741 -3.38446,1.86449 -0.54655,1.0569 -0.48982,2.45399 0.26172,6.44558 2.03696,10.81878 3.06133,16.92041 2.87084,17.10012 -0.27672,0.26107 -16.61829,8.72106 -16.84586,8.72106 -0.094,0 -0.17091,-11.811 -0.17091,-26.24666 z m -26.86609,17.76239 c -0.271479,-0.43926 -0.02781,-0.50017 0.35204,-0.088 0.187638,0.2036 0.224431,0.37019 0.08176,0.37019 -0.14267,0 -0.337881,-0.12699 -0.4338,-0.28219 z m 0.164059,-7.80965 c 0.0127,-0.30823 0.07539,-0.37092 0.159853,-0.15985 0.07643,0.19099 0.06703,0.4192 -0.02089,0.50711 -0.08792,0.0879 -0.150452,-0.0683 -0.138963,-0.34726 z m -5.08172,-12.7441 c -0.329108,-0.41964 -0.319749,-0.429 0.0999,-0.0999 0.440729,0.34564 0.580887,0.56291 0.363126,0.56291 -0.05494,0 -0.263302,-0.20836 -0.463021,-0.46302 z m -2.223492,-2.51354 -1.579217,-1.65365 1.653645,1.57922 c 1.536096,1.46696 1.774719,1.72808 1.579218,1.72808 -0.04094,0 -0.785076,-0.74414 -1.653646,-1.65365 z m 18.661407,-5.59 c 0,-0.0549 0.208359,-0.2633 0.46302,-0.46302 0.419644,-0.32911 0.429003,-0.31975 0.0999,0.0999 -0.345643,0.44073 -0.562915,0.58088 -0.562915,0.36312 z m -34.180858,-1.66834 c 0.190996,-0.0764 0.419199,-0.067 0.507118,0.0209 0.08792,0.0879 -0.06835,0.15046 -0.347265,0.13897 -0.308225,-0.0127 -0.37092,-0.0754 -0.159853,-0.15985 z m 61.942084,-6.3677 -0.64144,-0.7276 0.72761,0.64143 c 0.40018,0.35279 0.7276,0.68021 0.7276,0.7276 0,0.20751 -0.21426,0.0386 -0.81377,-0.64143 z m -1.86581,-2.11667 c -0.32911,-0.41964 -0.31975,-0.429 0.0999,-0.0999 0.44073,0.34564 0.58089,0.56291 0.36313,0.56291 -0.0549,0 -0.2633,-0.20836 -0.46302,-0.46302 z m -1.5875,-1.85208 c -0.32911,-0.41964 -0.31975,-0.429 0.0999,-0.0999 0.25467,0.19971 0.46303,0.40807 0.46303,0.46302 0,0.21776 -0.21728,0.0776 -0.56292,-0.36313 z m -14.51833,-1.48896 c 0,-0.0549 0.20836,-0.2633 0.46302,-0.46302 0.41964,-0.32911 0.429,-0.31975 0.0999,0.0999 -0.34564,0.44073 -0.56291,0.58088 -0.56291,0.36312 z m 12.67997,-0.62771 -0.64143,-0.7276 0.7276,0.64143 c 0.68006,0.59952 0.84894,0.81378 0.64143,0.81378 -0.0474,0 -0.37481,-0.32742 -0.7276,-0.72761 z m -1.98949,-2.24895 -0.50403,-0.59532 0.59532,0.50403 c 0.32742,0.27722 0.59531,0.54511 0.59531,0.59531 0,0.21174 -0.21294,0.0554 -0.6866,-0.50402 z m -1.32291,-1.5875 -0.50403,-0.59532 0.59531,0.50403 c 0.32742,0.27722 0.59531,0.54511 0.59531,0.59531 0,0.21174 -0.21293,0.0554 -0.68659,-0.50402 z m -2.36177,-2.58594 c -0.39948,-0.44142 -0.42309,-0.59239 -0.13449,-0.8599 0.27839,-0.25804 0.30973,-0.25335 0.15304,0.0229 -0.11331,0.1998 4e-5,0.56516 0.26678,0.8599 0.25509,0.28187 0.40427,0.51249 0.33151,0.51249 -0.0728,0 -0.35034,-0.24093 -0.61684,-0.53541 z m -8.25666,-9.25417 c 0,-0.65484 0.0516,-0.92273 0.11467,-0.59531 0.0631,0.32742 0.0631,0.8632 0,1.19062 -0.0631,0.32743 -0.11467,0.0595 -0.11467,-0.59531 z m 68.15669,-1.78594 c -0.32911,-0.41964 -0.31975,-0.429 0.0999,-0.0999 0.25466,0.19972 0.46302,0.40808 0.46302,0.46302 0,0.21776 -0.21727,0.0776 -0.56291,-0.36313 z m -1.32292,-1.5875 c -0.32911,-0.41964 -0.31975,-0.429 0.0999,-0.0999 0.44072,0.34564 0.58088,0.56292 0.36312,0.56292 -0.0549,0 -0.2633,-0.20836 -0.46302,-0.46303 z m -2.38125,-2.91041 c -0.32911,-0.41965 -0.31975,-0.429 0.0999,-0.0999 0.44072,0.34565 0.58088,0.56292 0.36312,0.56292 -0.0549,0 -0.2633,-0.20836 -0.46302,-0.46302 z m -2.64583,-3.175 c -0.32911,-0.419646 -0.31975,-0.429004 0.0999,-0.0999 0.44073,0.34565 0.58089,0.56292 0.36313,0.56292 -0.0549,0 -0.2633,-0.20836 -0.46302,-0.46302 z m -42.96933,-1.719794 -1.57921,-1.653645 1.65364,1.579217 c 1.5361,1.466959 1.77472,1.728072 1.57922,1.728072 -0.0409,0 -0.78508,-0.744138 -1.65365,-1.653644 z m 9.53329,-0.992187 c 0.26339,-0.291042 0.53842,-0.529167 0.61118,-0.529167 0.0728,0 -0.0832,0.238125 -0.3466,0.529167 -0.26339,0.291042 -0.53842,0.529167 -0.61118,0.529167 -0.0728,0 0.0832,-0.238125 0.3466,-0.529167 z m 29.87277,-1.653646 -0.50402,-0.595312 0.59531,0.504028 c 0.32742,0.277215 0.59531,0.545106 0.59531,0.595312 0,0.211734 -0.21294,0.05542 -0.6866,-0.504028 z m -42.59791,-0.79375 -0.50403,-0.595312 0.59531,0.504028 c 0.32743,0.277215 0.59532,0.545106 0.59532,0.595312 0,0.211734 -0.21294,0.05542 -0.6866,-0.504028 z m 15.37097,-0.463021 c 0.56839,-0.582083 1.09297,-1.058333 1.16573,-1.058333 0.0728,0 -0.33276,0.47625 -0.90115,1.058333 -0.56839,0.582084 -1.09296,1.058334 -1.16572,1.058334 -0.0728,0 0.33275,-0.47625 0.90114,-1.058334 z m 26.06146,0 c -0.23847,-0.154109 -0.2711,-0.258097 -0.0818,-0.260531 0.17331,-0.0022 0.3887,0.115011 0.47863,0.260531 0.20302,0.328487 0.11142,0.328487 -0.39687,0 z M 50.047576,93.996595 C 49.466443,92.892503 43.104765,72.671053 43.23323,72.336279 c 0.07801,-0.203285 0.295995,-0.369609 0.484417,-0.369609 0.489635,0 34.540364,-12.804986 57.697933,-21.697662 2.73622,-1.05073 5.04207,-1.843296 5.12411,-1.761257 0.082,0.08204 -1.28015,5.836613 -3.02709,12.787944 l -3.17626,12.638783 -3.403065,1.418778 c -3.78877,1.579582 -10.225511,4.229742 -16.632232,6.847887 -4.445737,1.816777 -8.776074,3.571348 -21.431249,8.68354 -4.220104,1.704756 -7.876277,3.207273 -8.124828,3.338926 -0.329155,0.174349 -0.518593,0.112683 -0.69739,-0.227014 z m 67.677764,-2.12003 -0.9118,-0.992187 0.99219,0.911798 c 0.9235,0.848682 1.11384,1.072577 0.9118,1.072577 -0.0442,0 -0.4907,-0.446485 -0.99219,-0.992188 z m 20.91632,-0.463021 c 0.49366,-0.509323 0.95709,-0.926041 1.02985,-0.926041 0.0728,0 -0.27161,0.416718 -0.76526,0.926041 -0.49366,0.509323 -0.95709,0.926042 -1.02985,0.926042 -0.0728,0 0.27161,-0.416719 0.76526,-0.926042 z m -23.83252,-2.711979 -0.64143,-0.727604 0.7276,0.641433 c 0.40018,0.352788 0.72761,0.68021 0.72761,0.727604 0,0.207506 -0.21426,0.03862 -0.81378,-0.641433 z m 26.21377,0.06615 c 0.34178,-0.363802 0.68094,-0.661458 0.7537,-0.661458 0.0728,0 -0.14734,0.297656 -0.48911,0.661458 -0.34178,0.363802 -0.68094,0.661458 -0.7537,0.661458 -0.0728,0 0.14734,-0.297656 0.48911,-0.661458 z m -29.38299,-3.505729 -0.9118,-0.992187 0.99219,0.911798 c 0.92351,0.848682 1.11384,1.072577 0.9118,1.072577 -0.0442,0 -0.4907,-0.446485 -0.99219,-0.992188 z m -2.64583,-2.910416 -0.9118,-0.992188 0.99219,0.911798 c 0.92351,0.848682 1.11384,1.072577 0.9118,1.072577 -0.0442,0 -0.4907,-0.446484 -0.99219,-0.992187 z m -2.40076,-3.175 c -0.3291,-0.419644 -0.31974,-0.429003 0.0999,-0.09989 0.44073,0.345644 0.58089,0.562916 0.36312,0.562916 -0.0549,0 -0.2633,-0.20836 -0.46302,-0.463021 z"
         id="path4" /><path
         style="fill:#6ca141"
         d="m 152.38455,194.74703 c -1.75315,-0.53198 -1.67431,-0.43202 -5.79614,-7.34858 -1.49354,-2.50621 -2.86744,-4.68282 -3.0531,-4.8369 -0.36141,-0.29994 -1.13938,0.57005 -3.63928,4.06973 -1.50923,2.11281 -2.54078,2.80841 -4.16478,2.80841 -1.45303,0 -2.72191,-0.7181 -3.32308,-1.88064 -0.24109,-0.46622 -0.77613,-3.00156 -1.18898,-5.63409 -1.16774,-7.44618 -1.40655,-8.67701 -1.70583,-8.79185 -0.15329,-0.0588 -3.54971,1.62506 -7.5476,3.74196 -3.99789,2.1169 -8.11879,4.27411 -9.15755,4.79379 -2.5197,1.26059 -3.76064,1.25213 -6.8867,-0.047 -1.28542,-0.53418 -4.95651,-2.01728 -8.157968,-3.29578 -3.201458,-1.27851 -7.578642,-3.051 -9.727076,-3.93888 -2.148434,-0.88788 -4.076707,-1.61432 -4.285052,-1.61432 -0.208345,0 -0.802847,0.80367 -1.321115,1.78593 -3.235791,6.13274 -9.111563,10.78743 -16.179944,12.81748 -1.787989,0.51351 -2.717764,0.60067 -6.454519,0.60503 -5.094618,0.006 -6.943976,-0.39982 -11.010858,-2.41588 -6.522183,-3.23323 -11.379952,-9.16793 -13.271478,-16.21367 -0.878791,-3.27341 -0.997633,-9.03443 -0.25145,-12.18931 1.392702,-5.88838 4.821832,-11.07292 9.537468,-14.41979 l 1.491157,-1.05834 0.0057,-6.37733 c 0.0031,-3.50753 0.0714,-7.07941 0.151695,-7.9375 0.08029,-0.85809 0.04793,-1.70183 -0.07192,-1.87498 -0.119853,-0.17315 -2.636562,-1.08889 -5.592686,-2.03499 -2.956125,-0.94609 -5.672141,-1.91502 -6.035592,-2.15316 -1.31855,-0.86395 -1.807194,-3.34134 -0.980098,-4.96903 0.236649,-0.46571 2.993286,-5.12271 6.125859,-10.34888 L 45.58922,96.486333 44.861907,94.214502 C 44.461886,92.965035 42.716996,87.59693 40.984375,82.28542 39.037785,76.317971 37.834396,72.213439 37.834787,71.542777 c 9.15e-4,-1.569528 0.870798,-2.700411 2.646466,-3.440516 0.800365,-0.333595 2.764896,-1.09905 4.365625,-1.701012 9.26273,-3.483295 27.788386,-10.508266 36.247915,-13.745292 5.38427,-2.060284 11.635051,-4.440829 13.890624,-5.290102 2.255573,-0.849272 5.793373,-2.209956 7.861773,-3.023741 5.1695,-2.033872 6.85507,-1.972794 8.40251,0.304472 1.22172,1.797925 1.22164,1.798427 -3.42874,19.231329 -2.79094,10.462392 -2.74302,9.786908 -0.7487,10.554612 1.33586,0.514235 1.02054,0.741351 4.93674,-3.555826 1.54098,-1.690889 3.21086,-3.268467 3.71085,-3.505729 1.09566,-0.519922 2.96429,-0.546019 3.87182,-0.05407 0.3638,0.197208 2.27878,2.127755 4.25552,4.290104 1.97673,2.162349 3.75811,3.931543 3.95862,3.931543 0.20051,0 1.44068,-1.261474 2.75594,-2.803275 1.31525,-1.541801 3.52247,-4.106885 4.90491,-5.700187 1.38245,-1.593301 3.93844,-4.558546 5.67997,-6.589432 1.74153,-2.030887 4.06325,-4.60619 5.15937,-5.722895 1.76002,-1.793063 2.13548,-2.051048 3.21236,-2.207251 1.69623,-0.246042 2.4789,0.21239 7.44824,4.362621 4.7664,3.980751 5.48756,4.856388 5.48756,6.663031 0,1.406947 -0.68454,2.473828 -3.54173,5.519875 -2.28148,2.432285 -12.71444,14.264236 -12.80596,14.523152 -0.0417,0.117979 1.26798,0.602981 2.91041,1.077781 5.98433,1.729972 13.85857,4.301389 14.83018,4.842953 0.58453,0.325807 1.96493,1.763885 3.34126,3.480856 1.28989,1.609128 4.14956,5.128343 6.35484,7.820472 5.05227,6.16766 5.57975,6.94857 5.57975,8.26059 0,2.13114 -0.24763,2.32776 -7.35489,5.83991 l -6.53573,3.22971 -0.13229,17.50943 c -0.12997,17.20221 -0.14193,17.52254 -0.68165,18.25625 -0.35268,0.47944 -2.26366,1.64737 -5.33757,3.26216 -2.63351,1.38343 -4.85789,2.58503 -4.94307,2.67021 -0.0852,0.0852 2.0786,1.83323 4.80839,3.88455 2.7298,2.05132 5.17163,4.08278 5.42629,4.51436 1.03151,1.7481 0.24093,4.19293 -1.65713,5.12465 -0.51291,0.25177 -2.43633,0.62986 -4.33169,0.85149 -1.87503,0.21926 -3.46737,0.45687 -3.53853,0.52804 -0.16029,0.16028 0.18417,0.73238 3.89718,6.47271 3.41486,5.2794 3.81587,6.09751 3.55996,7.26269 -0.30869,1.40546 -0.93505,2.06129 -3.65348,3.82536 -3.9346,2.55328 -4.802,2.89235 -6.26415,2.44867 z m 3.72381,-1.289 c 5.02171,-2.95845 5.81664,-3.70419 5.81664,-5.45667 0,-1.22948 -0.0384,-1.29929 -4.72046,-8.58414 -3.23373,-5.03138 -3.30163,-5.31695 -1.26642,-5.32653 1.87827,-0.009 6.11164,-0.70272 6.95817,-1.14047 1.51802,-0.785 2.10594,-3.03853 1.18619,-4.54672 -0.2675,-0.43865 -2.71176,-2.45789 -5.43169,-4.48721 -2.8263,-2.10868 -4.91324,-3.84472 -4.87045,-4.05153 0.0412,-0.19902 2.26843,-1.51353 4.94946,-2.92112 3.13995,-1.64854 5.07009,-2.82501 5.42396,-3.30605 0.53972,-0.73369 0.55168,-1.054 0.68165,-18.25625 l 0.1323,-17.50946 1.59743,-0.79375 c 0.8786,-0.43657 3.78481,-1.86532 6.45825,-3.175 5.18858,-2.54182 5.8319,-3.07135 5.83395,-4.80206 0.001,-1.11235 -0.81558,-2.2733 -6.48966,-9.222862 -2.61478,-3.202559 -5.40899,-6.637557 -6.20935,-7.633329 -0.80036,-0.995772 -1.93146,-2.084143 -2.51354,-2.418603 -1.05076,-0.603759 -5.8316,-2.183781 -13.65122,-4.511603 -2.24173,-0.667339 -4.18065,-1.315944 -4.30872,-1.441346 -0.19581,-0.191725 8.12468,-9.80927 13.94029,-16.113391 2.00212,-2.1703 2.56223,-3.106985 2.56345,-4.28695 0.001,-1.429505 -0.82668,-2.425588 -4.90343,-5.89767 -4.7598,-4.053821 -5.70229,-4.658645 -7.25953,-4.658645 -1.97592,0 -1.61017,-0.356912 -12.31754,12.019877 -2.76075,3.191193 -6.06731,7.030959 -7.3479,8.532812 -1.2806,1.501854 -2.43289,2.730643 -2.56065,2.730643 -0.12776,0 -1.22313,-1.099356 -2.43415,-2.443015 -4.96992,-5.514264 -5.83284,-6.311029 -7.00539,-6.468301 -1.99251,-0.267251 -2.71879,0.200635 -6.46696,4.166112 -1.91665,2.027779 -3.61538,3.686871 -3.77496,3.686871 -0.15958,0 -0.92754,-0.264187 -1.70659,-0.587083 -1.3792,-0.571648 -1.41357,-0.611646 -1.30732,-1.521354 0.06,-0.513849 1.01558,-4.268021 2.12346,-8.342604 3.13413,-11.526752 4.42662,-16.724804 4.42555,-17.798288 -0.002,-1.959489 -1.81112,-3.762319 -3.77748,-3.764263 -0.62453,-6.18e-4 -3.15921,0.835071 -6.74687,2.224456 -3.160598,1.223996 -8.24685,3.176636 -11.302788,4.339202 -3.055937,1.162566 -9.782968,3.725691 -14.948957,5.695834 -13.431053,5.122173 -28.048242,10.664116 -30.823957,11.686556 -4.099233,1.509961 -4.855631,1.905088 -5.420495,2.83156 -0.736654,1.208238 -0.673946,2.002451 0.422937,5.35664 5.1001,15.595738 6.71735,20.672816 6.71735,21.087969 0,0.267784 -2.692373,4.967725 -5.98305,10.444325 -3.97367,6.61328 -6.026576,10.28195 -6.112651,10.92368 -0.161381,1.20319 0.455082,2.74683 1.324451,3.31646 0.357518,0.23425 3.070294,1.19793 6.028391,2.14151 2.958097,0.94358 5.471673,1.8625 5.585724,2.04206 0.114051,0.17955 0.209188,3.92541 0.211416,8.32413 l 0.0041,7.99767 -2.412571,1.90309 c -5.560543,4.38627 -8.367803,9.47907 -9.276042,16.82813 -0.678858,5.49302 0.994802,12.03316 4.345552,16.98106 1.276735,1.88529 4.620039,5.05692 6.924556,6.56899 9.560687,6.27306 22.129088,5.04878 30.825652,-3.0027 1.986336,-1.839 3.775012,-4.19512 4.938059,-6.50462 0.489243,-0.97151 1.0093,-1.8404 1.155681,-1.93086 0.146381,-0.0905 1.786454,0.45211 3.644608,1.20573 13.793124,5.59418 19.182964,7.76308 20.444084,8.22683 2.5126,0.92393 2.9167,0.78857 12.17084,-4.07663 4.5839,-2.40991 8.71616,-4.60169 9.18279,-4.87063 0.55782,-0.3215 0.93474,-0.39895 1.10045,-0.22614 0.20053,0.20911 1.35007,6.74786 2.30609,13.11729 0.42687,2.84402 3.2778,4.25901 5.56356,2.76132 0.34894,-0.22863 1.65547,-1.78188 2.90342,-3.45168 1.24794,-1.66979 2.43242,-3.03598 2.63217,-3.03598 0.44337,0 1.30287,1.24682 3.83024,5.55625 3.10364,5.29205 3.49123,5.8612 4.34675,6.3829 1.30353,0.7949 2.6888,0.64168 4.65122,-0.51445 z m -3.17908,-4.3471 c -0.28117,-0.47294 -2.3467,-3.83645 -4.59008,-7.47447 -2.9804,-4.83322 -4.22777,-6.63709 -4.63175,-6.69815 -0.44355,-0.067 -1.1868,0.76999 -3.75898,4.23333 -1.76335,2.3743 -3.36421,4.3535 -3.55746,4.39823 -0.23395,0.0541 -0.44445,-0.38793 -0.62994,-1.32292 -0.68972,-3.47662 -5.85065,-33.41413 -5.85065,-33.93843 0,-0.22354 0.13611,-0.40644 0.30247,-0.40644 0.2479,0 12.37281,9.04257 25.81125,19.24964 2.50049,1.89922 3.03731,2.49353 2.52742,2.79807 -0.10914,0.0652 -2.34156,0.31775 -4.96094,0.56125 -5.68306,0.52829 -5.95312,0.57649 -5.95312,1.06245 0,0.2079 1.68543,3.03336 3.74541,6.27881 5.25647,8.28147 5.77989,9.1581 5.77727,9.6758 -0.002,0.45553 -2.76923,2.44273 -3.4012,2.44273 -0.17517,0 -0.54854,-0.38695 -0.8297,-0.8599 z m 3.08589,-0.78821 c 0.48551,-0.28645 0.88274,-0.64258 0.88274,-0.79138 0,-0.27609 -2.8764,-4.94937 -7.31291,-11.88126 -1.36217,-2.12834 -2.47667,-3.98899 -2.47667,-4.13479 0,-0.62871 0.95535,-0.85082 5.7769,-1.34304 4.58815,-0.46839 5.66531,-0.65543 5.31355,-0.92267 -0.0606,-0.0461 -2.37243,-1.81088 -5.13732,-3.92181 -8.7545,-6.68382 -22.07409,-16.6414 -22.45629,-16.78806 -0.30242,-0.11605 -0.3253,0.0856 -0.12846,1.13194 0.13174,0.70023 0.77243,4.36877 1.42377,8.15231 1.15332,6.69953 1.45381,8.4266 3.42699,19.69645 0.52086,2.97492 1.01312,5.47504 1.09391,5.55583 0.0808,0.0808 0.31762,-0.0911 0.52629,-0.38187 3.02105,-4.21016 5.84318,-7.88274 6.20696,-8.07743 0.78717,-0.42128 1.62795,0.55993 4.47648,5.22409 1.49182,2.44269 3.16219,5.15563 3.71194,6.02876 0.54975,0.87312 1.31729,2.10251 1.70564,2.73197 l 0.7061,1.14446 0.68882,-0.45133 c 0.37885,-0.24824 1.08606,-0.68571 1.57156,-0.97217 z M 55.430211,183.19871 c -7.569115,-1.80247 -13.553985,-7.52863 -15.51866,-14.84785 -0.774483,-2.88527 -0.771706,-7.5951 0.0062,-10.49466 1.965161,-7.32505 7.514383,-12.98157 14.733695,-15.0186 1.658917,-0.46808 2.798463,-0.59434 5.408986,-0.59929 3.945207,-0.007 5.644608,0.38418 9.24237,2.13011 2.143794,1.04034 2.854965,1.57045 5.046098,3.7614 2.907896,2.90765 4.245085,5.1654 5.43585,9.17803 1.284891,4.32982 0.911182,9.97199 -0.929358,14.03121 -1.535453,3.38637 -4.512492,6.81666 -7.82438,9.01563 -1.644033,1.09158 -4.673319,2.36271 -6.869539,2.88256 -2.012589,0.47638 -6.654978,0.45589 -8.731249,-0.0385 z m 3.560642,-12.34402 c 0.842527,-0.90951 4.28535,-4.73345 7.650717,-8.49766 5.560312,-6.21927 6.118848,-6.93019 6.118848,-7.78815 0,-1.27196 -0.852565,-2.16888 -2.061623,-2.16888 -0.705927,0 -1.127429,0.22366 -1.872108,0.99339 -1.056805,1.09236 -6.955284,7.601 -10.189546,11.24359 -1.130572,1.27331 -2.208824,2.3151 -2.396115,2.3151 -0.187291,0 -1.783553,-1.48828 -3.54725,-3.30729 -3.037613,-3.13288 -3.261784,-3.30729 -4.250836,-3.30729 -1.249019,0 -2.140854,0.92068 -2.140854,2.21011 0,0.70352 0.629439,1.44527 4.572447,5.38827 4.316774,4.31678 4.628699,4.57245 5.578449,4.57245 0.894242,0 1.176184,-0.18371 2.537871,-1.65364 z m 47.546207,5.9724 c 0.16877,-0.12069 0.36413,-0.57624 0.43414,-1.01233 0.1166,-0.72635 0.12415,-0.71689 0.09,0.11278 -0.0229,0.55749 -0.18984,0.94667 -0.43414,1.01233 -0.268,0.072 -0.29723,0.0354 -0.09,-0.11278 z m 4.68697,-0.20899 c -0.0819,-0.21348 -0.0876,-0.5409 -0.0126,-0.7276 0.075,-0.1867 0.14577,-0.0803 0.15725,0.23645 0.0115,0.31675 0.22925,0.63036 0.48391,0.69691 0.43394,0.1134 0.43342,0.12293 -0.008,0.1517 -0.25923,0.0169 -0.53835,-0.14398 -0.62027,-0.35746 z m -5.91986,-0.14102 c -0.21828,-0.14106 -0.27782,-0.25648 -0.1323,-0.25648 0.14553,0 0.44318,0.11542 0.66146,0.25648 0.21828,0.14107 0.27782,0.25648 0.13229,0.25648 -0.14552,0 -0.44317,-0.11541 -0.66145,-0.25648 z m -1.32292,-0.52917 c -0.21828,-0.14106 -0.27781,-0.25648 -0.13229,-0.25648 0.14552,0 0.44318,0.11542 0.66146,0.25648 0.21828,0.14107 0.27781,0.25649 0.13229,0.25649 -0.14552,0 -0.44318,-0.11542 -0.66146,-0.25649 z m -2.24896,-0.93535 c -0.66162,-0.31867 -0.68364,-0.3554 -0.13229,-0.22064 0.7497,0.18324 1.59239,0.61275 1.19062,0.60685 -0.14552,-0.002 -0.62177,-0.17593 -1.05833,-0.38621 z m -1.71979,-0.65215 c -0.218281,-0.14106 -0.277812,-0.25648 -0.132292,-0.25648 0.145522,0 0.443182,0.11542 0.661462,0.25648 0.21828,0.14107 0.27781,0.25649 0.13229,0.25649 -0.14552,0 -0.44318,-0.11542 -0.66146,-0.25649 z m -1.322916,-0.52916 c -0.218282,-0.14107 -0.277813,-0.25648 -0.132292,-0.25648 0.145521,0 0.443177,0.11541 0.661458,0.25648 0.218281,0.14106 0.277813,0.25648 0.132292,0.25648 -0.145521,0 -0.443177,-0.11542 -0.661458,-0.25648 z m -1.322917,-0.52917 c -0.218281,-0.14106 -0.277813,-0.25648 -0.132292,-0.25648 0.145521,0 0.443177,0.11542 0.661459,0.25648 0.218281,0.14107 0.277812,0.25648 0.132291,0.25648 -0.145521,0 -0.443177,-0.11541 -0.661458,-0.25648 z m -1.322917,-0.52916 c -0.218281,-0.14107 -0.277812,-0.25649 -0.132291,-0.25649 0.145521,0 0.443177,0.11542 0.661458,0.25649 0.218281,0.14106 0.277812,0.25648 0.132292,0.25648 -0.145521,0 -0.443177,-0.11542 -0.661459,-0.25648 z m -1.322916,-0.52917 c -0.218281,-0.14107 -0.277813,-0.25648 -0.132292,-0.25648 0.145521,0 0.443177,0.11541 0.661458,0.25648 0.218282,0.14106 0.277813,0.25648 0.132292,0.25648 -0.145521,0 -0.443177,-0.11542 -0.661458,-0.25648 z M 92.604167,171.45 c -0.218281,-0.14107 -0.277812,-0.25648 -0.132291,-0.25648 0.14552,0 0.443177,0.11541 0.661458,0.25648 0.218281,0.14106 0.277812,0.25648 0.132291,0.25648 -0.14552,0 -0.443177,-0.11542 -0.661458,-0.25648 z m -1.322916,-0.52917 c -0.218282,-0.14106 -0.277813,-0.25648 -0.132292,-0.25648 0.145521,0 0.443177,0.11542 0.661458,0.25648 0.218281,0.14107 0.277813,0.25648 0.132292,0.25648 -0.145521,0 -0.443177,-0.11541 -0.661458,-0.25648 z m -1.322917,-0.52916 c -0.218281,-0.14107 -0.277812,-0.25649 -0.132292,-0.25649 0.145521,0 0.443177,0.11542 0.661459,0.25649 0.218281,0.14106 0.277812,0.25648 0.132291,0.25648 -0.145521,0 -0.443177,-0.11542 -0.661458,-0.25648 z m -1.322917,-0.52917 c -0.218281,-0.14107 -0.277812,-0.25648 -0.132291,-0.25648 0.145521,0 0.443177,0.11541 0.661458,0.25648 0.218281,0.14106 0.277813,0.25648 0.132292,0.25648 -0.145521,0 -0.443177,-0.11542 -0.661459,-0.25648 z m -2.116666,-0.79375 c -0.218281,-0.14107 -0.277813,-0.25648 -0.132292,-0.25648 0.145521,0 0.443177,0.11541 0.661458,0.25648 0.218282,0.14106 0.277813,0.25648 0.132292,0.25648 -0.145521,0 -0.443177,-0.11542 -0.661458,-0.25648 z m -1.811971,-0.76336 c -0.196219,-0.12435 -0.315282,-0.41864 -0.264583,-0.65398 0.06958,-0.32297 0.167169,-0.26654 0.398015,0.23014 0.168209,0.36192 0.287272,0.65621 0.264583,0.65398 -0.02269,-0.002 -0.201795,-0.10579 -0.398015,-0.23014 z m 0.0017,-2.67622 c 0,-0.36381 0.06005,-0.51263 0.133452,-0.33073 0.0734,0.1819 0.0734,0.47955 0,0.66145 -0.0734,0.18191 -0.133452,0.0331 -0.133452,-0.33072 z m 0.0098,-5.15938 c 0.0054,-0.43656 0.06469,-0.58312 0.131773,-0.32569 0.06708,0.25743 0.06267,0.61462 -0.0098,0.79375 -0.07248,0.17913 -0.127362,-0.0315 -0.12197,-0.46806 z M 84.443861,158.75 c 0,-0.3638 0.06005,-0.51263 0.133452,-0.33073 0.0734,0.1819 0.0734,0.47956 0,0.66146 -0.0734,0.1819 -0.133452,0.0331 -0.133452,-0.33073 z m -0.285472,-1.47726 c 0.0127,-0.30822 0.07539,-0.37092 0.159853,-0.15985 0.07643,0.191 0.06703,0.4192 -0.02089,0.50712 -0.08792,0.0879 -0.150452,-0.0684 -0.138963,-0.34727 z m -0.529167,-1.87454 c -0.01149,-0.17 -0.08941,-0.52719 -0.173157,-0.79375 -0.14474,-0.4607 -0.137274,-0.46127 0.151018,-0.0117 0.166807,0.26014 0.244728,0.61733 0.173157,0.79375 -0.09392,0.23151 -0.135941,0.23476 -0.151018,0.0117 z m -0.64966,-1.8178 c -0.255317,-0.66535 -0.179998,-0.83703 0.131904,-0.30066 0.154435,0.26558 0.225054,0.5386 0.156932,0.60672 -0.06812,0.0681 -0.198098,-0.0696 -0.288836,-0.30606 z m -0.7006,-1.72515 c -0.188246,-0.45447 -0.80326,-1.55961 -1.366697,-2.45588 -0.579433,-0.92171 -0.734608,-1.28479 -0.35723,-0.83583 0.78461,0.93343 2.364994,3.81921 2.188324,3.99588 -0.06717,0.0672 -0.276151,-0.24971 -0.464397,-0.70417 z m -3.188569,-4.94535 -0.641433,-0.72761 0.727604,0.64143 c 0.680055,0.59952 0.848939,0.81378 0.641433,0.81378 -0.04739,0 -0.374816,-0.32742 -0.727604,-0.7276 z m -1.852084,-2.11667 -0.641433,-0.72761 0.727604,0.64144 c 0.680056,0.59951 0.848939,0.81377 0.641434,0.81377 -0.04739,0 -0.374816,-0.32742 -0.727605,-0.7276 z M 75.131913,143.1887 C 74.471704,142.65236 73.638267,142 73.27983,141.73899 c -0.632148,-0.4603 -0.62611,-0.4607 0.201225,-0.0132 0.801274,0.43339 3.270933,2.45631 2.98353,2.44383 -0.07276,-0.003 -0.672463,-0.44457 -1.332672,-0.98091 z m -3.958995,-2.56266 c -0.654843,-0.35065 -1.096585,-0.64293 -0.981647,-0.6495 0.280976,-0.0161 2.304564,1.02361 2.304564,1.18405 0,0.17528 0.01098,0.17971 -1.322917,-0.53455 z m 20.30677,0.22165 c 0.181901,-0.0734 0.479557,-0.0734 0.661458,0 0.181901,0.0734 0.03307,0.13345 -0.330729,0.13345 -0.363802,0 -0.51263,-0.0601 -0.330729,-0.13345 z m 1.411111,0.0802 c 0.06063,-0.0523 0.467431,-0.17497 0.903993,-0.27262 0.57968,-0.12967 0.686715,-0.10512 0.396875,0.091 -0.357285,0.24178 -1.566374,0.41057 -1.300868,0.18161 z m 2.888368,-1.36014 c 0.341774,-0.3638 0.680939,-0.66146 0.753699,-0.66146 0.07276,0 -0.147341,0.29766 -0.489116,0.66146 -0.341774,0.3638 -0.680939,0.66146 -0.753699,0.66146 -0.07276,0 0.147342,-0.29766 0.489116,-0.66146 z m -9.872265,-0.44533 c -0.84584,-0.29471 -1.491588,-0.58214 -1.434997,-0.63873 0.120314,-0.12031 3.369762,0.94846 3.369762,1.10835 0,0.1726 -0.301864,0.0993 -1.934765,-0.46962 z m -35.21694,-0.12126 c -0.125595,-0.32729 -0.08368,-0.3669 0.17013,-0.16076 0.185232,0.15044 0.574911,0.33206 0.865952,0.4036 0.417446,0.10261 0.381526,0.13655 -0.17013,0.16076 -0.425309,0.0187 -0.764593,-0.13946 -0.865952,-0.4036 z m 16.911082,0.16971 c -0.348917,-0.14993 -0.39398,-0.23234 -0.132292,-0.24193 0.218281,-0.008 0.575469,0.10087 0.79375,0.24193 0.483649,0.31256 0.0659,0.31256 -0.661458,0 z m -14.204817,-0.44532 c 0.190996,-0.0764 0.419199,-0.067 0.507118,0.0209 0.08792,0.0879 -0.06835,0.15045 -0.347266,0.13896 -0.308225,-0.0127 -0.370919,-0.0754 -0.159852,-0.15985 z m 12.964582,0 c 0.190996,-0.0764 0.419199,-0.067 0.507118,0.0209 0.08792,0.0879 -0.06835,0.15045 -0.347265,0.13896 -0.308225,-0.0127 -0.37092,-0.0754 -0.159853,-0.15985 z m -11.922786,-0.25907 c 0.181901,-0.0734 0.479558,-0.0734 0.661459,0 0.181901,0.0734 0.03307,0.13345 -0.330729,0.13345 -0.363803,0 -0.512631,-0.06 -0.33073,-0.13345 z m 10.864453,-0.006 c 0.190996,-0.0764 0.419199,-0.067 0.507118,0.0209 0.08792,0.0879 -0.06835,0.15046 -0.347266,0.13897 -0.308224,-0.0127 -0.370919,-0.0754 -0.159852,-0.15985 z m 31.270441,0.0808 c 0,-0.0549 0.208359,-0.2633 0.463021,-0.46302 0.419644,-0.32911 0.429002,-0.31975 0.0999,0.0999 -0.345644,0.44073 -0.562916,0.58088 -0.562916,0.36312 z M 55.76094,138.20186 c 0.181901,-0.0734 0.479557,-0.0734 0.661458,0 0.181901,0.0734 0.03307,0.13345 -0.330729,0.13345 -0.363802,0 -0.51263,-0.0601 -0.330729,-0.13345 z m 7.9375,0 c 0.181901,-0.0734 0.479557,-0.0734 0.661458,0 0.181901,0.0734 0.03307,0.13345 -0.330729,0.13345 -0.363802,0 -0.51263,-0.0601 -0.330729,-0.13345 z m -5.94809,-0.27271 c 0.257431,-0.0671 0.614619,-0.0627 0.79375,0.01 0.179132,0.0725 -0.03149,0.12736 -0.468056,0.12197 -0.436562,-0.005 -0.583125,-0.0647 -0.325694,-0.13177 z m 3.173603,-0.007 c 0.402183,-0.0608 0.997495,-0.0592 1.322916,0.004 0.325421,0.0628 -0.0036,0.11256 -0.731242,0.11058 -0.727604,-0.002 -0.993857,-0.0534 -0.591674,-0.11419 z m 21.229173,-0.21633 c -0.661621,-0.31867 -0.683643,-0.3554 -0.132292,-0.22064 0.749698,0.18324 1.592394,0.61275 1.190625,0.60685 -0.14552,-0.002 -0.62177,-0.17593 -1.058333,-0.38621 z m 15.742708,-0.91673 c 0.310859,-0.43656 0.624731,-0.79375 0.697491,-0.79375 0.07276,0 -0.122048,0.35719 -0.432908,0.79375 -0.31086,0.43657 -0.624731,0.79375 -0.697492,0.79375 -0.07276,0 0.122049,-0.35718 0.432909,-0.79375 z m 27.715106,0.61853 c 0.1819,-0.0734 0.47955,-0.0734 0.66145,0 0.18191,0.0734 0.0331,0.13345 -0.33072,0.13345 -0.36381,0 -0.51263,-0.0601 -0.33073,-0.13345 z m -47.95573,-1.28929 c -0.661622,-0.31868 -0.683643,-0.35541 -0.132292,-0.22065 0.749697,0.18324 1.592394,0.61275 1.190625,0.60685 -0.145521,-0.002 -0.621771,-0.17593 -1.058333,-0.3862 z m 12.832291,0.009 c -0.509323,-0.19614 -0.747448,-0.35662 -0.529167,-0.35662 0.218281,0 0.813594,0.16048 1.322917,0.35662 0.509322,0.19613 0.747447,0.35661 0.529166,0.35661 -0.218281,0 -0.813593,-0.16048 -1.322916,-0.35661 z m 2.138715,0.3279 c 0.06063,-0.0379 0.407899,-0.30582 0.771701,-0.59531 l 0.661458,-0.52634 -0.504027,0.59531 c -0.277216,0.32742 -0.624481,0.59531 -0.771702,0.59531 -0.14722,0 -0.218064,-0.031 -0.15743,-0.069 z m -5.131814,-1.3024 c -0.84584,-0.29471 -1.491589,-0.58214 -1.434997,-0.63873 0.120314,-0.12031 3.369762,0.94846 3.369762,1.10835 0,0.1726 -0.301864,0.0993 -1.934765,-0.46962 z m 11.999692,-0.58843 c 0.497175,-0.6923 1.018176,-1.32932 1.157776,-1.4156 0.13961,-0.0863 -0.15295,0.40956 -0.65013,1.10186 -0.497176,0.69231 -1.018176,1.32933 -1.157779,1.41561 -0.139602,0.0863 0.152957,-0.40956 0.650133,-1.10187 z m -25.890316,0.19156 c -0.627559,-0.22195 -1.094234,-0.45033 -1.037057,-0.50751 0.120718,-0.12071 2.574947,0.68506 2.574947,0.84541 0,0.16568 -0.30106,0.0995 -1.53789,-0.3379 z m 21.127816,-0.72072 c 0.497176,-0.69231 1.018176,-1.32933 1.157779,-1.41561 0.139602,-0.0863 -0.152957,0.40956 -0.650133,1.10187 -0.497176,0.6923 -1.018176,1.32932 -1.157779,1.4156 -0.139602,0.0863 0.152957,-0.40956 0.650133,-1.10186 z m -10.726385,-0.15687 c -0.348916,-0.14994 -0.393979,-0.23235 -0.132291,-0.24194 0.218281,-0.008 0.575468,0.10087 0.79375,0.24194 0.483649,0.31256 0.0659,0.31256 -0.661459,0 z m 36.222781,-0.33073 -0.50403,-0.59531 0.59531,0.50402 c 0.32742,0.27722 0.59531,0.54511 0.59531,0.59532 0,0.21173 -0.21293,0.0554 -0.68659,-0.50403 z M 69.453127,133.2084 c -0.661622,-0.31868 -0.683643,-0.35541 -0.132292,-0.22065 0.749697,0.18324 1.592394,0.61276 1.190625,0.60685 -0.145521,-0.002 -0.621771,-0.17593 -1.058333,-0.3862 z m 12.352733,-0.0391 c -0.627558,-0.22195 -1.094233,-0.45033 -1.037056,-0.50751 0.120717,-0.12071 2.574947,0.68506 2.574947,0.84541 0,0.16568 -0.30106,0.0995 -1.537891,-0.3379 z m 42.92854,-0.67916 -0.77711,-0.85989 0.86842,0.78527 0.86842,0.78527 3.82793,-1.90859 c 2.10537,-1.04972 3.82794,-1.85037 3.82794,-1.77922 0,0.15639 -7.30931,3.83706 -7.61989,3.83706 -0.12023,0 -0.56831,-0.38695 -0.99571,-0.8599 z m -23.39898,-0.46302 c 0.31086,-0.43656 0.62473,-0.79375 0.69749,-0.79375 0.0728,0 -0.12205,0.35719 -0.43291,0.79375 -0.31086,0.43657 -0.62473,0.79375 -0.69749,0.79375 -0.0728,0 0.12205,-0.35718 0.43291,-0.79375 z m -5.099187,-0.0661 c 0.141502,-0.1819 1.058574,-1.43206 2.037939,-2.77813 0.979364,-1.34606 1.844798,-2.44739 1.923188,-2.44739 0.0784,0 -0.14939,0.38695 -0.50619,0.85989 -0.356796,0.47295 -1.273449,1.7231 -2.037006,2.77813 -0.763558,1.05502 -1.452844,1.91823 -1.531747,1.91823 -0.0789,0 -0.02769,-0.14883 0.113816,-0.33073 z m -18.31644,-0.19844 c -0.348917,-0.14993 -0.393979,-0.23234 -0.132292,-0.24194 0.218282,-0.008 0.575469,0.10088 0.79375,0.24194 0.48365,0.31256 0.0659,0.31256 -0.661458,0 z M 64.16146,131.35632 c -0.661621,-0.31868 -0.683643,-0.35541 -0.132291,-0.22065 0.749697,0.18324 1.592393,0.61276 1.190625,0.60685 -0.145521,-0.002 -0.621771,-0.17593 -1.058334,-0.3862 z m 11.509375,-0.38757 c -0.218281,-0.14106 -0.277813,-0.25648 -0.132292,-0.25648 0.145521,0 0.443177,0.11542 0.661458,0.25648 0.218282,0.14106 0.277813,0.25648 0.132292,0.25648 -0.145521,0 -0.443177,-0.11542 -0.661458,-0.25648 z m 47.211475,-0.59531 -0.7771,-0.8599 0.85989,0.77711 c 0.47295,0.42741 0.8599,0.81436 0.8599,0.85989 0,0.20441 -0.21832,0.0244 -0.94269,-0.7771 z M 102.65833,130.175 c 0.31086,-0.43656 0.62473,-0.79375 0.69749,-0.79375 0.0728,0 -0.12204,0.35719 -0.4329,0.79375 -0.31086,0.43656 -0.62473,0.79375 -0.69749,0.79375 -0.0728,0 0.12204,-0.35719 0.4329,-0.79375 z m -28.574995,0.26458 c -0.48365,-0.31255 -0.0659,-0.31255 0.661458,0 0.348917,0.14994 0.393979,0.23235 0.132292,0.24194 -0.218281,0.008 -0.575469,-0.10087 -0.79375,-0.24194 z m -15.560807,-0.97449 c -0.627558,-0.22195 -1.094233,-0.45033 -1.037056,-0.5075 0.120717,-0.12072 2.574947,0.68506 2.574947,0.84541 0,0.16568 -0.30106,0.0995 -1.537891,-0.33791 z m 13.44414,0.18074 c -0.218281,-0.14106 -0.277812,-0.25648 -0.132291,-0.25648 0.14552,0 0.443177,0.11542 0.661458,0.25648 0.218281,0.14107 0.277812,0.25648 0.132292,0.25648 -0.145521,0 -0.443177,-0.11541 -0.661459,-0.25648 z m 49.198252,-1.25677 -0.9118,-0.99218 0.99219,0.91179 c 0.92351,0.84869 1.11384,1.07258 0.9118,1.07258 -0.0442,0 -0.4907,-0.44648 -0.99219,-0.99219 z m -17.18367,-0.0661 c 0.31086,-0.43657 0.62473,-0.79375 0.69749,-0.79375 0.0728,0 -0.12205,0.35718 -0.43291,0.79375 -0.31086,0.43656 -0.62473,0.79375 -0.69749,0.79375 -0.0728,0 0.12205,-0.35719 0.43291,-0.79375 z m -48.683331,0 c -0.483649,-0.31256 -0.0659,-0.31256 0.661458,0 0.348917,0.14993 0.39398,0.23234 0.132292,0.24193 -0.218281,0.008 -0.575469,-0.10087 -0.79375,-0.24193 z m 11.426692,-0.44533 c -1.064121,-0.36747 -1.887893,-0.715 -1.830604,-0.77229 0.112158,-0.11216 3.89554,1.1273 4.11699,1.34875 0.243592,0.24359 -0.331766,0.0985 -2.286386,-0.57646 z m -15.924005,-0.94374 c -8.12e-4,-0.26694 0.83915,-0.24503 1.278299,0.0333 0.23284,0.1476 0.07556,0.21371 -0.462418,0.19439 -0.448403,-0.0161 -0.815549,-0.11859 -0.815881,-0.22774 z m 53.974394,0.23084 c 0,-0.0549 0.20836,-0.2633 0.46302,-0.46302 0.41964,-0.32911 0.429,-0.31975 0.0999,0.0999 -0.34565,0.44073 -0.56292,0.58089 -0.56292,0.36313 z m 6.40182,-1.68604 c -0.0399,-1.47801 0.0318,-1.91823 0.31266,-1.91823 0.20046,0 0.52214,0.20836 0.71484,0.46302 0.29807,0.3939 0.295,0.41365 -0.0205,0.13229 -0.64709,-0.57703 -0.76783,-0.37334 -0.8626,1.45521 l -0.0926,1.78594 z m 8.13602,0.79375 -0.9118,-0.99219 0.99219,0.9118 c 0.9235,0.84868 1.11384,1.07257 0.9118,1.07257 -0.0442,0 -0.4907,-0.44648 -0.99219,-0.99218 z m 18.53507,0.86472 c 0,-0.0728 1.19063,-0.72978 2.64584,-1.46004 1.45521,-0.73025 2.64583,-1.26821 2.64583,-1.19545 0,0.0728 -1.19062,0.72978 -2.64583,1.46004 -1.45521,0.73026 -2.64584,1.26821 -2.64584,1.19545 z m -36.76632,-1.83233 c 0.49718,-0.69231 1.01818,-1.32933 1.15778,-1.41561 0.13961,-0.0863 -0.15295,0.40956 -0.65013,1.10187 -0.49718,0.6923 -1.01818,1.32932 -1.15778,1.4156 -0.1396,0.0863 0.15296,-0.40956 0.65013,-1.10186 z m -40.442395,0.45614 c -0.627559,-0.22195 -1.094234,-0.45033 -1.037056,-0.50751 0.120717,-0.12072 2.574946,0.68506 2.574946,0.84541 0,0.16568 -0.30106,0.0995 -1.53789,-0.3379 z m 45.453785,-0.28228 c 0.59616,-0.89915 0.9138,-1.05122 1.2065,-0.57762 0.0993,0.16061 0.006,0.24614 -0.21696,0.19844 -0.21528,-0.0461 -0.65427,0.21381 -0.97554,0.57761 l -0.58413,0.66146 z m 7.37952,0.26458 c -0.32911,-0.41964 -0.31975,-0.429 0.0999,-0.0999 0.25466,0.19971 0.46302,0.40807 0.46302,0.46302 0,0.21776 -0.21728,0.0776 -0.56292,-0.36313 z m 3.98826,-1.5875 -0.9118,-0.99219 0.99219,0.9118 c 0.9235,0.84868 1.11383,1.07258 0.91179,1.07258 -0.0442,0 -0.4907,-0.44649 -0.99218,-0.99219 z M 54.901044,123.6834 c -0.661621,-0.31868 -0.683643,-0.35541 -0.132291,-0.22065 0.749697,0.18324 1.592393,0.61276 1.190624,0.60685 -0.14552,-0.002 -0.62177,-0.17593 -1.058333,-0.3862 z m 48.265616,-1.18132 c 0.44835,-0.65484 1.1222,-1.54781 1.49747,-1.98437 0.52407,-0.60969 0.49326,-0.51766 -0.13288,0.39687 -0.44834,0.65485 -1.1222,1.54782 -1.49746,1.98438 -0.52408,0.60969 -0.49327,0.51766 0.13287,-0.39688 z m 12.70081,-0.19843 -0.64143,-0.72761 0.72761,0.64144 c 0.40018,0.35278 0.7276,0.68021 0.7276,0.7276 0,0.20751 -0.21426,0.0386 -0.81378,-0.64143 z m 30.90572,0.1656 c 0.17948,-0.18082 0.39297,-0.26211 0.47443,-0.18065 0.0815,0.0815 -0.0654,0.22941 -0.32632,0.32877 -0.37708,0.14358 -0.40747,0.11319 -0.14811,-0.14812 z m 0.86431,-0.35739 c 0,-0.0728 0.83344,-0.552 1.85208,-1.06498 1.01865,-0.51299 1.85208,-0.87317 1.85208,-0.80041 0,0.0728 -0.83343,0.55201 -1.85208,1.06499 -1.01864,0.51298 -1.85208,0.87316 -1.85208,0.8004 z m -99.962888,-0.84885 c -0.627558,-0.22195 -1.094234,-0.45033 -1.037056,-0.50751 0.120717,-0.12071 2.574947,0.68506 2.574947,0.84541 0,0.16568 -0.30106,0.0995 -1.537891,-0.3379 z m 66.216068,-1.20832 -1.04589,-1.12448 1.12448,1.04588 c 1.04575,0.97267 1.24606,1.20308 1.04588,1.20308 -0.0432,0 -0.54924,-0.50602 -1.12447,-1.12448 z m -8.58651,-0.56292 c 0,-0.0549 0.20836,-0.2633 0.46302,-0.46302 0.41964,-0.32911 0.429,-0.31975 0.0999,0.0999 -0.34564,0.44073 -0.56291,0.58088 -0.56291,0.36312 z M 41.142712,118.9209 c -0.661622,-0.31868 -0.683643,-0.35541 -0.132292,-0.22065 0.749697,0.18324 1.592393,0.61276 1.190625,0.60686 -0.145521,-0.002 -0.621771,-0.17594 -1.058333,-0.38621 z m 71.481598,-0.29937 c -0.49876,-0.49876 0.0614,-0.99643 2.4972,-2.21879 1.47047,-0.73792 2.71716,-1.2981 2.77042,-1.24484 0.0532,0.0533 -1.09684,0.68414 -2.55576,1.40197 -2.09539,1.03098 -2.62697,1.40311 -2.53061,1.77159 0.13172,0.50369 0.0935,0.56484 -0.18125,0.29007 z m -6.90811,-0.5067 c -0.28224,-0.20639 -0.40112,-0.37342 -0.26417,-0.37119 0.36573,0.006 1.04801,0.47577 0.90239,0.62138 -0.0688,0.0688 -0.35597,-0.0438 -0.63822,-0.25019 z m -66.995728,-0.25436 c -0.08617,-0.22456 -0.08243,-0.48253 0.0083,-0.57327 0.09074,-0.0907 0.164978,0.0235 0.164978,0.25395 0,0.23041 0.148828,0.47897 0.330729,0.55237 0.259043,0.10453 0.257243,0.13798 -0.0083,0.15434 -0.186469,0.0115 -0.409537,-0.16284 -0.495707,-0.38739 z m 117.313138,-0.15372 c 0.17947,-0.18082 0.39297,-0.26211 0.47443,-0.18065 0.0815,0.0815 -0.0654,0.22941 -0.32632,0.32877 -0.37708,0.14358 -0.40747,0.11319 -0.14811,-0.14812 z m 0.8643,-0.36244 c 0,-0.0728 3.82057,-2.0433 8.49016,-4.37898 7.03874,-3.5207 8.46085,-4.32369 8.3187,-4.69715 -0.13071,-0.34341 -0.0978,-0.37735 0.13866,-0.14279 0.17057,0.16922 0.22731,0.44167 0.12609,0.60545 -0.19798,0.32034 -17.07361,8.83393 -17.07361,8.61347 z M 39.158337,116.41667 c 0.15576,-0.29104 0.342732,-0.52917 0.415493,-0.52917 0.07276,0 0.0049,0.23813 -0.15091,0.52917 -0.155761,0.29104 -0.342733,0.52916 -0.415493,0.52916 -0.07276,0 -0.0049,-0.23812 0.15091,-0.52916 z m 62.573953,0.26458 c -0.34891,-0.14993 -0.39398,-0.23234 -0.13229,-0.24193 0.21828,-0.008 0.57547,0.10087 0.79375,0.24193 0.48365,0.31256 0.0659,0.31256 -0.66146,0 z m -5.771222,-1.90053 c -2.155527,-0.73127 -3.873381,-1.37535 -3.817454,-1.43128 0.112033,-0.11203 7.861066,2.44205 8.083256,2.66424 0.27286,0.27286 -0.403085,0.0775 -4.265802,-1.23296 z m -55.87669,0.0485 c 0.225756,-0.43656 0.469996,-0.79375 0.542756,-0.79375 0.07276,0 -0.05242,0.35719 -0.278172,0.79375 -0.225756,0.43656 -0.469996,0.79375 -0.542756,0.79375 -0.07276,0 0.05242,-0.35719 0.278172,-0.79375 z m 69.453122,-0.51495 c 0.50932,-0.10423 2.38273,-0.92397 4.16312,-1.82165 1.78039,-0.89768 3.3282,-1.62593 3.43958,-1.61833 0.11138,0.008 -1.40484,0.83482 -3.36937,1.83826 -2.18234,1.1147 -3.88066,1.81799 -4.36562,1.80784 -0.77257,-0.0162 -0.76904,-0.0217 0.13229,-0.20612 z m -68.52708,-1.07255 c 0.155761,-0.29104 0.342733,-0.52917 0.415493,-0.52917 0.07276,0 0.0049,0.23813 -0.15091,0.52917 -0.155761,0.29104 -0.342732,0.52916 -0.415493,0.52916 -0.07276,0 -0.0049,-0.23812 0.15091,-0.52916 z m 64.62448,0.13471 c -0.47295,-0.20556 -0.8599,-0.43295 -0.8599,-0.50531 0,-0.12708 1.87092,0.58326 2.09462,0.79528 0.23124,0.21916 -0.40958,0.0687 -1.23472,-0.28997 z m 19.7776,-1.9868 c 2.54661,-1.29426 4.74927,-2.3532 4.89479,-2.3532 0.14552,0 -1.81901,1.05894 -4.36562,2.3532 -2.54662,1.29427 -4.74928,2.35321 -4.8948,2.35321 -0.14552,0 1.81901,-1.05894 4.36563,-2.35321 z m -83.60833,0.52917 c 0.155761,-0.29104 0.342733,-0.52917 0.415493,-0.52917 0.07276,0 0.0049,0.23813 -0.15091,0.52917 -0.155761,0.29104 -0.342732,0.52917 -0.415493,0.52917 -0.07276,0 -0.0049,-0.23813 0.15091,-0.52917 z m 44.631899,-0.31303 c -1.282403,-0.44023 -2.285858,-0.84621 -2.229902,-0.90216 0.05596,-0.056 1.283789,0.3046 2.728516,0.80124 1.444727,0.49663 2.448182,0.90261 2.229901,0.90216 -0.218281,-4.5e-4 -1.446113,-0.36101 -2.728515,-0.80124 z m 18.193621,-8.41822 c 0,-5.165987 0.0354,-7.279347 0.0788,-4.696352 0.0433,2.582992 0.0433,6.809712 0,9.392712 -0.0433,2.58299 -0.0788,0.46963 -0.0788,-4.69636 z m -61.643263,6.74688 c 0.407098,-0.72761 0.863005,-1.44198 1.013128,-1.5875 0.150123,-0.14552 -0.06013,0.33073 -0.467226,1.05833 -0.407097,0.7276 -0.863005,1.44198 -1.013128,1.5875 -0.150122,0.14552 0.06013,-0.33073 0.467226,-1.05833 z m 39.034407,0.13229 c -0.483649,-0.31256 -0.0659,-0.31256 0.661459,0 0.348916,0.14993 0.393979,0.23234 0.132291,0.24193 -0.218281,0.008 -0.575468,-0.10087 -0.79375,-0.24193 z m 36.512496,0.1606 c 0,-0.0572 0.18478,-0.17489 0.41062,-0.26156 0.23546,-0.0904 0.34166,-0.046 0.24897,0.10399 -0.15538,0.25141 -0.65959,0.37186 -0.65959,0.15757 z m 3.96875,-2.01268 c 1.67349,-0.8581 3.16177,-1.56018 3.30729,-1.56018 0.14552,0 -1.10463,0.70208 -2.77812,1.56018 -1.67349,0.85809 -3.16177,1.56017 -3.30729,1.56017 -0.14552,0 1.10463,-0.70208 2.77812,-1.56017 z m -44.797261,0.48071 c -1.282402,-0.44023 -2.285858,-0.8462 -2.229901,-0.90216 0.05596,-0.056 1.283789,0.3046 2.728515,0.80124 1.444727,0.49664 2.448183,0.90261 2.229901,0.90216 -0.218281,-4.5e-4 -1.446113,-0.361 -2.728515,-0.80124 z m 56.174351,-1.40676 c 1.52796,-0.78544 2.89718,-1.42808 3.0427,-1.42808 0.14552,0 -0.98557,0.64264 -2.51354,1.42808 -1.52797,0.78545 -2.89719,1.42809 -3.04271,1.42809 -0.14552,0 0.98558,-0.64264 2.51355,-1.42809 z m -89.429167,0.1323 c 0.155761,-0.29105 0.342733,-0.52917 0.415493,-0.52917 0.07276,0 0.0049,0.23812 -0.15091,0.52917 -0.15576,0.29104 -0.342732,0.52916 -0.415493,0.52916 -0.07276,0 -0.0049,-0.23812 0.15091,-0.52916 z m 29.104165,-0.1323 c -0.509323,-0.19614 -0.747448,-0.35661 -0.529166,-0.35661 0.218281,0 0.813593,0.16047 1.322916,0.35661 0.509323,0.19614 0.747448,0.35662 0.529167,0.35662 -0.218281,0 -0.813594,-0.16048 -1.322917,-0.35662 z m 99.069812,-0.46302 -0.77711,-0.85989 0.8599,0.7771 c 0.47294,0.42741 0.85989,0.81436 0.85989,0.8599 0,0.2044 -0.21831,0.0244 -0.94268,-0.77711 z m -127.380227,-0.7276 c 0.155761,-0.29104 0.342733,-0.52917 0.415493,-0.52917 0.07276,0 0.0049,0.23813 -0.15091,0.52917 -0.15576,0.29104 -0.342732,0.52917 -0.415493,0.52917 -0.07276,0 -0.0049,-0.23813 0.15091,-0.52917 z m 23.15104,-0.55166 c -0.727604,-0.28085 -0.978877,-0.44378 -0.558385,-0.36206 0.832055,0.16171 2.575521,0.86988 2.145885,0.87163 -0.14552,5.9e-4 -0.859895,-0.22871 -1.5875,-0.50957 z m 60.721877,-0.50667 c 1.0914,-0.56768 2.10343,-1.03215 2.24895,-1.03215 0.14552,0 -0.62838,0.46447 -1.71979,1.03215 -1.0914,0.56767 -2.10344,1.03214 -2.24896,1.03214 -0.14552,0 0.62839,-0.46447 1.7198,-1.03214 z m 41.53958,-0.52917 c -0.60919,-0.72761 -1.04808,-1.32292 -0.97532,-1.32292 0.0728,0 0.63072,0.59531 1.2399,1.32292 0.60918,0.7276 1.04808,1.32292 0.97532,1.32292 -0.0728,0 -0.63072,-0.59532 -1.2399,-1.32292 z M 46.037503,104.775 c 0.155761,-0.29104 0.342733,-0.52916 0.415493,-0.52916 0.07276,0 0.0049,0.23812 -0.15091,0.52916 -0.15576,0.29104 -0.342732,0.52917 -0.415493,0.52917 -0.07276,0 -0.0049,-0.23813 0.15091,-0.52917 z m 94.985407,-0.92604 c 1.52797,-0.78545 2.89719,-1.42808 3.04271,-1.42808 0.14552,0 -0.98557,0.64263 -2.51354,1.42808 -1.52797,0.78545 -2.89719,1.42808 -3.04271,1.42808 -0.14552,0 0.98558,-0.64263 2.51354,-1.42808 z m -94.191657,-0.39687 c 0.155761,-0.29105 0.342733,-0.52917 0.415493,-0.52917 0.07276,0 0.0049,0.23812 -0.15091,0.52917 -0.155761,0.29104 -0.342732,0.52916 -0.415493,0.52916 -0.07276,0 -0.0049,-0.23812 0.15091,-0.52916 z M 168.275,101.6 c -0.60919,-0.7276 -1.04808,-1.32291 -0.97532,-1.32291 0.0728,0 0.63072,0.59531 1.2399,1.32291 0.60918,0.72761 1.04808,1.32292 0.97532,1.32292 -0.0728,0 -0.63072,-0.59531 -1.2399,-1.32292 z m -120.649997,0.52917 c 0.155761,-0.29104 0.342733,-0.52917 0.415493,-0.52917 0.07276,0 0.0049,0.23813 -0.15091,0.52917 -0.155761,0.29104 -0.342732,0.52917 -0.415493,0.52917 -0.07276,0 -0.0049,-0.23813 0.15091,-0.52917 z m 86.805377,0.43052 c 0.27227,-0.24362 1.83003,-0.95948 1.83003,-0.84099 0,0.1524 -1.4668,0.93964 -1.75074,0.93964 -0.10425,0 -0.13992,-0.0444 -0.0793,-0.0986 z m -77.230768,-0.61126 c -0.627559,-0.22195 -1.094264,-0.4503 -1.037123,-0.50744 0.05714,-0.0571 0.749192,0.12515 1.53789,0.4051 0.788699,0.27995 1.255405,0.5083 1.037123,0.50744 -0.218281,-8.5e-4 -0.910332,-0.18315 -1.53789,-0.4051 z m 80.648298,-1.14218 c 0.80037,-0.42283 1.57428,-0.76878 1.7198,-0.76878 0.14552,0 -0.39026,0.34595 -1.19063,0.76878 -0.80036,0.42283 -1.57427,0.76879 -1.71979,0.76879 -0.14552,0 0.39026,-0.34596 1.19062,-0.76879 z m -89.429157,0 c 0.155761,-0.29104 0.342732,-0.52916 0.415493,-0.52916 0.07276,0 0.0049,0.23812 -0.15091,0.52916 -0.155761,0.29104 -0.342732,0.52917 -0.415493,0.52917 -0.07276,0 -0.0049,-0.23813 0.15091,-0.52917 z m 6.829557,0.34843 c 0.190996,-0.0764 0.419199,-0.067 0.507118,0.0209 0.08792,0.0879 -0.06835,0.15045 -0.347266,0.13896 -0.308224,-0.0127 -0.370919,-0.0754 -0.159852,-0.15985 z m 70.629,-1.208324 c -0.34267,-0.327422 -0.43616,-0.452753 -0.20775,-0.278513 0.2284,0.174239 0.71049,0.434587 1.0713,0.578537 0.43623,0.17406 0.50583,0.26737 0.20775,0.27852 -0.24655,0.009 -0.72863,-0.25112 -1.0713,-0.578544 z m 23.87685,-0.330729 c 0.94589,-0.495201 1.83886,-0.900366 1.98438,-0.900366 0.14552,0 -0.50932,0.405165 -1.45521,0.900366 -0.94588,0.495203 -1.83885,0.900363 -1.98437,0.900363 -0.14552,0 0.50932,-0.40516 1.4552,-0.900363 z m -19.84374,0.615553 c 0.0728,-0.0647 0.84666,-0.76163 1.71979,-1.548791 l 1.5875,-1.431202 -1.19063,1.268721 c -0.65484,0.697796 -1.42875,1.394751 -1.71979,1.548792 -0.29104,0.15403 -0.46964,0.22715 -0.39687,0.16248 z M 49.272349,99.594799 c 0.251197,-0.262262 0.513673,-0.419889 0.58328,-0.350282 0.06961,0.06961 -0.135918,0.284185 -0.456722,0.47684 -0.557294,0.334673 -0.562932,0.329033 -0.126558,-0.126558 z m 117.130541,-0.309901 -0.64143,-0.727604 0.7276,0.641433 c 0.68005,0.599516 0.84894,0.813773 0.64143,0.813773 -0.0474,0 -0.37481,-0.32742 -0.7276,-0.727602 z m -22.99873,-1.124479 c 0.80037,-0.422832 1.57428,-0.768785 1.7198,-0.768785 0.14552,0 -0.39026,0.345953 -1.19063,0.768785 -0.80036,0.422832 -1.57427,0.768785 -1.71979,0.768785 -0.14552,0 0.39026,-0.345953 1.19062,-0.768785 z m 21.80113,-0.330729 c -1.15892,-1.336763 -1.50319,-1.785938 -1.3688,-1.785938 0.0778,0 0.58046,0.535782 1.11706,1.190625 0.99381,1.212823 1.19065,1.678304 0.25174,0.595313 z M 155.575,96.837502 c 1.0914,-0.567679 2.10343,-1.032145 2.24896,-1.032145 0.14552,0 -0.62839,0.464466 -1.7198,1.032145 -1.0914,0.56768 -2.10343,1.032145 -2.24895,1.032145 -0.14553,0 0.62838,-0.464465 1.71979,-1.032145 z m -33.47974,-0.595312 -1.31297,-1.389063 1.38906,1.312971 c 1.29074,1.220035 1.5104,1.465154 1.31297,1.465154 -0.0418,0 -0.66693,-0.625078 -1.38906,-1.389062 z m 11.9162,-0.198438 c 0.56839,-0.582083 1.09296,-1.058333 1.16572,-1.058333 0.0728,0 -0.33275,0.47625 -0.90114,1.058333 -0.56839,0.582084 -1.09297,1.058334 -1.16573,1.058334 -0.0728,0 0.33276,-0.47625 0.90115,-1.058334 z m -7.1195,-0.595312 c -0.80321,-0.772559 -5.53911,-5.989566 -10.98839,-12.104687 -3.70228,-4.154657 -3.98482,-4.498197 -3.98482,-4.845083 0,-0.466482 5.50889,-6.267416 5.95189,-6.267416 0.19288,0 2.28122,2.17289 4.64074,4.828645 2.35953,2.655755 4.43301,4.91223 4.60774,5.014389 0.17473,0.102158 0.57122,0.119444 0.88109,0.03841 0.48837,-0.127712 7.87111,-8.334975 18.71465,-20.804735 2.13588,-2.456201 3.32265,-3.622634 3.63417,-3.571875 0.52407,0.08539 6.68746,5.177082 6.92466,5.720588 0.18962,0.434487 0.43642,0.143425 -9.23932,10.896383 -4.36562,4.851661 -10.00713,11.151289 -12.53669,13.999175 -5.12559,5.770615 -7.18588,7.9561 -7.50034,7.9561 -0.11625,0 -0.61367,-0.386953 -1.10538,-0.859896 z m 21.29675,0.49886 c 0.0606,-0.05305 0.4079,-0.238211 0.7717,-0.411471 0.6237,-0.297033 0.63214,-0.291527 0.14787,0.09645 -0.42148,0.337676 -1.28266,0.632693 -0.91957,0.315019 z m 14.46286,-1.149318 -0.7166,-0.716604 -1.2276,0.596417 c -0.67519,0.328029 -1.2724,0.551628 -1.32714,0.496887 -0.0547,-0.05474 0.50029,-0.380469 1.2334,-0.72384 l 1.33293,-0.62431 0.84403,0.844027 c 0.46421,0.464215 0.78407,0.844027 0.71081,0.844027 -0.0733,0 -0.45569,-0.322472 -0.84983,-0.716604 z M 150.8125,94.588544 c 0.65484,-0.350651 1.30968,-0.637546 1.45521,-0.637546 0.14552,0 -0.2712,0.286895 -0.92605,0.637546 -0.65484,0.350651 -1.30968,0.637547 -1.4552,0.637547 -0.14552,0 0.27119,-0.286896 0.92604,-0.637547 z m -31.22083,-1.058333 c -0.64268,-0.654844 -1.10898,-1.190625 -1.03622,-1.190625 0.0728,0 0.65812,0.535781 1.3008,1.190625 0.64268,0.654844 1.10898,1.190625 1.03622,1.190625 -0.0728,0 -0.65812,-0.535781 -1.3008,-1.190625 z m 17.18685,-0.463021 c 1.09643,-1.168186 1.33398,-1.378239 1.33398,-1.179567 0,0.04246 -0.56555,0.608008 -1.25677,1.25677 l -1.25677,1.179568 z M 104.5718,92.604169 c 0,-0.509323 0.0545,-0.717682 0.121,-0.463021 0.0665,0.254662 0.0665,0.671381 0,0.926042 -0.0666,0.254661 -0.121,0.0463 -0.121,-0.463021 z m 50.59111,-0.04415 c 0.98046,-0.516891 1.01318,-0.571815 0.54474,-0.914348 -0.53145,-0.388605 -0.43974,-0.465657 0.24258,-0.203824 0.68808,0.26404 0.47764,0.77153 -0.5165,1.245605 -1.32003,0.629477 -1.52427,0.533373 -0.27082,-0.127433 z M 116.67189,90.28906 c -0.7964,-0.836745 -2.09829,-2.205963 -2.8931,-3.042708 -0.7948,-0.836745 -1.37456,-1.521354 -1.28837,-1.521354 0.0862,0 1.43373,1.369219 2.99452,3.042708 1.56079,1.67349 2.79216,3.042708 2.73638,3.042708 -0.0558,0 -0.75303,-0.684609 -1.54943,-1.521354 z m 23.46272,-0.926041 c 1.53249,-1.742899 1.9229,-2.046458 2.60241,-2.023438 l 0.79944,0.02708 -0.85616,0.203319 c -0.56097,0.133218 -1.45823,0.830861 -2.60241,2.023437 l -1.74625,1.820119 z m 12.92685,1.389062 c -0.72761,-0.268485 -1.14433,-0.488154 -0.92605,-0.488154 0.21829,0 0.99219,0.219669 1.7198,0.488154 0.7276,0.268485 1.14432,0.488154 0.92604,0.488154 -0.21828,0 -0.99219,-0.219669 -1.71979,-0.488154 z m -5.20899,-1.768241 c 0.191,-0.07643 0.4192,-0.06703 0.50712,0.02089 0.0879,0.08792 -0.0684,0.150452 -0.34727,0.138964 -0.30822,-0.0127 -0.37092,-0.07539 -0.15985,-0.159854 z m -37.13429,-5.177071 -1.31297,-1.389063 1.38906,1.312971 c 1.29074,1.220035 1.5104,1.465154 1.31297,1.465154 -0.0419,0 -0.66693,-0.625078 -1.38906,-1.389062 z m -2.2116,-2.456602 c -0.45164,-0.514387 -0.82116,-1.014449 -0.82116,-1.11125 0,-0.0968 0.0902,-0.06289 0.20048,0.07535 0.11027,0.138245 0.54927,0.638307 0.97555,1.11125 0.42628,0.472943 0.70558,0.859896 0.62067,0.859896 -0.0849,0 -0.52391,-0.420862 -0.97554,-0.935248 z m -3.73139,-3.099648 c -2.6e-4,-0.268737 0.57693,-0.243732 1.03256,0.04473 0.26566,0.168199 0.17164,0.223495 -0.33055,0.194386 -0.386,-0.02237 -0.70191,-0.129978 -0.70201,-0.239119 z M 42.618808,72.341497 c 0.0127,-0.308225 0.07539,-0.37092 0.159852,-0.159853 0.07643,0.190996 0.06703,0.419199 -0.02089,0.507118 -0.08792,0.08792 -0.150453,-0.06835 -0.138964,-0.347265 z"
         id="path3" /><path
         style="fill:#bf6e15"
         d="m 106.31289,176.56092 c 0.191,-0.0764 0.4192,-0.067 0.50712,0.0209 0.0879,0.0879 -0.0683,0.15046 -0.34727,0.13897 -0.30822,-0.0127 -0.37092,-0.0754 -0.15985,-0.15986 z m 5.07669,-26.25919 c 0,-15.83948 0.0973,-26.47673 0.24215,-26.47673 0.13318,0 2.00715,2.05383 4.16436,4.56406 5.63578,6.55804 7.64844,8.55 9.00315,8.91053 0.72773,0.19367 1.47403,0.2119 2.18007,0.0533 0.59045,-0.13267 8.35222,-4.0138 17.24837,-8.62474 9.38774,-4.86573 16.27313,-8.28522 16.4091,-8.14926 0.13212,0.13213 0.20447,6.85587 0.16593,15.42187 l -0.0683,15.1876 -5.24851,2.85479 c -2.88668,1.57014 -5.40893,2.8548 -5.60501,2.8548 -0.3172,0 -6.29063,-4.25618 -13.71609,-9.77297 -5.09557,-3.78578 -6.27729,-4.51453 -7.32066,-4.51453 -1.1177,0 -2.59048,0.88139 -3.10807,1.86002 -0.51007,0.96442 -0.31901,2.49578 1.64285,13.16761 0.97102,5.28202 1.69784,9.8064 1.61515,10.05417 -0.14878,0.4458 -16.076,8.83279 -17.0946,9.0017 -0.50058,0.083 -0.50985,-0.39695 -0.50985,-26.39219 z m 8.83602,21.91659 c 4.52629,-2.34232 8.32669,-4.35035 8.44534,-4.4623 0.19049,-0.17971 -0.83388,-6.28134 -2.87084,-17.10012 -0.75154,-3.99159 -0.80827,-5.38868 -0.26172,-6.44558 0.56732,-1.09708 1.96033,-1.86449 3.38446,-1.86449 1.26211,0 2.04731,0.51346 11.57091,7.56644 5.13852,3.80548 9.21098,6.72106 9.38793,6.72106 0.22071,0 9.96687,-5.26723 10.27898,-5.55518 0.21648,-0.19973 0.49914,-29.85612 0.28782,-30.19804 -0.0596,-0.0965 -1.86514,0.74539 -4.01229,1.87077 -13.13785,6.88589 -28.12753,14.5523 -28.99301,14.82836 -0.59261,0.18903 -1.48818,0.25141 -2.16097,0.15051 -1.99384,-0.29899 -2.44036,-0.72857 -10.32789,-9.936 -1.55826,-1.81901 -2.93826,-3.4204 -3.06667,-3.55864 -0.13504,-0.14538 -0.23348,10.81488 -0.23348,25.99531 0,14.43566 0.0769,26.24666 0.17091,26.24666 0.094,0 3.87424,-1.91644 8.40052,-4.25876 z m -13.26915,-22.01675 c -0.0488,-18.8798 -0.14034,-25.03818 -0.37025,-24.8961 -0.1969,0.1217 -0.23331,0.072 -0.10243,-0.13973 0.11902,-0.19256 0.30074,-0.23082 0.43912,-0.0924 0.13603,0.13602 0.20689,10.82624 0.16721,25.22461 l -0.0689,24.98854 z m -22.238202,16.61822 c 0.0054,-0.43656 0.06469,-0.58312 0.131773,-0.32569 0.06708,0.25743 0.06267,0.61462 -0.0098,0.79375 -0.07248,0.17913 -0.127362,-0.0315 -0.12197,-0.46806 z m 0.309637,-3.70417 c 6.89e-4,-1.4552 0.04512,-2.01676 0.09874,-1.2479 0.05362,0.76886 0.05305,1.95949 -0.0013,2.64584 -0.0543,0.68634 -0.09817,0.0573 -0.09748,-1.39794 z m -0.319441,-3.83645 c 0,-0.36381 0.06005,-0.51263 0.133452,-0.33073 0.0734,0.1819 0.0734,0.47955 0,0.66145 -0.0734,0.18191 -0.133452,0.0331 -0.133452,-0.33072 z m -0.264583,-1.5875 c 0,-0.36381 0.06005,-0.51263 0.133452,-0.33073 0.0734,0.1819 0.0734,0.47955 0,0.66145 -0.0734,0.18191 -0.133452,0.0331 -0.133452,-0.33072 z m -0.285472,-1.21268 c 0.0127,-0.30822 0.07539,-0.37092 0.159853,-0.15985 0.07643,0.191 0.06703,0.4192 -0.02089,0.50712 -0.08792,0.0879 -0.150452,-0.0683 -0.138963,-0.34727 z m -4.023387,-8.51076 c -0.329107,-0.41965 -0.319749,-0.429 0.0999,-0.0999 0.254661,0.19972 0.463021,0.40808 0.463021,0.46302 0,0.21777 -0.217272,0.0776 -0.562916,-0.36312 z m -1.438104,-1.71979 -0.777105,-0.8599 0.859896,0.77711 c 0.801543,0.72437 0.981512,0.94268 0.777105,0.94268 -0.04554,0 -0.432488,-0.38695 -0.859896,-0.85989 z m -2.654327,-2.64584 -0.504028,-0.59531 0.595313,0.50403 c 0.559446,0.47366 0.715761,0.6866 0.504027,0.6866 -0.05021,0 -0.318097,-0.26789 -0.595312,-0.59532 z m 16.098575,-2.49748 c 0.254662,-0.0666 0.671381,-0.0666 0.926042,0 0.254661,0.0666 0.0463,0.121 -0.463021,0.121 -0.509323,0 -0.717682,-0.0545 -0.463021,-0.121 z m 2.315104,-0.45077 c 0,-0.0572 0.184778,-0.17489 0.410617,-0.26155 0.23546,-0.0904 0.341662,-0.046 0.248969,0.10398 -0.155379,0.25141 -0.659586,0.37186 -0.659586,0.15757 z m 1.058334,-0.52508 c 0,-0.0549 0.208359,-0.2633 0.463021,-0.46302 0.419643,-0.32911 0.429002,-0.31975 0.09989,0.0999 -0.345643,0.44073 -0.562915,0.58088 -0.562915,0.36312 z m -44.601469,-7.04385 c 0,-3.27422 0.03798,-4.61367 0.0844,-2.97657 0.04642,1.63711 0.04642,4.31602 0,5.95313 -0.04642,1.63711 -0.0844,0.29766 -0.0844,-2.97656 z m 45.659802,5.72094 c 0,-0.055 0.208359,-0.26331 0.463021,-0.46303 0.419644,-0.3291 0.429002,-0.31974 0.0999,0.0999 -0.345644,0.44073 -0.562916,0.58089 -0.562916,0.36313 z m -30.476691,-0.34543 c 0.190996,-0.0764 0.419199,-0.067 0.507118,0.0209 0.08792,0.0879 -0.06835,0.15046 -0.347266,0.13897 -0.308224,-0.0127 -0.370919,-0.0754 -0.159852,-0.15985 z m -11.1125,-0.26459 c 0.190997,-0.0764 0.4192,-0.067 0.507118,0.0209 0.08792,0.0879 -0.06835,0.15045 -0.347265,0.13897 -0.308225,-0.0127 -0.370919,-0.0754 -0.159853,-0.15986 z m 9.773047,0.006 c 0.181901,-0.0734 0.479557,-0.0734 0.661458,0 0.181901,0.0734 0.03307,0.13345 -0.330729,0.13345 -0.363802,0 -0.51263,-0.0601 -0.330729,-0.13345 z m -8.329339,-0.27271 c 0.257431,-0.0671 0.614618,-0.0627 0.79375,0.01 0.179131,0.0725 -0.03149,0.12736 -0.468057,0.12197 -0.436562,-0.005 -0.583124,-0.0647 -0.325693,-0.13177 z m 6.609547,9.7e-4 c 0.254662,-0.0665 0.67138,-0.0665 0.926042,0 0.254661,0.0666 0.0463,0.121 -0.463021,0.121 -0.509323,0 -0.717682,-0.0545 -0.463021,-0.121 z m -4.094047,-0.27627 c 0.62231,-0.0559 1.57481,-0.0551 2.116666,0.002 0.541857,0.0569 0.03269,0.10259 -1.131473,0.10162 -1.164166,-9.6e-4 -1.607504,-0.0475 -0.985193,-0.10336 z m 34.322691,-1.9226 c 0.26339,-0.29104 0.538421,-0.52917 0.611181,-0.52917 0.07276,0 -0.08321,0.23813 -0.346597,0.52917 -0.263389,0.29104 -0.538421,0.52917 -0.611181,0.52917 -0.07276,0 0.08321,-0.23813 0.346597,-0.52917 z m 31.338885,-3.63802 -0.9118,-0.99219 0.99218,0.9118 c 0.92351,0.84868 1.11384,1.07258 0.9118,1.07258 -0.0442,0 -0.4907,-0.44649 -0.99218,-0.99219 z m -1.85787,-2.11667 -0.64143,-0.7276 0.7276,0.64143 c 0.68006,0.59952 0.84894,0.81378 0.64143,0.81378 -0.0474,0 -0.37481,-0.32742 -0.7276,-0.72761 z m -1.71641,-1.98437 -0.77711,-0.8599 0.8599,0.77711 c 0.47294,0.42741 0.8599,0.81436 0.8599,0.85989 0,0.20441 -0.21832,0.0244 -0.94269,-0.7771 z m 13.90727,0.47064 c 0,-0.0728 0.71437,-0.49291 1.5875,-0.93366 0.87312,-0.44075 1.5875,-0.74184 1.5875,-0.66908 0,0.0728 -0.71438,0.49291 -1.5875,0.93366 -0.87313,0.44075 -1.5875,0.74184 -1.5875,0.66908 z m -30.1625,-1.03356 c 0,-0.0549 0.20836,-0.2633 0.46302,-0.46302 0.41964,-0.32911 0.429,-0.31975 0.0999,0.0999 -0.34565,0.44073 -0.56292,0.58088 -0.56292,0.36312 z m 14.53784,-1.42146 -0.9118,-0.99218 0.99219,0.91179 c 0.9235,0.84869 1.11384,1.07258 0.9118,1.07258 -0.0442,0 -0.4907,-0.44648 -0.99219,-0.99219 z m -1.98678,-2.24895 -0.7771,-0.8599 0.85989,0.7771 c 0.47295,0.42741 0.8599,0.81437 0.8599,0.8599 0,0.20441 -0.21832,0.0244 -0.94269,-0.7771 z m 26.87185,-0.0572 c 0,-0.0728 0.59532,-0.43396 1.32292,-0.80266 0.72761,-0.36871 1.32292,-0.61084 1.32292,-0.53808 0,0.0728 -0.59531,0.43396 -1.32292,0.80266 -0.7276,0.36871 -1.32292,0.61084 -1.32292,0.53808 z m -28.59502,-1.92714 -0.64143,-0.7276 0.7276,0.64143 c 0.68006,0.59951 0.84894,0.81377 0.64143,0.81377 -0.0474,0 -0.37481,-0.32742 -0.7276,-0.7276 z m 31.50544,0.35904 c 0,-0.0572 0.18478,-0.17489 0.41062,-0.26156 0.23546,-0.0904 0.34166,-0.046 0.24897,0.10399 -0.15538,0.25141 -0.65959,0.37186 -0.65959,0.15757 z m -33.21765,-2.34341 -1.04589,-1.12448 1.12448,1.04588 c 1.04575,0.97266 1.24606,1.20307 1.04588,1.20307 -0.0432,0 -0.54924,-0.50601 -1.12447,-1.12447 z m -9.38026,0.49541 c 0,-0.0549 0.20836,-0.2633 0.46302,-0.46302 0.41964,-0.32911 0.429,-0.31975 0.0999,0.0999 -0.34564,0.44073 -0.56291,0.58088 -0.56291,0.36312 z m 1.02945,-1.27757 c 0.18646,-0.24829 0.25177,-0.60548 0.14513,-0.79375 -0.15613,-0.27567 -0.12414,-0.27756 0.16432,-0.01 0.29925,0.27787 0.27537,0.40851 -0.14513,0.79375 -0.45317,0.41517 -0.46955,0.41614 -0.16432,0.01 z m 47.91846,-0.0688 c 0,-0.0728 0.59531,-0.43396 1.32292,-0.80266 0.7276,-0.36871 1.32291,-0.61084 1.32291,-0.53808 0,0.0728 -0.59531,0.43396 -1.32291,0.80266 -0.72761,0.36871 -1.32292,0.61084 -1.32292,0.53808 z m 2.91042,-1.5681 c 0,-0.0572 0.18477,-0.17489 0.41061,-0.26156 0.23546,-0.0904 0.34167,-0.046 0.24897,0.10399 -0.15538,0.25141 -0.65958,0.37186 -0.65958,0.15757 z m -37.30625,-2.64584 c 0,-0.0572 0.18478,-0.17489 0.41062,-0.26155 0.23546,-0.0904 0.34166,-0.046 0.24896,0.10399 -0.15537,0.2514 -0.65958,0.37185 -0.65958,0.15756 z m -14.18215,-2.11978 c -0.0785,-0.20443 -0.101,-0.76998 -0.0501,-1.25677 0.0811,-0.77603 0.10809,-0.73023 0.21898,0.37168 0.12971,1.28886 0.082,1.53885 -0.16886,0.88509 z M 85.725001,106.87458 C 77.939637,104.28819 68.176512,101.0584 64.029169,99.697267 59.881825,98.336139 56.49888,97.106101 56.511514,96.96385 c 0.0222,-0.249987 2.960438,-1.474813 22.202029,-9.255081 4.947708,-2.000587 11.793801,-4.798513 15.213541,-6.217612 3.419739,-1.4191 6.307936,-2.498656 6.418216,-2.399015 0.31208,0.281978 0.11368,32.376388 -0.20051,32.435328 -0.145519,0.0273 -6.634425,-2.0665 -14.419789,-4.65289 z m 44.979169,2.13376 c 0.21828,-0.14107 0.51593,-0.25649 0.66145,-0.25649 0.14552,0 0.086,0.11542 -0.13229,0.25649 -0.21828,0.14106 -0.51594,0.25648 -0.66146,0.25648 -0.14552,0 -0.086,-0.11542 0.1323,-0.25648 z m 42.74721,-0.34215 c 0.0994,-0.26093 0.24731,-0.40778 0.32877,-0.32631 0.0815,0.0815 1.7e-4,0.29495 -0.18066,0.47443 -0.2613,0.25936 -0.29169,0.22897 -0.14811,-0.14812 z M 104.90394,93.552229 c 0.003,-13.159546 0.0534,-15.072893 0.40023,-15.167538 0.29153,-0.07956 0.30968,-0.04651 0.0684,0.124512 -0.25351,0.179671 -0.34488,3.642208 -0.40023,15.167539 l -0.0717,14.934718 z m 67.84895,13.670171 -0.64144,-0.72761 0.72761,0.64144 c 0.40018,0.35278 0.7276,0.68021 0.7276,0.7276 0,0.20751 -0.21426,0.0386 -0.81377,-0.64143 z m -1.46032,-1.71979 -0.50403,-0.59532 0.59531,0.50403 c 0.32742,0.27722 0.59531,0.54511 0.59531,0.59531 0,0.21174 -0.21293,0.0554 -0.68659,-0.50402 z m -1.19924,-1.45521 c -0.32911,-0.41965 -0.31975,-0.429 0.0999,-0.0999 0.25466,0.19972 0.46302,0.40808 0.46302,0.46302 0,0.21776 -0.21728,0.0776 -0.56292,-0.36312 z m -38.33083,-0.46302 c 0.3638,-0.20797 0.78052,-0.37813 0.92604,-0.37813 0.14552,0 -0.0331,0.17016 -0.39687,0.37813 -0.36381,0.20797 -0.78053,0.37812 -0.92605,0.37812 -0.14552,0 0.0331,-0.17015 0.39688,-0.37812 z m 37.14882,-0.99219 -0.50403,-0.59531 0.59531,0.50402 c 0.32742,0.27722 0.59531,0.54511 0.59531,0.59532 0,0.21173 -0.21293,0.0554 -0.68659,-0.50403 z m -1.32292,-1.5875 -0.50403,-0.59531 0.59531,0.50403 c 0.32743,0.27721 0.59532,0.5451 0.59532,0.59531 0,0.21173 -0.21294,0.0554 -0.6866,-0.50403 z m -19.9509,-0.19844 c 0.21828,-0.14106 0.51594,-0.25648 0.66146,-0.25648 0.14552,0 0.086,0.11542 -0.1323,0.25648 -0.21828,0.14107 -0.51593,0.25648 -0.66145,0.25648 -0.14552,0 -0.086,-0.11541 0.13229,-0.25648 z m -20.70365,-0.17523 c 0.1819,-0.0734 0.47956,-0.0734 0.66146,0 0.1819,0.0734 0.0331,0.13346 -0.33073,0.13346 -0.3638,0 -0.51263,-0.0601 -0.33073,-0.13346 z m 1.5875,0 c 0.1819,-0.0734 0.47956,-0.0734 0.66146,0 0.1819,0.0734 0.0331,0.13346 -0.33073,0.13346 -0.3638,0 -0.51263,-0.0601 -0.33073,-0.13346 z M 49.258584,99.853028 c 0.237113,-0.237112 0.557978,-0.387528 0.713034,-0.334257 0.155056,0.05327 -0.03894,0.247272 -0.431114,0.431113 -0.658976,0.308916 -0.680349,0.301576 -0.28192,-0.09686 z m 74.164026,-2.023338 -2.37574,-2.447396 2.4474,2.375734 c 2.27309,2.206528 2.56783,2.519062 2.37573,2.519062 -0.0394,0 -1.14074,-1.101333 -2.44739,-2.4474 z m 42.98028,1.719791 -0.64143,-0.727604 0.7276,0.641433 c 0.40018,0.352788 0.7276,0.68021 0.7276,0.7276 0,0.20751 -0.21426,0.0386 -0.81377,-0.641429 z m -34.77268,-0.595312 c 0.56839,-0.582083 1.09296,-1.058333 1.16572,-1.058333 0.0728,0 -0.33275,0.47625 -0.90114,1.058333 -0.56839,0.582083 -1.09297,1.058331 -1.16573,1.058331 -0.0728,0 0.33276,-0.476248 0.90115,-1.058331 z m 8.33437,0.661458 c 0.3638,-0.207968 0.78052,-0.378124 0.92604,-0.378124 0.14552,0 -0.0331,0.170156 -0.39687,0.378124 -0.3638,0.207968 -0.78052,0.378124 -0.92604,0.378124 -0.14552,0 0.0331,-0.170156 0.39687,-0.378124 z m 25.24257,-1.521354 -0.50403,-0.595312 0.59531,0.504028 c 0.32743,0.277215 0.59532,0.545106 0.59532,0.595312 0,0.211734 -0.21294,0.05542 -0.6866,-0.504028 z m -31.32798,-1.653646 c 0.49365,-0.509323 0.95708,-0.926041 1.02984,-0.926041 0.0728,0 -0.27161,0.416718 -0.76526,0.926041 -0.49366,0.509323 -0.95709,0.926042 -1.02985,0.926042 -0.0728,0 0.27161,-0.416719 0.76527,-0.926042 z m 11.64166,0.529167 c 0.3638,-0.207968 0.78052,-0.378124 0.92604,-0.378124 0.14552,0 -0.0331,0.170156 -0.39687,0.378124 -0.3638,0.207968 -0.78052,0.378124 -0.92604,0.378124 -0.14552,0 0.0331,-0.170156 0.39687,-0.378124 z m 18.48708,-0.330729 c -0.3291,-0.419644 -0.31974,-0.429002 0.0999,-0.0999 0.44073,0.345644 0.58089,0.562916 0.36313,0.562916 -0.055,0 -0.26331,-0.20836 -0.46303,-0.463021 z m -1.04461,-1.322917 -0.64143,-0.727604 0.72761,0.641433 c 0.40018,0.352788 0.7276,0.68021 0.7276,0.727604 0,0.207506 -0.21426,0.03862 -0.81378,-0.641433 z m -43.25179,-1.455208 -1.04589,-1.124479 1.12448,1.045884 c 1.04576,0.972662 1.24607,1.203074 1.04589,1.203074 -0.0432,0 -0.54925,-0.506016 -1.12448,-1.124479 z m 16.6812,-0.198438 c 0.71666,-0.727604 1.36255,-1.322916 1.43531,-1.322916 0.0728,0 -0.45407,0.595312 -1.17073,1.322916 -0.71666,0.727605 -1.36256,1.322917 -1.43532,1.322917 -0.0728,0 0.45407,-0.595312 1.17074,-1.322917 z M 49.785824,94.257815 C 49.356626,93.426481 42.862503,73.08528 42.862503,72.572259 c 0,-0.415345 1.878213,-1.202215 11.178645,-4.683248 12.222226,-4.574624 35.694697,-13.462743 40.944269,-15.504015 9.359473,-3.639389 11.742983,-4.49986 11.933873,-4.308261 0.11493,0.11535 -1.13428,5.56754 -2.77603,12.115978 -1.64175,6.548437 -3.09397,12.371912 -3.22715,12.941056 -0.22443,0.959065 -0.36803,1.08671 -1.961943,1.743921 -0.945886,0.390013 -3.803385,1.57234 -6.35,2.627393 -10.028625,4.154821 -42.265549,17.215753 -42.491834,17.215753 -0.0481,0 -0.195033,-0.20836 -0.326509,-0.463021 z m 9.08397,-3.373132 c 12.655175,-5.112192 16.985512,-6.866763 21.431249,-8.68354 6.406721,-2.618145 12.843462,-5.268305 16.632232,-6.847887 l 3.403065,-1.418778 3.17626,-12.638783 c 1.74694,-6.951331 3.10913,-12.705906 3.02709,-12.787944 -0.082,-0.08204 -2.38789,0.710527 -5.12411,1.761257 -23.157569,8.892676 -57.208298,21.697662 -57.697933,21.697662 -0.188422,0 -0.40641,0.166324 -0.484417,0.369609 -0.128465,0.334774 6.233213,20.556224 6.814346,21.660316 0.178797,0.339697 0.368235,0.401363 0.69739,0.227014 0.248551,-0.131653 3.904724,-1.63417 8.124828,-3.338926 z M 152.4,93.662502 c 0.21828,-0.141064 0.51593,-0.25648 0.66146,-0.25648 0.14552,0 0.086,0.115416 -0.1323,0.25648 -0.21828,0.141065 -0.51593,0.256481 -0.66145,0.256481 -0.14553,0 -0.086,-0.115416 0.13229,-0.256481 z m -35.46321,-2.84427 -1.44617,-1.521354 1.52136,1.44617 c 0.83674,0.795393 1.52135,1.480003 1.52135,1.521354 0,0.196388 -0.253,-0.03278 -1.59654,-1.44617 z m 38.7264,1.136118 c 0,-0.21188 0.10116,-0.322716 0.2248,-0.246301 0.12364,0.07641 0.15631,0.24977 0.0726,0.385236 -0.21395,0.346176 -0.29738,0.307196 -0.29738,-0.138935 z m -16.50342,-1.26841 c 0.64877,-0.691224 1.21431,-1.256771 1.25677,-1.256771 0.19868,0 -0.0114,0.23755 -1.17956,1.333974 l -1.25677,1.179568 z m -25.38894,-3.241146 c -0.64268,-0.654843 -1.10898,-1.190624 -1.03622,-1.190624 0.0728,0 0.65813,0.535781 1.30081,1.190624 0.64268,0.654844 1.10897,1.190625 1.03621,1.190625 -0.0728,0 -0.65812,-0.535781 -1.3008,-1.190625 z m 27.25208,1.090731 c 0,-0.05494 0.20836,-0.263302 0.46303,-0.463021 0.41964,-0.329108 0.429,-0.319749 0.0999,0.0999 -0.34564,0.440729 -0.56292,0.580887 -0.56292,0.363126 z M 111.125,84.534378 c -0.64268,-0.654844 -1.10898,-1.190625 -1.03622,-1.190625 0.0728,0 0.65812,0.535781 1.3008,1.190625 0.64268,0.654844 1.10898,1.190625 1.03622,1.190625 -0.0728,0 -0.65812,-0.535781 -1.3008,-1.190625 z m -2.53019,-2.844271 -0.7771,-0.859895 0.85989,0.777105 c 0.47295,0.427408 0.8599,0.814361 0.8599,0.859896 0,0.204406 -0.21832,0.02444 -0.94269,-0.777106 z m -1.17398,-1.521354 c -0.15576,-0.291041 -0.22367,-0.529166 -0.15091,-0.529166 0.0728,0 0.25974,0.238125 0.4155,0.529166 0.15576,0.291042 0.22367,0.529167 0.15091,0.529167 -0.0728,0 -0.25974,-0.238125 -0.4155,-0.529167 z"
         id="path2" /><path
         style="fill:#253536"
         d="m 151.45714,193.97248 c -0.85552,-0.5217 -1.24311,-1.09085 -4.34675,-6.3829 -2.52737,-4.30943 -3.38687,-5.55625 -3.83024,-5.55625 -0.19975,0 -1.38423,1.36619 -2.63217,3.03598 -1.24795,1.6698 -2.55448,3.22305 -2.90342,3.45168 -2.28576,1.49769 -5.13669,0.0827 -5.56356,-2.76132 -0.95602,-6.36943 -2.10556,-12.90818 -2.30609,-13.11729 -0.16571,-0.17281 -0.54263,-0.0954 -1.10045,0.22614 -0.46663,0.26894 -4.59889,2.46072 -9.18279,4.87063 -9.25414,4.8652 -9.65824,5.00056 -12.17084,4.07663 -1.26112,-0.46375 -6.65096,-2.63265 -20.444082,-8.22683 -1.858154,-0.75362 -3.498227,-1.2962 -3.644608,-1.20573 -0.146381,0.0905 -0.666438,0.95935 -1.155681,1.93086 -1.163047,2.3095 -2.951723,4.66562 -4.938059,6.50462 -8.696564,8.05148 -21.264965,9.27576 -30.825652,3.0027 -2.304517,-1.51207 -5.647821,-4.6837 -6.924556,-6.56899 -3.35075,-4.9479 -5.02441,-11.48804 -4.345552,-16.98106 0.908239,-7.34906 3.715499,-12.44186 9.276042,-16.82813 l 2.412571,-1.90309 -0.0041,-7.99767 c -0.0022,-4.39872 -0.09737,-8.14458 -0.211416,-8.32413 -0.114051,-0.17956 -2.627627,-1.09848 -5.585724,-2.04206 -2.958097,-0.94358 -5.670873,-1.90726 -6.028391,-2.14151 -0.869369,-0.56963 -1.485832,-2.11327 -1.324451,-3.31646 0.08608,-0.64173 2.138981,-4.3104 6.112651,-10.92368 3.290677,-5.4766 5.98305,-10.176541 5.98305,-10.444325 0,-0.415153 -1.61725,-5.492231 -6.71735,-21.087969 -1.096883,-3.354189 -1.159591,-4.148402 -0.422937,-5.35664 0.564864,-0.926472 1.321262,-1.321599 5.420495,-2.83156 2.775715,-1.02244 17.392904,-6.564383 30.823957,-11.686556 5.165989,-1.970143 11.89302,-4.533268 14.948957,-5.695834 3.055938,-1.162566 8.14219,-3.115206 11.302786,-4.339202 3.58766,-1.389385 6.12234,-2.225074 6.74687,-2.224456 1.96636,0.0019 3.77551,1.804774 3.77748,3.764263 10e-4,1.073484 -1.29142,6.271536 -4.42555,17.798288 -1.10788,4.074583 -2.06344,7.828755 -2.12346,8.342604 -0.10625,0.909708 -0.0719,0.949706 1.30732,1.521354 0.77905,0.322896 1.54701,0.587083 1.70659,0.587083 0.15958,0 1.85831,-1.659092 3.77496,-3.686871 3.74817,-3.965477 4.47445,-4.433363 6.46696,-4.166112 1.17255,0.157272 2.03547,0.954037 7.00539,6.468301 1.21102,1.343659 2.30639,2.443015 2.43415,2.443015 0.12776,0 1.28005,-1.228789 2.56065,-2.730643 1.28059,-1.501853 4.58715,-5.341619 7.3479,-8.532812 10.70737,-12.376789 10.34162,-12.019877 12.31754,-12.019877 1.55724,0 2.49973,0.604824 7.25953,4.658645 4.07675,3.472082 4.90491,4.468165 4.90343,5.89767 -10e-4,1.179965 -0.56133,2.11665 -2.56345,4.28695 -5.81561,6.304121 -14.1361,15.921666 -13.94029,16.113391 0.12807,0.125402 2.06699,0.774007 4.30872,1.441346 7.81962,2.327822 12.60046,3.907844 13.65122,4.511603 0.58208,0.33446 1.71318,1.422831 2.51354,2.418603 0.80036,0.995772 3.59457,4.43077 6.20935,7.633329 5.67408,6.949562 6.49098,8.110512 6.48966,9.222862 -0.002,1.73071 -0.64537,2.26024 -5.83395,4.80206 -2.67344,1.30968 -5.57965,2.73843 -6.45825,3.175 l -1.59743,0.79375 -0.1323,17.50946 c -0.12997,17.20225 -0.14193,17.52256 -0.68165,18.25625 -0.35387,0.48104 -2.28401,1.65751 -5.42396,3.30605 -2.68103,1.40759 -4.90829,2.7221 -4.94946,2.92112 -0.0428,0.20681 2.04415,1.94285 4.87045,4.05153 2.71993,2.02932 5.16419,4.04856 5.43169,4.48721 0.91975,1.50819 0.33183,3.76172 -1.18619,4.54672 -0.84653,0.43775 -5.0799,1.13162 -6.95817,1.14047 -2.03521,0.01 -1.96731,0.29515 1.26642,5.32653 4.68207,7.28485 4.72046,7.35466 4.72046,8.58414 0,1.75248 -0.79493,2.49822 -5.81664,5.45667 -1.96242,1.15613 -3.34769,1.30935 -4.65122,0.51445 z m 4.16053,-4.99384 c 0.89803,-0.57851 1.54116,-1.18329 1.54251,-1.45054 0.003,-0.5177 -0.5208,-1.39433 -5.77727,-9.6758 -2.05998,-3.24545 -3.74541,-6.07091 -3.74541,-6.27881 0,-0.48596 0.27006,-0.53416 5.95312,-1.06245 2.61938,-0.2435 4.8518,-0.49606 4.96094,-0.56125 0.50989,-0.30454 -0.0269,-0.89885 -2.52742,-2.79807 -13.43844,-10.20707 -25.56335,-19.24964 -25.81125,-19.24964 -0.16636,0 -0.30247,0.1829 -0.30247,0.40644 0,0.5243 5.16093,30.46181 5.85065,33.93843 0.18549,0.93499 0.39599,1.37707 0.62994,1.32292 0.19325,-0.0447 1.79411,-2.02393 3.55746,-4.39823 2.57218,-3.46334 3.31543,-4.30037 3.75898,-4.23333 0.40398,0.0611 1.65135,1.86493 4.63175,6.69815 2.24338,3.63802 4.30891,7.00153 4.59008,7.47447 0.28116,0.47295 0.65453,0.8599 0.8297,0.8599 0.17517,0 1.01158,-0.44648 1.85869,-0.99219 z m -91.45621,-5.74139 c 7.879271,-1.86504 14.233482,-8.07705 15.91791,-15.5617 0.692449,-3.07685 0.56785,-7.46131 -0.294633,-10.3677 -1.190765,-4.01263 -2.527954,-6.27038 -5.43585,-9.17803 -2.191133,-2.19095 -2.902304,-2.72106 -5.046098,-3.7614 -3.597762,-1.74593 -5.297163,-2.13759 -9.24237,-2.13011 -2.610523,0.005 -3.750069,0.13121 -5.408986,0.59929 -7.219312,2.03703 -12.768534,7.69355 -14.733695,15.0186 -0.777893,2.89956 -0.78067,7.60939 -0.0062,10.49466 1.964675,7.31922 7.949545,13.04538 15.51866,14.84785 2.076271,0.49443 6.71866,0.51492 8.731249,0.0385 z M 50.874533,167.93588 c -3.943008,-3.943 -4.572447,-4.68475 -4.572447,-5.38827 0,-1.28943 0.891835,-2.21011 2.140854,-2.21011 0.989052,0 1.213223,0.17441 4.250836,3.30729 1.763697,1.81901 3.359959,3.30729 3.54725,3.30729 0.187291,0 1.265543,-1.04179 2.396115,-2.3151 3.234262,-3.64259 9.132741,-10.15123 10.189546,-11.24359 0.744679,-0.76973 1.166181,-0.99339 1.872108,-0.99339 1.209058,0 2.061623,0.89692 2.061623,2.16888 0,0.85796 -0.558536,1.56888 -6.118848,7.78815 -9.53639,10.66657 -9.019227,10.1513 -10.188588,10.1513 -0.94975,0 -1.261675,-0.25567 -5.578449,-4.57245 z m 56.131267,8.83517 c 0.25099,-0.40612 0.17666,-52.01127 -0.075,-52.09517 -0.12969,-0.0432 -2.61901,3.23022 -5.53183,7.27432 -2.912814,4.04411 -5.536203,7.56955 -5.82975,7.83431 -0.723816,0.65284 -2.693661,1.21561 -3.643777,1.04101 -0.427044,-0.0785 -7.443944,-2.49366 -15.59311,-5.36707 -17.462134,-6.15717 -24.889586,-8.72303 -25.250784,-8.72303 -0.297554,0 -0.525573,12.04263 -0.23684,12.50849 0.122219,0.1972 0.899732,0.10907 2.513541,-0.28489 3.8035,-0.92852 5.744071,-1.11326 8.726101,-0.83071 9.715103,0.92052 17.557193,6.78394 21.034095,15.7269 1.568799,4.03512 2.161891,9.76622 1.399412,13.52265 l -0.166982,0.82265 4.589686,1.79397 c 2.524328,0.98668 7.506718,2.96093 11.071978,4.38723 3.56526,1.42629 6.56456,2.60029 6.66511,2.60889 0.10056,0.009 0.24824,-0.0902 0.32819,-0.21955 z m 13.39431,-4.21571 c 7.42778,-3.85128 8.59429,-4.53745 8.65871,-5.09323 0.0409,-0.35328 -0.71697,-4.92857 -1.68426,-10.16732 -2.1115,-11.43569 -2.16399,-11.89667 -1.47886,-12.98576 0.54206,-0.86167 1.99233,-1.69861 2.94336,-1.69861 0.90784,0 1.98153,0.66493 6.7599,4.18638 4.40893,3.2492 11.11221,8.12594 13.25066,9.64005 l 1.07983,0.76457 1.30142,-0.76695 c 0.71578,-0.42182 2.96829,-1.63957 5.00559,-2.70611 2.03729,-1.06655 3.91252,-2.11785 4.16718,-2.33623 0.43103,-0.36963 0.46302,-1.45141 0.46302,-15.65779 0,-8.3934 -0.0778,-15.33852 -0.17288,-15.43361 -0.0951,-0.0951 -0.54157,0.0472 -0.99219,0.31625 -0.45061,0.26903 -2.90289,1.56278 -5.44951,2.87502 -2.54661,1.31223 -8.08302,4.17223 -12.30312,6.35554 -15.32048,7.92622 -14.3582,7.47121 -15.80052,7.47121 -2.48707,0 -2.90178,-0.36625 -10.63538,-9.39271 -1.99485,-2.32833 -3.76847,-4.26612 -3.94138,-4.30619 -0.24154,-0.056 -0.29859,6.0751 -0.24621,26.45834 0.0375,14.59215 0.0673,26.62048 0.0662,26.72962 -0.001,0.10914 0.0939,0.19844 0.21109,0.19844 0.11723,0 4.07605,-2.00291 8.7974,-4.45091 z M 99.812984,127.41156 c 3.602236,-4.93964 6.549516,-9.06213 6.549516,-9.16111 0,-0.24294 -2.30425,-1.04102 -20.711795,-7.17347 C 62.151911,103.24837 49.685499,99.222238 49.431009,99.379521 49.201673,99.521258 41.07617,113.0473 39.403538,116.07166 c -0.599042,1.08315 -0.81689,1.726 -0.642076,1.8947 0.145521,0.14043 3.717395,1.44784 7.937499,2.90535 10.609201,3.66413 26.640576,9.2637 39.555207,13.81616 3.265515,1.1511 5.498902,1.7978 6.084337,1.76177 0.893739,-0.055 1.146056,-0.36011 7.474479,-9.03808 z m 38.828676,-0.56197 c 6.91224,-3.5667 17.64771,-9.03539 23.85659,-12.15265 6.20888,-3.11726 11.36669,-5.79365 11.4618,-5.94755 0.0951,-0.15389 -0.0438,-0.56351 -0.30866,-0.91027 -1.81328,-2.37376 -11.31479,-13.709172 -11.5749,-13.808986 -0.32129,-0.123289 -4.27,1.72962 -25.02233,11.741566 -20.67149,9.97295 -24.60624,11.94485 -24.60624,12.33143 0,0.20727 0.68461,1.14163 1.52135,2.07637 0.83674,0.93474 3.76672,4.28049 6.51105,7.43501 2.74433,3.15452 5.12558,5.732 5.29166,5.72774 0.16609,-0.004 5.95745,-2.92596 12.86968,-6.49266 z M 118.6574,110.33125 c 4.76242,-2.32833 8.69335,-4.23333 8.7354,-4.23333 0.0421,0 3.37545,-1.60735 7.40754,-3.57188 4.03209,-1.96453 7.36393,-3.571871 7.40408,-3.571871 0.0402,0 2.64943,-1.247357 5.79839,-2.771904 3.14896,-1.524547 6.3195,-3.02749 7.04566,-3.339873 0.72615,-0.312384 1.32028,-0.726789 1.32028,-0.920902 0,-0.224297 -1.56706,-0.845213 -4.29948,-1.703584 -2.36472,-0.742859 -5.37134,-1.700471 -6.68138,-2.128028 -1.31005,-0.427556 -2.61974,-0.776558 -2.91042,-0.775559 -0.35222,0.0012 -2.39372,2.060339 -6.1201,6.172943 -3.49842,3.861004 -5.93999,6.336453 -6.52228,6.612768 -1.78689,0.84793 -3.37412,0.41054 -5.25896,-1.449208 -2.20816,-2.178772 -15.63284,-17.005207 -16.67588,-18.417122 -0.91785,-1.242453 -2.63845,-2.492029 -2.97204,-2.158436 -0.0649,0.06491 -0.19829,7.795544 -0.2964,17.179189 -0.14816,14.170677 -0.11752,17.139247 0.18084,17.521997 0.37508,0.48117 3.65214,1.73431 4.6246,1.76844 0.30867,0.0108 4.45773,-1.88531 9.22015,-4.21364 z M 100.47759,95.37557 c 0.0375,-8.856244 -0.022,-16.183786 -0.13229,-16.283428 -0.11028,-0.09964 -2.998477,0.979915 -6.418216,2.399015 -3.41974,1.419099 -10.265833,4.217025 -15.213541,6.217612 -19.241591,7.780268 -22.179828,9.005094 -22.202029,9.255081 -0.01263,0.142251 3.370311,1.372289 7.517655,2.733417 4.147343,1.361133 13.910468,4.590923 21.695832,7.177313 7.785364,2.58639 14.27427,4.68019 14.419789,4.65289 0.17206,-0.0323 0.28844,-5.68076 0.3328,-16.1519 z m 29.076,-0.456297 c 0.7397,-0.763984 3.41453,-3.719151 5.94409,-6.567037 2.52956,-2.847886 8.17107,-9.147514 12.53669,-13.999175 9.67574,-10.752958 9.42894,-10.461896 9.23932,-10.896383 -0.2372,-0.543506 -6.40059,-5.635195 -6.92466,-5.720588 -0.31152,-0.05076 -1.49829,1.115674 -3.63417,3.571875 -10.84354,12.46976 -18.22628,20.677023 -18.71465,20.804735 -0.30987,0.08103 -0.70636,0.06375 -0.88109,-0.03841 -0.17473,-0.102159 -2.24821,-2.358634 -4.60774,-5.014389 -2.35952,-2.655755 -4.44786,-4.828645 -4.64074,-4.828645 -0.443,0 -5.95189,5.800934 -5.95189,6.267416 0,0.346886 0.28254,0.690426 3.98482,4.845083 9.0596,10.166574 11.66967,12.964583 12.09377,12.964583 0.11625,0 0.81656,-0.625078 1.55625,-1.389063 z M 57.546877,91.842558 c 14.07888,-5.667969 34.847097,-14.151705 41.006846,-16.751137 1.631117,-0.688335 2.156887,-1.040789 2.305077,-1.545221 0.39119,-1.331569 6.29745,-25.154689 6.29745,-25.400992 0,-0.431043 -0.5302,-0.299226 -3.6952,0.918694 -9.255503,3.561604 -11.952321,4.593938 -16.280841,6.232261 -2.619375,0.991421 -7.798593,2.953834 -11.509374,4.360918 -9.816816,3.72242 -28.636544,10.785766 -31.040523,11.650006 -1.969276,0.707963 -2.060698,0.77662 -1.903128,1.42924 0.09104,0.377053 1.595647,5.090864 3.343579,10.475134 1.747932,5.384271 3.298183,10.176536 3.445001,10.649479 0.146819,0.472943 0.406538,0.859378 0.577154,0.858746 0.170615,-6.33e-4 3.524897,-1.29534 7.453959,-2.877128 z"
         id="path1" /></g></g></svg>

