<?xml version="1.0" encoding="UTF-8" standalone="no"?>
<!-- Created with Inkscape (http://www.inkscape.org/) -->

<svg
   width="1024"
   height="1024"
   viewBox="0 0 270.93333 270.93333"
   version="1.1"
   id="svg1"
   xml:space="preserve"
   inkscape:version="1.4.1 (93de688d07, 2025-03-30)"
   sodipodi:docname="onedrive-manager.svg"
   xmlns:inkscape="http://www.inkscape.org/namespaces/inkscape"
   xmlns:sodipodi="http://sodipodi.sourceforge.net/DTD/sodipodi-0.dtd"
   xmlns="http://www.w3.org/2000/svg"
   xmlns:svg="http://www.w3.org/2000/svg"><sodipodi:namedview
     id="namedview1"
     pagecolor="#ffffff"
     bordercolor="#000000"
     borderopacity="0.25"
     inkscape:showpageshadow="2"
     inkscape:pageopacity="0.0"
     inkscape:pagecheckerboard="0"
     inkscape:deskcolor="#d1d1d1"
     inkscape:document-units="px"
     inkscape:zoom="0.59152637"
     inkscape:cx="181.73323"
     inkscape:cy="546.04497"
     inkscape:window-width="2560"
     inkscape:window-height="1014"
     inkscape:window-x="0"
     inkscape:window-y="0"
     inkscape:window-maximized="1"
     inkscape:current-layer="layer1" /><defs
     id="defs1" /><g
     inkscape:label="Camada 1"
     inkscape:groupmode="layer"
     id="layer1"><path
       style="fill:#55bad9;stroke-width:1.59633"
       d="m 126.15627,260.15667 c -9.62051,-0.69189 -17.3551,-1.91308 -26.01479,-4.10738 C 77.963304,250.42953 58.975371,240.00867 41.647427,223.94687 37.058274,219.69306 29.427618,211.13416 26.175805,206.59321 12.951869,188.12678 6.07493,170.59713 3.704789,149.31345 3.20367,144.81345 2.999105,131.8485 3.351668,126.93328 4.763451,107.25109 10.158007,90.108347 20.213576,73.349727 c 5.303739,-8.8392 11.16531,-16.3118 18.736059,-23.88557 21.468196,-21.476753 49.891129,-34.850075 81.354265,-38.278136 4.69441,-0.511477 19.11445,-0.726614 24.00713,-0.358169 10.30881,0.77631 18.98547,2.28161 27.96188,4.85106 18.52857,5.303714 34.86898,14.002751 50.09625,26.669436 3.91804,3.259187 12.86196,12.190859 16.27573,16.253419 10.52363,12.5237 18.49588,26.5084 23.30965,40.88914 2.95337,8.822913 4.50889,16.280843 5.50904,26.413073 0.44146,4.47229 0.3744,16.84673 -0.11669,21.53671 -1.48309,14.16291 -5.04355,26.57435 -11.20474,39.05856 -4.74572,9.6161 -9.96471,17.56763 -17.00122,25.90271 -3.13694,3.71585 -10.73495,11.3228 -14.57802,14.59516 -21.95746,18.69676 -49.2296,30.26252 -77.39497,32.8222 -4.66166,0.42365 -17.04681,0.62251 -21.01164,0.33735 z m 83.25298,-75.78836 c 9.79572,-1.89088 17.37698,-5.88901 23.74405,-12.5219 7.73502,-8.05794 11.88869,-18.02467 12.75671,-30.60969 1.08104,-15.67348 -4.6282,-31.24134 -15.45195,-42.134143 -4.44327,-4.4716 -9.04791,-7.78557 -14.64355,-10.53898 -7.47584,-3.67858 -14.98902,-5.41291 -23.52651,-5.43082 -7.35419,-0.016 -13.93307,1.23141 -20.32534,3.85207 -0.94989,0.38944 -1.79646,0.61169 -1.89782,0.49827 -0.10073,-0.1127 -0.52577,-1.04749 -0.94468,-2.07751 -5.67089,-13.94352 -16.86593,-24.7907 -30.43983,-29.49399 -6.01458,-2.08402 -10.95661,-2.80978 -17.89678,-2.62822 -8.05416,0.21071 -14.19714,1.65279 -21.079976,4.94858 -5.14246,2.46242 -8.77123,4.95265 -12.86804,8.83062 -6.78566,6.42319 -11.904016,15.73343 -13.687642,24.89766 -0.275647,1.41626 -0.579617,2.89106 -0.675487,3.27733 l -0.17431,0.70229 -3.035029,0.1681 c -3.87352,0.21457 -6.19437,0.5372 -9.12149,1.26805 -9.478849,2.36668 -17.82411,8.457373 -23.108861,16.865723 -10.999849,17.50141 -8.33515,41.76448 6.252103,56.92771 7.850755,8.16075 17.750872,12.64866 30.200153,13.69034 0.515009,0.0431 30.695659,0.0685 67.068109,0.0564 l 66.13175,-0.022 z m -89.829,-25.85055 c -3.07292,-4.14445 -9.8325,-17.67919 -10.86424,-17.41443 -3.77442,0.51806 -11.628796,10.79235 -11.203726,10.07977 -1.01259,-11.65169 5.000766,-36.21193 5.874826,-37.23006 7.63644,7.26956 19.55162,12.89507 29.68488,21.1253 -8.02516,-1.80833 -14.79255,1.46635 -14.86453,1.79294 -0.0437,0.19851 3.31836,7.08056 8.95613,13.2464 3.73359,4.0833 7.89984,8.15894 13.15519,9.66102 1.62699,0.46503 2.41039,0.53575 5.96942,0.53878 3.57264,0.003 4.3362,-0.065 5.96942,-0.53188 7.80149,-2.2302 14.01784,-8.67362 16.196,-16.78764 0.57021,-2.12415 0.6279,-2.72035 0.62303,-6.4376 -0.005,-3.66582 -0.0696,-4.33737 -0.61671,-6.38549 -0.69507,-2.60241 -2.21331,-5.96268 -3.68554,-8.15709 -1.29827,-1.93515 -4.84356,-5.44823 -6.78147,-6.7199 -2.14485,-1.40745 -4.4563,-2.48457 -6.90579,-3.21805 -1.98976,-0.59583 -2.48417,-0.64109 -8.8956,-0.81437 -3.73381,-0.10089 -7.63961,-0.19199 -8.67955,-0.20244 l -1.8908,-0.019 -4.01986,-5.94966 c -2.21091,-3.2723 -4.08639,-6.123049 -4.16772,-6.334989 -0.13649,-0.35553 0.85504,-0.37833 12.81645,-0.29479 12.28387,0.0859 13.08299,0.11733 15.22534,0.60012 4.86671,1.096789 9.34694,3.016789 13.65741,5.852819 3.24125,2.13255 7.88955,6.78692 10.09296,10.10611 8.69958,13.10497 8.81709,29.7907 0.30014,42.62022 -1.91861,2.89011 -6.61746,7.61517 -9.33967,9.39176 -3.65611,2.38608 -7.05021,3.8315 -11.35793,4.8369 -1.84164,0.42983 -6.83074,0.97103 -7.83782,0.93714 -10.48079,-0.35266 -21.34795,-6.11569 -27.41024,-14.29189 z"
       id="path1"
       sodipodi:nodetypes="ssssssssssssssscssssssssssscsscsssssscsssssscsscccccsssssccssssscscccsssssss" /></g></svg>

