<?xml version="1.0" encoding="UTF-8" standalone="no"?>
<!-- Created with Inkscape (http://www.inkscape.org/) -->

<svg
   width="1024"
   height="1024"
   viewBox="0 0 270.93333 270.93333"
   version="1.1"
   id="svg1"
   xml:space="preserve"
   inkscape:version="1.4.2 (ebf0e940d0, 2025-05-08)"
   sodipodi:docname="restaura-config.svg"
   xmlns:inkscape="http://www.inkscape.org/namespaces/inkscape"
   xmlns:sodipodi="http://sodipodi.sourceforge.net/DTD/sodipodi-0.dtd"
   xmlns="http://www.w3.org/2000/svg"
   xmlns:svg="http://www.w3.org/2000/svg"><sodipodi:namedview
     id="namedview1"
     pagecolor="#ffffff"
     bordercolor="#000000"
     borderopacity="0.25"
     inkscape:showpageshadow="2"
     inkscape:pageopacity="0.0"
     inkscape:pagecheckerboard="0"
     inkscape:deskcolor="#d1d1d1"
     inkscape:document-units="px"
     inkscape:zoom="0.72248176"
     inkscape:cx="397.24186"
     inkscape:cy="561.25984"
     inkscape:window-width="2560"
     inkscape:window-height="1020"
     inkscape:window-x="0"
     inkscape:window-y="0"
     inkscape:window-maximized="1"
     inkscape:current-layer="layer1" /><defs
     id="defs1" /><g
     inkscape:label="Camada 1"
     inkscape:groupmode="layer"
     id="layer1"><g
       id="g1"
       transform="matrix(1.211181,0,0,1.211181,8.3501274,-36.337052)"><path
         style="fill:#efb22e"
         d="m 15.153885,250.68237 c -3.734825,-1.00593 -7.4124295,-3.96664 -9.0249974,-7.26571 -1.7359016,-3.55139 -1.6213172,2.17212 -1.6263717,-81.23763 -0.00404,-66.72245 0.043247,-75.997359 0.3943657,-77.345393 1.2590191,-4.833701 4.9427847,-8.573278 9.6899794,-9.83679 2.053085,-0.546449 37.778246,-0.560146 39.824654,-0.01527 2.871024,0.764439 3.183407,1.007957 13.222592,10.307649 3.41023,3.15903 5.104333,4.388503 7.266727,5.273732 l 1.431459,0.586002 41.804167,0.132292 41.80416,0.132291 0.076,2.283959 c 0.0418,1.256177 -0.0927,4.061987 -0.29891,6.235133 -0.37924,3.996785 -0.27293,6.043415 0.37773,7.272165 0.75064,1.41754 1.70314,2.36138 3.0462,3.01847 2.85215,1.39543 6.32465,0.4834 8.44487,-2.21797 1.76575,-2.24975 4.39911,-9.604367 5.24003,-14.63467 l 0.32716,-1.957087 2.74787,-0.07588 c 4.71853,-0.130302 7.52695,0.866289 10.12914,3.594412 2.94532,3.087859 3.37971,4.730025 3.37971,12.776535 0,4.4915 0.083,6.05866 0.33073,6.24128 0.1819,0.13412 0.92604,0.39383 1.65365,0.57714 2.94204,0.74119 6.6149,3.52307 8.18205,6.19721 0.37346,0.63727 0.94549,1.86353 1.27118,2.72503 0.55648,1.47196 0.58887,1.92513 0.53757,7.51948 -0.03,3.27422 -0.23351,10.65609 -0.4522,16.40417 -0.35339,9.28883 -0.58457,16.4408 -1.07759,33.33749 -0.0785,2.69214 -0.2588,8.10948 -0.40055,12.03855 -0.45947,12.73566 -1.03386,29.16899 -1.3249,37.90572 -0.19402,5.82392 -0.4082,9.01229 -0.67396,10.03261 -1.28092,4.91776 -5.66182,9.0818 -10.63869,10.11205 -1.00169,0.20735 -26.08682,0.28527 -87.84166,0.27283 -73.437298,-0.0148 -86.647545,-0.0734 -87.822155,-0.3898 z m 128.467605,-8.90124 c 0.73291,-0.36422 1.5402,-1.05484 1.9872,-1.69998 0.68013,-0.98161 0.78737,-1.45027 1.11051,-4.85274 0.42998,-4.5276 0.55161,-5.1343 1.13173,-5.64517 0.24642,-0.217 1.69818,-0.83977 3.22615,-1.38394 1.52797,-0.54417 3.69822,-1.45053 4.82277,-2.01414 1.12456,-0.56361 2.32709,-1.02475 2.67228,-1.02475 0.6778,0 1.7096,0.68262 5.20495,3.44349 3.44229,2.71896 4.51519,3.09876 6.42464,2.27432 0.46827,-0.20218 3.13376,-2.67272 5.92332,-5.4901 6.75006,-6.81738 6.75168,-6.82636 2.20686,-12.26625 -2.80608,-3.35871 -3.2022,-4.10661 -2.64643,-4.99653 1.06959,-1.71269 2.96273,-5.75391 3.57959,-7.64125 1.06093,-3.24598 1.14485,-3.30235 5.57797,-3.74718 5.06243,-0.50797 6.51589,-1.17691 7.51527,-3.45879 0.40799,-0.93156 0.45599,-1.86757 0.40069,-7.81446 -0.0667,-7.17031 -0.0995,-7.3727 -1.43143,-8.81176 -1.13726,-1.22878 -1.89795,-1.46272 -6.13944,-1.88807 -2.46174,-0.24688 -4.275,-0.55646 -4.63294,-0.79099 -0.38809,-0.25429 -0.8301,-1.13132 -1.29955,-2.57858 -0.39128,-1.20627 -1.43097,-3.65786 -2.31042,-5.44798 -1.85394,-3.7737 -1.8882,-3.41643 0.62454,-6.51237 3.88533,-4.7871 4.27981,-5.58253 3.67594,-7.41227 -0.21769,-0.65961 -1.83172,-2.47601 -5.38402,-6.05907 -2.79022,-2.81439 -5.3332,-5.25574 -5.65105,-5.42523 -0.81062,-0.43226 -2.60992,-0.38353 -3.5368,0.0958 -0.42963,0.22218 -2.17989,1.53642 -3.88947,2.92055 -1.70957,1.38414 -3.37037,2.58302 -3.69066,2.6642 -0.38214,0.0968 -1.51923,-0.30202 -3.3073,-1.1601 -1.49871,-0.71922 -3.8721,-1.68842 -5.27418,-2.15377 -1.40209,-0.46535 -2.73743,-1.05403 -2.96742,-1.30817 -0.42186,-0.46614 -0.95765,-4.01638 -0.96493,-6.39374 -0.005,-1.79627 -0.46472,-3.10137 -1.49097,-4.2373 -1.44408,-1.59842 -2.06623,-1.71582 -9.09306,-1.71582 -5.78745,0 -6.30208,0.039 -7.43703,0.56387 -0.67063,0.31013 -1.54531,0.99126 -1.94373,1.51362 -0.76451,1.00231 -0.93226,1.87198 -1.43289,7.42832 -0.1755,1.94778 -0.3505,2.70989 -0.67713,2.94873 -0.24225,0.17714 -1.71476,0.76007 -3.27224,1.2954 -1.55747,0.53533 -3.88165,1.50036 -5.16483,2.1445 -1.28319,0.64415 -2.55001,1.17118 -2.81517,1.17118 -0.54234,0 -3.05077,-1.77417 -5.4351,-3.84416 -0.87313,-0.75802 -1.96854,-1.5724 -2.43426,-1.80974 -0.99107,-0.50506 -2.61792,-0.54848 -3.42444,-0.0914 -0.31188,0.17675 -2.950363,2.64307 -5.863311,5.48073 -7.018019,6.83662 -7.005067,6.76991 -2.414446,12.43542 1.473901,1.81901 2.742676,3.46251 2.8195,3.65222 0.07682,0.18972 -0.535643,1.678 -1.361039,3.30729 -0.825397,1.6293 -1.899471,4.09336 -2.386831,5.4757 -0.574294,1.6289 -1.105513,2.67688 -1.509601,2.97809 -0.446924,0.33315 -1.685608,0.57645 -4.374052,0.85915 -4.271905,0.44919 -4.911657,0.63613 -6.100182,1.78251 -1.362793,1.31446 -1.473228,2.02347 -1.472957,9.45653 2.71e-4,7.42535 0.05721,7.73865 1.650186,9.07904 1.103083,0.92819 1.9959,1.1675 6.10164,1.63549 2.476391,0.28226 3.761929,0.54853 4.191553,0.86816 0.394446,0.29346 0.97401,1.42269 1.59455,3.10686 0.53618,1.4552 1.596778,3.80962 2.356885,5.23203 0.760107,1.42241 1.382012,2.77325 1.382012,3.00186 0,0.54251 -0.713898,1.54326 -3.259595,4.56936 -2.742005,3.25945 -3.358879,4.83346 -2.532761,6.46258 0.490408,0.96708 10.363039,10.53665 11.273959,10.92788 1.91667,0.82318 2.71194,0.49545 6.8828,-2.83636 3.10948,-2.48394 3.73753,-2.8834 4.53346,-2.8834 0.29066,0 1.61103,0.52689 2.93414,1.17086 1.32311,0.64397 3.71381,1.60676 5.31266,2.13952 1.88075,0.62669 3.00138,1.14498 3.17432,1.46814 0.14703,0.27471 0.43002,2.31826 0.62887,4.54121 0.19885,2.22295 0.45381,4.27985 0.56657,4.5709 0.72228,1.86425 2.43156,3.00074 5.0137,3.33358 0.87313,0.11254 3.76968,0.16082 6.4368,0.10728 4.42979,-0.0889 4.95608,-0.1504 6.08365,-0.71077 z m -12.65274,-28.90644 c -9.03938,-1.89297 -16.84259,-8.30311 -20.26332,-16.64581 -2.92664,-7.13765 -2.46772,-16.5109 1.13547,-23.19138 3.56107,-6.60242 9.53239,-11.43545 16.87889,-13.66135 2.19262,-0.66433 2.74803,-0.72245 7.01146,-0.73371 3.91963,-0.0104 4.95504,0.0746 6.74687,0.55348 7.36675,1.96887 12.66769,5.79071 16.73314,12.06415 4.70113,7.25434 5.49826,17.17967 2.03923,25.39103 -1.01624,2.41243 -3.29751,5.93083 -5.1833,7.99419 -3.04208,3.32852 -8.18132,6.44281 -12.73963,7.71999 -2.02715,0.56798 -3.12655,0.6985 -6.53798,0.77618 -2.77895,0.0633 -4.65546,-0.0227 -5.82083,-0.26677 z M 5.9246523,121.61754 c 1.1450865,-2.38073 3.9535807,-5.18274 6.1829497,-6.16868 3.390054,-1.49924 -2.7998617,-1.40529 92.865838,-1.40953 l 88.17239,-0.004 v -5.78472 c 0,-6.41715 -0.18533,-7.8746 -1.30578,-10.268948 -1.99523,-4.263712 -5.9761,-6.427742 -11.8356,-6.433917 -2.39053,-0.0025 -2.73362,0.131368 -2.73362,1.066761 0,1.839096 -2.69348,10.717884 -4.0775,13.441044 -1.65425,3.25487 -4.23733,5.0621 -7.24194,5.06678 -2.80327,0.004 -4.72976,-1.2059 -6.05818,-3.80588 -0.81674,-1.59852 -0.88197,-3.13645 -0.38835,-9.156121 0.1969,-2.401094 0.31596,-4.841875 0.26459,-5.423958 l -0.0934,-1.058333 -41.80417,-0.132292 C 76.362182,91.414476 76.058391,91.40969 74.744793,90.86632 72.094146,89.769879 70.911861,88.84164 64.822919,83.07643 58.246454,76.849618 56.806814,75.821035 53.763542,75.174812 52.798713,74.969936 46.733983,74.881843 34.316668,74.892339 18.142817,74.90601 16.091339,74.95472 14.530607,75.36214 9.9097557,76.568387 6.0668522,80.644053 5.0591327,85.407297 4.7750421,86.750123 4.5986786,123.56042 4.8763355,123.56042 c 0.062607,0 0.5343492,-0.8743 1.0483168,-1.94288 z"
         id="path3" /><path
         style="fill:#ba8520"
         d="m 131.10104,242.38462 c -2.58214,-0.33284 -4.29142,-1.46933 -5.0137,-3.33358 -0.11276,-0.29105 -0.36772,-2.34795 -0.56657,-4.5709 -0.19885,-2.22295 -0.48184,-4.2665 -0.62887,-4.54121 -0.17294,-0.32316 -1.29357,-0.84145 -3.17432,-1.46814 -1.59885,-0.53276 -3.98955,-1.49555 -5.31266,-2.13952 -1.32311,-0.64397 -2.64348,-1.17086 -2.93414,-1.17086 -0.79593,0 -1.42398,0.39946 -4.53346,2.8834 -4.17086,3.33181 -4.96613,3.65954 -6.8828,2.83636 -0.91092,-0.39123 -10.783551,-9.9608 -11.273959,-10.92788 -0.826118,-1.62912 -0.209244,-3.20313 2.532761,-6.46258 2.545697,-3.0261 3.259595,-4.02685 3.259595,-4.56936 0,-0.22861 -0.621905,-1.57945 -1.382012,-3.00186 -0.760107,-1.42241 -1.820705,-3.77683 -2.356885,-5.23203 -0.62054,-1.68417 -1.200104,-2.8134 -1.59455,-3.10686 -0.429624,-0.31963 -1.715162,-0.5859 -4.191553,-0.86816 -4.10574,-0.46799 -4.998557,-0.7073 -6.10164,-1.63549 -1.592971,-1.34039 -1.649915,-1.65369 -1.650186,-9.07904 -2.71e-4,-7.43306 0.110164,-8.14207 1.472957,-9.45653 1.188525,-1.14638 1.828277,-1.33332 6.100182,-1.78251 2.688444,-0.2827 3.927128,-0.526 4.374052,-0.85915 0.404088,-0.30121 0.935307,-1.34919 1.509601,-2.97809 0.48736,-1.38234 1.561434,-3.8464 2.386831,-5.4757 0.825396,-1.62929 1.437864,-3.11757 1.361039,-3.30729 -0.07682,-0.18971 -1.345599,-1.83321 -2.8195,-3.65222 -4.590621,-5.66551 -4.603573,-5.5988 2.414446,-12.43542 2.912948,-2.83766 5.551431,-5.30398 5.863311,-5.48073 0.80652,-0.45707 2.43337,-0.41365 3.42444,0.0914 0.46572,0.23734 1.56113,1.05172 2.43426,1.80974 2.38433,2.06999 4.89276,3.84416 5.4351,3.84416 0.26516,0 1.53198,-0.52703 2.81517,-1.17118 1.28318,-0.64414 3.60736,-1.60917 5.16483,-2.1445 1.55748,-0.53533 3.02999,-1.11826 3.27224,-1.2954 0.32663,-0.23884 0.50163,-1.00095 0.67713,-2.94873 0.50063,-5.55634 0.66838,-6.42601 1.43289,-7.42832 0.39842,-0.52236 1.2731,-1.20349 1.94373,-1.51362 1.13495,-0.52485 1.64958,-0.56387 7.43703,-0.56387 7.02683,0 7.64898,0.1174 9.09306,1.71582 1.02625,1.13593 1.48547,2.44103 1.49097,4.2373 0.007,2.37736 0.54307,5.9276 0.96493,6.39374 0.22999,0.25414 1.56533,0.84282 2.96742,1.30817 1.40208,0.46535 3.77547,1.43455 5.27418,2.15377 1.78807,0.85808 2.92516,1.25694 3.3073,1.1601 0.32029,-0.0812 1.98109,-1.28006 3.69066,-2.6642 1.70958,-1.38413 3.45984,-2.69837 3.88947,-2.92055 0.92688,-0.4793 2.72618,-0.52803 3.5368,-0.0958 0.31785,0.16949 2.86083,2.61084 5.65105,5.42523 3.5523,3.58306 5.16633,5.39946 5.38402,6.05907 0.60387,1.82974 0.20939,2.62517 -3.67594,7.41227 -2.51274,3.09594 -2.47848,2.73867 -0.62454,6.51237 0.87945,1.79012 1.91914,4.24171 2.31042,5.44798 0.46945,1.44726 0.91146,2.32429 1.29955,2.57858 0.35794,0.23453 2.1712,0.54411 4.63294,0.79099 4.24149,0.42535 5.00218,0.65929 6.13944,1.88807 1.33189,1.43906 1.36477,1.64145 1.43143,8.81176 0.0553,5.94689 0.007,6.8829 -0.40069,7.81446 -0.99938,2.28188 -2.45284,2.95082 -7.51527,3.45879 -4.43312,0.44483 -4.51704,0.5012 -5.57797,3.74718 -0.61686,1.88734 -2.51,5.92856 -3.57959,7.64125 -0.55577,0.88992 -0.15965,1.63782 2.64643,4.99653 4.54482,5.43989 4.5432,5.44887 -2.20686,12.26625 -2.78956,2.81738 -5.45505,5.28792 -5.92332,5.4901 -1.90945,0.82444 -2.98235,0.44464 -6.42464,-2.27432 -3.49535,-2.76087 -4.52715,-3.44349 -5.20495,-3.44349 -0.34519,0 -1.54772,0.46114 -2.67228,1.02475 -1.12455,0.56361 -3.2948,1.46997 -4.82277,2.01414 -1.52797,0.54417 -2.97973,1.16694 -3.22615,1.38394 -0.58012,0.51087 -0.70175,1.11757 -1.13173,5.64517 -0.32314,3.40247 -0.43038,3.87113 -1.11051,4.85274 -0.447,0.64514 -1.25429,1.33576 -1.9872,1.69998 -1.12757,0.56037 -1.65386,0.62185 -6.08365,0.71077 -2.66712,0.0535 -5.56367,0.005 -6.4368,-0.10728 z m 9.66308,-0.26409 c 2.64741,-0.27837 3.80884,-0.86019 4.67815,-2.34355 0.5955,-1.01616 0.74719,-1.73437 1.04045,-4.92651 0.18882,-2.05531 0.3473,-3.87663 0.35217,-4.04736 0.0258,-0.9032 1.40672,-1.89814 3.77295,-2.71834 1.34949,-0.46776 3.57089,-1.37663 4.93644,-2.01971 1.36555,-0.64308 2.73477,-1.16879 3.04271,-1.16824 0.75537,0.001 1.66657,0.5879 4.82785,3.10783 3.80744,3.035 4.73546,3.41328 6.6179,2.69758 0.40362,-0.15345 3.02173,-2.57492 5.81801,-5.38104 4.26308,-4.27805 5.11387,-5.26036 5.26808,-6.0824 0.28814,-1.53588 -0.41726,-2.89119 -3.32134,-6.3815 -1.7284,-2.0773 -2.64201,-3.3947 -2.64253,-3.81046 -4.4e-4,-0.3495 0.51595,-1.54013 1.14752,-2.64583 1.17037,-2.04899 2.39606,-4.86623 3.21002,-7.3782 0.25534,-0.78803 0.70969,-1.56704 1.04028,-1.78365 0.34598,-0.2267 2.15049,-0.54958 4.3955,-0.78651 4.45775,-0.47043 5.74566,-0.95949 6.82594,-2.59198 l 0.71015,-1.07315 0.0102,-6.23699 c 0.0114,-7.01871 -0.15487,-8.41024 -1.14587,-9.58797 -1.00889,-1.199 -2.00283,-1.50709 -6.23418,-1.9324 -2.08936,-0.21001 -4.11052,-0.52385 -4.49147,-0.69742 -0.46076,-0.20994 -0.84028,-0.72315 -1.13368,-1.53301 -1.31588,-3.63225 -2.38768,-6.18164 -3.30637,-7.86459 -0.56584,-1.03656 -1.0288,-2.11707 -1.0288,-2.40113 0,-0.28407 1.14253,-1.93628 2.53895,-3.6716 2.63442,-3.27377 3.54647,-4.73105 3.54647,-5.66661 0,-1.25431 -0.98376,-2.50121 -5.78368,-7.33077 -5.3672,-5.40035 -5.73802,-5.65121 -7.78565,-5.26707 -0.99557,0.18677 -1.50043,0.5288 -5.21998,3.53641 -1.48649,1.20196 -2.99537,2.25885 -3.35306,2.34862 -0.47054,0.1181 -1.50462,-0.24275 -3.73993,-1.30507 -1.69927,-0.80757 -4.13948,-1.79172 -5.42269,-2.18699 -1.64721,-0.5074 -2.45145,-0.89929 -2.73564,-1.33302 -0.24085,-0.36757 -0.50594,-1.76093 -0.66,-3.46893 -0.1416,-1.57003 -0.31737,-3.47366 -0.39058,-4.23031 -0.16697,-1.7256 -0.95546,-2.92382 -2.48986,-3.78366 -1.16778,-0.65439 -1.24821,-0.66146 -7.53039,-0.66146 -6.24416,0 -6.37205,0.011 -7.67291,0.66146 -1.9269,0.96345 -2.41672,2.10863 -2.7726,6.48229 -0.44711,5.49501 -0.30025,5.24366 -3.70969,6.34908 -1.23693,0.40104 -3.60583,1.36898 -5.26422,2.15098 -1.65839,0.782 -3.25491,1.42182 -3.54783,1.42182 -0.55598,0 -2.46863,-1.3344 -4.94629,-3.45087 -2.44836,-2.09145 -3.4019,-2.63551 -4.60098,-2.62517 -0.59816,0.005 -1.34039,0.15398 -1.64942,0.33072 -1.04696,0.59881 -10.336105,9.84032 -10.80472,10.74931 -0.598761,1.16145 -0.414268,2.64735 0.489827,3.94503 0.372782,0.53507 1.692632,2.20103 2.933,3.70213 1.240367,1.50111 2.255213,2.88943 2.255213,3.08517 0,0.19573 -0.700847,1.76553 -1.557437,3.48842 -0.856591,1.7229 -1.948152,4.24423 -2.425691,5.60296 -0.537723,1.52997 -1.077962,2.60696 -1.419125,2.82909 -0.302979,0.19727 -2.328807,0.55278 -4.501839,0.79002 -2.651883,0.28953 -4.275721,0.59704 -4.938656,0.93524 -1.012492,0.51654 -1.882585,1.52445 -2.20049,2.54904 -0.09863,0.31789 -0.192767,3.65164 -0.209191,7.40834 -0.02495,5.70763 0.03786,6.96093 0.382113,7.62473 0.966313,1.86326 2.155274,2.34928 7.070676,2.89033 2.173308,0.23922 4.060047,0.58207 4.388867,0.79752 0.372659,0.24418 0.92732,1.34377 1.567348,3.10722 0.544819,1.50112 1.649215,3.99394 2.454213,5.5396 1.056192,2.02797 1.41936,2.98547 1.304591,3.43958 -0.08747,0.34611 -1.244812,1.93258 -2.571866,3.52549 -3.436911,4.12545 -3.918105,5.25483 -3.032739,7.11798 0.451136,0.94937 9.781006,10.04604 10.904756,10.6322 1.68929,0.88115 2.78262,0.45186 6.45666,-2.53518 2.98842,-2.42963 4.12321,-3.1599 4.91234,-3.16125 0.31747,-5.5e-4 1.68669,0.53983 3.0427,1.20084 1.35601,0.661 3.62346,1.56232 5.03877,2.00293 1.41532,0.44061 2.82018,1.00112 3.12192,1.24557 0.6946,0.56273 0.98105,1.84195 1.19517,5.33723 0.21035,3.43393 0.47252,4.51272 1.35018,5.55574 0.96397,1.14562 2.07239,1.65398 4.06256,1.86324 2.43147,0.25566 7.18595,0.26472 9.53079,0.0182 z m -9.00162,-28.78504 c -6.74079,-1.13312 -13.69095,-5.4462 -18.0074,-11.17487 -6.07544,-8.06318 -6.99153,-20.01851 -2.22636,-29.05519 2.82329,-5.3541 7.20779,-9.5854 12.69313,-12.24962 3.5008,-1.70032 6.33138,-2.40288 10.3563,-2.57046 7.98399,-0.33242 14.81068,2.17632 20.48298,7.52729 7.41333,6.99335 10.27732,17.26308 7.6595,27.46548 -2.43804,9.50175 -11.16899,17.70584 -21.00268,19.7353 -2.26937,0.46835 -7.98525,0.65327 -9.95547,0.32207 z m 11.56506,-0.97021 c 3.095,-0.86718 6.55277,-2.60136 9.27139,-4.64991 7.59174,-5.72055 11.68522,-15.20643 10.64429,-24.66619 -0.64837,-5.89226 -2.6464,-10.52676 -6.56431,-15.22618 -2.44978,-2.93844 -6.97787,-6.13935 -10.62893,-7.51363 -3.72482,-1.40203 -5.44435,-1.67981 -10.31875,-1.66693 -4.26343,0.0113 -4.81884,0.0694 -7.01146,0.73371 -7.3465,2.2259 -13.31782,7.05893 -16.87889,13.66135 -3.60319,6.68048 -4.06211,16.05373 -1.13547,23.19138 3.42073,8.3427 11.22394,14.75284 20.26332,16.64581 1.16537,0.24405 3.04188,0.33005 5.82083,0.26677 3.41143,-0.0777 4.51083,-0.2082 6.53798,-0.77618 z M 4.7625051,105.1849 c 0,-12.563594 0.093819,-18.818978 0.2966276,-19.777603 1.0077195,-4.763244 4.850623,-8.83891 9.4714743,-10.045157 1.560732,-0.40742 3.61221,-0.45613 19.786061,-0.469801 12.417315,-0.0105 18.482045,0.0776 19.446874,0.282473 3.043272,0.646223 4.482912,1.674806 11.059377,7.901618 6.088942,5.76521 7.271227,6.693449 9.921874,7.78989 1.313598,0.54337 1.617389,0.548156 43.127077,0.679516 l 41.80417,0.132292 0.0934,1.058333 c 0.0514,0.582083 -0.0677,3.022864 -0.26459,5.423958 -0.49362,6.019671 -0.42839,7.557601 0.38835,9.156121 1.32842,2.59998 3.25491,3.81024 6.05818,3.80588 3.00461,-0.005 5.58769,-1.81191 7.24194,-5.06678 1.38402,-2.72316 4.0775,-11.601948 4.0775,-13.441044 0,-0.935393 0.34309,-1.069281 2.73362,-1.066761 4.35088,0.0046 7.80598,1.256771 9.98223,3.617719 1.28603,1.395172 2.51224,3.889291 2.88909,5.876396 0.14853,0.78321 0.27006,4.02715 0.27006,7.20875 v 5.78472 l -88.17239,0.004 c -95.6656997,0.004 -89.475784,-0.0897 -92.865838,1.40953 -2.229369,0.98594 -5.0378632,3.78795 -6.1829497,6.16868 -0.5139676,1.06858 -0.9857101,1.94288 -1.0483168,1.94288 -0.062607,0 -0.1138304,-8.26899 -0.1138304,-18.37552 z"
         id="path2" /><path
         style="fill:#2c9a6d"
         d="m 131.23333,242.10237 c -1.99017,-0.20926 -3.09859,-0.71762 -4.06256,-1.86324 -0.87766,-1.04302 -1.13983,-2.12181 -1.35018,-5.55574 -0.21412,-3.49528 -0.50057,-4.7745 -1.19517,-5.33723 -0.30174,-0.24445 -1.7066,-0.80496 -3.12192,-1.24557 -1.41531,-0.44061 -3.68276,-1.34193 -5.03877,-2.00293 -1.35601,-0.66101 -2.72523,-1.20139 -3.0427,-1.20084 -0.78913,0.001 -1.92392,0.73162 -4.91234,3.16125 -3.67404,2.98704 -4.76737,3.41633 -6.45666,2.53518 -1.12375,-0.58616 -10.45362,-9.68283 -10.904756,-10.6322 -0.885366,-1.86315 -0.404172,-2.99253 3.032739,-7.11798 1.327054,-1.59291 2.484394,-3.17938 2.571866,-3.52549 0.114769,-0.45411 -0.248399,-1.41161 -1.304591,-3.43958 -0.804998,-1.54566 -1.909394,-4.03848 -2.454213,-5.5396 -0.640028,-1.76345 -1.194689,-2.86304 -1.567348,-3.10722 -0.32882,-0.21545 -2.215559,-0.5583 -4.388867,-0.79752 -4.915402,-0.54105 -6.104363,-1.02707 -7.070676,-2.89033 -0.344257,-0.6638 -0.407066,-1.9171 -0.382113,-7.62473 0.01642,-3.7567 0.11056,-7.09045 0.209191,-7.40834 0.317905,-1.02459 1.187998,-2.0325 2.20049,-2.54904 0.662935,-0.3382 2.286773,-0.64571 4.938656,-0.93524 2.173032,-0.23724 4.19886,-0.59275 4.501839,-0.79002 0.341163,-0.22213 0.881402,-1.29912 1.419125,-2.82909 0.477539,-1.35873 1.5691,-3.88006 2.425691,-5.60296 0.85659,-1.72289 1.557437,-3.29269 1.557437,-3.48842 0,-0.19574 -1.014846,-1.58406 -2.255213,-3.08517 -1.240368,-1.5011 -2.560218,-3.16706 -2.933,-3.70213 -0.904095,-1.29768 -1.088588,-2.78358 -0.489827,-3.94503 0.468615,-0.90899 9.75776,-10.1505 10.80472,-10.74931 0.30903,-0.17674 1.05126,-0.32557 1.64942,-0.33072 1.19908,-0.0103 2.15262,0.53372 4.60098,2.62517 2.47766,2.11647 4.39031,3.45087 4.94629,3.45087 0.29292,0 1.88944,-0.63982 3.54783,-1.42182 1.65839,-0.782 4.02729,-1.74994 5.26422,-2.15098 3.40944,-1.10542 3.26258,-0.85407 3.70969,-6.34908 0.35588,-4.37366 0.8457,-5.51884 2.7726,-6.48229 1.30086,-0.65043 1.42875,-0.66146 7.67291,-0.66146 6.28218,0 6.36261,0.007 7.53039,0.66146 1.5344,0.85984 2.32289,2.05806 2.48986,3.78366 0.0732,0.75665 0.24898,2.66028 0.39058,4.23031 0.15406,1.708 0.41915,3.10136 0.66,3.46893 0.28419,0.43373 1.08843,0.82562 2.73564,1.33302 1.28321,0.39527 3.72342,1.37942 5.42269,2.18699 2.23531,1.06232 3.26939,1.42317 3.73993,1.30507 0.35769,-0.0898 1.86657,-1.14666 3.35306,-2.34862 3.71955,-3.00761 4.22441,-3.34964 5.21998,-3.53641 2.04763,-0.38414 2.41845,-0.13328 7.78565,5.26707 4.79992,4.82956 5.78368,6.07646 5.78368,7.33077 0,0.93556 -0.91205,2.39284 -3.54647,5.66661 -1.39642,1.73532 -2.53895,3.38753 -2.53895,3.6716 0,0.28406 0.46296,1.36457 1.0288,2.40113 0.91869,1.68295 1.99049,4.23234 3.30637,7.86459 0.2934,0.80986 0.67292,1.32307 1.13368,1.53301 0.38095,0.17357 2.40211,0.48741 4.49147,0.69742 4.23135,0.42531 5.22529,0.7334 6.23418,1.9324 0.991,1.17773 1.15731,2.56926 1.14587,9.58797 l -0.0102,6.23699 -0.71015,1.07315 c -1.08028,1.63249 -2.36819,2.12155 -6.82594,2.59198 -2.24501,0.23693 -4.04952,0.55981 -4.3955,0.78651 -0.33059,0.21661 -0.78494,0.99562 -1.04028,1.78365 -0.81396,2.51197 -2.03965,5.32921 -3.21002,7.3782 -0.63157,1.1057 -1.14796,2.29633 -1.14752,2.64583 5.2e-4,0.41576 0.91413,1.73316 2.64253,3.81046 2.90408,3.49031 3.60948,4.84562 3.32134,6.3815 -0.15421,0.82204 -1.005,1.80435 -5.26808,6.0824 -2.79628,2.80612 -5.41439,5.22759 -5.81801,5.38104 -1.88244,0.7157 -2.81046,0.33742 -6.6179,-2.69758 -3.16128,-2.51993 -4.07248,-3.1065 -4.82785,-3.10783 -0.30794,-5.5e-4 -1.67716,0.52516 -3.04271,1.16824 -1.36555,0.64308 -3.58695,1.55195 -4.93644,2.01971 -2.36623,0.8202 -3.74718,1.81514 -3.77295,2.71834 -0.005,0.17073 -0.16335,1.99205 -0.35217,4.04736 -0.40016,4.35569 -0.98159,5.75734 -2.73301,6.58844 -1.71159,0.8122 -7.9545,1.14312 -12.51638,0.66346 z m 10.48464,-29.08895 c 8.19812,-1.69191 15.52225,-7.46866 19.29022,-15.21472 3.75141,-7.71202 3.52339,-17.48147 -0.58409,-25.02578 -4.19968,-7.71366 -11.80671,-13.03826 -20.42823,-14.29889 -3.04124,-0.44469 -8.04336,-0.20519 -10.8792,0.52089 -8.83122,2.26112 -16.68891,9.71966 -19.39994,18.41446 -2.06746,6.63072 -1.47318,14.5901 1.54039,20.63124 3.90585,7.82984 11.99635,13.86451 20.50538,15.29487 1.97022,0.3312 7.6861,0.14628 9.95547,-0.32207 z m 23.76645,-108.61716 c -0.28218,-0.43067 -0.39582,-0.98832 -0.31331,-1.53757 0.0712,-0.474 0.33412,-2.11197 0.58428,-3.639938 0.5845,-3.570095 0.42296,-9.224141 -0.38003,-13.301279 -2.31318,-11.745145 -9.73742,-22.699946 -19.72224,-29.101058 -4.39171,-2.815461 -10.22951,-5.108646 -14.94895,-5.872202 -3.19001,-0.516108 -8.94316,-0.522488 -12.08204,-0.0134 -4.84731,0.786177 -10.04852,2.998833 -14.45661,6.150013 -2.76733,1.978257 -7.415344,6.452959 -7.290026,7.018197 0.05186,0.233929 2.32672,2.750835 5.055236,5.593125 5.19511,5.41174 5.34412,5.641967 4.64484,7.176706 -0.67041,1.471402 -0.37361,1.447815 -18.218055,1.447815 H 71.913752 L 71.014168,77.417087 70.114585,76.517503 V 60.500979 c 0,-9.764405 0.100707,-16.281405 0.257988,-16.695086 0.394738,-1.038238 1.784257,-1.790248 3.026736,-1.638074 0.918611,0.112507 1.480726,0.570465 4.969646,4.048792 l 3.93388,3.921935 2.438687,-2.527367 c 4.212323,-4.3655 8.116628,-7.240087 13.526199,-9.958811 12.033599,-6.047807 27.856759,-6.69366 40.542169,-1.654808 12.03041,4.778675 21.78067,13.756441 27.85743,25.650361 6.11604,11.970776 6.99674,26.119747 2.40501,38.637839 -0.45197,1.23215 -1.08415,2.77606 -1.40486,3.43091 -0.7066,1.4428 -1.51756,1.69525 -2.18305,0.67959 z"
         id="path1" /></g></g></svg>

