<?xml version="1.0" encoding="UTF-8" standalone="no"?>
<!-- Created with Inkscape (http://www.inkscape.org/) -->

<svg
   width="1024"
   height="1024"
   viewBox="0 0 270.93333 270.93333"
   version="1.1"
   id="svg1"
   xml:space="preserve"
   inkscape:version="1.4.3 (0d15f75042, 2025-12-25)"
   sodipodi:docname="ts.svg"
   xmlns:inkscape="http://www.inkscape.org/namespaces/inkscape"
   xmlns:sodipodi="http://sodipodi.sourceforge.net/DTD/sodipodi-0.dtd"
   xmlns="http://www.w3.org/2000/svg"
   xmlns:svg="http://www.w3.org/2000/svg"><sodipodi:namedview
     id="namedview1"
     pagecolor="#ffffff"
     bordercolor="#000000"
     borderopacity="0.25"
     inkscape:showpageshadow="2"
     inkscape:pageopacity="0.0"
     inkscape:pagecheckerboard="0"
     inkscape:deskcolor="#d1d1d1"
     inkscape:document-units="px"
     inkscape:zoom="0.75098906"
     inkscape:cx="397.47583"
     inkscape:cy="561.25984"
     inkscape:window-width="2560"
     inkscape:window-height="1012"
     inkscape:window-x="1920"
     inkscape:window-y="0"
     inkscape:window-maximized="1"
     inkscape:current-layer="layer1" /><defs
     id="defs1" /><g
     inkscape:label="Camada 1"
     inkscape:groupmode="layer"
     id="layer1"><g
       id="g1"
       transform="matrix(2.2122752,0,0,2.2122752,-97.751979,-191.98009)"><path
         style="fill:#f1ba25"
         d="m 106.18295,189.18728 c -0.46255,-0.11012 -1.2509,-0.44207 -1.75189,-0.73766 -0.50099,-0.29559 -1.40543,-0.62099 -2.00985,-0.72311 -1.42459,-0.24068 -3.381024,-1.56836 -4.346496,-2.94962 -1.008075,-1.44221 -1.24683,-3.87274 -0.584325,-5.94843 0.432078,-1.35374 1.205138,-2.16962 15.389471,-16.242 8.214,-8.14917 14.9299,-14.93614 14.92422,-15.08215 -0.006,-0.14602 -6.56636,-6.81352 -14.57929,-14.81667 -8.01293,-8.00315 -14.867049,-15.05158 -15.231374,-15.66318 -0.833922,-1.39993 -1.087025,-3.5923 -0.611558,-5.29728 0.251017,-0.90012 0.737169,-1.64842 1.689953,-2.6012 1.578929,-1.57893 3.095299,-2.12177 5.293319,-1.89491 3.14115,0.32419 2.51919,-0.2262 22.56292,19.96695 10.21964,10.29583 18.89912,19.16832 19.28773,19.71666 0.44431,0.62693 0.75179,1.46766 0.82842,2.26511 0.25898,2.69528 0.62087,2.27814 -18.7981,21.66778 -17.21617,17.19017 -17.82833,17.76905 -19.21964,18.1749 -1.56394,0.4562 -1.60867,0.45879 -2.84351,0.16481 z M 66.555082,122.20039 c -4.009175,-4.08639 -4.907163,-5.53301 -4.907163,-7.90521 0,-3.03547 1.292399,-5.19699 3.858669,-6.45357 1.319375,-0.64603 1.754796,-0.73198 3.143675,-0.62049 0.886698,0.0712 2.102105,0.37935 2.700905,0.68484 0.916804,0.46772 8.002136,7.51957 8.223988,8.18513 0.08609,0.25826 -8.342702,9.00635 -9.034187,9.37642 -0.445469,0.23841 -0.961914,-0.18491 -3.985887,-3.26712 z"
         id="path4" /><path
         style="fill:#44ae91"
         d="m 61.291738,207.79777 c -2.714214,-0.58575 -4.483152,-1.32685 -6.689623,-2.80263 -5.292285,-3.53969 -8.576051,-8.02362 -9.890115,-13.50478 -0.509153,-2.12376 -0.522922,-3.26179 -0.524727,-43.37254 -0.002,-45.20928 -0.0815,-42.86911 1.592271,-46.88969 2.420498,-5.814297 7.143834,-10.274157 13.161875,-12.427681 l 2.309625,-0.826488 42.821626,-0.07006 c 42.21285,-0.06907 42.85371,-0.06244 45.07891,0.466039 5.93547,1.409672 12.84048,6.336002 14.98563,10.691399 1.24669,2.531201 1.69484,3.976491 2.16962,6.997031 0.34865,2.21806 0.39026,7.8653 0.31715,43.03434 l -0.0841,40.48125 -0.575,2.14672 c -1.1354,4.23892 -3.04347,7.56488 -5.86906,10.2304 -3.04608,2.87352 -5.2627,4.1774 -9.20192,5.41286 l -2.33031,0.73085 -42.73021,0.047 c -36.822823,0.0404 -42.980624,-0.007 -44.541592,-0.34397 z m 88.594722,-0.83352 c 6.21657,-1.7662 10.90802,-5.52984 13.6027,-10.91256 2.4507,-4.89535 2.2723,-1.12533 2.2723,-48.01732 v -41.27499 l -0.59674,-2.34197 c -0.73836,-2.89782 -2.52505,-6.412014 -4.36156,-8.578642 -2.44895,-2.889161 -7.15717,-5.821371 -10.9167,-6.798768 -3.54203,-0.920848 -5.88115,-0.96439 -46.83125,-0.871746 -37.093051,0.08392 -40.619783,0.129219 -42.136412,0.541241 -7.895183,2.144878 -13.468626,7.698549 -15.738751,15.682915 l -0.597752,2.10238 v 41.40729 c 0,45.89208 -0.122063,42.54516 1.70852,46.84697 2.987982,7.02165 9.785987,11.93694 17.502812,12.65537 1.220954,0.11367 20.615072,0.19644 43.098043,0.18394 l 40.87812,-0.0227 z M 66.186519,186.93437 c -1.574651,-0.70962 -2.905301,-1.97656 -3.628527,-3.45478 -0.604911,-1.23639 -0.689933,-1.69673 -0.596565,-3.23001 0.05989,-0.98347 0.315328,-2.21408 0.567646,-2.73469 0.380062,-0.78419 4.998633,-5.69253 5.915328,-6.28645 0.148821,-0.0964 0.412363,-0.61037 0.585647,-1.14211 0.241103,-0.73984 2.865732,-3.49338 11.180856,-11.73 l 10.865794,-10.76321 -5.261551,-5.33562 c -4.835471,-4.90355 -9.324106,-9.4941 -19.335013,-19.77404 -4.374937,-4.49251 -5.093585,-5.68565 -5.088403,-8.44804 0.0037,-1.99921 0.636485,-3.63763 1.924803,-4.98412 0.859727,-0.89855 2.53105,-1.90058 3.14949,-1.88824 0.187698,0.004 -0.254043,0.3047 -0.981647,0.66879 -2.510503,1.25624 -3.836458,3.4901 -3.836458,6.46333 0,2.89036 0.233077,3.17623 13.486331,16.54128 6.637966,6.69396 13.071231,13.21674 14.296146,14.49506 l 2.227118,2.32423 -11.036048,11.0384 c -6.069826,6.07111 -11.036048,11.15824 -11.036048,11.30473 0,0.43123 8.831122,9.12403 9.26922,9.12403 0.667393,0 27.094242,-26.67204 27.788012,-28.04583 0.41235,-0.81652 0.63921,-1.82578 0.72204,-3.21211 0.19627,-3.2852 0.38452,-3.04994 -14.562085,-18.19894 -7.239661,-7.33769 -13.161959,-13.46941 -13.160661,-13.62604 0.0033,-0.39854 26.200936,26.17276 26.867496,27.25073 0.2991,0.4837 1.1673,1.5387 1.92933,2.34444 1.82313,1.92768 2.40848,3.25495 2.41584,5.47786 0.005,1.41862 -0.13389,2.01501 -0.7218,3.10622 -0.51524,0.95634 -4.53367,5.2081 -13.768128,14.56758 -7.17229,7.26939 -13.274443,13.29131 -13.560341,13.38205 -0.395948,0.12567 -0.822716,-0.16443 -1.790978,-1.21746 -1.755184,-1.90884 -2.045135,-1.80516 -5.871695,2.09956 -1.705748,1.74059 -3.507738,3.32532 -4.101041,3.60658 -1.391962,0.65989 -3.710682,0.79212 -4.854108,0.27682 z m 32.483039,-1.13073 -0.641433,-0.7276 0.727604,0.64143 c 0.680056,0.59952 0.848939,0.81378 0.641433,0.81378 -0.04739,0 -0.374816,-0.32742 -0.727604,-0.72761 z m -1.759995,-4.56406 c 0,-0.65484 0.0516,-0.92273 0.114662,-0.59531 0.06306,0.32742 0.06306,0.8632 0,1.19062 -0.06306,0.32743 -0.114662,0.0595 -0.114662,-0.59531 z m 2.044604,-5.10987 c 0,-0.0455 0.386953,-0.43249 0.859896,-0.8599 l 0.859897,-0.7771 -0.777107,0.85989 c -0.724371,0.80155 -0.942686,0.98151 -0.942686,0.77711 z m 20.306773,-20.02709 c 4.54752,-4.58476 8.26823,-8.45389 8.26823,-8.59806 0,-0.14417 -6.45914,-6.75144 -14.35365,-14.68282 l -14.353645,-14.4207 14.485935,14.41888 c 7.96727,7.93039 14.48594,14.53906 14.48594,14.68595 0,0.14689 -3.78024,4.01683 -8.40052,8.59987 l -8.40052,8.3328 z m 24.67239,-0.9245 c 0.79042,-0.80036 1.49666,-1.4552 1.56942,-1.4552 0.0728,0 -0.51441,0.65484 -1.30484,1.4552 -0.79042,0.80037 -1.49666,1.45521 -1.56942,1.45521 -0.0728,0 0.51442,-0.65484 1.30484,-1.45521 z m 1.76037,-8.92968 c -0.37603,-0.47295 -8.93289,-9.16482 -19.01526,-19.31529 -19.77226,-19.90581 -19.17466,-19.37814 -22.31331,-19.70208 -1.95088,-0.20135 -3.57843,0.31034 -5.082893,1.598 l -1.254112,1.0734 0.91458,-0.9791 c 1.505165,-1.61136 2.860785,-2.11854 5.287065,-1.97809 1.63423,0.0946 2.3304,0.27324 3.35426,0.86071 0.77812,0.44647 3.75164,3.22715 7.47593,6.99111 3.40115,3.43738 11.88435,11.98337 18.85156,18.99111 10.93561,10.99922 13.12525,13.32012 12.56676,13.32012 -0.0555,0 -0.40855,-0.38695 -0.78458,-0.85989 z m -67.521773,-31.75 -1.045884,-1.12448 1.124479,1.04588 c 1.045754,0.97267 1.246062,1.20308 1.045884,1.20308 -0.04323,0 -0.549243,-0.50602 -1.124479,-1.12448 z m 18.686461,-0.88195 c 0.0127,-0.30822 0.07539,-0.37091 0.159853,-0.15985 0.07643,0.191 0.06703,0.4192 -0.02089,0.50712 -0.08792,0.0879 -0.150453,-0.0683 -0.138965,-0.34727 z"
         id="path3" /><path
         style="fill:#03a074"
         d="m 63.793627,207.41175 c -7.746458,-0.74676 -14.516308,-5.64452 -17.502812,-12.6627 -1.830583,-4.30181 -1.70852,-0.95489 -1.70852,-46.84697 v -41.40729 l 0.597752,-2.10238 c 2.270125,-7.984366 7.843568,-13.538037 15.738751,-15.682915 1.516629,-0.412022 5.043361,-0.457322 42.136412,-0.541241 40.9501,-0.09264 43.28922,-0.0491 46.83125,0.871746 3.75953,0.977397 8.46775,3.909607 10.9167,6.798768 1.78764,2.108968 3.60207,5.631052 4.34938,8.442762 l 0.58824,2.21326 0.0863,29.60813 0.0862,29.60813 -6.29362,-6.1028 c -3.4615,-3.35655 -8.43676,-8.28551 -11.05613,-10.95325 -21.28986,-21.68299 -39.84962,-40.1782 -40.97951,-40.83701 -1.61549,-0.94193 -4.73702,-1.23336 -6.28464,-0.58672 l -0.95778,0.40018 -0.1649,-1.20309 c -0.0907,-0.6617 -0.298387,-1.36394 -0.461536,-1.56052 -0.242606,-0.29232 -2.953236,-0.35695 -14.882466,-0.35484 l -14.585831,0.003 -1.375211,0.64028 c -0.756366,0.35216 -1.530273,0.89292 -1.719792,1.20169 -0.189519,0.30877 -0.880362,0.79948 -1.535205,1.09047 -2.647275,1.17637 -4.228164,3.63936 -4.228164,6.58739 0,2.76431 0.719986,3.95891 5.091629,8.44804 10.010907,10.27994 14.499542,14.87049 19.335013,19.77404 l 5.261551,5.33562 -10.865794,10.76321 c -8.315124,8.23662 -10.939753,10.99016 -11.180856,11.73 -0.173284,0.53174 -0.436826,1.04568 -0.585647,1.14211 -0.916695,0.59392 -5.535266,5.50226 -5.915328,6.28645 -0.252318,0.52061 -0.507759,1.75122 -0.567646,2.73469 -0.09361,1.53725 -0.0088,1.99259 0.604152,3.24552 1.205006,2.46294 3.742504,4.00938 6.190789,3.77287 2.041736,-0.19723 3.18832,-0.9477 6.358142,-4.16156 l 3.015551,-3.05745 -2.783936,3.0427 c -2.923538,3.19529 -4.287797,4.15711 -6.274481,4.42358 -0.618738,0.083 -1.064178,0.27583 -1.019951,0.44157 0.04318,0.16182 3.293204,3.38602 7.222267,7.16487 3.929062,3.77885 8.393906,8.13617 9.921874,9.68293 l 2.778125,2.81229 -10.980208,0.004 c -6.039114,0.002 -11.97917,-0.0919 -13.200124,-0.20957 z m 26.660125,-80.61019 c -0.329108,-0.41964 -0.319749,-0.429 0.09989,-0.0999 0.44073,0.34564 0.580888,0.56291 0.363126,0.56291 -0.05494,0 -0.263301,-0.20836 -0.46302,-0.46302 z"
         id="path2" /><path
         style="fill:#035647"
         d="m 85.224313,204.85276 c -1.543632,-1.57324 -6.021291,-5.95223 -9.950353,-9.73108 -3.929063,-3.77885 -7.182246,-7.01947 -7.229296,-7.20137 -0.05078,-0.19634 0.171963,-0.33073 0.54818,-0.33073 0.348549,0 1.220482,-0.19597 1.937629,-0.43548 1.08967,-0.36393 1.873416,-1.016 4.770165,-3.96875 2.222595,-2.26556 3.661485,-3.53327 4.010377,-3.53327 0.319053,0 1.043613,0.55556 1.751714,1.34314 0.928635,1.03287 1.32932,1.30451 1.734513,1.17591 0.289802,-0.092 6.39515,-6.11492 13.56744,-13.38431 9.234458,-9.35948 13.252888,-13.61124 13.768128,-14.56758 0.58791,-1.09121 0.72649,-1.6876 0.7218,-3.10622 -0.007,-2.22291 -0.59271,-3.55018 -2.41584,-5.47786 -0.76203,-0.80574 -1.63023,-1.86608 -1.92933,-2.35631 -0.91494,-1.49962 -34.17111,-34.95253 -35.272877,-35.48155 -0.544327,-0.26136 -1.796413,-0.54228 -2.782412,-0.62427 l -1.792725,-0.14907 0.438495,-0.62362 c 0.241172,-0.34299 1.047899,-0.90738 1.792725,-1.25419 l 1.354231,-0.63056 14.585831,-0.003 c 11.92923,-0.002 14.63986,0.0625 14.882466,0.35484 0.163149,0.19658 0.370756,0.89822 0.461356,1.5592 0.15793,1.15221 0.12038,1.24185 -0.910235,2.17294 -1.5252,1.37793 -2.230357,2.97094 -2.230357,5.03856 0,3.06789 -0.224533,2.79977 15.848812,18.92526 8.05443,8.08055 14.64442,14.814 14.64442,14.96321 0,0.14921 -6.60228,6.85326 -14.67172,14.89788 -10.09495,10.06389 -14.840032,14.97427 -15.211281,15.74117 -1.979155,4.08838 0.2877,8.70691 4.742421,9.66228 0.69612,0.14929 1.72621,0.54341 2.28907,0.87582 1.33327,0.78738 3.75482,0.81762 5.17441,0.0646 0.53681,-0.28475 8.95188,-8.4684 18.70014,-18.18589 19.2897,-19.22879 18.78476,-18.64708 18.47756,-21.28696 -0.0807,-0.69385 -0.23648,-1.5592 -0.34608,-1.923 -0.12304,-0.40839 3.51798,2.98283 9.51643,8.86354 l 9.71573,9.525 -0.0906,12.03854 c -0.10349,13.7517 -0.1407,14.03144 -2.46478,18.53129 -2.67421,5.17778 -7.41344,8.91666 -13.47401,10.62997 l -2.11667,0.59837 -29.86944,0.0768 -29.869433,0.0768 z"
         id="path1" /></g></g></svg>
