<?xml version="1.0" encoding="UTF-8" standalone="no"?>
<!-- Created with Inkscape (http://www.inkscape.org/) -->

<svg
   width="512"
   height="512"
   viewBox="0 0 135.46666 135.46667"
   version="1.1"
   id="svg1"
   xml:space="preserve"
   inkscape:version="1.4 (e7c3feb100, 2024-10-09)"
   sodipodi:docname="upall.svg"
   xmlns:inkscape="http://www.inkscape.org/namespaces/inkscape"
   xmlns:sodipodi="http://sodipodi.sourceforge.net/DTD/sodipodi-0.dtd"
   xmlns="http://www.w3.org/2000/svg"
   xmlns:svg="http://www.w3.org/2000/svg"><sodipodi:namedview
     id="namedview1"
     pagecolor="#ffffff"
     bordercolor="#000000"
     borderopacity="0.25"
     inkscape:showpageshadow="2"
     inkscape:pageopacity="0.0"
     inkscape:pagecheckerboard="0"
     inkscape:deskcolor="#d1d1d1"
     inkscape:document-units="px"
     inkscape:zoom="0.43077335"
     inkscape:cx="-53.392347"
     inkscape:cy="519.99503"
     inkscape:window-width="1536"
     inkscape:window-height="804"
     inkscape:window-x="0"
     inkscape:window-y="0"
     inkscape:window-maximized="1"
     inkscape:current-layer="layer1"
     showgrid="false" /><defs
     id="defs1" /><g
     inkscape:label="Camada 1"
     inkscape:groupmode="layer"
     id="layer1"><g
       id="g37"><rect
         style="fill:#ffffff;fill-opacity:1;stroke-width:0.219381"
         id="rect27"
         width="135.46666"
         height="135.46666"
         x="2.7270507e-06"
         y="2.7270507e-06"
         ry="22.917292" /><g
         id="g36"
         transform="matrix(0.74085954,0,0,0.74085954,27.060286,-174.49498)"><path
           style="fill:#ffffff;stroke-width:0.264583"
           d="m 40.607874,259.93383 c -6.359132,9.34325 -12.253989,19.20853 -14.14529,30.49827 -5.166949,10.45357 -16.9532667,16.67493 -19.3248218,28.78978 -3.5034342,9.9797 3.4585768,23.49354 15.1874078,21.61413 11.168033,-0.99138 22.371959,2.33339 33.441827,0.22018 5.746718,-6.0655 18.719824,-6.5023 18.829978,-16.45647 1.025493,-12.98348 -1.423887,-26.52489 3.989914,-38.82334 4.351656,-10.0713 -0.982796,-21.43697 -10.336778,-26.36395 -8.190475,-5.60672 -20.219481,-7.38329 -27.642237,0.5214 z"
           id="path35"
           sodipodi:nodetypes="ccccccccc" /><path
           style="fill:#f0c24a"
           d="m -1.37387,405.34145 c -4.01,-0.62761 -7.66786,-2.50733 -10.63179,-5.46353 -4.8861,-4.87336 -6.89737,-11.20389 -5.68995,-17.90931 1.0947,-6.07947 4.94556,-11.08364 10.75977,-13.98227 0.53842,-0.26842 1.25748,-0.59472 1.59791,-0.7251 0.34044,-0.13039 0.61825,-0.28186 0.61737,-0.3366 -8.8e-4,-0.0547 -0.50803,-0.31373 -1.127,-0.5755 -1.28414,-0.5431 -3.37898,-1.75917 -4.49623,-2.61009 -1.05313,-0.80209 -2.89551,-2.60091 -3.6353,-3.54935 -2.82756,-3.62508 -4.15183,-7.70317 -3.98287,-12.26531 0.088,-2.37719 0.58726,-4.71725 1.42453,-6.67739 0.19245,-0.45053 0.32461,-0.88505 0.29371,-0.96559 -0.0459,-0.11964 -0.31516,-0.14685 -1.47057,-0.14863 -1.63261,-0.002 -1.97598,-0.10502 -2.63853,-0.78774 -0.48613,-0.50091 -0.65105,-0.96119 -0.57488,-1.60434 0.10548,-0.89061 0.35037,-1.17017 2.83351,-3.23464 5.71536,-4.75171 10.32177,-9.03569 14.83524,-13.79684 1.55256,-1.63776 2.1015,-2.28317 2.24261,-2.63674 0.4219,-1.05715 1.1871,-2.57423 1.67908,-3.32898 0.28808,-0.44192 1.30423,-1.87309 2.25812,-3.18036 5.99392,-8.21445 8.59433,-12.57398 10.78098,-18.07403 1.78498,-4.48976 2.74153,-8.50121 3.56594,-14.9544 0.71292,-5.58049 1.69774,-9.1874 3.55581,-13.0232 2.40221,-4.95913 5.7771,-8.78977 10.50188,-11.92006 5.33749,-3.53624 11.37973,-5.26283 18.41639,-5.26256 3.41651,1.3e-4 6.00974,0.31062 9.07637,1.08672 2.40996,0.6099 4.17314,1.2656 6.53062,2.42864 2.72974,1.34668 4.85548,2.7414 7.03154,4.61345 1.11281,0.95734 3.30944,3.19411 4.06046,4.13465 l 0.49518,0.62014 0.5447,-0.0566 c 0.6186,-0.0643 -0.005,-0.20007 8.56659,1.86497 3.26818,0.78735 7.79164,1.8649 10.05213,2.39454 2.50426,0.58677 4.34999,1.07093 4.72431,1.23925 1.88346,0.84698 2.95061,3.23582 2.30355,5.15657 -0.26233,0.77871 -0.58445,1.2786 -1.21616,1.88733 -0.58798,0.5666 -2.21548,1.67257 -3.73195,2.53607 -1.26432,0.71992 -8.75857,4.75269 -13.5679,7.3011 -1.93367,1.02463 -3.61733,1.92482 -3.74146,2.00043 -0.19811,0.12067 -0.2192,0.19444 -0.17262,0.60373 0.0292,0.25645 0.16534,1.51357 0.30257,2.79361 0.58093,5.41883 1.15845,8.23955 2.51447,12.28104 1.51368,4.51138 3.68173,8.80099 6.80713,13.46826 4.42185,6.60331 9.6788,11.99326 18.65844,19.1305 1.06531,0.84674 2.08041,1.73463 2.25578,1.97309 0.31613,0.42987 0.63974,1.33438 0.76763,2.14554 0.14562,0.92362 -0.46909,1.9631 -1.29601,2.19155 -0.21788,0.0602 -0.74153,0.10969 -1.16367,0.10999 -0.86847,6.3e-4 -0.90247,0.0411 -0.57479,0.68336 0.33232,0.6514 0.97093,2.6178 1.23047,3.78883 0.56501,2.54928 0.64635,5.50924 0.21624,7.8685 -0.65513,3.59356 -2.79479,7.46975 -5.50835,9.97889 -1.89763,1.75467 -4.53914,3.37156 -6.89932,4.22313 -0.33937,0.12245 -0.59684,0.25534 -0.57213,0.29531 0.0247,0.04 0.39151,0.19465 0.81512,0.34373 4.54236,1.59857 8.38414,5.0008 10.57265,9.363 1.67953,3.34767 2.39312,6.96066 2.13403,10.80483 -0.16321,2.42176 -0.59655,4.28753 -1.48364,6.38799 -1.03563,2.45221 -2.35037,4.38482 -4.30506,6.32829 -2.4942,2.47987 -5.38625,4.03081 -9.08421,4.87164 l -1.22307,0.2781 -47.68572,0.0138 c -39.85951,0.0115 -47.8275,-0.008 -48.54965,-0.12141 z m 45.33099,-73.31698 c 3.63515,-0.25441 5.07662,-0.43991 7.08106,-0.91127 8.33173,-1.95929 15.35275,-7.68146 18.74856,-15.2802 1.06529,-2.38376 1.9166,-5.50496 2.29318,-8.40758 0.26862,-2.07041 0.36007,-4.71442 0.2902,-8.3903 -0.0733,-3.85573 0.002,-5.27093 0.41279,-7.71183 0.47768,-2.84147 1.51609,-6.64925 2.47914,-9.09079 0.23982,-0.608 0.43603,-1.13812 0.43603,-1.17806 0,-0.0906 -1.32533,-2.50159 -3.39937,-6.18405 -2.20889,-3.9219 -2.20924,-3.71213 0.0114,-6.95914 0.79091,-1.15645 1.44223,-2.19176 1.44738,-2.3007 0.009,-0.18372 -0.0732,-0.20261 -1.12954,-0.26062 -1.27606,-0.0701 -1.4117,-0.0973 -3.5708,-0.71798 -5.15192,-1.48095 -9.44825,-1.51652 -13.21577,-0.10945 -1.26367,0.47195 -1.86578,0.77767 -2.97107,1.50853 -3.73046,2.46673 -6.37116,6.59551 -7.41901,11.59977 -0.70381,3.3612 -0.78189,4.68341 -0.80489,13.63001 -0.0235,9.13437 -0.0937,10.23566 -0.89512,14.03124 -1.35516,6.41838 -5.12174,12.94708 -9.98055,17.29954 -5.44997,4.882 -11.12826,7.33777 -19.62341,8.48682 -1.68994,0.22858 -1.68814,0.29188 0.0138,0.48761 1.61756,0.18602 5.34034,0.45181 7.66146,0.54699 2.67078,0.10951 20.31284,0.0389 22.13449,-0.0885 z m 16.56492,-57.24186 c -3.12305,-1.02855 -4.05711,-4.79502 -1.79507,-7.2383 0.96619,-1.0436 1.95115,-1.44114 3.39348,-1.36965 0.70173,0.0348 0.96825,0.0982 1.51491,0.36064 2.59226,1.24432 3.4594,4.49645 1.7861,6.69863 -0.473,0.62251 -1.20393,1.1807 -1.90477,1.45462 -0.776,0.3033 -2.22147,0.3487 -2.99465,0.094 z"
           id="path30" /><path
           style="fill:#dbaf46"
           d="m -1.37387,405.34145 c -4.01,-0.62761 -7.66786,-2.50733 -10.63179,-5.46353 -4.8861,-4.87336 -6.89737,-11.20389 -5.68995,-17.90931 1.0947,-6.07947 4.94556,-11.08364 10.75977,-13.98227 0.53842,-0.26842 1.25748,-0.59472 1.59791,-0.7251 0.34044,-0.13039 0.61825,-0.28186 0.61737,-0.3366 -8.8e-4,-0.0547 -0.50803,-0.31373 -1.127,-0.5755 -1.28414,-0.5431 -3.37898,-1.75917 -4.49623,-2.61009 -1.05313,-0.80209 -2.89551,-2.60091 -3.6353,-3.54935 -2.82756,-3.62508 -4.15183,-7.70317 -3.98287,-12.26531 0.088,-2.37719 0.58726,-4.71725 1.42453,-6.67739 0.19245,-0.45053 0.32461,-0.88505 0.29371,-0.96559 -0.0459,-0.11964 -0.31516,-0.14685 -1.47057,-0.14863 -1.63261,-0.002 -1.97598,-0.10502 -2.63853,-0.78774 -0.48613,-0.50091 -0.65105,-0.96119 -0.57488,-1.60434 0.10548,-0.89061 0.35037,-1.17017 2.83351,-3.23464 5.71536,-4.75171 10.32177,-9.03569 14.83524,-13.79684 1.55256,-1.63776 2.1015,-2.28317 2.24261,-2.63674 0.4219,-1.05715 1.1871,-2.57423 1.67908,-3.32898 0.28808,-0.44192 1.30423,-1.87309 2.25812,-3.18036 5.99392,-8.21445 8.59433,-12.57398 10.78098,-18.07403 1.78498,-4.48976 2.74153,-8.50121 3.56594,-14.9544 0.71292,-5.58049 1.69774,-9.1874 3.55581,-13.0232 2.40221,-4.95913 5.7771,-8.78977 10.50188,-11.92006 5.33749,-3.53624 11.37973,-5.26283 18.41639,-5.26256 3.41651,1.3e-4 6.00974,0.31062 9.07637,1.08672 2.40996,0.6099 4.17314,1.2656 6.53062,2.42864 2.72974,1.34668 4.85548,2.7414 7.03154,4.61345 1.11281,0.95734 3.30944,3.19411 4.06046,4.13465 l 0.49518,0.62014 0.5447,-0.0566 c 0.6186,-0.0643 -0.005,-0.20007 8.56659,1.86497 3.26818,0.78735 7.79164,1.8649 10.05213,2.39454 2.50426,0.58677 4.34999,1.07093 4.72431,1.23925 1.88346,0.84698 2.95061,3.23582 2.30355,5.15657 -0.26233,0.77871 -0.58445,1.2786 -1.21616,1.88733 -0.58798,0.5666 -2.21548,1.67257 -3.73195,2.53607 -1.26432,0.71992 -8.75857,4.75269 -13.5679,7.3011 -1.93367,1.02463 -3.61733,1.92482 -3.74146,2.00043 -0.19811,0.12067 -0.2192,0.19444 -0.17262,0.60373 0.0292,0.25645 0.16534,1.51357 0.30257,2.79361 0.58093,5.41883 1.15845,8.23955 2.51447,12.28104 1.51368,4.51138 3.68173,8.80099 6.80713,13.46826 4.42185,6.60331 9.6788,11.99326 18.65844,19.1305 1.06531,0.84674 2.08041,1.73463 2.25578,1.97309 0.31613,0.42987 0.63974,1.33438 0.76763,2.14554 0.14562,0.92362 -0.46909,1.9631 -1.29601,2.19155 -0.21788,0.0602 -0.74153,0.10969 -1.16367,0.10999 -0.86847,6.3e-4 -0.90247,0.0411 -0.57479,0.68336 0.33232,0.6514 0.97093,2.6178 1.23047,3.78883 0.56501,2.54928 0.64635,5.50924 0.21624,7.8685 -0.65513,3.59356 -2.79479,7.46975 -5.50835,9.97889 -1.89763,1.75467 -4.53914,3.37156 -6.89932,4.22313 -0.33937,0.12245 -0.59684,0.25534 -0.57213,0.29531 0.0247,0.04 0.39151,0.19465 0.81512,0.34373 4.54236,1.59857 8.38414,5.0008 10.57265,9.363 1.67953,3.34767 2.39312,6.96066 2.13403,10.80483 -0.16321,2.42176 -0.59655,4.28753 -1.48364,6.38799 -1.03563,2.45221 -2.35037,4.38482 -4.30506,6.32829 -2.4942,2.47987 -5.38625,4.03081 -9.08421,4.87164 l -1.22307,0.2781 -47.68572,0.0138 c -39.85951,0.0115 -47.8275,-0.008 -48.54965,-0.12141 z m 94.4607,-4.89352 c 4.15191,-0.36758 8.09264,-2.78251 10.51842,-6.44583 2.44003,-3.68484 3.12152,-8.48866 1.79271,-12.63691 -0.16255,-0.50747 -0.31591,-0.92268 -0.3408,-0.92268 -0.0249,0 -0.0339,0.14484 -0.0201,0.32187 l 0.0251,0.32187 -0.79229,-0.0332 c -0.43576,-0.0183 -0.8549,-0.0851 -0.93144,-0.14855 -0.0976,-0.0809 -0.97072,-0.12004 -2.92155,-0.13102 -1.53032,-0.009 -2.87154,-0.0238 -2.98048,-0.0338 -0.10893,-0.01 -0.62145,-0.0179 -1.13891,-0.0177 -0.51746,2.6e-4 -1.58705,-0.0202 -2.37686,-0.0455 -0.78981,-0.0253 -1.92624,-0.0402 -2.52541,-0.0333 -2.00276,0.0233 -5.87195,-0.0783 -6.00128,-0.15753 -0.0325,-0.0199 -1.05754,-0.0342 -2.27782,-0.0317 -4.24645,0.009 -6.18504,-0.0248 -6.9724,-0.12044 -0.68193,-0.0829 -3.47529,-0.15946 -3.91192,-0.10728 -0.0817,0.01 -0.86161,-0.003 -1.73312,-0.0285 -0.87152,-0.0254 -1.72906,-0.007 -1.90566,0.0415 -0.18303,0.05 -0.3441,0.0505 -0.37461,10e-4 -0.0615,-0.0995 -0.22346,-0.10787 -1.58213,-0.082 -0.54469,0.0104 -1.14634,0.0143 -1.33698,0.009 -0.48155,-0.0143 -2.48606,-0.20733 -2.70679,-0.26066 -0.0998,-0.0241 -0.37241,0.0137 -0.60591,0.0839 -0.2335,0.0703 -0.61982,0.11196 -0.8585,0.0926 -0.23868,-0.0193 -0.56766,-0.03 -0.73107,-0.0238 -0.61331,0.0234 -4.6528,-0.0711 -5.19938,-0.12166 -0.0817,-0.008 -0.46051,0.0165 -0.8418,0.0534 -0.86667,0.0839 -0.78752,0.0837 -2.03024,0.007 -1.25369,-0.0777 -3.73074,-0.14958 -4.75371,-0.13799 -1.89866,0.0215 -4.88711,0.002 -6.73443,-0.044 -1.11663,-0.0278 -3.12211,-0.0175 -4.45661,0.0229 -1.48817,0.045 -2.47422,0.0373 -2.5501,-0.02 -0.0781,-0.059 -0.27673,-0.0546 -0.53872,0.0119 -0.22825,0.0579 -0.44662,0.0858 -0.48527,0.0619 -0.0386,-0.0239 -1.60115,-0.0648 -3.47223,-0.091 -1.87107,-0.0262 -3.91447,-0.0952 -4.54087,-0.15355 -0.6264,-0.0583 -1.42859,-0.12426 -1.78264,-0.14656 -1.8886,-0.11896 -2.58169,-0.17697 -4.20902,-0.35231 -0.98045,-0.10564 -1.96091,-0.23228 -2.17879,-0.28142 -0.21788,-0.0491 -0.61897,-0.13618 -0.89132,-0.19341 -0.73712,-0.15488 -2.41069,-0.57564 -2.94108,-0.73943 -0.25585,-0.079 -0.48351,-0.12532 -0.50592,-0.10292 -0.0224,0.0224 -0.24967,-0.0488 -0.50503,-0.15828 -0.25537,-0.10946 -0.49564,-0.19155 -0.53396,-0.18241 -0.24816,0.0592 -1.72627,-0.5235 -3.83301,-1.51094 -0.5447,-0.2553 -1.10178,-0.49846 -1.23795,-0.54036 -0.13617,-0.0419 -0.55955,-0.23823 -0.94084,-0.43629 -0.38129,-0.19805 -1.04978,-0.51105 -1.48554,-0.69554 -1.70336,-0.72119 -3.31171,-1.43398 -4.25853,-1.88731 -0.5447,-0.2608 -1.15748,-0.5435 -1.36175,-0.62822 -0.20426,-0.0847 -0.37138,-0.20441 -0.37138,-0.26599 0,-0.226 -1.672,0.25414 -2.92966,0.84129 -1.45271,0.67821 -2.54602,1.46504 -3.85569,2.77482 -1.75859,1.75875 -2.85085,3.50691 -3.55891,5.69607 -0.58692,1.81457 -0.69722,2.58256 -0.69702,4.85275 2e-4,2.21878 0.14746,3.19829 0.73701,4.90227 1.05194,3.0404 3.4263,6.02791 6.13827,7.72336 1.66976,1.0439 4.07178,1.91059 5.87789,2.12086 1.03913,0.12097 92.25445,0.13074 93.618,0.01 z M 43.95712,332.02447 c 3.63515,-0.25441 5.07662,-0.43991 7.08106,-0.91127 8.33173,-1.95929 15.35275,-7.68146 18.74856,-15.2802 1.06529,-2.38376 1.9166,-5.50496 2.29318,-8.40758 0.26862,-2.07041 0.36007,-4.71442 0.2902,-8.3903 -0.0733,-3.85573 0.002,-5.27093 0.41279,-7.71183 0.47768,-2.84147 1.51609,-6.64925 2.47914,-9.09079 0.23982,-0.608 0.43603,-1.13812 0.43603,-1.17806 0,-0.0906 -1.32533,-2.50159 -3.39937,-6.18405 -2.20889,-3.9219 -2.20924,-3.71213 0.0114,-6.95914 0.79091,-1.15645 1.44223,-2.19176 1.44738,-2.3007 0.009,-0.18372 -0.0732,-0.20261 -1.12954,-0.26062 -1.27606,-0.0701 -1.4117,-0.0973 -3.5708,-0.71798 -5.15192,-1.48095 -9.44825,-1.51652 -13.21577,-0.10945 -1.26367,0.47195 -1.86578,0.77767 -2.97107,1.50853 -3.73046,2.46673 -6.37116,6.59551 -7.41901,11.59977 -0.70381,3.3612 -0.78189,4.68341 -0.80489,13.63001 -0.0235,9.13437 -0.0937,10.23566 -0.89512,14.03124 -1.35516,6.41838 -5.12174,12.94708 -9.98055,17.29954 -5.44997,4.882 -11.12826,7.33777 -19.62341,8.48682 -1.68994,0.22858 -1.68814,0.29188 0.0138,0.48761 1.61756,0.18602 5.34034,0.45181 7.66146,0.54699 2.67078,0.10951 20.31284,0.0389 22.13449,-0.0885 z m 16.56492,-57.24186 c -3.12305,-1.02855 -4.05711,-4.79502 -1.79507,-7.2383 0.96619,-1.0436 1.95115,-1.44114 3.39348,-1.36965 0.70173,0.0348 0.96825,0.0982 1.51491,0.36064 2.59226,1.24432 3.4594,4.49645 1.7861,6.69863 -0.473,0.62251 -1.20393,1.1807 -1.90477,1.45462 -0.776,0.3033 -2.22147,0.3487 -2.99465,0.094 z m 18.84037,-4.61737 c 1.3345,-0.0293 2.89432,-0.074 3.46625,-0.0993 0.57193,-0.0254 3.75841,-0.11499 7.08106,-0.19917 6.13039,-0.15531 8.50645,-0.23936 8.447,-0.29881 -0.0181,-0.0181 -1.25759,-0.32275 -2.75442,-0.67701 -1.49683,-0.35426 -4.21447,-1.00592 -6.03921,-1.44815 -6.31031,-1.52932 -10.83512,-2.57498 -11.14249,-2.57498 -0.20959,0 -0.38939,0.0874 -0.56041,0.27235 -0.21581,0.23341 -3.33296,4.86978 -3.43697,5.11206 -0.0206,0.0479 0.52855,0.0595 1.23795,0.0261 0.70117,-0.0329 2.36673,-0.0838 3.70124,-0.11308 z"
           id="path29" /><path
           style="fill:#c84b52"
           d="m -1.37387,405.34145 c -4.01,-0.62761 -7.66786,-2.50733 -10.63179,-5.46353 -4.8861,-4.87336 -6.89737,-11.20389 -5.68995,-17.90931 1.0947,-6.07947 4.94556,-11.08364 10.75977,-13.98227 0.53842,-0.26842 1.25748,-0.59472 1.59791,-0.7251 0.34044,-0.13039 0.61825,-0.28186 0.61737,-0.3366 -8.8e-4,-0.0547 -0.50803,-0.31373 -1.127,-0.5755 -1.28414,-0.5431 -3.37898,-1.75917 -4.49623,-2.61009 -1.05313,-0.80209 -2.89551,-2.60091 -3.6353,-3.54935 -2.82756,-3.62508 -4.15183,-7.70317 -3.98287,-12.26531 0.088,-2.37719 0.58726,-4.71725 1.42453,-6.67739 0.19245,-0.45053 0.32461,-0.88505 0.29371,-0.96559 -0.0459,-0.11964 -0.31516,-0.14685 -1.47057,-0.14863 -1.63261,-0.002 -1.97598,-0.10502 -2.63853,-0.78774 -0.48613,-0.50091 -0.65105,-0.96119 -0.57488,-1.60434 0.10548,-0.89061 0.35037,-1.17017 2.83351,-3.23464 5.71536,-4.75171 10.32177,-9.03569 14.83524,-13.79684 1.55256,-1.63776 2.1015,-2.28317 2.24261,-2.63674 0.4219,-1.05715 1.1871,-2.57423 1.67908,-3.32898 0.28808,-0.44192 1.30423,-1.87309 2.25812,-3.18036 5.99392,-8.21445 8.59433,-12.57398 10.78098,-18.07403 1.78498,-4.48976 2.74153,-8.50121 3.56594,-14.9544 0.71292,-5.58049 1.69774,-9.1874 3.55581,-13.0232 2.40221,-4.95913 5.7771,-8.78977 10.50188,-11.92006 5.33749,-3.53624 11.37973,-5.26283 18.41639,-5.26256 3.41651,1.3e-4 6.00974,0.31062 9.07637,1.08672 2.40996,0.6099 4.17314,1.2656 6.53062,2.42864 2.72974,1.34668 4.85548,2.7414 7.03154,4.61345 1.11281,0.95734 3.30944,3.19411 4.06046,4.13465 l 0.49518,0.62014 0.5447,-0.0566 c 0.6186,-0.0643 -0.005,-0.20007 8.56659,1.86497 3.26818,0.78735 7.79164,1.8649 10.05213,2.39454 2.50426,0.58677 4.34999,1.07093 4.72431,1.23925 1.88346,0.84698 2.95061,3.23582 2.30355,5.15657 -0.26233,0.77871 -0.58445,1.2786 -1.21616,1.88733 -0.58798,0.5666 -2.21548,1.67257 -3.73195,2.53607 -1.26432,0.71992 -8.75857,4.75269 -13.5679,7.3011 -1.93367,1.02463 -3.61733,1.92482 -3.74146,2.00043 -0.19811,0.12067 -0.2192,0.19444 -0.17262,0.60373 0.0292,0.25645 0.16534,1.51357 0.30257,2.79361 0.58093,5.41883 1.15845,8.23955 2.51447,12.28104 1.51368,4.51138 3.68173,8.80099 6.80713,13.46826 4.42185,6.60331 9.6788,11.99326 18.65844,19.1305 1.06531,0.84674 2.08041,1.73463 2.25578,1.97309 0.31613,0.42987 0.63974,1.33438 0.76763,2.14554 0.14562,0.92362 -0.46909,1.9631 -1.29601,2.19155 -0.21788,0.0602 -0.74153,0.10969 -1.16367,0.10999 -0.86847,6.3e-4 -0.90247,0.0411 -0.57479,0.68336 0.33232,0.6514 0.97093,2.6178 1.23047,3.78883 0.56501,2.54928 0.64635,5.50924 0.21624,7.8685 -0.65513,3.59356 -2.79479,7.46975 -5.50835,9.97889 -1.89763,1.75467 -4.53914,3.37156 -6.89932,4.22313 -0.33937,0.12245 -0.59684,0.25534 -0.57213,0.29531 0.0247,0.04 0.39151,0.19465 0.81512,0.34373 4.54236,1.59857 8.38414,5.0008 10.57265,9.363 1.67953,3.34767 2.39312,6.96066 2.13403,10.80483 -0.16321,2.42176 -0.59655,4.28753 -1.48364,6.38799 -1.03563,2.45221 -2.35037,4.38482 -4.30506,6.32829 -2.4942,2.47987 -5.38625,4.03081 -9.08421,4.87164 l -1.22307,0.2781 -47.68572,0.0138 c -39.85951,0.0115 -47.8275,-0.008 -48.54965,-0.12141 z m 96.34272,-5.01216 c 3.94385,-1.05314 7.11125,-3.42536 9.11416,-6.82605 1.55365,-2.63789 2.20629,-5.29167 2.08842,-8.49185 -0.10648,-2.89071 -0.95306,-5.49028 -2.5593,-7.85873 -0.82763,-1.22036 -2.54894,-2.94033 -3.74267,-3.73975 -1.634,-1.09426 -3.48478,-1.87565 -5.33653,-2.25306 -0.81545,-0.1662 -3.30705,-0.17525 -48.24847,-0.17525 -45.38303,0 -47.42633,0.008 -48.27993,0.17973 -5.0484,1.01797 -9.08672,4.64948 -10.74569,9.66321 -0.56693,1.71336 -0.73253,2.81791 -0.72924,4.86387 0.003,2.03423 0.15968,3.05909 0.72716,4.76483 1.70449,5.12337 6.00846,8.92586 11.30462,9.98745 0.90181,0.18076 2.29596,0.18566 48.16874,0.16921 L 93.97018,400.596 Z M 43.95712,332.02447 c 3.63515,-0.25441 5.07662,-0.43991 7.08106,-0.91127 8.33173,-1.95929 15.35275,-7.68146 18.74856,-15.2802 1.06529,-2.38376 1.9166,-5.50496 2.29318,-8.40758 0.26862,-2.07041 0.36007,-4.71442 0.2902,-8.3903 -0.0733,-3.85573 0.002,-5.27093 0.41279,-7.71183 0.47768,-2.84147 1.51609,-6.64925 2.47914,-9.09079 0.23982,-0.608 0.43603,-1.13812 0.43603,-1.17806 0,-0.0906 -1.32533,-2.50159 -3.39937,-6.18405 -2.20889,-3.9219 -2.20924,-3.71213 0.0114,-6.95914 0.79091,-1.15645 1.44223,-2.19176 1.44738,-2.3007 0.009,-0.18372 -0.0732,-0.20261 -1.12954,-0.26062 -1.27606,-0.0701 -1.4117,-0.0973 -3.5708,-0.71798 -5.15192,-1.48095 -9.44825,-1.51652 -13.21577,-0.10945 -1.26367,0.47195 -1.86578,0.77767 -2.97107,1.50853 -3.73046,2.46673 -6.37116,6.59551 -7.41901,11.59977 -0.70381,3.3612 -0.78189,4.68341 -0.80489,13.63001 -0.0235,9.13437 -0.0937,10.23566 -0.89512,14.03124 -1.35516,6.41838 -5.12174,12.94708 -9.98055,17.29954 -5.44997,4.882 -11.12826,7.33777 -19.62341,8.48682 -1.68994,0.22858 -1.68814,0.29188 0.0138,0.48761 1.61756,0.18602 5.34034,0.45181 7.66146,0.54699 2.67078,0.10951 20.31284,0.0389 22.13449,-0.0885 z m 16.56492,-57.24186 c -3.12305,-1.02855 -4.05711,-4.79502 -1.79507,-7.2383 0.96619,-1.0436 1.95115,-1.44114 3.39348,-1.36965 0.70173,0.0348 0.96825,0.0982 1.51491,0.36064 2.59226,1.24432 3.4594,4.49645 1.7861,6.69863 -0.473,0.62251 -1.20393,1.1807 -1.90477,1.45462 -0.776,0.3033 -2.22147,0.3487 -2.99465,0.094 z m 21.81144,-4.52045 c 2.85966,-0.0798 6.87061,-0.1889 8.91322,-0.24244 2.04261,-0.0535 4.2932,-0.11978 5.00131,-0.14721 0.7081,-0.0274 1.70861,-0.0506 2.22335,-0.0514 0.66616,-10e-4 0.90527,-0.0322 0.82966,-0.10776 -0.10326,-0.10326 -5.84135,-1.51873 -13.7984,-3.40379 -7.5102,-1.77921 -7.07234,-1.68799 -7.41711,-1.54519 -0.2452,0.10157 -0.66809,0.67019 -2.05623,2.76485 -0.96115,1.45034 -1.76971,2.72034 -1.79681,2.82222 -0.0471,0.17695 0.0167,0.18234 1.42619,0.12053 0.81149,-0.0356 3.81516,-0.13 6.67482,-0.2098 z"
           id="path28" /><path
           style="fill:#b1434f"
           d="m -1.37387,405.34145 c -4.01,-0.62761 -7.66786,-2.50733 -10.63179,-5.46353 -4.8861,-4.87336 -6.89737,-11.20389 -5.68995,-17.90931 1.0947,-6.07947 4.94556,-11.08364 10.75977,-13.98227 0.53842,-0.26842 1.25748,-0.59472 1.59791,-0.7251 0.34044,-0.13039 0.61825,-0.28186 0.61737,-0.3366 -8.8e-4,-0.0547 -0.50803,-0.31373 -1.127,-0.5755 -1.28414,-0.5431 -3.37898,-1.75917 -4.49623,-2.61009 -1.05313,-0.80209 -2.89551,-2.60091 -3.6353,-3.54935 -2.82756,-3.62508 -4.15183,-7.70317 -3.98287,-12.26531 0.088,-2.37719 0.58726,-4.71725 1.42453,-6.67739 0.19245,-0.45053 0.32461,-0.88505 0.29371,-0.96559 -0.0459,-0.11964 -0.31516,-0.14685 -1.47057,-0.14863 -1.63261,-0.002 -1.97598,-0.10502 -2.63853,-0.78774 -0.48613,-0.50091 -0.65105,-0.96119 -0.57488,-1.60434 0.10548,-0.89061 0.35037,-1.17017 2.83351,-3.23464 5.71536,-4.75171 10.32177,-9.03569 14.83524,-13.79684 1.55256,-1.63776 2.1015,-2.28317 2.24261,-2.63674 0.4219,-1.05715 1.1871,-2.57423 1.67908,-3.32898 0.28808,-0.44192 1.30423,-1.87309 2.25812,-3.18036 5.99392,-8.21445 8.59433,-12.57398 10.78098,-18.07403 1.78498,-4.48976 2.74153,-8.50121 3.56594,-14.9544 0.71292,-5.58049 1.69774,-9.1874 3.55581,-13.0232 2.40221,-4.95913 5.7771,-8.78977 10.50188,-11.92006 5.33749,-3.53624 11.37973,-5.26283 18.41639,-5.26256 3.41651,1.3e-4 6.00974,0.31062 9.07637,1.08672 2.40996,0.6099 4.17314,1.2656 6.53062,2.42864 2.72974,1.34668 4.85548,2.7414 7.03154,4.61345 1.11281,0.95734 3.30944,3.19411 4.06046,4.13465 l 0.49518,0.62014 0.5447,-0.0566 c 0.6186,-0.0643 -0.005,-0.20007 8.56659,1.86497 3.26818,0.78735 7.79164,1.8649 10.05213,2.39454 2.50426,0.58677 4.34999,1.07093 4.72431,1.23925 1.88346,0.84698 2.95061,3.23582 2.30355,5.15657 -0.26233,0.77871 -0.58445,1.2786 -1.21616,1.88733 -0.58798,0.5666 -2.21548,1.67257 -3.73195,2.53607 -1.26432,0.71992 -8.75857,4.75269 -13.5679,7.3011 -1.93367,1.02463 -3.61733,1.92482 -3.74146,2.00043 -0.19811,0.12067 -0.2192,0.19444 -0.17262,0.60373 0.0292,0.25645 0.16534,1.51357 0.30257,2.79361 0.58093,5.41883 1.15845,8.23955 2.51447,12.28104 1.51368,4.51138 3.68173,8.80099 6.80713,13.46826 4.42185,6.60331 9.6788,11.99326 18.65844,19.1305 1.06531,0.84674 2.08041,1.73463 2.25578,1.97309 0.31613,0.42987 0.63974,1.33438 0.76763,2.14554 0.14562,0.92362 -0.46909,1.9631 -1.29601,2.19155 -0.21788,0.0602 -0.74153,0.10969 -1.16367,0.10999 -0.86847,6.3e-4 -0.90247,0.0411 -0.57479,0.68336 0.33232,0.6514 0.97093,2.6178 1.23047,3.78883 0.56501,2.54928 0.64635,5.50924 0.21624,7.8685 -0.65513,3.59356 -2.79479,7.46975 -5.50835,9.97889 -1.89763,1.75467 -4.53914,3.37156 -6.89932,4.22313 -0.33937,0.12245 -0.59684,0.25534 -0.57213,0.29531 0.0247,0.04 0.39151,0.19465 0.81512,0.34373 4.54236,1.59857 8.38414,5.0008 10.57265,9.363 1.67953,3.34767 2.39312,6.96066 2.13403,10.80483 -0.16321,2.42176 -0.59655,4.28753 -1.48364,6.38799 -1.03563,2.45221 -2.35037,4.38482 -4.30506,6.32829 -2.4942,2.47987 -5.38625,4.03081 -9.08421,4.87164 l -1.22307,0.2781 -47.68572,0.0138 c -39.85951,0.0115 -47.8275,-0.008 -48.54965,-0.12141 z m 96.34272,-5.01216 c 3.94385,-1.05314 7.11125,-3.42536 9.11416,-6.82605 1.55365,-2.63789 2.20629,-5.29167 2.08842,-8.49185 -0.10648,-2.89071 -0.95306,-5.49028 -2.5593,-7.85873 -0.82763,-1.22036 -2.54894,-2.94033 -3.74267,-3.73975 -1.634,-1.09426 -3.48478,-1.87565 -5.33653,-2.25306 -0.81545,-0.1662 -3.30705,-0.17525 -48.24847,-0.17525 -45.38303,0 -47.42633,0.008 -48.27993,0.17973 -5.0484,1.01797 -9.08672,4.64948 -10.74569,9.66321 -0.56693,1.71336 -0.73253,2.81791 -0.72924,4.86387 0.003,2.03423 0.15968,3.05909 0.72716,4.76483 1.70449,5.12337 6.00846,8.92586 11.30462,9.98745 0.90181,0.18076 2.29596,0.18566 48.16874,0.16921 l 47.24006,-0.0169 z m -0.78924,-37.86652 c 2.64757,-0.46169 5.24884,-1.87348 7.3702,-4.00002 2.12031,-2.12547 3.47131,-4.5931 3.98865,-7.28531 0.20038,-1.04272 0.27792,-1.94994 0.16046,-1.87735 -0.0506,0.0313 -0.092,0.12351 -0.092,0.20495 0,0.12142 -0.15593,0.14498 -0.86656,0.13092 -0.47661,-0.009 -4.29815,-0.0124 -8.49231,-0.007 -4.19417,0.006 -7.78425,-0.0269 -7.97796,-0.0725 -0.19372,-0.0456 -2.06549,-0.0577 -4.15951,-0.0268 -4.73391,0.0698 -6.74709,0.0734 -12.62148,0.0226 -2.56007,-0.0222 -5.70198,-0.0389 -6.98202,-0.0372 -1.28003,0.002 -2.5056,-3.5e-4 -2.72348,-0.005 -0.21788,-0.004 -0.75267,0.008 -1.18843,0.0281 -0.43576,0.0197 -2.50808,-0.005 -4.60516,-0.0541 -3.92542,-0.0926 -6.66319,-0.10271 -8.5666,-0.0316 -0.97856,0.0366 -4.40257,-0.0165 -10.1264,-0.15687 -1.29821,-0.0318 -2.00548,-0.0144 -2.00548,0.0494 0,0.0542 -0.19791,0.0986 -0.43981,0.0986 -0.2419,0 -0.47014,0.0491 -0.50719,0.10901 -0.038,0.0615 -0.18998,0.0845 -0.34863,0.0528 -0.15469,-0.0309 -0.3079,-0.0131 -0.34046,0.0395 -0.0879,0.14217 -0.6007,0.11601 -0.72778,-0.0371 -0.0607,-0.0731 -0.081,-0.16223 -0.0451,-0.19807 0.0358,-0.0358 -0.0648,-0.0645 -0.22369,-0.0636 -0.2229,10e-4 -0.25493,0.0234 -0.1403,0.0975 0.0817,0.0528 0.11878,0.0967 0.0824,0.0975 -0.0364,8.4e-4 -0.13093,0.0264 -0.21006,0.0567 -0.0791,0.0304 -0.22469,-0.0253 -0.32346,-0.12379 -0.19463,-0.19402 -0.28872,-0.20107 -2.95829,-0.22177 -1.021,-0.008 -1.50008,0.0239 -1.54884,0.10277 -0.0691,0.11177 -0.38045,0.0882 -0.87557,-0.0664 -0.14785,-0.0461 -0.21562,-0.0377 -0.17854,0.0223 0.036,0.0582 -0.0663,0.0799 -0.25686,0.0545 -0.30168,-0.0402 -0.30729,-0.0351 -0.11872,0.10886 0.28554,0.21799 0.13794,0.29208 -0.41167,0.20665 -0.4022,-0.0625 -0.43958,-0.085 -0.23191,-0.13944 0.57233,-0.15005 -0.74525,-0.22364 -3.46625,-0.19362 -3.27815,0.0362 -3.99866,0.0333 -7.88929,-0.0317 -1.5884,-0.0265 -2.93017,-0.0743 -2.98173,-0.10614 -0.0516,-0.0319 -0.24491,-0.0146 -0.42966,0.0384 -0.222,0.0637 -0.34712,0.0627 -0.36898,-0.003 -0.0458,-0.13733 -0.4127,-0.12534 -0.4127,0.0135 0,0.13202 -1.46121,0.0308 -1.63477,-0.11327 -0.0579,-0.048 -0.25969,-0.0837 -0.44844,-0.0792 -0.18874,0.005 -0.72198,-0.0238 -1.18497,-0.063 -0.46299,-0.0391 -0.95301,-0.0716 -1.08892,-0.0722 -0.13591,-5.9e-4 -0.51472,-0.1152 -0.8418,-0.25468 -0.36246,-0.15456 -0.83882,-0.26734 -1.21984,-0.28879 -0.34383,-0.0194 -0.75385,-0.10175 -0.91116,-0.1831 -0.34885,-0.1804 -0.55956,-0.18848 -0.62801,-0.0241 -0.038,0.0912 -0.0871,0.0804 -0.18648,-0.0413 -0.0742,-0.0908 -0.31098,-0.19462 -0.52616,-0.23071 -0.21517,-0.0361 -0.55702,-0.12802 -0.75967,-0.2043 -0.20264,-0.0763 -0.43405,-0.11352 -0.51423,-0.0827 -0.14723,0.0565 -1.4823,-0.35789 -1.93984,-0.6021 -0.13618,-0.0727 -0.47042,-0.16447 -0.74277,-0.20398 -0.27235,-0.0395 -0.62888,-0.14005 -0.79229,-0.22342 -0.16341,-0.0834 -0.38658,-0.16161 -0.49594,-0.17386 -0.19022,-0.0213 -0.72466,-0.24026 -1.03911,-0.42572 -0.26948,-0.15893 -1.25622,-0.60961 -1.33473,-0.60961 -0.0914,0 -1.20328,-0.51323 -1.83442,-0.84671 -0.24511,-0.12951 -1.00273,-0.51817 -1.6836,-0.86369 -0.68087,-0.34552 -1.34937,-0.70015 -1.48554,-0.78807 -0.44933,-0.2901 -0.61324,-0.25753 -0.86133,0.17113 -0.35413,0.6119 -0.80398,2.15081 -0.98249,3.36107 -0.19326,1.31026 -0.13836,3.75414 0.10971,4.88348 1.09582,4.9888 4.74284,9.05027 9.56552,10.65256 0.56776,0.18863 1.36654,0.39658 1.77506,0.46211 0.40852,0.0655 0.80962,0.13225 0.89132,0.14825 0.0817,0.016 21.30047,0.0343 47.15281,0.0406 42.01796,0.0103 47.09751,-0.005 47.88336,-0.14182 z M 65.3798,349.97088 c 0.0715,-0.0286 0.15691,-0.0251 0.18981,0.008 0.0329,0.0329 -0.0256,0.0563 -0.12998,0.052 -0.11537,-0.005 -0.13884,-0.0282 -0.0598,-0.0598 z m -48.53372,-0.40013 c 0.17703,-0.022 0.46671,-0.022 0.64374,0 0.17702,0.022 0.0322,0.0399 -0.32187,0.0399 -0.35405,0 -0.49889,-0.018 -0.32187,-0.0399 z m 18.96724,-0.19506 c 0.0964,-0.0251 0.23005,-0.0235 0.2971,0.004 0.067,0.0271 -0.0118,0.0477 -0.17519,0.0457 -0.16341,-0.002 -0.21827,-0.0242 -0.12191,-0.0493 z m 8.1438,-17.35122 c 3.63515,-0.25441 5.07662,-0.43991 7.08106,-0.91127 8.33173,-1.95929 15.35275,-7.68146 18.74856,-15.2802 1.06529,-2.38376 1.9166,-5.50496 2.29318,-8.40758 0.26862,-2.07041 0.36007,-4.71442 0.2902,-8.3903 -0.0733,-3.85573 0.002,-5.27093 0.41279,-7.71183 0.47768,-2.84147 1.51609,-6.64925 2.47914,-9.09079 0.23982,-0.608 0.43603,-1.13812 0.43603,-1.17806 0,-0.0906 -1.32533,-2.50159 -3.39937,-6.18405 -2.20889,-3.9219 -2.20924,-3.71213 0.0114,-6.95914 0.79091,-1.15645 1.44223,-2.19176 1.44738,-2.3007 0.009,-0.18372 -0.0732,-0.20261 -1.12954,-0.26062 -1.27606,-0.0701 -1.4117,-0.0973 -3.5708,-0.71798 -5.15192,-1.48095 -9.44825,-1.51652 -13.21577,-0.10945 -1.26367,0.47195 -1.86578,0.77767 -2.97107,1.50853 -3.73046,2.46673 -6.37116,6.59551 -7.41901,11.59977 -0.70381,3.3612 -0.78189,4.68341 -0.80489,13.63001 -0.0235,9.13437 -0.0937,10.23566 -0.89512,14.03124 -1.35516,6.41838 -5.12174,12.94708 -9.98055,17.29954 -5.44997,4.882 -11.12826,7.33777 -19.62341,8.48682 -1.68994,0.22858 -1.68814,0.29188 0.0138,0.48761 1.61756,0.18602 5.34034,0.45181 7.66146,0.54699 2.67078,0.10951 20.31284,0.0389 22.13449,-0.0885 z m 16.56492,-57.24186 c -3.12305,-1.02855 -4.05711,-4.79502 -1.79507,-7.2383 0.96619,-1.0436 1.95115,-1.44114 3.39348,-1.36965 0.70173,0.0348 0.96825,0.0982 1.51491,0.36064 2.59226,1.24432 3.4594,4.49645 1.7861,6.69863 -0.473,0.62251 -1.20393,1.1807 -1.90477,1.45462 -0.776,0.3033 -2.22147,0.3487 -2.99465,0.094 z m 21.26674,5.38796 c 1.14387,-0.61352 3.32761,-1.77406 4.85276,-2.57897 5.5105,-2.90821 10.39422,-5.52437 11.18951,-5.99412 0.70746,-0.41786 1.93911,-1.50051 1.97114,-1.73266 0.006,-0.0443 -0.1226,-0.11773 -0.286,-0.1632 -0.56301,-0.15668 -9.71423,-2.37196 -13.81549,-3.34438 -7.71656,-1.82961 -7.26947,-1.73608 -7.61473,-1.59306 -0.24532,0.10161 -0.68213,0.69193 -2.14024,2.89238 -1.00761,1.52058 -1.92119,2.93951 -2.03019,3.15316 -0.12505,0.24513 -0.19817,0.5838 -0.19817,0.91791 0,0.48722 0.0727,0.65539 0.91171,2.10845 0.50145,0.86845 1.65238,2.87142 2.55763,4.45104 1.66654,2.90803 1.87925,3.18781 2.32425,3.05712 0.10894,-0.032 1.13396,-0.56014 2.27782,-1.17367 z"
           id="path27" /><path
           style="fill:#5f6065"
           d="m -1.37387,405.34145 c -4.01,-0.62761 -7.66786,-2.50733 -10.63179,-5.46353 -4.8861,-4.87336 -6.89737,-11.20389 -5.68995,-17.90931 1.0947,-6.07947 4.94556,-11.08364 10.75977,-13.98227 0.53842,-0.26842 1.25748,-0.59472 1.59791,-0.7251 0.34044,-0.13039 0.61825,-0.28186 0.61737,-0.3366 -8.8e-4,-0.0547 -0.50803,-0.31373 -1.127,-0.5755 -1.28414,-0.5431 -3.37898,-1.75917 -4.49623,-2.61009 -1.05313,-0.80209 -2.89551,-2.60091 -3.6353,-3.54935 -2.82756,-3.62508 -4.15183,-7.70317 -3.98287,-12.26531 0.088,-2.37719 0.58726,-4.71725 1.42453,-6.67739 0.19245,-0.45053 0.32461,-0.88505 0.29371,-0.96559 -0.0459,-0.11964 -0.31516,-0.14685 -1.47057,-0.14863 -1.63261,-0.002 -1.97598,-0.10502 -2.63853,-0.78774 -0.48613,-0.50091 -0.65105,-0.96119 -0.57488,-1.60434 0.10548,-0.89061 0.35037,-1.17017 2.83351,-3.23464 5.71536,-4.75171 10.32177,-9.03569 14.83524,-13.79684 1.55256,-1.63776 2.1015,-2.28317 2.24261,-2.63674 0.4219,-1.05715 1.1871,-2.57423 1.67908,-3.32898 0.28808,-0.44192 1.30423,-1.87309 2.25812,-3.18036 5.99392,-8.21445 8.59433,-12.57398 10.78098,-18.07403 1.78498,-4.48976 2.74153,-8.50121 3.56594,-14.9544 0.71292,-5.58049 1.69774,-9.1874 3.55581,-13.0232 2.40221,-4.95913 5.7771,-8.78977 10.50188,-11.92006 5.33749,-3.53624 11.37973,-5.26283 18.41639,-5.26256 3.41651,1.3e-4 6.00974,0.31062 9.07637,1.08672 2.40996,0.6099 4.17314,1.2656 6.53062,2.42864 2.72974,1.34668 4.85548,2.7414 7.03154,4.61345 1.11281,0.95734 3.30944,3.19411 4.06046,4.13465 l 0.49518,0.62014 0.5447,-0.0566 c 0.6186,-0.0643 -0.005,-0.20007 8.56659,1.86497 3.26818,0.78735 7.79164,1.8649 10.05213,2.39454 2.50426,0.58677 4.34999,1.07093 4.72431,1.23925 1.88346,0.84698 2.95061,3.23582 2.30355,5.15657 -0.26233,0.77871 -0.58445,1.2786 -1.21616,1.88733 -0.58798,0.5666 -2.21548,1.67257 -3.73195,2.53607 -1.26432,0.71992 -8.75857,4.75269 -13.5679,7.3011 -1.93367,1.02463 -3.61733,1.92482 -3.74146,2.00043 -0.19811,0.12067 -0.2192,0.19444 -0.17262,0.60373 0.0292,0.25645 0.16534,1.51357 0.30257,2.79361 0.58093,5.41883 1.15845,8.23955 2.51447,12.28104 1.51368,4.51138 3.68173,8.80099 6.80713,13.46826 4.42185,6.60331 9.6788,11.99326 18.65844,19.1305 1.06531,0.84674 2.08041,1.73463 2.25578,1.97309 0.31613,0.42987 0.63974,1.33438 0.76763,2.14554 0.14562,0.92362 -0.46909,1.9631 -1.29601,2.19155 -0.21788,0.0602 -0.74153,0.10969 -1.16367,0.10999 -0.86847,6.3e-4 -0.90247,0.0411 -0.57479,0.68336 0.33232,0.6514 0.97093,2.6178 1.23047,3.78883 0.56501,2.54928 0.64635,5.50924 0.21624,7.8685 -0.65513,3.59356 -2.79479,7.46975 -5.50835,9.97889 -1.89763,1.75467 -4.53914,3.37156 -6.89932,4.22313 -0.33937,0.12245 -0.59684,0.25534 -0.57213,0.29531 0.0247,0.04 0.39151,0.19465 0.81512,0.34373 4.54236,1.59857 8.38414,5.0008 10.57265,9.363 1.67953,3.34767 2.39312,6.96066 2.13403,10.80483 -0.16321,2.42176 -0.59655,4.28753 -1.48364,6.38799 -1.03563,2.45221 -2.35037,4.38482 -4.30506,6.32829 -2.4942,2.47987 -5.38625,4.03081 -9.08421,4.87164 l -1.22307,0.2781 -47.68572,0.0138 c -39.85951,0.0115 -47.8275,-0.008 -48.54965,-0.12141 z m 95.53003,-4.84485 c 4.54352,-0.79233 8.6602,-4.00408 10.66209,-8.31835 0.43545,-0.93844 0.89595,-2.34734 1.14915,-3.51577 0.26309,-1.2141 0.26361,-4.73555 8.8e-4,-5.94214 -0.89784,-4.12337 -3.006,-7.28234 -6.32307,-9.47482 -1.46721,-0.96979 -2.87534,-1.57802 -4.73419,-2.04489 l -0.8418,-0.21143 -47.24006,-0.0295 c -52.78515,-0.0329 -48.28752,-0.0932 -50.60629,0.67859 -2.11141,0.70281 -3.76035,1.73033 -5.39337,3.36084 -2.10709,2.10385 -3.42686,4.57107 -4.07724,7.62215 -0.29926,1.40386 -0.32332,4.40868 -0.0468,5.84311 1.1234,5.82739 5.61504,10.54596 11.29906,11.86992 0.49023,0.11419 1.00274,0.22491 1.13891,0.24606 0.13617,0.0211 21.37722,0.0445 47.20233,0.0519 41.42599,0.0119 47.05548,-0.004 47.81039,-0.13572 z m 0.8539,-38.09834 c 4.90803,-1.39456 8.71555,-5.01849 10.22851,-9.73528 0.47607,-1.4842 0.68025,-2.78955 0.68033,-4.34939 8e-5,-1.76739 -0.18071,-2.83425 -0.72833,-4.2979 -0.15803,-0.42236 -0.22282,-0.50767 -0.29186,-0.38429 -0.0784,0.14008 -0.50161,0.16142 -3.62696,0.18286 -4.39328,0.0301 -2.81553,0.0291 -16.66045,0.0113 -6.45465,-0.008 -15.03363,-0.0125 -19.06438,-0.009 -4.03076,0.003 -9.58649,-0.0262 -12.34607,-0.0653 -2.75958,-0.039 -11.24942,-0.0781 -18.86631,-0.0869 -7.61689,-0.009 -14.34854,-0.0431 -14.95922,-0.0762 -0.61069,-0.0331 -1.13182,-0.0387 -1.15808,-0.0124 -0.11107,0.11106 -0.99364,0.11596 -1.06167,0.006 -0.0484,-0.0784 -0.61208,-0.13004 -1.73536,-0.15905 -1.5078,-0.0389 -1.65146,-0.0283 -1.53377,0.11349 0.11151,0.13437 0.095,0.16521 -0.11726,0.21848 -0.13591,0.0341 -0.32925,0.0211 -0.42964,-0.0289 -0.1004,-0.05 -0.6282,-0.0709 -1.1729,-0.0463 -3.06662,0.13811 -4.11719,0.13392 -4.58371,-0.0183 -0.53338,-0.17401 -2.79415,-0.33395 -2.79501,-0.19773 -3.1e-4,0.0489 -0.17845,0.0955 -0.39586,0.10365 -0.22676,0.008 -0.37062,-0.0251 -0.33741,-0.0788 0.0352,-0.057 -0.12976,-0.07 -0.42118,-0.0333 -0.9593,0.12091 -3.31611,0.0586 -3.7102,-0.098 -0.0886,-0.0352 -0.42281,-0.041 -0.74277,-0.0129 -0.87564,0.077 -2.75592,-0.10412 -4.1204,-0.39687 -0.66829,-0.14338 -1.41562,-0.2758 -1.66073,-0.29427 -0.24512,-0.0185 -0.77991,-0.10724 -1.18843,-0.19728 -0.40853,-0.09 -0.85419,-0.18545 -0.99036,-0.21204 -0.52049,-0.10163 -2.23456,-0.64868 -2.36474,-0.75472 -0.1914,-0.15589 -0.60182,0.35771 -1.0916,1.36602 -1.25792,2.58966 -1.54486,6.14702 -0.74476,9.2333 1.08284,4.1769 4.22722,7.76659 8.36617,9.55099 0.93908,0.40486 2.41388,0.83431 3.32292,0.9676 0.32227,0.0473 21.79601,0.0797 47.97204,0.0725 l 47.38861,-0.0131 z M 57.05239,343.62797 c -0.20547,-0.0214 -0.51744,-0.0211 -0.69325,8e-4 -0.17581,0.0219 -0.008,0.0394 0.3736,0.039 0.38128,-4.4e-4 0.52513,-0.0183 0.31965,-0.0398 z m -43.42497,-0.0924 c -0.0681,-0.0275 -0.1795,-0.0275 -0.24759,0 -0.0681,0.0275 -0.0124,0.05 0.1238,0.05 0.13617,0 0.19188,-0.0225 0.12379,-0.05 z m 30.3297,-11.51116 c 3.63515,-0.2544 5.07662,-0.4399 7.08106,-0.91127 8.33173,-1.95928 15.35275,-7.68145 18.74856,-15.28019 1.06529,-2.38376 1.9166,-5.50496 2.29318,-8.40758 0.26862,-2.07042 0.36007,-4.71442 0.2902,-8.39031 -0.0733,-3.85572 0.002,-5.27092 0.41279,-7.71182 0.47768,-2.84147 1.51609,-6.64925 2.47914,-9.09079 0.23982,-0.608 0.43603,-1.13812 0.43603,-1.17806 0,-0.0906 -1.32533,-2.50159 -3.39937,-6.18405 -2.20889,-3.9219 -2.20924,-3.71213 0.0114,-6.95914 0.79091,-1.15645 1.44223,-2.19177 1.44738,-2.3007 0.009,-0.18372 -0.0732,-0.20261 -1.12954,-0.26062 -1.27606,-0.0701 -1.4117,-0.0973 -3.5708,-0.71798 -5.15192,-1.48095 -9.44825,-1.51653 -13.21577,-0.10945 -1.26367,0.47195 -1.86578,0.77767 -2.97107,1.50853 -3.73046,2.46673 -6.37116,6.59551 -7.41901,11.59976 -0.70381,3.36121 -0.78189,4.68342 -0.80489,13.63002 -0.0235,9.13437 -0.0937,10.23566 -0.89512,14.03124 -1.35516,6.41837 -5.12174,12.94708 -9.98055,17.29954 -5.44997,4.882 -11.12826,7.33777 -19.62341,8.48682 -1.68994,0.22858 -1.68814,0.29188 0.0138,0.48761 1.61756,0.18602 5.34034,0.45181 7.66146,0.54698 2.67078,0.10952 20.31284,0.0389 22.13449,-0.0885 z M 60.52204,274.7826 c -3.12305,-1.02855 -4.05711,-4.79501 -1.79507,-7.23829 0.96619,-1.0436 1.95115,-1.44114 3.39348,-1.36965 0.70173,0.0348 0.96825,0.0982 1.51491,0.36064 2.59226,1.24432 3.4594,4.49645 1.7861,6.69863 -0.473,0.62251 -1.20393,1.1807 -1.90477,1.45462 -0.776,0.3033 -2.22147,0.3487 -2.99465,0.094 z m 20.61515,5.79344 c 1.53501,-0.82646 6.71267,-3.57266 9.16867,-4.86302 2.9763,-1.56371 7.53466,-4.04121 7.95977,-4.32619 0.82729,-0.55459 1.86294,-1.6663 1.55229,-1.6663 -0.0247,0 -1.52879,-0.35893 -3.34245,-0.79762 -11.44247,-2.76773 -17.75509,-4.2532 -18.0743,-4.2532 -0.13212,0 -0.3275,0.0467 -0.43419,0.10381 -0.21432,0.1147 -3.97707,5.73495 -4.20539,6.28141 -0.1911,0.45736 -0.17746,0.90851 0.042,1.38908 0.0995,0.21788 0.98211,1.77769 1.96135,3.46625 0.97924,1.68856 2.05944,3.57143 2.40043,4.18415 0.341,0.61272 0.69413,1.1573 0.78473,1.21017 0.33718,0.1968 0.68141,0.0821 2.1871,-0.72854 z"
           id="path26" /><path
           style="fill:#933d49"
           d="m -1.2527,404.94333 c -2.14052,-0.28552 -4.34243,-0.95461 -6.16541,-1.87346 -4.05261,-2.04267 -7.62759,-6.13131 -9.31856,-10.65747 -0.80891,-2.16518 -1.15404,-4.15478 -1.15404,-6.65272 0,-2.46015 0.28683,-4.31146 1.00025,-6.45608 1.10063,-3.30855 2.85352,-5.90483 5.63372,-8.34431 1.52736,-1.34018 4.05817,-2.85589 5.94357,-3.55963 0.96409,-0.35985 1.3865,-0.55458 1.3865,-0.63916 0,-0.0418 -0.27854,-0.16248 -0.61897,-0.26818 -4.25332,-1.32059 -8.00032,-4.14702 -10.4051,-7.84876 -3.33494,-5.13355 -3.86428,-11.75103 -1.40172,-17.52327 0.17546,-0.41128 0.35034,-0.89037 0.38861,-1.06463 l 0.0696,-0.31685 -1.81527,-1.5e-4 c -2.045,-1.7e-4 -2.26207,-0.0555 -2.78516,-0.71046 -0.55279,-0.6921 -0.45947,-1.70454 0.22925,-2.48696 0.21895,-0.24874 1.23278,-1.13962 2.25297,-1.97974 5.30364,-4.36751 10.26554,-8.99539 15.03563,-14.02346 1.79037,-1.88721 1.93178,-2.06381 2.18078,-2.72348 0.64233,-1.70176 1.14979,-2.53524 3.59512,-5.9048 5.29007,-7.28951 7.71948,-11.13732 9.64779,-15.28061 2.64706,-5.68766 3.95558,-10.44423 4.86874,-17.69829 0.75407,-5.99017 1.71139,-9.52339 3.6628,-13.51838 1.49944,-3.06972 3.01302,-5.18629 5.49758,-7.68775 1.75336,-1.76529 2.99454,-2.80062 4.77508,-3.98315 4.09983,-2.72285 8.63722,-4.37724 13.94402,-5.08415 1.69478,-0.22576 7.06405,-0.25465 8.76466,-0.0472 5.8608,0.71507 10.72183,2.5045 15.40007,5.66904 2.32733,1.5743 4.90634,3.89525 6.7261,6.0531 l 0.81054,0.96113 0.76256,-0.008 c 0.60364,-0.006 1.19601,0.0988 2.84232,0.50477 3.7538,0.92567 15.88326,3.81457 18.51969,4.41088 1.76772,0.39982 2.78889,0.96853 3.40251,1.89494 1.06061,1.60122 0.85491,3.43065 -0.55177,4.90732 -1.19042,1.24964 -2.47489,1.99732 -13.93223,8.10981 l -7.33917,3.91546 0.0164,1.08585 c 0.017,1.12849 0.38339,4.5524 0.73557,6.87482 0.92544,6.10261 3.00895,11.98213 6.23101,17.58348 1.13262,1.96898 3.39694,5.39455 4.77882,7.22961 3.84696,5.10856 9.46008,10.54035 17.05761,16.50656 0.59917,0.47051 1.25432,1.02682 1.45589,1.23623 0.49283,0.512 0.7921,1.22709 0.84955,2.02996 0.0573,0.80092 -0.19391,1.42183 -0.74548,1.84253 -0.32067,0.24459 -0.44156,0.27083 -1.40112,0.30416 -0.57759,0.0201 -1.08458,0.0687 -1.12666,0.10817 -0.0421,0.0394 0.14715,0.59292 0.42049,1.22996 0.90225,2.10271 1.3914,4.11295 1.60355,6.59008 0.25793,3.01152 -0.33711,6.071 -1.74689,8.98183 -2.21869,4.58104 -6.43943,8.18215 -11.54025,9.84608 -0.46299,0.15104 -0.82144,0.31321 -0.79656,0.36039 0.0249,0.0472 0.18086,0.13484 0.34662,0.1948 3.57476,1.29307 5.05449,2.07333 7.16095,3.77596 5.38653,4.35386 8.00081,12.00638 6.55105,19.17615 -0.61508,3.04182 -2.29052,6.35102 -4.49892,8.88592 -2.89789,3.32631 -6.86085,5.42611 -11.48662,6.08627 -1.4707,0.20989 -94.14121,0.19622 -95.71806,-0.0141 z m 31.1141,-4.17372 c -5.46493,-0.0142 -14.37815,-0.0142 -19.80716,0 -5.42901,0.0142 -0.95771,0.0257 9.93623,0.0257 10.89393,0 15.33585,-0.0116 9.87093,-0.0257 z m 49.22866,0 c -7.14914,-0.014 -18.84774,-0.014 -25.99689,0 -7.14914,0.014 -1.29984,0.0255 12.99845,0.0255 14.29828,0 20.14758,-0.0115 12.99844,-0.0255 z m 14.46723,-0.1509 c -0.026,-0.0421 0.14102,-0.0465 0.37125,-0.01 0.26233,0.0419 0.3964,0.031 0.35915,-0.0293 -0.0356,-0.0576 0.0633,-0.0782 0.24649,-0.0513 0.18685,0.0274 0.28236,0.007 0.24535,-0.0531 -0.0367,-0.0593 0.0417,-0.0785 0.19873,-0.0485 0.16639,0.0318 0.23624,0.0122 0.19493,-0.0546 -0.0401,-0.0649 0.0103,-0.0846 0.13384,-0.0523 0.10901,0.0285 0.19821,0.006 0.19821,-0.0495 0,-0.0557 0.0961,-0.0762 0.21355,-0.0455 0.13683,0.0358 0.19016,0.018 0.14842,-0.0496 -0.0417,-0.0675 0.0116,-0.0853 0.14856,-0.0495 0.13693,0.0358 0.19029,0.018 0.14855,-0.0495 -0.0417,-0.0675 0.0116,-0.0853 0.14855,-0.0495 0.14535,0.038 0.19126,0.0196 0.14355,-0.0576 -0.0455,-0.0736 -0.0161,-0.0928 0.0836,-0.0545 0.0848,0.0325 0.1537,0.007 0.1537,-0.0565 0,-0.0635 0.04,-0.0908 0.0888,-0.0606 0.1228,0.0759 0.72406,-0.18767 0.63387,-0.27786 -0.0401,-0.0401 0.011,-0.0407 0.11364,-0.001 0.1398,0.0537 0.16623,0.0387 0.10547,-0.0596 -0.0521,-0.0843 -0.0427,-0.10743 0.0265,-0.0647 0.14531,0.0898 0.82168,-0.24104 0.74533,-0.36459 -0.0344,-0.0556 -0.0101,-0.0668 0.0561,-0.0259 0.14801,0.0915 2.00752,-1.12742 1.92461,-1.26156 -0.0333,-0.0539 -0.0177,-0.0715 0.0348,-0.0391 0.0524,0.0324 0.22645,-0.0531 0.38669,-0.18994 0.16023,-0.13687 0.22449,-0.2162 0.14278,-0.1763 -0.0873,0.0427 -0.11452,0.0354 -0.066,-0.0176 0.0454,-0.0496 0.11224,-0.0903 0.14855,-0.0905 0.30795,-0.002 2.15094,-1.96035 2.02941,-2.15698 -0.0351,-0.0568 -0.0145,-0.0718 0.0466,-0.034 0.12765,0.0789 0.3443,-0.27052 0.23962,-0.38647 -0.0389,-0.0431 -0.0248,-0.0523 0.0315,-0.0205 0.11519,0.0653 0.5745,-0.55387 0.5745,-0.77439 0,-0.0787 0.022,-0.1211 0.0489,-0.0942 0.0882,0.0882 0.32746,-0.34352 0.25516,-0.4605 -0.0388,-0.0628 -0.0274,-0.0875 0.0253,-0.0549 0.12285,0.0759 0.75333,-1.19344 0.66431,-1.33748 -0.0432,-0.0699 -0.0204,-0.0795 0.0643,-0.0272 0.096,0.0594 0.1137,0.0356 0.0659,-0.0889 -0.0387,-0.10094 -0.0255,-0.14538 0.0327,-0.10944 0.0894,0.0553 0.13632,-0.10345 0.12451,-0.4216 -0.003,-0.0681 0.0398,-0.12379 0.094,-0.12379 0.0542,0 0.0721,-0.0692 0.0396,-0.1537 -0.0382,-0.0996 -0.0191,-0.12903 0.0545,-0.0836 0.0772,0.0477 0.0956,0.002 0.0576,-0.14355 -0.0358,-0.13693 -0.018,-0.19029 0.0495,-0.14855 0.0672,0.0415 0.0856,-0.0105 0.0508,-0.14367 -0.03,-0.11485 -0.009,-0.22407 0.0471,-0.24271 0.0559,-0.0187 0.10692,-0.17666 0.11328,-0.35115 0.006,-0.17448 0.0502,-0.31735 0.0974,-0.31747 0.0472,-1.3e-4 0.0625,-0.0894 0.034,-0.1983 -0.0285,-0.10894 -0.006,-0.19807 0.0495,-0.19807 0.0557,0 0.0803,-0.11007 0.0546,-0.24459 -0.028,-0.14644 -0.007,-0.22028 0.0513,-0.18401 0.06,0.0371 0.0803,-0.0601 0.0524,-0.25058 -0.0251,-0.17115 -0.003,-0.31118 0.0489,-0.31118 0.0551,0 0.0676,-0.16823 0.03,-0.40343 -0.0355,-0.22189 -0.0289,-0.38143 0.0146,-0.35455 0.0435,0.0269 0.0791,-0.76846 0.0791,-1.76743 0,-0.99897 -0.0356,-1.79431 -0.0791,-1.76743 -0.0435,0.0269 -0.049,-0.13949 -0.0121,-0.36972 0.0482,-0.30139 0.0354,-0.3991 -0.0457,-0.34899 -0.0797,0.0493 -0.0941,-0.0232 -0.0491,-0.24782 0.045,-0.22517 0.0306,-0.29713 -0.0495,-0.24759 -0.0802,0.0495 -0.0945,-0.0224 -0.0495,-0.24759 0.0407,-0.20351 0.0275,-0.29521 -0.0367,-0.25551 -0.062,0.0383 -0.0813,-0.037 -0.0506,-0.19739 0.0318,-0.16639 0.0122,-0.23624 -0.0546,-0.19494 -0.0649,0.0401 -0.0846,-0.0103 -0.0523,-0.13383 0.0285,-0.10902 0.006,-0.19821 -0.0495,-0.19821 -0.0557,0 -0.0762,-0.0961 -0.0455,-0.21356 0.0358,-0.13682 0.018,-0.19015 -0.0496,-0.14841 -0.0675,0.0417 -0.0853,-0.0116 -0.0495,-0.14856 0.0358,-0.13693 0.018,-0.19029 -0.0495,-0.14855 -0.0675,0.0417 -0.0853,-0.0116 -0.0495,-0.14856 0.0358,-0.13693 0.018,-0.19029 -0.0495,-0.14855 -0.0675,0.0417 -0.0853,-0.0116 -0.0495,-0.14855 0.038,-0.14535 0.0196,-0.19126 -0.0576,-0.14355 -0.0736,0.0455 -0.0928,0.0161 -0.0545,-0.0836 0.0325,-0.0847 0.007,-0.1537 -0.0565,-0.1537 -0.0635,0 -0.0904,-0.0405 -0.0598,-0.0901 0.0853,-0.13799 -0.051,-0.41243 -0.16871,-0.3397 -0.0581,0.0359 -0.0748,0.0171 -0.0379,-0.0427 0.0757,-0.12247 -0.12423,-0.61694 -0.24944,-0.61694 -0.0457,0 -0.0743,-0.0334 -0.0635,-0.0743 0.0443,-0.16756 -0.14021,-0.5183 -0.24013,-0.45655 -0.0668,0.0413 -0.0784,0.0196 -0.0307,-0.0575 0.13312,-0.21539 -1.20912,-2.06335 -2.33392,-3.21328 -0.57999,-0.59295 -1.09958,-1.05025 -1.15465,-1.01621 -0.0551,0.034 -0.16089,-0.0156 -0.23515,-0.11034 -0.12477,-0.15915 -0.12043,-0.16095 0.0573,-0.0237 0.10577,0.0817 0.16139,0.097 0.12358,0.0339 -0.1333,-0.22239 -1.73485,-1.24455 -1.84415,-1.177 -0.0632,0.0391 -0.0991,0.0122 -0.0835,-0.0627 0.0151,-0.0725 -0.0498,-0.12509 -0.14504,-0.11758 -0.098,0.008 -0.14434,-0.0316 -0.10754,-0.0911 0.0407,-0.0659 0.002,-0.0805 -0.10525,-0.0395 -0.0935,0.0359 -0.14696,0.028 -0.11886,-0.0174 0.0756,-0.12227 -0.8893,-0.54744 -1.03625,-0.45662 -0.0764,0.0472 -0.0997,0.0367 -0.0603,-0.027 0.0826,-0.13362 -0.18206,-0.23659 -0.39652,-0.1543 -0.10495,0.0403 -0.14066,0.0242 -0.0983,-0.0443 0.13893,-0.22479 -2.29218,-0.86344 -2.94709,-0.7742 -0.22252,0.0303 -0.32826,0.0219 -0.23497,-0.0188 0.0933,-0.0407 -21.17421,-0.0739 -47.26112,-0.0739 -26.0869,0 -47.35441,0.0333 -47.26112,0.0739 0.0933,0.0406 -0.0755,0.0492 -0.37508,0.019 -0.40874,-0.0412 -0.50762,-0.0278 -0.39615,0.0536 0.11239,0.0821 0.0546,0.0922 -0.23714,0.0416 -0.27411,-0.0475 -0.36581,-0.0347 -0.31695,0.0444 0.0482,0.078 -0.0262,0.0923 -0.24867,0.0478 -0.21271,-0.0425 -0.29597,-0.0288 -0.25237,0.0418 0.0409,0.0662 -0.008,0.086 -0.13316,0.0534 -0.10901,-0.0285 -0.19821,-0.006 -0.19821,0.0495 0,0.0557 -0.0961,0.0762 -0.21355,0.0455 -0.13683,-0.0358 -0.19016,-0.018 -0.14842,0.0496 0.0417,0.0675 -0.0116,0.0853 -0.14856,0.0495 -0.15561,-0.0407 -0.19265,-0.0218 -0.13628,0.0694 0.0577,0.0933 0.0205,0.10721 -0.14547,0.0545 -0.16189,-0.0514 -0.20254,-0.0378 -0.14856,0.0495 0.054,0.0874 0.0133,0.1009 -0.14855,0.0495 -0.15064,-0.0478 -0.20114,-0.0356 -0.15581,0.0378 0.042,0.068 0.01,0.0865 -0.0866,0.0495 -0.0845,-0.0324 -0.15369,-0.011 -0.15369,0.0476 0,0.0587 -0.074,0.0781 -0.1648,0.0433 -0.11966,-0.0459 -0.1426,-0.0273 -0.0837,0.0679 0.0521,0.0843 0.0427,0.10743 -0.0265,0.0647 -0.12341,-0.0763 -0.81439,0.22675 -0.81439,0.35715 0,0.0476 -0.0446,0.059 -0.099,0.0253 -0.0545,-0.0337 -0.099,-0.014 -0.099,0.0437 0,0.0577 -0.0334,0.096 -0.0743,0.0853 -0.16757,-0.0443 -0.51831,0.14021 -0.45656,0.24013 0.0374,0.0605 0.0205,0.0789 -0.0387,0.0423 -0.20395,-0.12605 -1.67366,0.98822 -2.85254,2.16267 -1.23754,1.2329 -2.61145,3.09057 -2.46318,3.33047 0.0412,0.0666 0.0307,0.0917 -0.0242,0.0578 -0.12323,-0.0762 -0.5543,0.79773 -0.46487,0.94242 0.0375,0.0607 0.0212,0.0798 -0.0373,0.0436 -0.11769,-0.0727 -0.25399,0.20171 -0.16871,0.33969 0.0306,0.0496 0.004,0.0901 -0.0598,0.0901 -0.0637,0 -0.089,0.069 -0.0565,0.1537 0.0385,0.10042 0.0192,0.12912 -0.0557,0.0828 -0.0766,-0.0474 -0.0937,-0.0162 -0.0515,0.0939 0.0348,0.0908 0.0154,0.1648 -0.0433,0.1648 -0.0586,0 -0.0809,0.0669 -0.0495,0.14856 0.0314,0.0817 0.009,0.14855 -0.0495,0.14855 -0.0586,0 -0.082,0.064 -0.052,0.14215 0.03,0.0782 0.007,0.15816 -0.0521,0.17771 -0.0587,0.0195 -0.11187,0.17403 -0.11823,0.34329 -0.006,0.16925 -0.0515,0.28321 -0.10022,0.25323 -0.0487,-0.03 -0.0663,0.0622 -0.0391,0.20481 0.0303,0.15868 0.0111,0.23555 -0.0495,0.19808 -0.0606,-0.0375 -0.0799,0.0394 -0.0495,0.19807 0.0307,0.16041 0.0114,0.23569 -0.0506,0.19739 -0.0642,-0.0397 -0.0774,0.052 -0.0367,0.25551 0.045,0.22516 0.0306,0.29713 -0.0495,0.24759 -0.0805,-0.0498 -0.096,0.0349 -0.0539,0.2944 0.0408,0.25147 0.0255,0.34346 -0.0495,0.29712 -0.0766,-0.0473 -0.0909,0.10493 -0.0484,0.5158 0.039,0.37826 0.0276,0.53144 -0.0326,0.43629 -0.06,-0.0949 -0.0927,0.3776 -0.0927,1.3389 0,1.01549 0.0311,1.43853 0.0982,1.33698 0.0671,-0.1016 0.0774,0.0363 0.0326,0.4363 -0.0464,0.41355 -0.0338,0.56518 0.043,0.51771 0.075,-0.0463 0.0903,0.0456 0.0495,0.29712 -0.0366,0.22576 -0.0224,0.34155 0.0375,0.30456 0.0581,-0.0359 0.0787,0.0623 0.0517,0.24626 -0.0319,0.21722 -0.0112,0.2851 0.0714,0.23406 0.083,-0.0513 0.0979,0.001 0.0521,0.184 -0.0375,0.14925 -0.0223,0.25589 0.0363,0.25589 0.0553,0 0.0754,0.0961 0.0446,0.21356 -0.0307,0.11745 -0.0154,0.18868 0.034,0.15828 0.0494,-0.0304 0.0951,0.0832 0.10146,0.25247 0.006,0.16926 0.0596,0.32374 0.11823,0.34329 0.0587,0.0195 0.0821,0.0995 0.0521,0.17771 -0.03,0.0782 -0.007,0.14215 0.052,0.14215 0.0587,0 0.0781,0.074 0.0433,0.1648 -0.04,0.10424 -0.0241,0.14058 0.0434,0.0989 0.069,-0.0426 0.0869,0.01 0.0508,0.1478 -0.0416,0.1592 -0.0228,0.19321 0.074,0.13338 0.0798,-0.0493 0.10592,-0.0414 0.0677,0.0204 -0.0897,0.14518 0.23833,0.92664 0.35796,0.8527 0.0552,-0.0341 0.0711,-0.0146 0.0353,0.0434 -0.0856,0.13853 0.0302,0.43473 0.14282,0.36515 0.0481,-0.0298 0.0582,0.0224 0.0223,0.11585 -0.0478,0.12443 -0.0301,0.14823 0.0659,0.0889 0.0872,-0.0539 0.10752,-0.0428 0.0606,0.0331 -0.087,0.14074 0.17499,0.53774 0.28755,0.43575 0.0447,-0.0405 0.0493,-0.018 0.0101,0.05 -0.0719,0.12491 0.16407,0.56047 0.25458,0.46996 0.0269,-0.0269 0.0489,0.0112 0.0489,0.0846 0,0.20597 0.75932,1.24432 0.86306,1.18021 0.0505,-0.0312 0.0646,-0.0126 0.0312,0.0414 -0.0334,0.054 0.0761,0.25033 0.24325,0.43621 0.16718,0.18588 0.24333,0.24883 0.16921,0.13989 -0.12349,-0.18151 -0.12036,-0.18678 0.0375,-0.0631 0.0947,0.0743 0.15254,0.16687 0.12848,0.2058 -0.0579,0.0937 1.07983,1.21671 1.15574,1.1408 0.0323,-0.0323 0.0924,-0.004 0.13352,0.0622 0.0508,0.0822 0.0301,0.0978 -0.0644,0.0489 -0.0765,-0.0396 -0.008,0.04 0.15224,0.17688 0.16024,0.13687 0.33425,0.22234 0.38669,0.18993 0.0524,-0.0324 0.0649,-0.01 0.0277,0.0504 -0.0673,0.10884 0.30939,0.38082 0.46525,0.33597 0.0449,-0.0129 0.0591,0.0129 0.0316,0.0574 -0.0614,0.0993 0.87254,0.74932 1.07662,0.74932 0.0809,0 0.12496,0.0221 0.0979,0.0492 -0.0853,0.0853 0.55095,0.42061 0.66463,0.35035 0.0612,-0.0378 0.0804,-0.0217 0.0441,0.037 -0.0771,0.12479 0.20556,0.25161 0.355,0.15925 0.0669,-0.0414 0.0758,-0.0173 0.0243,0.066 -0.0593,0.096 -0.0356,0.1137 0.0889,0.066 0.0935,-0.0359 0.14659,-0.0274 0.11805,0.0188 -0.0669,0.10829 0.72992,0.42368 0.86286,0.34153 0.0618,-0.0382 0.0697,-0.0121 0.0204,0.0677 -0.0598,0.0968 -0.0258,0.11568 0.13339,0.074 0.11753,-0.0307 0.19336,-0.023 0.16851,0.0172 -0.065,0.10508 1.01469,0.428 1.15045,0.34409 0.0658,-0.0406 0.0866,-0.0266 0.0495,0.0333 -0.0761,0.12307 0.57686,0.26727 0.74359,0.16422 0.0737,-0.0455 0.0851,-0.0251 0.0331,0.0591 -0.0599,0.097 -0.0149,0.11635 0.18277,0.0786 0.14427,-0.0276 0.26231,-0.006 0.26231,0.0481 0,0.0571 0.1461,0.0746 0.34885,0.0417 0.19186,-0.0311 0.32981,-0.0258 0.30656,0.0118 -0.0232,0.0376 21.18495,0.0684 47.12935,0.0684 25.94439,0 47.15032,-0.0345 47.12427,-0.0766 z m 8.87295,-25.00419 -0.24009,-0.27235 0.27235,0.24009 c 0.25455,0.22441 0.31776,0.30461 0.24009,0.30461 -0.0177,0 -0.14029,-0.12256 -0.27235,-0.27235 z m -112.39809,0.13592 c 0,-0.0206 0.078,-0.0986 0.17331,-0.17331 0.15708,-0.12319 0.16058,-0.11969 0.0374,0.0374 -0.12937,0.16497 -0.2107,0.21743 -0.2107,0.13592 z m 111.3087,-1.22531 -0.24009,-0.27235 0.27235,0.24009 c 0.14979,0.13205 0.27234,0.25461 0.27234,0.27235 0,0.0777 -0.0802,0.0145 -0.3046,-0.24009 z m -110.02123,-0.0622 c 0,-0.0206 0.078,-0.0986 0.17331,-0.17332 0.15707,-0.12318 0.16058,-0.11968 0.0374,0.0374 -0.12938,0.16497 -0.2107,0.21744 -0.2107,0.13593 z m 103.4738,-3.29845 c 0.0715,-0.0286 0.15691,-0.0251 0.18982,0.008 0.0329,0.0329 -0.0256,0.0563 -0.12999,0.052 -0.11537,-0.005 -0.13884,-0.0282 -0.0598,-0.0598 z m -0.49518,-0.099 c 0.0715,-0.0286 0.15691,-0.0251 0.18982,0.008 0.0329,0.0329 -0.0256,0.0563 -0.12999,0.052 -0.11537,-0.005 -0.13884,-0.0282 -0.0598,-0.0598 z m 12.07179,14.30404 c -0.0236,-0.12255 -0.0429,-0.0223 -0.0429,0.22283 0,0.24512 0.0193,0.34539 0.0429,0.22283 0.0236,-0.12255 0.0236,-0.3231 0,-0.44566 z M 2.68397,370.76511 c -0.14979,-0.0227 -0.39491,-0.0227 -0.5447,0 -0.14979,0.0227 -0.0272,0.0413 0.27235,0.0413 0.29958,0 0.42214,-0.0186 0.27235,-0.0413 z m 1.43602,0.005 c -0.0681,-0.0275 -0.1795,-0.0275 -0.24759,0 -0.0681,0.0275 -0.0124,0.05 0.12379,0.05 0.13618,0 0.19188,-0.0225 0.1238,-0.05 z m 15.59813,-0.007 c -0.20426,-0.0214 -0.53851,-0.0214 -0.74277,0 -0.20426,0.0214 -0.0371,0.0388 0.37139,0.0388 0.40852,0 0.57564,-0.0175 0.37138,-0.0388 z m 31.6926,0.004 c -0.0947,-0.0248 -0.27295,-0.0257 -0.39614,-0.002 -0.1232,0.0237 -0.0457,0.044 0.17215,0.0451 0.21788,0.001 0.31868,-0.0183 0.22399,-0.0431 z m 1.98071,0 c -0.0947,-0.0248 -0.27295,-0.0257 -0.39614,-0.002 -0.12319,0.0237 -0.0457,0.044 0.17216,0.0451 0.21788,0.001 0.31867,-0.0183 0.22398,-0.0431 z m 13.86386,-0.005 c -0.36767,-0.0191 -0.96932,-0.0191 -1.33699,0 -0.36767,0.0191 -0.0669,0.0346 0.66849,0.0346 0.73534,0 1.03617,-0.0156 0.6685,-0.0346 z m 2.32734,0.008 c -0.0681,-0.0275 -0.17951,-0.0275 -0.24759,0 -0.0681,0.0275 -0.0124,0.05 0.12379,0.05 0.13618,0 0.19188,-0.0225 0.1238,-0.05 z m 25.42743,-8.37219 c 4.90803,-1.39456 8.71555,-5.01849 10.22851,-9.73528 0.47607,-1.4842 0.68025,-2.78955 0.68033,-4.34939 8e-5,-1.76739 -0.18071,-2.83425 -0.72833,-4.2979 -0.15803,-0.42236 -0.22282,-0.50767 -0.29186,-0.38429 -0.0784,0.14008 -0.50161,0.16142 -3.62696,0.18286 -4.39328,0.0301 -2.81553,0.0291 -16.66045,0.0113 -6.45465,-0.008 -15.03363,-0.0125 -19.06438,-0.009 -4.03076,0.003 -9.58649,-0.0262 -12.34607,-0.0653 -2.75958,-0.039 -11.24942,-0.0781 -18.86631,-0.0869 -7.61689,-0.009 -14.34854,-0.0431 -14.95922,-0.0762 -0.61069,-0.0331 -1.13182,-0.0387 -1.15808,-0.0124 -0.11107,0.11106 -0.99364,0.11596 -1.06167,0.006 -0.0484,-0.0784 -0.61208,-0.13004 -1.73536,-0.15905 -1.5078,-0.0389 -1.65146,-0.0283 -1.53377,0.11349 0.11151,0.13437 0.095,0.16521 -0.11726,0.21848 -0.13591,0.0341 -0.32925,0.0211 -0.42964,-0.0289 -0.1004,-0.05 -0.6282,-0.0709 -1.1729,-0.0463 -3.06662,0.13811 -4.11719,0.13392 -4.58371,-0.0183 -0.53338,-0.17401 -2.79415,-0.33395 -2.79501,-0.19773 -3.1e-4,0.0489 -0.17845,0.0955 -0.39586,0.10365 -0.22676,0.008 -0.37062,-0.0251 -0.33741,-0.0788 0.0352,-0.057 -0.12976,-0.07 -0.42118,-0.0333 -0.9593,0.12091 -3.31611,0.0586 -3.7102,-0.098 -0.0886,-0.0352 -0.42281,-0.041 -0.74277,-0.0129 -0.87564,0.077 -2.75592,-0.10412 -4.1204,-0.39687 -0.66829,-0.14338 -1.41562,-0.2758 -1.66073,-0.29427 -0.24512,-0.0185 -0.77991,-0.10724 -1.18843,-0.19728 -0.40853,-0.09 -0.85419,-0.18545 -0.99036,-0.21204 -0.52049,-0.10163 -2.23456,-0.64868 -2.36474,-0.75472 -0.1914,-0.15589 -0.60182,0.35771 -1.0916,1.36602 -1.25792,2.58966 -1.54486,6.14702 -0.74476,9.2333 1.08284,4.1769 4.22722,7.76659 8.36617,9.55099 0.93908,0.40486 2.41388,0.83431 3.32292,0.9676 0.32227,0.0473 21.79601,0.0797 47.97204,0.0725 l 47.38861,-0.0131 z M 57.05239,343.62763 c -0.20547,-0.0214 -0.51744,-0.0211 -0.69325,8e-4 -0.17581,0.0219 -0.008,0.0394 0.3736,0.039 0.38128,-4.4e-4 0.52513,-0.0183 0.31965,-0.0398 z m -43.42497,-0.0924 c -0.0681,-0.0275 -0.1795,-0.0275 -0.24759,0 -0.0681,0.0275 -0.0124,0.05 0.1238,0.05 0.13617,0 0.19188,-0.0225 0.12379,-0.05 z m 30.47826,-11.41405 c 6.16099,-0.42458 9.2988,-1.19743 13.40846,-3.30254 7.68105,-3.93449 12.85936,-11.00151 14.41531,-19.67303 0.46621,-2.59828 0.52933,-3.70776 0.54699,-9.61571 0.0183,-6.11486 0.0462,-6.51662 0.66085,-9.50743 0.59515,-2.89591 1.26801,-5.2636 2.13897,-7.52672 l 0.55265,-1.43602 -0.52457,-0.99035 c -0.28852,-0.5447 -1.36852,-2.49681 -2.39999,-4.33803 -1.03148,-1.84122 -1.93901,-3.49988 -2.01673,-3.6859 -0.21735,-0.5202 -0.17707,-1.30535 0.0964,-1.87965 0.1297,-0.27235 0.84232,-1.38434 1.5836,-2.47108 0.76703,-1.1245 1.34778,-2.074 1.34778,-2.20355 0,-0.21332 -0.0391,-0.22764 -0.62157,-0.22764 -1.11019,0 -2.21128,-0.19399 -3.95562,-0.69691 -3.28188,-0.94622 -5.32942,-1.23656 -8.1411,-1.15442 -3.35977,0.0982 -5.8804,0.84494 -8.35675,2.47584 -4.09963,2.69998 -6.80125,7.20889 -7.78499,12.99291 -0.45832,2.69477 -0.48805,3.38627 -0.51089,11.88429 -0.0223,8.30942 -0.0575,9.25132 -0.44755,11.98333 -0.51035,3.57476 -1.38867,6.48064 -2.90362,9.60646 -1.65122,3.40699 -3.57437,6.1889 -6.0467,8.74677 -2.61547,2.70598 -5.21103,4.61208 -8.5703,6.29379 -3.8097,1.90719 -7.3017,2.89721 -12.75614,3.61651 -1.42402,0.18779 -1.65615,0.2527 -1.42173,0.39758 0.30777,0.19022 5.64861,0.65383 9.17656,0.79658 2.95876,0.11972 20.52118,0.0534 22.53064,-0.0851 z m 16.43993,-57.43137 c -2.17705,-0.72152 -3.44195,-3.04956 -2.81147,-5.17453 0.39929,-1.34577 1.14474,-2.27084 2.2834,-2.8336 1.3744,-0.67926 2.92406,-0.55543 4.27559,0.34167 0.29675,0.19697 0.7309,0.61805 0.96476,0.93574 1.69268,2.29934 0.98273,5.30511 -1.5355,6.50102 -0.67151,0.3189 -0.84453,0.35808 -1.69009,0.38275 -0.70479,0.0206 -1.07915,-0.018 -1.48669,-0.15305 z m 20.59158,5.88584 c 1.53501,-0.82646 6.71267,-3.57266 9.16867,-4.86302 2.9763,-1.56371 7.53466,-4.04121 7.95977,-4.32619 0.57533,-0.38569 1.59718,-1.37057 1.59718,-1.53941 0,-0.0698 -0.0669,-0.12689 -0.14855,-0.12689 -0.0817,0 -0.14856,-0.0404 -0.14856,-0.0898 0,-0.0494 -0.0961,-0.0646 -0.21355,-0.0339 -0.15845,0.0414 -0.19297,0.0225 -0.13379,-0.0732 0.0611,-0.0989 0.0184,-0.11368 -0.18258,-0.0632 -0.16844,0.0423 -0.26236,0.0256 -0.26236,-0.0466 0,-0.0637 -0.0859,-0.09 -0.19807,-0.0607 -0.10894,0.0285 -0.19808,0.0105 -0.19808,-0.0399 0,-0.0504 -0.11141,-0.0637 -0.24759,-0.0295 -0.15894,0.0399 -0.24758,0.0204 -0.24758,-0.0543 0,-0.0714 -0.0767,-0.0921 -0.19808,-0.0536 -0.11864,0.0377 -0.19807,0.0178 -0.19807,-0.0495 0,-0.0673 -0.0794,-0.0872 -0.19807,-0.0495 -0.10894,0.0346 -0.19807,0.0195 -0.19807,-0.0336 0,-0.053 -0.0891,-0.0731 -0.19807,-0.0446 -0.11571,0.0303 -0.19807,0.003 -0.19807,-0.0655 0,-0.0722 -0.0761,-0.0931 -0.19808,-0.0544 -0.11864,0.0376 -0.19807,0.0178 -0.19807,-0.0495 0,-0.0673 -0.0794,-0.0872 -0.19807,-0.0495 -0.1151,0.0365 -0.19807,0.0178 -0.19807,-0.0447 0,-0.0653 -0.0973,-0.0832 -0.24759,-0.0455 -0.14226,0.0357 -0.24759,0.0194 -0.24759,-0.0384 0,-0.0553 -0.0891,-0.0772 -0.19807,-0.0487 -0.10894,0.0285 -0.19807,0.006 -0.19807,-0.0495 0,-0.0557 -0.0891,-0.078 -0.19807,-0.0495 -0.11571,0.0303 -0.19807,0.003 -0.19807,-0.0655 0,-0.0722 -0.0761,-0.0931 -0.19808,-0.0544 -0.11864,0.0376 -0.19807,0.0178 -0.19807,-0.0495 0,-0.0673 -0.0794,-0.0872 -0.19807,-0.0495 -0.11864,0.0376 -0.19807,0.0178 -0.19807,-0.0495 0,-0.0673 -0.0794,-0.0872 -0.19807,-0.0495 -0.11864,0.0376 -0.19807,0.0178 -0.19807,-0.0495 0,-0.0673 -0.0794,-0.0872 -0.19808,-0.0495 -0.11864,0.0376 -0.19807,0.0178 -0.19807,-0.0495 0,-0.0673 -0.0794,-0.0872 -0.19807,-0.0495 -0.11864,0.0377 -0.19807,0.0178 -0.19807,-0.0495 0,-0.0673 -0.0794,-0.0872 -0.19807,-0.0495 -0.10894,0.0346 -0.19807,0.0195 -0.19807,-0.0336 0,-0.053 -0.0841,-0.0745 -0.1869,-0.0476 -0.10279,0.0269 -0.21425,0.005 -0.24769,-0.0495 -0.0334,-0.0541 -0.14988,-0.0751 -0.25876,-0.0466 -0.10889,0.0285 -0.19798,0.006 -0.19798,-0.0495 0,-0.0557 -0.0891,-0.078 -0.19807,-0.0495 -0.11571,0.0303 -0.19807,0.003 -0.19807,-0.0655 0,-0.0722 -0.0761,-0.0931 -0.19807,-0.0544 -0.11864,0.0377 -0.19807,0.0178 -0.19807,-0.0495 0,-0.0673 -0.0794,-0.0872 -0.19807,-0.0495 -0.11864,0.0377 -0.19807,0.0178 -0.19807,-0.0495 0,-0.0673 -0.0794,-0.0872 -0.19808,-0.0495 -0.1151,0.0365 -0.19807,0.0178 -0.19807,-0.0447 0,-0.0653 -0.0973,-0.0832 -0.24759,-0.0455 -0.14226,0.0357 -0.24759,0.0194 -0.24759,-0.0384 0,-0.0553 -0.0891,-0.0772 -0.19807,-0.0487 -0.10894,0.0285 -0.19807,0.006 -0.19807,-0.0495 0,-0.0557 -0.0891,-0.078 -0.19807,-0.0495 -0.10894,0.0285 -0.19807,0.006 -0.19807,-0.0495 0,-0.0557 -0.0891,-0.078 -0.19807,-0.0495 -0.11571,0.0303 -0.19808,0.003 -0.19808,-0.0655 0,-0.0722 -0.0761,-0.0931 -0.19807,-0.0544 -0.1151,0.0365 -0.19807,0.0178 -0.19807,-0.0447 0,-0.0653 -0.0973,-0.0832 -0.24759,-0.0455 -0.14226,0.0357 -0.24759,0.0194 -0.24759,-0.0383 0,-0.0553 -0.0891,-0.0772 -0.19807,-0.0487 -0.10894,0.0285 -0.19807,0.006 -0.19807,-0.0495 0,-0.0557 -0.0891,-0.078 -0.19807,-0.0495 -0.10894,0.0285 -0.19807,0.006 -0.19807,-0.0495 0,-0.0557 -0.0891,-0.078 -0.19807,-0.0495 -0.10894,0.0285 -0.19808,0.006 -0.19808,-0.0495 0,-0.0557 -0.0891,-0.078 -0.19807,-0.0495 -0.11571,0.0303 -0.19807,0.003 -0.19807,-0.0655 0,-0.0722 -0.0761,-0.0931 -0.19807,-0.0544 -0.11864,0.0377 -0.19807,0.0178 -0.19807,-0.0495 0,-0.0673 -0.0794,-0.0872 -0.19807,-0.0495 -0.11511,0.0365 -0.19808,0.0178 -0.19808,-0.0447 0,-0.0653 -0.0973,-0.0832 -0.24758,-0.0455 -0.14227,0.0357 -0.24759,0.0194 -0.24759,-0.0384 0,-0.0553 -0.0891,-0.0772 -0.19808,-0.0487 -0.11571,0.0303 -0.19807,0.003 -0.19807,-0.0655 0,-0.0722 -0.0761,-0.0931 -0.19807,-0.0544 -0.11864,0.0377 -0.19807,0.0178 -0.19807,-0.0495 0,-0.0657 -0.0789,-0.0874 -0.18974,-0.0522 -0.10435,0.0331 -0.21581,0.018 -0.24769,-0.0335 -0.0319,-0.0516 -0.14703,-0.0705 -0.25592,-0.042 -0.10888,0.0285 -0.19797,0.006 -0.19797,-0.0496 0,-0.0557 -0.0891,-0.078 -0.19807,-0.0495 -0.11571,0.0303 -0.19808,0.003 -0.19808,-0.0655 0,-0.0722 -0.0761,-0.0931 -0.19807,-0.0544 -0.1151,0.0365 -0.19807,0.0178 -0.19807,-0.0447 0,-0.0653 -0.0973,-0.0832 -0.24759,-0.0455 -0.14226,0.0357 -0.24759,0.0194 -0.24759,-0.0384 0,-0.0553 -0.0891,-0.0772 -0.19807,-0.0487 -0.11571,0.0303 -0.19807,0.003 -0.19807,-0.0655 0,-0.0722 -0.0761,-0.0931 -0.19807,-0.0544 -0.11864,0.0377 -0.19807,0.0178 -0.19807,-0.0495 0,-0.0673 -0.0794,-0.0872 -0.19807,-0.0495 -0.11511,0.0365 -0.19808,0.0178 -0.19808,-0.0447 0,-0.0653 -0.0973,-0.0832 -0.24759,-0.0455 -0.14226,0.0357 -0.24758,0.0194 -0.24758,-0.0384 0,-0.0553 -0.0891,-0.0772 -0.19808,-0.0487 -0.11571,0.0303 -0.19807,0.003 -0.19807,-0.0655 0,-0.0722 -0.0761,-0.0931 -0.19807,-0.0544 -0.10894,0.0346 -0.19807,0.0254 -0.19807,-0.0203 0,-0.0458 -0.17827,-0.0832 -0.39614,-0.0832 -0.21788,0 -0.39615,0.0344 -0.39615,0.0765 0,0.0421 -0.0343,0.0654 -0.0762,0.0518 -0.0419,-0.0136 -0.20905,0.10344 -0.37138,0.26012 -0.16234,0.15668 -0.22831,0.25309 -0.1466,0.21424 0.0817,-0.0389 0.0371,0.0262 -0.099,0.14461 -0.13617,0.1184 -0.18074,0.18524 -0.099,0.14856 0.0817,-0.0367 0.0371,0.0302 -0.099,0.14855 -0.13617,0.11839 -0.18074,0.18524 -0.099,0.14855 0.0817,-0.0367 0.0371,0.0302 -0.099,0.14856 -0.13617,0.11839 -0.18074,0.18524 -0.099,0.14855 0.0817,-0.0367 0.0371,0.0302 -0.099,0.14855 -0.13618,0.1184 -0.18074,0.18581 -0.099,0.14981 0.0982,-0.0433 0.0903,-0.0177 -0.0232,0.0755 -0.0945,0.0775 -0.1438,0.1689 -0.10962,0.20309 0.0342,0.0342 -0.0108,0.0901 -0.1,0.12438 -0.0892,0.0342 -0.13731,0.10243 -0.10694,0.15158 0.0304,0.0491 -0.0142,0.116 -0.099,0.14855 -0.0849,0.0326 -0.12941,0.0994 -0.099,0.14856 0.0304,0.0491 -0.0142,0.116 -0.099,0.14855 -0.0849,0.0326 -0.12973,0.0989 -0.0997,0.14742 0.03,0.0485 -0.0705,0.20712 -0.2234,0.35245 -0.15286,0.14532 -0.21108,0.23078 -0.12937,0.18991 0.0817,-0.0409 0.0371,0.0226 -0.099,0.14095 -0.13617,0.11839 -0.18074,0.18524 -0.099,0.14855 0.0817,-0.0367 0.0371,0.0302 -0.099,0.14856 -0.13617,0.11839 -0.18074,0.18524 -0.099,0.14855 0.0817,-0.0367 0.0371,0.0302 -0.099,0.14855 -0.13617,0.1184 -0.18074,0.18525 -0.099,0.14856 0.0817,-0.0367 0.0371,0.0302 -0.099,0.14855 -0.13618,0.11839 -0.18312,0.18106 -0.10432,0.13927 0.0832,-0.0442 0.0493,0.056 -0.081,0.23899 -0.12336,0.17325 -0.27325,0.31499 -0.33309,0.31499 -0.0598,0 -0.0839,0.0249 -0.0535,0.0553 0.0304,0.0304 -0.0952,0.30532 -0.27924,0.61089 -0.37553,0.62364 -0.48754,1.05991 -0.39658,1.54476 0.034,0.1811 0.44578,0.99443 0.91511,1.8074 0.46933,0.81297 1.60624,2.79283 2.52645,4.39968 0.92022,1.60686 1.74746,2.97726 1.83833,3.04535 0.31199,0.23379 0.65953,0.12207 2.19924,-0.70692 z"
           id="path25" /><path
           style="fill:#000000"
           d="m -1.2527,404.94333 c -2.14052,-0.28552 -4.34243,-0.95461 -6.16541,-1.87346 -4.05261,-2.04267 -7.62759,-6.13131 -9.31856,-10.65747 -0.80891,-2.16518 -1.15404,-4.15478 -1.15404,-6.65272 0,-2.46015 0.28683,-4.31146 1.00025,-6.45608 1.10063,-3.30855 2.85352,-5.90483 5.63372,-8.34431 1.52736,-1.34018 4.05817,-2.85589 5.94357,-3.55963 0.96409,-0.35985 1.3865,-0.55458 1.3865,-0.63916 0,-0.0418 -0.27854,-0.16248 -0.61897,-0.26818 -4.25332,-1.32059 -8.00032,-4.14702 -10.4051,-7.84876 -3.33494,-5.13355 -3.86428,-11.75103 -1.40172,-17.52327 0.17546,-0.41128 0.35034,-0.89037 0.38861,-1.06463 l 0.0696,-0.31685 -1.81527,-1.5e-4 c -2.045,-1.7e-4 -2.26207,-0.0555 -2.78516,-0.71046 -0.55279,-0.6921 -0.45947,-1.70454 0.22925,-2.48696 0.21895,-0.24874 1.23278,-1.13962 2.25297,-1.97974 5.30364,-4.36751 10.26554,-8.99539 15.03563,-14.02346 1.79037,-1.88721 1.93178,-2.06381 2.18078,-2.72348 0.64233,-1.70176 1.14979,-2.53524 3.59512,-5.9048 5.29007,-7.28951 7.71948,-11.13732 9.64779,-15.28061 2.64706,-5.68766 3.95558,-10.44423 4.86874,-17.69829 0.75407,-5.99017 1.71139,-9.52339 3.6628,-13.51838 1.49944,-3.06972 3.01302,-5.18629 5.49758,-7.68775 1.75336,-1.76529 2.99454,-2.80062 4.77508,-3.98315 4.09983,-2.72285 8.63722,-4.37724 13.94402,-5.08415 1.69478,-0.22576 7.06405,-0.25465 8.76466,-0.0472 5.8608,0.71507 10.72183,2.5045 15.40007,5.66904 2.32733,1.5743 4.90634,3.89525 6.7261,6.0531 l 0.81054,0.96113 0.76256,-0.008 c 0.60364,-0.006 1.19601,0.0988 2.84232,0.50477 3.7538,0.92567 15.88326,3.81457 18.51969,4.41088 1.76772,0.39982 2.78889,0.96853 3.40251,1.89494 1.06061,1.60122 0.85491,3.43065 -0.55177,4.90732 -1.19042,1.24964 -2.47489,1.99732 -13.93223,8.10981 l -7.33917,3.91546 0.0164,1.08585 c 0.017,1.12849 0.38339,4.5524 0.73557,6.87482 0.92544,6.10261 3.00895,11.98213 6.23101,17.58348 1.13262,1.96898 3.39694,5.39455 4.77882,7.22961 3.84696,5.10856 9.46008,10.54035 17.05761,16.50656 0.59917,0.47051 1.25432,1.02682 1.45589,1.23623 0.49283,0.512 0.7921,1.22709 0.84955,2.02996 0.0573,0.80092 -0.19391,1.42183 -0.74548,1.84253 -0.32067,0.24459 -0.44156,0.27083 -1.40112,0.30416 -0.57759,0.0201 -1.08458,0.0687 -1.12666,0.10817 -0.0421,0.0394 0.14715,0.59292 0.42049,1.22996 0.90225,2.10271 1.3914,4.11295 1.60355,6.59008 0.25793,3.01152 -0.33711,6.071 -1.74689,8.98183 -2.21869,4.58104 -6.43943,8.18215 -11.54025,9.84608 -0.46299,0.15104 -0.82144,0.31321 -0.79656,0.36039 0.0249,0.0472 0.18086,0.13484 0.34662,0.1948 3.57476,1.29307 5.05449,2.07333 7.16095,3.77596 5.38653,4.35386 8.00081,12.00638 6.55105,19.17615 -0.61508,3.04182 -2.29052,6.35102 -4.49892,8.88592 -2.89789,3.32631 -6.86085,5.42611 -11.48662,6.08627 -1.4707,0.20989 -94.14121,0.19622 -95.71806,-0.0141 z m 95.52753,-4.32442 c 4.56914,-0.94689 8.38482,-3.88014 10.46463,-8.04452 1.07614,-2.15476 1.58542,-4.39968 1.5839,-6.98202 -10e-4,-2.36024 -0.46645,-4.43629 -1.45826,-6.50957 -0.76589,-1.601 -1.60038,-2.77136 -2.91915,-4.09403 -1.69986,-1.70489 -3.4499,-2.79405 -5.70161,-3.54844 -1.97156,-0.66053 2.2033,-0.60922 -49.83036,-0.61248 -52.43626,-0.003 -47.913,-0.0622 -50.10057,0.65283 -2.15582,0.70466 -3.81747,1.74302 -5.54325,3.46395 -2.1819,2.17576 -3.45973,4.53417 -4.12459,7.61252 -0.18257,0.84531 -0.21768,1.32756 -0.22095,3.03522 -0.004,2.24058 0.10429,3.02682 0.65605,4.75013 1.26683,3.95674 4.27888,7.36783 8.05182,9.11853 1.38967,0.64482 3.33742,1.18329 4.75372,1.31419 0.21788,0.0201 21.36449,0.0305 46.99247,0.023 43.15114,-0.0126 46.65546,-0.0259 47.39615,-0.17934 z m 0.042,-37.94508 c 2.5572,-0.45929 5.25073,-1.94242 7.38596,-4.06692 2.18667,-2.17568 3.45036,-4.51117 4.12364,-7.62113 0.28941,-1.33686 0.31271,-4.04151 0.0456,-5.29242 -0.42309,-1.98128 -1.28582,-3.99891 -2.27086,-5.31081 l -0.52053,-0.69325 -56.71543,-0.0248 -56.71544,-0.0248 -0.56125,0.76761 c -1.20043,1.64179 -1.81784,2.9416 -2.29556,4.83276 -0.25588,1.01295 -0.27409,1.2223 -0.27528,3.16446 -0.002,2.80174 0.27402,4.06952 1.37853,6.33829 1.95332,4.01232 6.03912,7.13683 10.35527,7.91893 1.10349,0.19996 94.95362,0.21185 96.06536,0.0122 z M 44.1057,332.12157 c 6.16099,-0.42458 9.2988,-1.19743 13.40846,-3.30254 7.68105,-3.93449 12.85936,-11.0015 14.41531,-19.67303 0.46621,-2.59828 0.52933,-3.70776 0.54699,-9.61571 0.0183,-6.11486 0.0462,-6.51662 0.66085,-9.50743 0.59515,-2.89591 1.26801,-5.2636 2.13897,-7.52672 l 0.55265,-1.43601 -0.52457,-0.99036 c -0.28852,-0.5447 -1.36852,-2.49681 -2.39999,-4.33803 -1.03148,-1.84122 -1.93901,-3.49988 -2.01673,-3.6859 -0.21735,-0.5202 -0.17707,-1.30535 0.0964,-1.87965 0.1297,-0.27235 0.84232,-1.38434 1.5836,-2.47108 0.76703,-1.1245 1.34778,-2.074 1.34778,-2.20355 0,-0.21331 -0.0391,-0.22764 -0.62157,-0.22764 -1.11019,0 -2.21128,-0.19399 -3.95562,-0.69691 -3.28188,-0.94622 -5.32942,-1.23656 -8.1411,-1.15442 -3.35977,0.0982 -5.8804,0.84494 -8.35675,2.47584 -4.09963,2.69998 -6.80125,7.20889 -7.78499,12.99291 -0.45832,2.69477 -0.48805,3.38628 -0.51089,11.88429 -0.0223,8.30942 -0.0575,9.25132 -0.44755,11.98333 -0.51035,3.57476 -1.38867,6.48064 -2.90362,9.60647 -1.65122,3.40698 -3.57437,6.18889 -6.0467,8.74677 -2.61547,2.70597 -5.21103,4.61207 -8.5703,6.29378 -3.8097,1.90719 -7.3017,2.89722 -12.75614,3.61651 -1.42402,0.18779 -1.65615,0.2527 -1.42173,0.39758 0.30777,0.19022 5.64861,0.65383 9.17656,0.79658 2.95876,0.11972 20.52118,0.0534 22.53064,-0.0851 z M 60.54563,274.6902 c -2.17705,-0.72151 -3.44195,-3.04956 -2.81147,-5.17453 0.39929,-1.34576 1.14474,-2.27084 2.2834,-2.8336 1.3744,-0.67926 2.92406,-0.55543 4.27559,0.34167 0.29675,0.19697 0.7309,0.61805 0.96476,0.93574 1.69268,2.29934 0.98273,5.30511 -1.5355,6.50102 -0.67151,0.3189 -0.84453,0.35808 -1.69009,0.38275 -0.70479,0.0206 -1.07915,-0.018 -1.48669,-0.15305 z m 21.68883,5.41854 c 1.44345,-0.76834 4.2734,-2.2677 6.28878,-3.33191 6.37279,-3.36511 8.98809,-4.7861 9.82389,-5.33765 0.83888,-0.55358 1.63615,-1.36308 1.59044,-1.61484 -0.0324,-0.17821 -0.30063,-0.25638 -3.44196,-1.00289 -1.38897,-0.33008 -4.3749,-1.04545 -6.63539,-1.58971 -7.06129,-1.70015 -11.21019,-2.66107 -11.48956,-2.66107 -0.14794,0 -0.38797,0.0936 -0.5334,0.20799 -0.33832,0.26612 -4.05804,5.89044 -4.21971,6.38033 -0.23965,0.72615 -0.0985,1.08983 1.47379,3.79805 0.81037,1.39579 1.92866,3.33999 2.48511,4.32044 0.55644,0.98046 1.10456,1.88292 1.21804,2.00548 0.37409,0.40402 0.65544,0.30798 3.43997,-1.17422 z"
           id="path24" /><rect
           style="fill:#ffffff;stroke-width:0.323785"
           id="rect34"
           width="59.379311"
           height="43.59494"
           x="51.170315"
           y="348.82751" /><path
           style="fill:#f97315;stroke-width:0.461386"
           d="m 73.304403,405.55749 c -0.0328,-0.0328 -4.645276,-0.0817 -10.250073,-0.10904 -6.006714,-0.0291 -10.9674,-0.10732 -12.082706,-0.19041 -1.040693,-0.0775 -3.238043,-0.19257 -4.883002,-0.25568 -2.52348,-0.0968 -3.172291,-0.16134 -4.151955,-0.413 -4.162565,-1.06923 -6.89324,-3.71911 -9.857516,-9.56584 -2.164248,-4.26878 -3.45559,-8.19566 -4.067321,-12.36853 -0.219958,-1.50032 -0.153055,-19.28031 0.0804,-21.36314 0.975247,-8.70201 4.849899,-17.47967 10.858144,-24.59813 1.30905,-1.55095 4.622109,-4.84028 6.222719,-6.17816 6.973396,-5.82879 14.839973,-9.58092 23.865667,-11.38325 3.657754,-0.73041 5.29001,-0.86705 10.376388,-0.86861 5.127459,-10e-4 6.19155,0.0833 10.044175,0.80174 6.887305,1.2842 12.516797,3.59735 18.826577,7.73577 1.14141,0.74862 2.92676,2.04212 3.96745,2.87446 2.29843,1.83828 6.20048,5.7017 7.828,7.75051 4.62622,5.82373 7.57281,11.62352 9.24102,18.18918 1.24903,4.91591 1.35037,6.23389 1.3751,17.884 0.0212,9.95136 0.0193,9.98096 -0.80224,13.37963 -1.09105,4.51338 -2.80246,8.5247 -5.13068,12.0256 -2.06248,3.10133 -4.44439,4.9565 -7.35276,5.72676 -1.04669,0.27721 -3.68132,0.47539 -6.40251,0.48162 -0.91924,0.002 -1.70052,0.051 -1.73619,0.10879 -0.0357,0.0578 -0.57453,0.13897 -1.19744,0.18054 -1.3668,0.0912 -34.686467,0.23992 -34.771212,0.15516 z m 12.763799,-26.36183 c 2.466943,-0.69568 4.515117,-2.53283 5.485101,-4.91996 0.494324,-1.21655 0.583964,-2.43189 0.527329,-7.14918 -0.05666,-4.71595 -0.102796,-5.07404 -0.829388,-6.43506 -0.795918,-1.49082 -2.11761,-2.59488 -3.703486,-3.09364 -0.865794,-0.2723 -0.902752,-0.27337 -9.475472,-0.27337 h -8.6063 l -0.793483,0.29061 c -1.019168,0.37327 -1.949319,0.99053 -2.570766,1.70597 -0.610813,0.70322 -1.394506,2.29858 -1.567801,3.1916 -0.07734,0.39832 -0.141895,2.88109 -0.158807,6.10376 -0.0279,5.31421 -0.02264,5.44979 0.240468,6.23463 0.839899,2.5052 2.955135,4.16713 5.736008,4.50676 0.452887,0.0553 4.009596,0.088 7.903791,0.0725 6.224531,-0.0247 7.168891,-0.053 7.812806,-0.23462 z m -9.228237,-8.41632 c -0.43212,-0.33008 -4.383135,-5.02938 -4.383135,-5.21327 0,-0.26994 0.454686,-0.67761 2.861445,-2.56555 2.442822,-1.91623 2.773407,-2.12709 3.176133,-2.02601 0.189254,0.0475 1.353081,1.28215 3.20308,3.39801 4.876663,5.5775 4.553824,5.17755 4.553824,5.64157 0,0.3037 -0.08664,0.48389 -0.321651,0.66872 -0.311764,0.24523 -0.453414,0.25289 -4.608331,0.24912 -3.176598,-0.002 -4.337097,-0.0423 -4.481365,-0.15259 z"
           id="path18"
           sodipodi:nodetypes="ssssssssssscssssssssscssssssssscssssssssssssssscs" /><path
           style="fill:#767984;stroke-width:0.461386"
           d="m 73.304403,405.55749 c -0.0328,-0.0328 -4.645276,-0.0817 -10.250073,-0.10904 -6.006714,-0.0291 -10.9674,-0.10732 -12.082706,-0.19041 -1.040693,-0.0775 -3.238043,-0.19257 -4.883002,-0.25568 -2.52348,-0.0968 -3.172291,-0.16134 -4.151955,-0.413 -4.162565,-1.06923 -6.89324,-3.71911 -9.857516,-9.56584 -1.851382,-3.65168 -3.076177,-7.0924 -3.744152,-10.51818 -0.388627,-1.99316 -0.604486,-4.58432 -0.474486,-5.69572 l 0.09998,-0.85452 3.723286,-0.0611 3.723298,-0.0611 0.07269,-7.32452 c 0.04675,-4.70434 0.125778,-7.69569 0.221023,-8.36213 0.978025,-6.84291 3.089736,-12.36947 6.856857,-17.94503 1.352616,-2.00197 2.677894,-3.56244 4.925099,-5.79916 2.181612,-2.17142 3.879291,-3.58194 6.205061,-5.15549 0.856041,-0.57919 1.556445,-1.1048 1.556445,-1.16803 0,-0.0633 -0.240444,-0.50645 -0.534341,-0.98494 -0.293884,-0.47849 -1.090426,-1.77266 -1.770087,-2.87593 -0.679662,-1.10328 -1.235748,-2.07513 -1.235748,-2.15971 0,-0.37822 4.605564,-2.7672 7.693575,-3.99076 1.965999,-0.77899 5.016391,-1.76384 7.062864,-2.28028 7.102465,-1.79243 15.486972,-2.03623 22.902216,-0.66596 4.575338,0.84548 8.898668,2.27851 12.886459,4.27139 0.97685,0.4882 1.8384,0.96268 1.91454,1.05442 0.10806,0.13025 -0.2112,0.83041 -1.45732,3.19566 -1.86046,3.53126 -1.90106,2.98342 0.32254,4.35323 7.19177,4.43031 13.25319,11.36251 16.51083,18.88272 1.18174,2.72803 2.30757,6.44439 2.78522,9.19401 0.50467,2.90521 0.54884,3.76599 0.54884,10.69604 0,3.70662 0.0334,6.8262 0.074,6.9324 0.0653,0.1702 0.51238,0.1931 3.76938,0.1931 3.28848,0 3.71373,0.0223 3.86282,0.20188 0.25074,0.30213 0.20673,3.85344 -0.0709,5.71876 -0.77927,5.23646 -2.90468,10.81933 -5.74474,15.08989 -2.06248,3.10133 -4.4444,4.9565 -7.35276,5.72676 -1.04669,0.2772 -3.68132,0.47539 -6.40251,0.48162 -0.91924,0.002 -1.70052,0.051 -1.73619,0.10879 -0.0357,0.0578 -0.57453,0.13897 -1.19745,0.18054 -1.3668,0.0912 -34.686461,0.23992 -34.771206,0.15516 z m 12.763799,-26.36183 c 2.466943,-0.69568 4.515117,-2.53283 5.485101,-4.91996 0.494324,-1.21655 0.583964,-2.43189 0.527329,-7.14918 -0.05666,-4.71595 -0.102796,-5.07404 -0.829388,-6.43506 -0.795918,-1.49082 -2.11761,-2.59488 -3.703486,-3.09364 -0.865794,-0.2723 -0.902752,-0.27337 -9.475472,-0.27337 h -8.6063 l -0.793483,0.29061 c -1.019168,0.37327 -1.949319,0.99053 -2.570766,1.70597 -0.610813,0.70322 -1.394506,2.29858 -1.567801,3.1916 -0.07734,0.39832 -0.141895,2.88109 -0.158807,6.10376 -0.0279,5.31421 -0.02264,5.44979 0.240468,6.23463 0.839899,2.5052 2.955135,4.16713 5.736008,4.50676 0.452887,0.0553 4.009596,0.088 7.903791,0.0725 6.224531,-0.0247 7.168891,-0.053 7.812806,-0.23462 z m -8.999481,-8.34331 c -0.115522,-0.0303 -1.173018,-1.17122 -2.349952,-2.53531 -1.525716,-1.76836 -2.139857,-2.56678 -2.139857,-2.78193 0,-0.29495 1.03198,-1.16805 4.546457,-3.84648 1.042517,-0.79452 1.364584,-0.82452 1.965791,-0.18311 1.563432,1.66799 7.055717,8.07673 7.1148,8.30199 0.09105,0.34717 -0.231069,0.85607 -0.640391,1.01168 -0.300297,0.11418 -8.072658,0.14451 -8.496848,0.0332 z"
           id="path17"
           sodipodi:nodetypes="sssssssscccssssssssssssssssssssssssscssssssssscsssssssssssssssss" /><path
           style="fill:#f32623;stroke-width:0.461386"
           d="m 43.58608,404.74921 c -3.81984,-0.41185 -6.939448,-2.45836 -9.354969,-6.137 -2.884414,-4.39272 -5.205681,-10.26943 -6.037786,-15.28577 -0.125851,-0.75868 -0.208246,-2.00628 -0.217681,-3.29602 l -0.01517,-2.07528 3.723286,-0.0611 3.723299,-0.0611 0.07269,-7.32451 c 0.04675,-4.70435 0.125777,-7.69569 0.221022,-8.36214 0.978025,-6.8429 3.089736,-12.36947 6.856857,-17.94503 1.352617,-2.00196 2.677894,-3.56243 4.9251,-5.79915 2.181612,-2.17142 3.87929,-3.58194 6.20506,-5.1555 0.856041,-0.57919 1.556445,-1.10479 1.556445,-1.16802 0,-0.0633 -0.240443,-0.50645 -0.53434,-0.98494 -0.293885,-0.47849 -1.090427,-1.77266 -1.770088,-2.87593 -0.679661,-1.10328 -1.235748,-2.07514 -1.235748,-2.15971 0,-0.37823 4.605565,-2.7672 7.693576,-3.99076 1.965998,-0.779 5.016391,-1.76384 7.062864,-2.28029 7.102465,-1.79242 15.486972,-2.03623 22.902216,-0.66595 4.575338,0.84548 8.898668,2.27851 12.886457,4.27139 0.97685,0.48819 1.83839,0.96268 1.91454,1.05441 0.10805,0.13026 -0.2112,0.83042 -1.45733,3.19567 -1.86046,3.53125 -1.90105,2.98341 0.32255,4.35322 7.19176,4.43031 13.25319,11.36252 16.51083,18.88272 1.18174,2.72803 2.30757,6.44439 2.78521,9.19401 0.50468,2.90522 0.54884,3.766 0.54884,10.69605 0,3.70662 0.0334,6.8262 0.074,6.9324 0.0653,0.1702 0.51239,0.19309 3.76939,0.19309 3.1654,0 3.71747,0.0268 3.85004,0.18648 0.23879,0.28774 0.0819,4.50191 -0.23508,6.31069 -0.69271,3.95382 -1.89056,7.5582 -3.69122,11.10693 -2.64987,5.22236 -5.45483,7.94163 -9.32164,9.03685 l -0.97659,0.2766 -35.951102,0.0148 c -19.773112,0.009 -36.335654,-0.0265 -36.805637,-0.0773 z m 42.237971,-25.45117 c 2.604541,-0.54496 4.845249,-2.54896 5.904592,-5.28086 l 0.319119,-0.82298 0.03855,-4.883 c 0.02521,-3.20221 -0.0086,-5.15613 -0.09729,-5.67648 -0.425083,-2.48426 -2.393994,-4.62271 -4.772374,-5.18334 -1.202156,-0.28337 -17.339712,-0.2776 -18.308265,0.006 -2.158043,0.63312 -3.927189,2.67017 -4.445975,5.11925 -0.265542,1.25359 -0.262777,10.75798 0.0037,11.88745 0.586742,2.48921 2.729096,4.44532 5.347735,4.88281 0.345993,0.0578 3.897647,0.11063 7.892558,0.11724 5.943532,0.01 7.418744,-0.0203 8.117986,-0.16666 z m -8.75533,-8.44569 c -0.115522,-0.0303 -1.173018,-1.17122 -2.349952,-2.53531 -1.525716,-1.76836 -2.139857,-2.56678 -2.139857,-2.78193 0,-0.29495 1.03198,-1.16805 4.546457,-3.84648 1.042517,-0.79452 1.364584,-0.82452 1.965791,-0.18311 1.563432,1.66799 7.055717,8.07673 7.1148,8.30199 0.09105,0.34717 -0.231069,0.85607 -0.640391,1.01168 -0.300297,0.11418 -8.072658,0.14451 -8.496848,0.0332 z"
           id="path16"
           sodipodi:nodetypes="sssscccssssssssssssssssssssssssscssssscssssscsssssssssssss" /><path
           style="fill:#575c69;stroke-width:0.461386"
           d="m 43.58608,404.74921 c -2.360941,-0.25455 -4.361352,-1.1035 -6.374049,-2.70506 -3.628825,-2.88754 -7.820246,-11.56603 -9.010556,-18.65667 -0.107078,-0.63784 -0.226798,-2.10733 -0.266056,-3.26552 l -0.07135,-2.10578 h 3.716568 c 2.727908,0 3.755544,-0.039 3.863063,-0.1465 0.110138,-0.11014 0.146496,-1.69697 0.146496,-6.39121 0,-8.3532 0.158917,-10.14973 1.287733,-14.55717 2.132919,-8.32792 7.048118,-15.86701 13.971645,-21.43014 8.203966,-6.59199 17.212699,-9.92866 27.476942,-10.17702 7.29944,-0.17663 13.688395,1.1789 20.174185,4.2803 4.290629,2.05171 8.791609,5.24524 12.216739,8.66801 5.98027,5.97615 9.79025,13.13182 11.41685,21.44246 0.54037,2.76078 0.61685,4.10274 0.62966,11.04705 0.006,3.62604 0.0503,6.73013 0.097,6.89798 l 0.0848,0.3052 3.83993,0.0611 3.83994,0.0611 -0.01,2.31943 c -0.011,2.59032 -0.1851,3.95311 -0.84624,6.64072 -0.78179,3.178 -1.67927,5.60551 -3.12807,8.46083 -2.64988,5.22236 -5.45485,7.94163 -9.32164,9.03685 l -0.97661,0.27661 -35.951106,0.0148 c -19.7731,0.009 -36.335642,-0.0265 -36.805625,-0.0773 z m 42.237971,-25.45117 c 2.604541,-0.54496 4.845249,-2.54896 5.904592,-5.28086 l 0.319119,-0.82298 0.03855,-4.883 c 0.02521,-3.20221 -0.0086,-5.15613 -0.09729,-5.67648 -0.425083,-2.48426 -2.393994,-4.62271 -4.772374,-5.18334 -1.202156,-0.28337 -17.339712,-0.2776 -18.308265,0.006 -2.158043,0.63312 -3.927189,2.67017 -4.445975,5.11925 -0.265542,1.25359 -0.262777,10.75798 0.0037,11.88745 0.586742,2.48921 2.729096,4.44532 5.347735,4.88281 0.345993,0.0578 3.897647,0.11063 7.892558,0.11724 5.943532,0.01 7.418744,-0.0203 8.117986,-0.16666 z"
           id="path15"
           sodipodi:nodetypes="sssscssssssssssscccsssscssssscssssscssss" /><path
           style="fill:#b31321;stroke-width:0.461386"
           d="m 43.830232,404.6167 c -3.972284,-0.36277 -6.990736,-2.31872 -9.551933,-6.18963 -2.750279,-4.15668 -5.018202,-9.81143 -5.885,-14.67337 -0.188972,-1.06001 -0.465541,-4.23277 -0.492145,-5.64597 -9.18e-4,-0.0504 1.662764,-0.0915 3.697159,-0.0915 2.714129,0 3.737873,-0.039 3.845356,-0.1465 0.110138,-0.11013 0.146495,-1.69697 0.146495,-6.3912 0,-8.35321 0.158917,-10.14974 1.287733,-14.55718 2.132919,-8.32792 7.048118,-15.86701 13.971645,-21.43014 8.203967,-6.59198 17.212699,-9.92866 27.476942,-10.17702 7.299441,-0.17663 13.688395,1.1789 20.174186,4.2803 4.29063,2.05171 8.79161,5.24525 12.21674,8.66802 5.98026,5.97614 9.79025,13.13181 11.41685,21.44246 0.54036,2.76077 0.61685,4.10273 0.62966,11.04704 0.006,3.62604 0.0504,6.73014 0.097,6.89799 l 0.0848,0.30519 3.77456,0.0323 c 2.07602,0.0177 3.81525,0.0731 3.86498,0.12274 0.1349,0.1349 -0.11112,4.80522 -0.31988,6.07391 -0.95531,5.80382 -3.61008,12.12714 -6.73855,16.05037 -2.03405,2.55079 -4.75147,4.06968 -7.8498,4.38763 -1.51093,0.15505 -70.146429,0.1499 -71.846873,-0.005 z m 42.604191,-25.36377 c 1.381313,-0.45908 2.252639,-0.98761 3.246352,-1.96918 1.005082,-0.9928 1.760286,-2.16178 2.208253,-3.41813 0.278967,-0.78239 0.282932,-0.8661 0.282932,-5.98168 0,-5.05974 -0.0073,-5.21011 -0.278245,-6.0734 -0.736614,-2.3436 -2.698563,-4.10459 -5.075107,-4.5553 -0.883171,-0.16749 -16.750425,-0.14802 -17.560245,0.0215 -2.168885,0.45414 -4.081919,2.38583 -4.822609,4.86962 -0.299367,1.00388 -0.384981,10.74054 -0.106222,12.08547 0.573782,2.76877 2.691355,4.73355 5.656207,5.24809 0.318433,0.0552 3.957402,0.0907 8.086596,0.0787 7.504419,-0.0218 7.50798,-0.0219 8.362137,-0.30577 z"
           id="path14"
           sodipodi:nodetypes="ssssssssssssssscssssssssssssssssssss" /><path
           style="fill:#1d2330;stroke-width:0.461386"
           d="m 43.830232,404.6167 c -3.972284,-0.36277 -6.990736,-2.31872 -9.551933,-6.18963 -3.426746,-5.17907 -5.959674,-12.36149 -6.218118,-17.63224 l -0.07624,-1.555 4.749196,-0.0319 4.749197,-0.0319 0.07269,-7.99591 c 0.05972,-6.57589 0.108547,-8.22356 0.274586,-9.2777 1.341358,-8.51425 4.800643,-15.57618 10.517083,-21.46997 5.15984,-5.31994 11.887665,-9.39542 18.860962,-11.42531 1.999126,-0.58194 5.221725,-1.21746 7.507614,-1.48056 2.476121,-0.28499 7.035757,-0.28687 9.521852,-0.004 5.564939,0.63333 11.183761,2.4505 15.885309,5.13741 5.36475,3.06593 9.87801,7.04397 13.26705,11.6937 3.10238,4.25646 5.28323,9.05609 6.4761,14.25263 0.80491,3.50647 0.83952,3.98372 0.9207,12.69581 l 0.0734,7.87384 4.87065,0.0319 4.87068,0.0319 -0.0734,1.92126 c -0.0403,1.0567 -0.15664,2.41709 -0.25842,3.02307 -0.9859,5.86987 -3.61505,12.12875 -6.74224,16.05039 -2.03405,2.55078 -4.75148,4.06968 -7.8498,4.38762 -1.51094,0.15505 -70.146436,0.1499 -71.846881,-0.005 z m 42.604191,-25.36377 c 1.381313,-0.45908 2.252639,-0.98761 3.246352,-1.96918 1.005082,-0.9928 1.760286,-2.16178 2.208253,-3.41813 0.278967,-0.78239 0.282932,-0.8661 0.282932,-5.98168 0,-5.05974 -0.0073,-5.21011 -0.278245,-6.0734 -0.736614,-2.3436 -2.698563,-4.10459 -5.075107,-4.5553 -0.883171,-0.16749 -16.750425,-0.14802 -17.560245,0.0215 -2.168885,0.45414 -4.081919,2.38583 -4.822609,4.86962 -0.299367,1.00388 -0.384981,10.74054 -0.106222,12.08547 0.573782,2.76877 2.691355,4.73355 5.656207,5.24809 0.318433,0.0552 3.957402,0.0907 8.086596,0.0787 7.504419,-0.0218 7.50798,-0.0219 8.362137,-0.30577 z"
           id="path13"
           sodipodi:nodetypes="csscccssssscsssscccssssccsssssssssssss" /><path
           style="fill:#161b28;stroke-width:0.461386"
           d="m 43.769191,404.44298 c -0.100715,-0.0201 -0.595112,-0.10329 -1.098675,-0.18481 -2.475558,-0.4008 -4.921758,-1.8295 -6.73037,-3.9309 -2.824389,-3.2816 -5.839244,-9.66624 -7.060931,-14.95312 -0.371519,-1.60775 -0.735635,-4.23724 -0.735635,-5.31248 v -0.5806 h 4.758607 4.758607 l 0.06192,-0.27467 c 0.03414,-0.15106 0.08052,-3.90029 0.103285,-8.33162 0.03904,-7.60699 0.05617,-8.14558 0.30775,-9.64393 1.708056,-10.17393 6.998127,-18.78817 15.426298,-25.11988 6.120622,-4.59815 13.343651,-7.48286 20.849955,-8.32695 10.726566,-1.20624 20.82187,1.38316 29.497408,7.5659 9.05419,6.45259 14.7508,15.69359 16.3682,26.55234 0.15346,1.03028 0.20006,2.82677 0.2375,9.15563 0.0256,4.33062 0.0739,7.99745 0.10732,8.14851 l 0.0607,0.27467 h 4.88067 4.88068 v 0.77229 c 0,4.54193 -1.83142,11.09088 -4.40568,15.75424 -1.86043,3.37026 -3.42466,5.29396 -5.42217,6.66829 -0.74918,0.51546 -2.36753,1.25863 -3.35626,1.54128 -0.76464,0.21859 -2.11169,0.22748 -37.04979,0.2446 -19.940962,0.01 -36.338689,10e-4 -36.439404,-0.0188 z m 42.787314,-25.06676 c 1.89923,-0.62891 3.276285,-1.68374 4.382388,-3.35694 0.361375,-0.54668 0.812928,-1.40595 1.00343,-1.90951 l 0.346384,-0.91557 0.04075,-4.93432 c 0.0454,-5.48989 -0.0073,-6.02725 -0.748522,-7.57836 -0.485892,-1.01733 -1.93669,-2.50838 -2.890301,-2.97051 -1.382561,-0.66999 -1.651188,-0.68732 -10.684309,-0.68963 -7.069302,-0.001 -8.412825,0.0257 -9.023613,0.1848 -1.745638,0.45468 -3.250734,1.71084 -4.097156,3.41947 -0.822229,1.65981 -0.872158,2.1676 -0.824223,8.38314 0.04026,5.21573 0.05115,5.43133 0.30983,6.12044 0.709313,1.88939 2.261707,3.49086 3.916774,4.04058 1.604465,0.53292 1.79985,0.54322 9.784299,0.51569 7.617225,-0.0262 7.631078,-0.0268 8.484206,-0.30928 z"
           id="path12" /></g></g></g></svg>

