<?xml version="1.0" encoding="UTF-8" standalone="no"?>
<!-- Created with Inkscape (http://www.inkscape.org/) -->

<svg
   width="1024"
   height="1024"
   viewBox="0 0 270.93333 270.93333"
   version="1.1"
   id="svg1"
   xml:space="preserve"
   inkscape:version="1.4.2 (ebf0e940d0, 2025-05-08)"
   sodipodi:docname="video-converter-gui.svg"
   xmlns:inkscape="http://www.inkscape.org/namespaces/inkscape"
   xmlns:sodipodi="http://sodipodi.sourceforge.net/DTD/sodipodi-0.dtd"
   xmlns="http://www.w3.org/2000/svg"
   xmlns:svg="http://www.w3.org/2000/svg"><sodipodi:namedview
     id="namedview1"
     pagecolor="#ffffff"
     bordercolor="#000000"
     borderopacity="0.25"
     inkscape:showpageshadow="2"
     inkscape:pageopacity="0.0"
     inkscape:pagecheckerboard="0"
     inkscape:deskcolor="#d1d1d1"
     inkscape:document-units="px"
     inkscape:zoom="0.71535494"
     inkscape:cx="397.00572"
     inkscape:cy="561.25984"
     inkscape:window-width="2560"
     inkscape:window-height="1012"
     inkscape:window-x="0"
     inkscape:window-y="0"
     inkscape:window-maximized="1"
     inkscape:current-layer="layer1" /><defs
     id="defs1" /><g
     inkscape:label="Camada 1"
     inkscape:groupmode="layer"
     id="layer1"><g
       id="g24"><path
         style="fill:#f5b528;stroke-width:1.45097"
         d="m 196.21527,37.05613 c 8.07631,-0.05788 21.29211,-0.05788 29.36844,0 8.07632,0.05788 1.46842,0.105239 -14.68423,0.105239 -16.15263,0 -22.76053,-0.04736 -14.68421,-0.105239 z"
         id="path21" /><path
         style="fill:#f5b528;stroke-width:1.45097"
         d="m 66.93656,57.758682 c 2.796294,-2.138873 5.438206,-5.245233 7.833411,-9.210524 4.077243,-6.749924 7.608426,-11.090091 9.124927,-11.215421 0.491187,-0.0406 22.660262,-0.04793 49.264602,-0.01628 41.65251,0.04954 48.20119,0.131617 47.14506,0.590901 -1.9956,0.867858 -4.56893,3.51884 -5.48669,5.652254 -0.88065,2.047116 -1.17514,5.495551 -0.61255,7.172953 0.19749,0.58886 0.16821,0.826804 -0.0827,0.671746 -0.21368,-0.132052 -0.83023,0.513635 -1.37012,1.434875 -1.24163,2.118685 -3.30329,3.936029 -5.75242,5.070726 l -1.91241,0.886036 -49.74739,-0.0048 -49.747393,-0.0048 z"
         id="path20" /><path
         style="fill:#f5b528;stroke-width:1.45097"
         d="m 206.96449,58.972063 c 0.26395,-0.1065 0.69583,-0.1065 0.95976,0 0.26393,0.106501 0.048,0.193635 -0.47988,0.193635 -0.52786,0 -0.74381,-0.08713 -0.47988,-0.193635 z"
         id="path19" /><path
         style="fill:#f5b528;stroke-width:1.45097"
         d="m 193.91186,58.940283 c 1.9531,-0.06968 5.14908,-0.06968 7.10217,0 1.9531,0.06968 0.35511,0.126684 -3.55108,0.126684 -3.9062,0 -5.50419,-0.05701 -3.55109,-0.126684 z"
         id="path18" /><path
         style="fill:#f5b528;stroke-width:1.45097"
         d="m 185.27409,58.951313 c 0.58065,-0.08796 1.5308,-0.08796 2.11146,0 0.58065,0.08796 0.10563,0.159929 -1.05574,0.159929 -1.16129,0 -1.63638,-0.07197 -1.05572,-0.159929 z"
         id="path17" /><path
         style="fill:#f5b528;stroke-width:1.45097"
         d="m 270.05056,65.528663 c 0.0184,-0.447231 0.10941,-0.538192 0.23196,-0.231936 0.11085,0.277119 0.0972,0.608244 -0.0303,0.735798 -0.12754,0.12754 -0.21831,-0.0991 -0.20164,-0.503862 z"
         id="path16" /><path
         style="fill:#f5b528;stroke-width:1.45097"
         d="m 208.62638,84.723711 c 0.0184,-0.447216 0.10941,-0.538177 0.23194,-0.231936 0.11086,0.277134 0.0972,0.608244 -0.0303,0.735813 -0.12754,0.12754 -0.21832,-0.0991 -0.20164,-0.503877 z"
         id="path15" /><path
         style="fill:#f5b528;stroke-width:1.45097"
         d="m 267.141,101.45473 c 0.38217,-0.42229 0.78123,-0.76781 0.8868,-0.76781 0.10563,0 -0.12072,0.34552 -0.5029,0.76781 -0.38217,0.42228 -0.78123,0.76779 -0.8868,0.76779 -0.10563,0 0.12072,-0.34551 0.5029,-0.76779 z"
         id="path14" /><path
         style="fill:#f5b528;stroke-width:1.45097"
         d="m 261.11855,104.26368 c 0.27714,-0.11086 0.60825,-0.0972 0.73582,0.0303 0.12754,0.12754 -0.0993,0.2183 -0.50388,0.20164 -0.44721,-0.0184 -0.53819,-0.1094 -0.23194,-0.23195 z"
         id="path13" /><path
         style="fill:#f5b528;stroke-width:1.45097"
         d="m 250.93277,104.24318 c 1.0093,-0.0794 2.56411,-0.0784 3.45511,0.001 0.89099,0.0805 0.0651,0.14544 -1.83513,0.14423 -1.9003,-10e-4 -2.6293,-0.067 -1.61998,-0.14639 z"
         id="path12" /><path
         style="fill:#f5b528;stroke-width:1.45097"
         d="m 223.2803,104.23918 c 4.17012,-0.062 10.99397,-0.062 15.1641,0 4.17011,0.0619 0.7582,0.11274 -7.58205,0.11274 -8.34026,0 -11.75218,-0.0506 -7.58205,-0.11274 z"
         id="path11" /><path
         style="fill:#33a8df;stroke-width:1.45097"
         d="m 211.47534,165.5901 c -0.42229,-0.17773 -1.19969,-0.78783 -1.72756,-1.3558 l -0.95974,-1.03267 V 143.1059 c 0,-19.72081 0.0148,-20.11595 0.79508,-21.17961 0.43731,-0.59612 1.38746,-1.3886 2.11146,-1.76103 1.22357,-0.62943 3.04825,-0.67003 25.88603,-0.57586 22.84042,0.0942 24.66816,0.15033 25.96892,0.79771 2.23676,1.11325 4.29566,3.09202 5.5232,5.30828 l 1.13949,2.05724 0.11332,14.53271 c 0.12841,16.45794 0.0717,16.88216 -2.67624,20.00394 -0.85889,0.97576 -2.2748,2.15558 -3.14646,2.62184 -1.58422,0.84741 -1.59439,0.84775 -26.9223,0.92492 -13.93561,0.0424 -25.68298,-0.0682 -26.10527,-0.24594 z"
         id="path23" /><path
         style="fill:#33a8df;stroke-width:1.45097"
         d="M 30.082051,233.6526 C 19.977152,232.13495 12.75392,227.9755 7.0285923,220.37742 4.2813264,216.73152 2.8402962,213.99281 1.6134835,210.0859 l -0.8998696,-2.86573 v -40.30962 -40.30962 l 0.8411607,-1.57195 c 0.9980506,-1.86514 3.1787161,-3.86875 5.0712721,-4.65951 1.7743184,-0.74136 5.2429253,-0.7477 6.9761763,-0.0131 1.893741,0.80301 3.971803,2.70825 4.824185,4.423 0.677372,1.36269 0.724778,3.35051 0.913204,38.29181 0.181795,33.71132 0.255826,37.02336 0.868037,38.83425 1.369478,4.05087 4.835476,7.72452 8.722698,9.24532 1.619219,0.63349 5.976792,0.68792 69.486106,0.86782 l 67.758557,0.19196 1.55591,0.83297 c 3.74208,2.00338 5.93484,5.56393 5.92172,9.61556 -0.0131,4.15277 -2.00302,7.43935 -6.09187,10.06316 l -1.83688,1.17872 -67.341045,-0.0522 c -37.037572,-0.0287 -67.77293,-0.11709 -68.300794,-0.19641 z"
         id="path3" /><path
         style="fill:#4ebc8d;stroke-width:1.45097"
         d="m 6.7393453,116.85091 c -2.5118134,-0.86757 -4.118731,-2.33372 -5.302733,-4.83822 l -0.90744798,-1.91951 0.009576,-21.306505 C 0.54933274,65.407058 0.64351488,64.1492 2.8013581,58.570368 6.821097,48.177851 16.438003,40.100129 27.388336,37.918533 c 3.464055,-0.690132 54.701834,-1.212635 55.103993,-0.561929 0.154198,0.249497 -0.306044,1.04977 -1.061357,1.845499 -1.906498,2.008512 -4.104997,5.080815 -6.627186,9.261195 -2.797683,4.636994 -4.378808,6.551714 -7.151492,8.660357 l -2.229389,1.695463 -16.806683,0.107604 -16.806683,0.107603 -2.224904,1.042488 c -2.949257,1.381888 -6.321501,4.795731 -7.881959,7.979185 -2.213619,4.515954 -2.355883,6.030921 -2.363257,25.166117 l -0.0067,17.296155 -0.999441,2.00561 c -1.121613,2.2508 -2.678115,3.60986 -5.12163,4.47198 -2.156236,0.76077 -3.9675365,0.7202 -6.4724027,-0.14495 z"
         id="path7" /><g
         id="g23"
         transform="matrix(1.2314616,0,0,1.2314616,-27.402962,-28.013729)"><path
           style="fill:#f5b528;stroke-width:1.45097"
           d="m 132.77561,109.88649 c -2.32261,-1.28259 -4.62415,-2.77834 -5.11454,-3.32385 l -0.89162,-0.99187 0.12383,-12.327036 c 0.12319,-12.264383 0.1287,-12.336786 1.08357,-14.24598 2.65364,-5.305729 7.29263,-4.849256 18.39632,1.810151 8.49532,5.095049 12.82677,8.428627 13.71812,10.557773 0.77175,1.84348 0.64826,4.87263 -0.2722,6.676891 -0.81392,1.595409 -2.73,2.978211 -9.48138,6.842561 -1.63563,0.93619 -4.92143,2.87742 -7.30181,4.31385 -2.38039,1.43643 -4.7126,2.70344 -5.18267,2.8156 -0.58735,0.14016 -2.17559,-0.52553 -5.07761,-2.12809 z"
           id="path10" /><path
           style="fill:#f5b528;stroke-width:1.45097"
           d="m 89.202827,106.62813 c -4.961923,-3.0872 -9.668077,-6.2387 -10.458122,-7.003313 -2.739261,-2.651116 -3.289168,-6.299408 -1.380216,-9.156895 0.493436,-0.738613 1.933688,-2.130132 3.200562,-3.092267 3.06492,-2.327667 12.116878,-7.678609 16.886239,-9.982059 3.39109,-1.637791 4.12572,-1.851519 6.36425,-1.851519 2.18055,0 2.72574,0.148811 3.9408,1.075572 2.73711,2.087692 2.7396,2.101461 2.8683,15.83573 0.11224,11.978701 0.0941,12.331401 -0.68488,13.321731 -0.87778,1.11591 -9.21921,5.98819 -10.755504,6.28236 -0.74236,0.14219 -3.003249,-1.08766 -9.981429,-5.42934 z"
           id="path9" /><path
           style="fill:#f5b528;stroke-width:1.45097"
           d="m 63.243094,150.81105 c -1.602177,-0.69731 -3.055385,-2.68327 -3.626732,-4.9563 -0.700418,-2.78652 -0.266584,-21.39997 0.584244,-25.06677 0.870279,-3.75063 2.427759,-6.11557 4.68514,-7.11411 3.068385,-1.35729 3.789542,-1.08188 16.276165,6.21584 4.105786,2.3996 8.112897,5.00051 8.904693,5.77983 l 1.439629,1.41692 v 4.30603 c 0,4.89089 -0.440441,6.27525 -2.549645,8.01383 -1.617396,1.3332 -11.674618,7.22889 -16.942894,9.93219 -4.265481,2.18873 -6.329017,2.53519 -8.7706,1.47254 z"
           id="path8" /><path
           style="fill:#f5b528;stroke-width:1.45097"
           d="m 98.992305,189.22949 c -4.746298,-2.22434 -16.12776,-9.72879 -19.004256,-12.53057 -3.251639,-3.1672 -4.346878,-6.33019 -3.291838,-9.50661 0.834103,-2.51126 2.190912,-3.68651 8.091752,-7.00905 2.744893,-1.54553 6.745712,-3.90332 8.890708,-5.23953 2.144996,-1.33621 4.220481,-2.42947 4.612191,-2.42947 0.977544,0 9.693628,5.07717 10.876518,6.33564 l 0.95806,1.01926 0.11142,12.04752 c 0.10519,11.37452 0.0689,12.13081 -0.64921,13.53848 -1.45048,2.84316 -4.40623,4.67988 -7.52413,4.67551 -0.63344,-8.8e-4 -2.01549,-0.40641 -3.071215,-0.90118 z"
           id="path4" /><path
           style="fill:#33a8df;stroke-width:1.45097"
           d="m 130.66415,189.27577 c -1.13528,-0.60877 -2.12241,-1.56356 -2.87926,-2.78496 l -1.1517,-1.85858 -0.11663,-12.11157 c -0.0641,-6.66137 -0.016,-12.51257 0.10702,-13.00268 0.38425,-1.53094 9.06895,-6.61879 11.29922,-6.61952 0.50836,-1.6e-4 2.23591,0.82769 3.83901,1.83967 1.6031,1.01199 5.46625,3.29305 8.58478,5.06902 6.89116,3.92444 8.18069,4.95356 9.34786,7.4601 2.56707,5.51292 -0.18792,9.80648 -10.04216,15.65036 -7.06547,4.19005 -12.7775,6.84629 -15.24011,7.08702 -1.64783,0.16107 -2.33913,0.0267 -3.74805,-0.72886 z"
           id="path22" /><path
           style="fill:#4ebc8d;stroke-width:1.45097"
           d="m 115.28098,144.71631 c -5.5298,-1.55752 -9.09181,-5.84015 -9.4742,-11.39092 -0.33228,-4.82328 2.51967,-9.5325 7.15011,-11.80648 1.82821,-0.89782 2.63013,-1.05744 5.23047,-1.04113 2.59091,0.0162 3.41886,0.19228 5.29418,1.12563 4.52953,2.25434 6.88657,6.04262 6.93114,11.13994 0.0228,2.59575 -0.13581,3.40768 -1.02432,5.24462 -2.47761,5.12265 -8.9123,8.1916 -14.10738,6.72834 z"
           id="path6" /><path
           style="fill:#4ebc8d;stroke-width:1.45097"
           d="m 166.9428,150.43693 c -4.368,-1.68412 -16.95204,-8.3723 -19.71567,-10.47851 -2.00156,-1.52543 -2.51404,-3.13336 -2.49992,-7.84357 0.0145,-4.86031 0.44608,-6.12185 2.59512,-7.5868 3.36149,-2.29147 16.74727,-9.69641 18.89448,-10.45233 5.43828,-1.91454 9.29308,0.22552 10.85509,6.02641 0.25765,0.95681 0.42753,6.03553 0.43989,13.15106 0.019,10.93004 -0.0254,11.69539 -0.77824,13.39717 -1.02712,2.32198 -1.75927,3.12272 -3.64832,3.99018 -2.00597,0.92115 -3.3399,0.87692 -6.14243,-0.20361 z"
           id="path5" /></g><path
         style="fill:#4ebc8d;stroke-width:1.45097"
         d="m 167.7312,232.60788 c 4.09452,-2.77052 5.90807,-5.81741 5.92144,-9.94846 0.0131,-4.10823 2.15871,-7.59459 5.90729,-9.59958 1.53008,-0.81839 2.07784,-0.85587 15.2157,-1.04091 l 13.6285,-0.19195 0.19194,-15.06119 0.19197,-15.06119 1.25491,-1.2546 1.25491,-1.25461 26.38597,-0.11216 c 14.51228,-0.0617 26.95111,-0.0102 27.64186,0.11492 1.44086,0.26047 3.70695,2.10561 4.52223,3.6822 0.44932,0.86889 0.55625,3.28127 0.55625,12.55034 0,10.24468 -0.083,11.80019 -0.77392,14.51133 -2.85126,11.18775 -11.30492,19.66222 -22.83601,22.89224 l -3.0712,0.86029 -38.96597,0.11303 -38.96597,0.11303 z"
         id="path2" /><path
         style="fill:#e85c3e;stroke-width:1.45097"
         d="m 230.25776,104.14272 -15.76868,-0.19195 -1.59957,-1.059 c -1.95187,-1.29226 -3.36036,-3.354025 -3.87338,-5.669867 -0.22555,-1.018258 -0.39295,-9.18336 -0.40417,-19.714218 -0.0102,-9.886846 -0.11491,-18.131153 -0.23211,-18.320689 -0.11912,-0.19272 -6.0214,-0.344613 -13.39109,-0.344613 h -13.17808 l -2.05777,-1.074992 c -6.58422,-3.439636 -7.82877,-12.732378 -2.37811,-17.756629 3.07144,-2.831147 0.92238,-2.667583 34.95198,-2.660177 34.78935,0.0075 33.54145,-0.08831 39.84208,3.061252 8.55405,4.276004 14.45016,11.464884 17.16278,20.925904 0.85617,2.986106 0.88058,3.523316 0.88058,19.387009 v 16.315797 l -1.04106,1.770874 c -1.22889,2.090389 -3.22899,3.935869 -5.21163,4.808749 -1.66593,0.73343 -8.13639,0.83375 -33.70177,0.52255 z"
         id="path1" /></g></g></svg>
