<?xml version="1.0" encoding="UTF-8" standalone="no"?>
<!-- Created with Inkscape (http://www.inkscape.org/) -->

<svg
   width="1024"
   height="1024"
   viewBox="0 0 270.93333 270.93333"
   version="1.1"
   id="svg1"
   xml:space="preserve"
   inkscape:version="1.4.2 (ebf0e940d0, 2025-05-08)"
   sodipodi:docname="st.svg"
   xmlns:inkscape="http://www.inkscape.org/namespaces/inkscape"
   xmlns:sodipodi="http://sodipodi.sourceforge.net/DTD/sodipodi-0.dtd"
   xmlns="http://www.w3.org/2000/svg"
   xmlns:svg="http://www.w3.org/2000/svg"><sodipodi:namedview
     id="namedview1"
     pagecolor="#ffffff"
     bordercolor="#000000"
     borderopacity="0.25"
     inkscape:showpageshadow="2"
     inkscape:pageopacity="0.0"
     inkscape:pagecheckerboard="0"
     inkscape:deskcolor="#d1d1d1"
     inkscape:document-units="px"
     inkscape:zoom="0.39433504"
     inkscape:cx="1024.5095"
     inkscape:cy="573.11671"
     inkscape:window-width="1920"
     inkscape:window-height="1016"
     inkscape:window-x="0"
     inkscape:window-y="0"
     inkscape:window-maximized="1"
     inkscape:current-layer="layer1" /><defs
     id="defs1" /><g
     inkscape:label="Camada 1"
     inkscape:groupmode="layer"
     id="layer1"><g
       id="g9"><rect
         style="fill:#ffffff;stroke-width:0.135344"
         id="rect9"
         width="269.875"
         height="269.875"
         x="0.52916503"
         y="0.52916503" /><g
         id="g8"
         transform="matrix(0.62084484,0,0,0.62084484,401.49653,43.313892)"><path
           style="fill:#e6ecf4"
           d="m -529.92319,317.64469 c -1.25298,-0.44855 -2.18461,-1.29393 -2.84494,-2.58155 -0.45197,-0.88134 -0.50282,-1.59782 -0.49761,-7.01146 0.005,-5.30396 0.0648,-6.15721 0.49581,-7.08814 0.60355,-1.30361 1.6777,-2.33731 3.07026,-2.95464 0.98626,-0.43722 2.37152,-0.46475 20.34206,-0.40428 10.60606,0.0357 19.50598,-0.006 19.77761,-0.0919 0.47542,-0.15089 0.49387,-0.79801 0.49387,-17.32122 0,-9.44046 -0.10155,-17.22723 -0.22567,-17.30394 -0.12411,-0.0767 -1.10638,-0.26856 -2.18281,-0.42635 -19.06434,-2.79444 -35.26362,-12.52281 -46.75575,-28.07886 -6.7082,-9.08039 -10.7712,-19.18761 -12.37546,-30.78551 -0.56438,-4.08018 -0.87611,-31.60068 -0.37885,-33.44734 0.39512,-1.46739 2.10051,-3.30874 3.59194,-3.87832 2.64672,-1.01079 5.82869,0.13104 7.38731,2.65089 l 0.80075,1.29458 0.15041,15.36718 c 0.13988,14.29 0.19094,15.58728 0.72844,18.50721 1.07957,5.8646 2.63989,10.63542 5.11459,15.63835 10.0697,20.3572 31.47152,32.79193 54.72843,31.7979 12.64103,-0.54029 23.39555,-4.32879 33.20521,-11.69721 3.04106,-2.28426 7.60552,-6.70492 9.95628,-9.64261 6.73585,-8.41765 11.30738,-19.63035 12.3899,-30.38897 0.15163,-1.50701 0.27831,-8.71029 0.2815,-16.00729 0.005,-12.3603 0.0394,-13.33963 0.49686,-14.32561 1.41628,-3.05246 5.31615,-4.52852 8.14786,-3.08389 1.4312,0.73014 2.90201,2.43174 3.26403,3.77621 0.40764,1.51384 0.18844,29.64031 -0.25441,32.64517 -2.00563,13.60879 -6.73701,24.63773 -14.92595,34.79271 -2.05282,2.54568 -7.11326,7.59096 -9.81804,9.78864 -9.27074,7.53263 -21.00456,12.77404 -33.21824,14.83836 -1.81901,0.30744 -3.36682,0.61775 -3.43958,0.68957 -0.16851,0.16633 0.0113,34.30162 0.18167,34.47926 0.0698,0.0728 9.33424,0.19182 20.58773,0.26458 l 20.46089,0.1323 1.14683,0.80549 c 0.63076,0.44303 1.44449,1.336 1.80829,1.98438 0.63175,1.12593 0.66551,1.41058 0.75171,6.33825 0.0556,3.17985 -0.0234,5.6727 -0.20596,6.49729 -0.35514,1.60404 -1.50239,3.08441 -3.01874,3.89528 l -1.09888,0.58764 -48.55104,0.056 c -40.65417,0.0469 -48.7165,-0.003 -49.56831,-0.30817 z m 119.50934,-20.84834 c -0.11263,-0.1819 -0.63961,-1.2237 -1.17106,-2.31511 -3.13738,-6.44294 -10.30924,-12.33614 -17.60447,-14.46579 -1.34948,-0.39395 -3.2163,-0.46715 -14.05769,-0.55125 l -12.50156,-0.097 v -1.17424 c 0,-0.82454 0.10922,-1.17424 0.36677,-1.17424 0.20173,0 1.24352,-0.28323 2.3151,-0.62942 1.07159,-0.34618 2.90083,-0.93392 4.065,-1.30609 16.58168,-5.30096 32.42376,-18.37008 42.39446,-34.97386 1.84948,-3.07986 4.3186,-7.97221 5.75551,-11.40408 l 1.00833,-2.40825 3.57466,-0.17144 c 1.96607,-0.0943 19.2345,-0.17144 38.37429,-0.17144 34.73618,0 34.80171,-0.001 35.93965,-0.55187 1.76612,-0.85496 2.33434,-1.85273 2.33434,-4.09893 0,-1.62576 -0.094,-1.99588 -0.71266,-2.80704 -0.39197,-0.51389 -1.16588,-1.15947 -1.7198,-1.43461 -0.97101,-0.48232 -2.32329,-0.50279 -37.71805,-0.57093 -22.09442,-0.0425 -36.71094,-0.1675 -36.71094,-0.31387 0,-0.13376 0.29634,-1.46704 0.65853,-2.96284 0.86385,-3.56761 1.65247,-8.38308 2.20327,-13.45365 l 0.44549,-4.10105 35.18958,-0.13229 c 32.09382,-0.12065 35.25941,-0.17081 35.98333,-0.57017 1.67258,-0.9227 2.51355,-2.28402 2.51355,-4.0688 0,-1.65706 -0.65476,-2.93445 -1.94018,-3.78516 l -1.06373,-0.70399 -35.20898,-0.13229 -35.20899,-0.1323 v -11.64166 -11.64167 l 35.18959,-0.13229 35.18958,-0.13229 1.00041,-0.62198 c 1.79316,-1.11484 2.53806,-3.63244 1.6814,-5.68273 -0.46013,-1.10124 -1.7595,-2.1969 -3.02076,-2.54719 -0.6548,-0.18186 -13.17082,-0.27377 -37.41399,-0.27475 l -36.43002,-0.001 -0.87623,-0.82238 c -1.25712,-1.17988 -3.32197,-2.47654 -4.84908,-3.04507 -1.15554,-0.43019 -2.2851,-0.49985 -9.12402,-0.56264 -4.29286,-0.0394 -8.07481,-0.13302 -8.40433,-0.20803 l -0.59913,-0.13637 0.07,-8.12994 0.07,-8.12994 48.94791,-0.13229 c 45.80914,-0.12381 49.00172,-0.16173 49.78695,-0.59132 1.49857,-0.81985 2.07138,-1.93675 2.07138,-4.03889 0,-2.22378 -0.57364,-3.22599 -2.33434,-4.07833 l -1.14002,-0.55188 h -47.50453 c -26.1275,0 -48.05814,-0.0759 -48.73476,-0.16862 l -1.23022,-0.16862 0.0688,-11.93607 0.0688,-11.936061 48.81562,-0.132292 c 44.77423,-0.121339 48.88134,-0.168543 49.60937,-0.570173 1.68895,-0.931724 2.51429,-2.33624 2.51256,-4.275696 -0.002,-1.93903 -1.3725,-3.626018 -3.35732,-4.131837 -0.76704,-0.195474 -16.01379,-0.28271 -49.41094,-0.28271 H -420.559 l -0.002,-2.447395 c -0.014,-15.150462 -6.0663,-29.606996 -16.91994,-40.415102 -5.20212,-5.180296 -9.09381,-8.018708 -15.26182,-11.131243 -12.13987,-6.126094 -26.31864,-8.044369 -39.95634,-5.405778 -7.94912,1.537978 -15.66843,4.627769 -21.57377,8.635277 -0.82876,0.562417 -1.57773,1.022577 -1.66438,1.022577 -0.0867,0 -0.11442,-11.936015 -0.0617,-26.524478 0.0861,-23.840722 0.1413,-26.711872 0.54516,-28.376561 1.57273,-6.482638 4.17231,-11.112761 8.51766,-15.170837 3.61218,-3.37338 7.82154,-5.694213 12.60319,-6.948782 l 2.20441,-0.578375 82.88016,0.02538 c 76.86511,0.02354 82.94779,0.05747 83.81198,0.467555 0.9597,0.455408 1.71471,1.326302 2.30387,2.657484 0.25876,0.58467 0.36812,5.13688 0.46961,19.547576 l 0.13229,18.7854161 0.8209,1.7323241 c 1.41668,2.9895575 3.39259,4.7766038 6.40259,5.7905968 1.57755,0.531441 2.12969,0.54687 19.56967,0.54687 h 17.94632 l 0.95168,0.992188 c 1.60488,1.673177 2.06445,2.916576 2.35337,6.367282 0.16565,1.978318 0.22957,49.680841 0.17753,132.472814 -0.0759,120.78132 -0.11126,129.50435 -0.5318,131.23333 -0.64935,2.66966 -2.54412,6.33022 -4.24555,8.20208 -2.72582,2.99885 -7.83535,5.37723 -12.7653,5.94198 -3.74333,0.42882 -118.29567,0.37568 -118.56233,-0.055 z m 38.76806,-235.532803 c 4.3804,-1.165883 7.61892,-4.162345 9.03659,-8.361152 0.4782,-1.416305 0.55898,-2.154173 0.47636,-4.351347 -0.0866,-2.302771 -0.20866,-2.878217 -0.94148,-4.438075 -2.90545,-6.184435 -11.07578,-8.665888 -17.37369,-5.276654 -3.12759,1.683117 -5.94697,5.682641 -6.47517,9.185563 -0.88613,5.876708 3.00957,11.59904 8.99176,13.207854 1.84578,0.496392 4.49412,0.510638 6.28563,0.03381 z m 26.7914,-5.311548 c 1.55624,-0.530264 3.02087,-1.762345 3.71729,-3.127064 0.72125,-1.413383 1.12112,-6.718795 0.74124,-9.834686 -0.53665,-4.401842 -2.26621,-8.866349 -5.02959,-12.982823 -2.72012,-4.052052 -7.96941,-8.604484 -12.57708,-10.907443 -2.29542,-1.147276 -6.61834,-2.604203 -9.31151,-3.138204 -2.84439,-0.563984 -9.90983,-0.642348 -12.63147,-0.140096 -4.89065,0.90252 -9.97955,3.048695 -13.96432,5.88927 -2.83011,2.017459 -6.71062,6.008899 -8.60948,8.85559 -2.56383,3.84358 -5.33974,10.254658 -5.33974,12.332332 0,2.682507 2.33874,4.808811 5.29166,4.811006 3.01457,0.0022 5.08401,-1.655417 6.85665,-5.492288 2.96864,-6.425606 7.96973,-11.37935 13.65181,-13.522555 5.15374,-1.943926 11.23042,-1.943493 16.3969,0.0012 5.12517,1.929107 9.89626,6.358559 12.12633,11.257998 1.3914,3.05689 1.59672,4.184364 1.61734,8.881534 0.0186,4.238679 0.0213,4.256811 0.75996,5.225798 0.99065,1.299469 2.7819,2.216662 4.43711,2.27198 0.37426,0.01251 1.21436,-0.159174 1.8669,-0.381516 z m 22.85262,-0.489353 c 2.38756,-1.125914 3.29198,-2.698182 3.98762,-6.932122 1.40727,-8.565241 -1.50912,-19.898059 -7.39887,-28.751324 -9.90331,-14.8863283 -25.0547,-24.2436411 -42.28509,-26.1147663 -22.87588,-2.484195 -45.4673,9.1950537 -54.66129,28.2586473 -1.20016,2.488512 -1.47167,3.316205 -1.57875,4.812815 -0.11514,1.609209 -0.0522,1.939003 0.57359,3.006874 1.28049,2.184997 3.80308,3.163866 6.29017,2.44085 1.83129,-0.532372 2.925,-1.66903 4.87247,-5.06382 4.32532,-7.539804 9.82022,-12.940757 17.30745,-17.011523 10.80295,-5.8735059 24.4751,-6.7175319 36.5125,-2.2540349 12.86915,4.7719109 23.13313,15.0494929 27.29917,27.3353489 1.4814,4.368734 1.88531,8.858944 1.23574,13.737752 -0.37668,2.829179 -0.17417,3.991481 0.91076,5.227146 1.7168,1.955328 4.46345,2.473465 6.93453,1.308157 z M -515.89724,279.22361 c -0.27238,-0.27239 -0.20851,-5.85795 0.0689,-6.02943 0.13494,-0.0834 0.87908,0.0998 1.65365,0.40704 0.77456,0.30726 2.85086,1.02858 4.61398,1.60292 l 3.20567,1.04425 0.15982,1.34935 c 0.0879,0.74214 0.0968,1.45125 0.0199,1.5758 -0.16322,0.26409 -9.46002,0.31196 -9.72192,0.0501 z m 30.38298,-41.01747 c -0.58208,-0.052 -2.34748,-0.33497 -3.92311,-0.62889 -17.25086,-3.21807 -30.76582,-17.19515 -33.62437,-34.77413 -0.30839,-1.89649 -0.41878,-6.99311 -0.54224,-25.03591 -0.0853,-12.46006 -0.0763,-23.32487 0.02,-24.14403 l 0.17504,-1.48937 42.36296,0.0669 42.36295,0.0669 0.0785,22.75417 c 0.0533,15.46228 -0.0168,23.71317 -0.21903,25.74673 -0.96789,9.73453 -4.92456,17.98551 -12.01654,25.05849 -6.86056,6.84219 -15.09486,10.89853 -24.69972,12.16745 -2.71401,0.35855 -7.25042,0.45479 -9.97447,0.21159 z m -37.88594,-99.10145 c -0.26044,-0.4024 -0.465,-9.21466 -0.23517,-10.1304 l 0.16389,-0.65298 42.39424,0.0669 42.39423,0.0669 0.0752,4.89479 c 0.0414,2.69214 0.009,5.16268 -0.0712,5.49011 l -0.14639,0.59531 h -42.18039 c -33.45375,0 -42.22466,-0.0684 -42.39443,-0.33073 z m -0.1738,-26.30025 c -0.26921,-4.39988 -0.2137,-7.35329 0.14495,-7.71194 0.50388,-0.50387 84.1687,-0.45687 84.58731,0.0475 0.20985,0.25285 0.28078,1.89917 0.23083,5.35781 l -0.0721,4.9928 -42.35922,0.067 -42.35922,0.0669 z m 0.17034,-25.161206 c 0.22371,-6.545372 1.29062,-10.94803 4.05464,-16.731733 7.53255,-15.761831 22.81506,-24.96109 40.30999,-24.264463 4.63301,0.184481 7.6831,0.702831 11.38415,1.934686 14.62883,4.86906 24.96756,16.364238 28.17132,31.322448 0.47907,2.236788 1.1224,11.030648 0.85746,11.721054 -0.16144,0.420725 -2.90998,0.449778 -42.55082,0.449778 h -42.37822 z"
           id="path9" /><path
           style="fill:#205eb6"
           d="m -646.69383,-69.76605 h 436.39459 v 436.39459 h -436.39459 z m 215.98887,387.07528 c 1.51635,-0.81087 2.6636,-2.29124 3.01874,-3.89528 0.18256,-0.82459 0.26159,-3.31744 0.20596,-6.49729 -0.0862,-4.92767 -0.11996,-5.21232 -0.75171,-6.33825 -0.3638,-0.64838 -1.17753,-1.54135 -1.80829,-1.98438 l -1.14683,-0.80549 -20.46089,-0.1323 c -11.25349,-0.0728 -20.51797,-0.19182 -20.58773,-0.26458 -0.17032,-0.17764 -0.35018,-34.31293 -0.18167,-34.47926 0.0728,-0.0718 1.62057,-0.38213 3.43958,-0.68957 9.98086,-1.68693 19.5296,-5.41257 27.52969,-10.74128 4.58147,-3.05163 7.04817,-5.06464 10.84929,-8.85383 10.88479,-10.85062 17.20835,-23.71025 19.58325,-39.8246 0.44285,-3.00486 0.66205,-31.13133 0.25441,-32.64517 -0.36202,-1.34447 -1.83283,-3.04607 -3.26403,-3.77621 -2.83171,-1.44463 -6.73158,0.0314 -8.14786,3.08389 -0.45748,0.98598 -0.49144,1.96531 -0.49686,14.32561 -0.003,7.297 -0.12987,14.50028 -0.2815,16.00729 -1.08252,10.75862 -5.65405,21.97132 -12.3899,30.38897 -3.76867,4.70963 -9.91104,10.06138 -15.12839,13.18114 -15.86072,9.48406 -36.29424,10.86823 -53.56193,3.62831 -12.85262,-5.38879 -23.11998,-14.97678 -29.1996,-27.26753 -2.4747,-5.00293 -4.03502,-9.77375 -5.11459,-15.63835 -0.5375,-2.91993 -0.58856,-4.21721 -0.72844,-18.50721 l -0.15041,-15.36718 -0.80075,-1.29458 c -1.55862,-2.51985 -4.74059,-3.66168 -7.38731,-2.65089 -1.49143,0.56958 -3.19682,2.41093 -3.59194,3.87832 -0.49726,1.84666 -0.18553,29.36716 0.37885,33.44734 1.60426,11.5979 5.66726,21.70512 12.37546,30.78551 11.49213,15.55605 27.69141,25.28442 46.75575,28.07886 1.07643,0.15779 2.0587,0.34964 2.18281,0.42635 0.12412,0.0767 0.22567,7.86348 0.22567,17.30394 0,16.52321 -0.0184,17.17033 -0.49387,17.32122 -0.27163,0.0862 -9.17155,0.12755 -19.77761,0.0919 -17.97054,-0.0605 -19.3558,-0.0329 -20.34206,0.40428 -1.39256,0.61733 -2.46671,1.65103 -3.07026,2.95464 -0.43101,0.93093 -0.49069,1.78418 -0.49581,7.08814 -0.006,6.57143 0.10715,7.15897 1.66315,8.61097 1.5174,1.41598 -1.08086,1.35056 51.24771,1.29021 l 48.55104,-0.056 z m 138.85344,-20.45788 c 4.92995,-0.56475 10.03948,-2.94313 12.7653,-5.94198 1.70143,-1.87186 3.5962,-5.53242 4.24555,-8.20208 0.42054,-1.72898 0.45589,-10.45201 0.5318,-131.23333 0.052,-82.791974 -0.0119,-130.494497 -0.17753,-132.472815 -0.28892,-3.450706 -0.74849,-4.694105 -2.35337,-6.367282 l -0.95168,-0.992188 h -17.94632 c -17.43998,0 -17.99212,-0.01543 -19.56967,-0.54687 -3.01,-1.013993 -4.98591,-2.8010393 -6.40259,-5.7905968 l -0.8209,-1.7323241 -0.13229,-18.7854161 c -0.10149,-14.410696 -0.21085,-18.962906 -0.46961,-19.547576 -0.58916,-1.331182 -1.34417,-2.202076 -2.30387,-2.657484 -0.86419,-0.410084 -6.94687,-0.444017 -83.81198,-0.467555 l -82.88016,-0.02538 -2.20441,0.578375 c -4.78165,1.254569 -8.99101,3.575402 -12.60319,6.948782 -4.34535,4.058076 -6.94493,8.688199 -8.51766,15.170837 -0.40386,1.664689 -0.45902,4.535839 -0.54516,28.376561 -0.0527,14.588463 -0.0249,26.524478 0.0617,26.524478 0.0866,0 0.83562,-0.46016 1.66438,-1.022577 9.63068,-6.535622 22.98882,-10.200035 35.5058,-9.73997 9.57535,0.351944 17.99345,2.45789 26.02431,6.510471 6.16801,3.112535 10.0597,5.950947 15.26182,11.131243 10.85364,10.808106 16.90593,25.26464 16.91994,40.415102 l 0.002,2.447395 h 48.30158 c 33.39715,0 48.6439,0.08724 49.41094,0.28271 4.06349,1.035552 4.59627,6.337972 0.84476,8.407533 -0.72803,0.40163 -4.83514,0.448834 -49.60937,0.570173 l -48.81562,0.132292 -0.0688,11.936062 -0.0688,11.93607 1.23022,0.16862 c 0.67662,0.0927 22.60726,0.16862 48.73476,0.16862 h 47.50453 l 1.14002,0.55188 c 1.7607,0.85234 2.33434,1.85455 2.33434,4.07833 0,2.10214 -0.57281,3.21904 -2.07138,4.03889 -0.78523,0.42959 -3.97781,0.46751 -49.78695,0.59132 l -48.94791,0.13229 -0.07,8.12994 -0.07,8.12994 0.59913,0.13637 c 0.32952,0.075 4.11147,0.16862 8.40433,0.20803 6.83892,0.0628 7.96848,0.13245 9.12402,0.56264 1.52711,0.56853 3.59196,1.86519 4.84908,3.04507 l 0.87623,0.82238 36.43002,0.001 c 24.24317,9.8e-4 36.75919,0.0929 37.41399,0.27475 1.26126,0.35029 2.56063,1.44595 3.02076,2.54719 0.85666,2.05029 0.11176,4.56789 -1.6814,5.68273 l -1.00041,0.62198 -35.18958,0.13229 -35.18959,0.13229 v 11.64167 11.64166 l 35.20899,0.1323 35.20898,0.13229 1.06373,0.70399 c 1.28542,0.85071 1.94018,2.1281 1.94018,3.78516 0,1.78478 -0.84097,3.1461 -2.51355,4.0688 -0.72392,0.39936 -3.88951,0.44952 -35.98333,0.57017 l -35.18958,0.13229 -0.44549,4.10105 c -0.5508,5.07057 -1.33942,9.88604 -2.20327,13.45365 -0.36219,1.4958 -0.65853,2.82908 -0.65853,2.96284 0,0.14637 14.61652,0.27134 36.71094,0.31387 35.39476,0.0681 36.74704,0.0886 37.71805,0.57093 0.55392,0.27514 1.32783,0.92072 1.7198,1.43461 0.6187,0.81116 0.71266,1.18128 0.71266,2.80704 0,2.2462 -0.56822,3.24397 -2.33434,4.09893 -1.13794,0.55087 -1.20347,0.55187 -35.93965,0.55187 -19.13979,0 -36.40822,0.0771 -38.37429,0.17144 l -3.57466,0.17144 -1.00833,2.40825 c -8.56209,20.44936 -24.33056,36.65143 -43.41603,44.60989 -1.4395,0.60026 -3.56977,1.39588 -4.73394,1.76805 -1.16417,0.37217 -2.99341,0.95991 -4.065,1.30609 -1.07158,0.34619 -2.11337,0.62942 -2.3151,0.62942 -0.25755,0 -0.36677,0.3497 -0.36677,1.17424 v 1.17424 l 12.50156,0.097 c 10.84139,0.0841 12.70821,0.1573 14.05769,0.55125 7.29523,2.12965 14.46709,8.02285 17.60447,14.46579 0.53145,1.09141 1.05843,2.13321 1.17106,2.31511 0.26666,0.43068 114.819,0.48382 118.56233,0.055 z m -86.0799,-235.621614 c -5.98219,-1.608814 -9.87789,-7.331146 -8.99176,-13.207854 0.5282,-3.502922 3.34758,-7.502446 6.47517,-9.185563 6.29791,-3.389234 14.46824,-0.907781 17.37369,5.276654 0.73282,1.559858 0.85489,2.135304 0.94148,4.438075 0.11615,3.088972 -0.42018,5.104681 -1.98584,7.463449 -2.92096,4.400617 -8.71181,6.587051 -13.81274,5.215239 z m 29.86648,-5.120691 c -1.32023,-0.401598 -2.36676,-1.094274 -3.09346,-2.04751 -0.73871,-0.968987 -0.74135,-0.987119 -0.75996,-5.225798 -0.0206,-4.69717 -0.22594,-5.824644 -1.61734,-8.881534 -2.23007,-4.899439 -7.00116,-9.328891 -12.12633,-11.257998 -5.16648,-1.94466 -11.24316,-1.945093 -16.3969,-0.0012 -5.68208,2.143205 -10.68317,7.096949 -13.65181,13.522555 -1.77264,3.836871 -3.84208,5.49453 -6.85665,5.492288 -1.52874,-0.0011 -3.17857,-0.651983 -4.0248,-1.587757 -0.63689,-0.704284 -1.26686,-2.30711 -1.26686,-3.223249 0,-2.077674 2.77591,-8.488752 5.33974,-12.332332 1.89886,-2.846691 5.77937,-6.838131 8.60948,-8.85559 3.98477,-2.840575 9.07367,-4.98675 13.96432,-5.88927 2.72164,-0.502252 9.78708,-0.423888 12.63147,0.140096 6.96853,1.381717 13.04326,4.57629 17.94755,9.438229 5.06264,5.018924 8.18425,11.140004 8.97063,17.590241 0.37988,3.115891 -0.02,8.421303 -0.74124,9.834686 -1.26815,2.485094 -4.50705,4.020481 -6.92784,3.28411 z m 21.03382,-0.510815 c -1.38423,-0.628845 -2.70237,-2.153064 -2.93518,-3.394097 -0.10199,-0.543641 -0.0483,-2.018196 0.11924,-3.27679 0.64957,-4.878808 0.24566,-9.369018 -1.23574,-13.737752 -4.16604,-12.285856 -14.43002,-22.563438 -27.29917,-27.3353489 -12.0374,-4.463497 -25.70955,-3.619471 -36.5125,2.2540349 -7.48723,4.070766 -12.98213,9.471719 -17.30745,17.011523 -0.8348,1.455208 -1.95478,3.097482 -2.48884,3.649497 -2.49849,2.582494 -6.86137,2.066156 -8.6738,-1.026527 -0.62582,-1.067871 -0.68873,-1.397665 -0.57359,-3.006874 0.10708,-1.49661 0.37859,-2.324303 1.57875,-4.812815 7.17836,-14.8842223 23.09804,-25.8239692 40.91681,-28.1173718 3.75239,-0.4829596 10.00613,-0.54724 13.74448,-0.1412755 12.70669,1.3798755 24.66057,6.99055539 33.7523,15.8419995 10.001,9.7366708 15.76031,21.4798218 16.22939,33.0914908 0.21051,5.21097 -0.73377,9.816138 -2.38004,11.60724 -1.56053,1.697814 -4.82174,2.352943 -6.93466,1.393066 z m -179.1442,223.57531 c 0.077,-0.12455 0.068,-0.83366 -0.0199,-1.5758 l -0.15982,-1.34935 -3.20567,-1.04425 c -1.76312,-0.57434 -3.83942,-1.29566 -4.61398,-1.60292 -0.77457,-0.30727 -1.51871,-0.49044 -1.65365,-0.40704 -0.27746,0.17148 -0.34133,5.75704 -0.0689,6.02943 0.2619,0.26189 9.5587,0.21402 9.72192,-0.0501 z m 30.63553,-41.17899 c 9.60486,-1.26892 17.83916,-5.32526 24.69972,-12.16745 7.09198,-7.07298 11.04865,-15.32396 12.01654,-25.05849 0.20219,-2.03356 0.27238,-10.28445 0.21903,-25.74673 l -0.0785,-22.75417 -42.36295,-0.0669 -42.36296,-0.0669 -0.17504,1.48937 c -0.0963,0.81916 -0.10529,11.68397 -0.02,24.14403 0.12346,18.0428 0.23385,23.13942 0.54224,25.03591 2.85855,17.57898 16.37351,31.55606 33.62437,34.77413 1.57563,0.29392 3.34103,0.57692 3.92311,0.62889 2.72405,0.2432 7.26046,0.14696 9.97447,-0.21159 z m 36.8608,-99.15444 c 0.0805,-0.32743 0.11256,-2.79797 0.0712,-5.49011 l -0.0752,-4.89479 -42.39423,-0.0669 -42.39424,-0.0669 -0.16389,0.65298 c -0.22983,0.91574 -0.0253,9.728 0.23517,10.1304 0.16977,0.2623 8.94068,0.33073 42.39443,0.33073 h 42.18039 z m 0.0681,-28.34228 c 0.0499,-3.45864 -0.021,-5.10496 -0.23083,-5.35781 -0.41861,-0.50439 -84.08343,-0.55139 -84.58731,-0.0475 -0.35865,0.35865 -0.41416,3.31206 -0.14495,7.71194 l 0.17255,2.82009 42.35922,-0.0669 42.35922,-0.067 z m -0.0152,-18.872604 c 0.26494,-0.690406 -0.37839,-9.484266 -0.85746,-11.721054 -3.20376,-14.95821 -13.54249,-26.453388 -28.17132,-31.322448 -8.16156,-2.716493 -18.37173,-2.666704 -26.85521,0.130957 -10.73589,3.540457 -19.78855,11.630918 -24.83893,22.19882 -2.76402,5.783703 -3.83093,10.186361 -4.05464,16.731733 l -0.15148,4.43177 h 42.37822 c 39.64084,0 42.38938,-0.02905 42.55082,-0.449778 z"
           id="path8"
           sodipodi:nodetypes="cccccssssscsssssssssscssssssscssssssssscsscsscscssssscssscsssscsssssssssccssssccccscsssscccssssccssscccccccsssscsssssssssccsssssscssssccsssssssssssssssssssssssssssscsssssssssssssssscsssssscsssccccssssccsscccssscscsssccccscsssscss" /></g></g></g></svg>

