<?xml version="1.0" encoding="UTF-8" standalone="no"?>
<!-- Created with Inkscape (http://www.inkscape.org/) -->

<svg
   xmlns:dc="http://purl.org/dc/elements/1.1/"
   xmlns:cc="http://creativecommons.org/ns#"
   xmlns:rdf="http://www.w3.org/1999/02/22-rdf-syntax-ns#"
   xmlns:svg="http://www.w3.org/2000/svg"
   xmlns="http://www.w3.org/2000/svg"
   xmlns:sodipodi="http://sodipodi.sourceforge.net/DTD/sodipodi-0.dtd"
   xmlns:inkscape="http://www.inkscape.org/namespaces/inkscape"
   width="612.42902"
   height="612.42902"
   viewBox="0 0 612.42902 612.42903"
   id="svg2"
   version="1.1"
   inkscape:version="0.91 r13725"
   sodipodi:docname="xmind.svg">
  <defs
     id="defs4" />
  <sodipodi:namedview
     id="base"
     pagecolor="#ffffff"
     bordercolor="#666666"
     borderopacity="1.0"
     inkscape:pageopacity="0.0"
     inkscape:pageshadow="2"
     inkscape:zoom="0.49497475"
     inkscape:cx="378.76683"
     inkscape:cy="409.53741"
     inkscape:document-units="px"
     inkscape:current-layer="layer1"
     showgrid="false"
     units="px"
     inkscape:window-width="1364"
     inkscape:window-height="713"
     inkscape:window-x="0"
     inkscape:window-y="25"
     inkscape:window-maximized="1" />
  <metadata
     id="metadata7">
    <rdf:RDF>
      <cc:Work
         rdf:about="">
        <dc:format>image/svg+xml</dc:format>
        <dc:type
           rdf:resource="http://purl.org/dc/dcmitype/StillImage" />
        <dc:title></dc:title>
      </cc:Work>
    </rdf:RDF>
  </metadata>
  <g
     inkscape:label="Camada 1"
     inkscape:groupmode="layer"
     id="layer1"
     transform="translate(0,-439.93316)">
    <g
       id="g3467">
      <path
         sodipodi:nodetypes="ccssssssscsscc"
         inkscape:connector-curvature="0"
         id="path3465"
         d="m 109.59028,1030.9794 c -4.10434,-2.0668 -7.64918,-4.9935 -9.824833,-8.1118 -3.253592,-4.6631 -5.171766,-14.8284 -43.486122,-230.452 C 34.233999,668.35006 16.181605,564.68808 16.162869,562.05566 c -0.04897,-6.88396 5.318339,-16.74104 11.390682,-20.919 4.695912,-3.23092 14.932484,-5.13575 232.068549,-43.18323 124.93576,-21.89177 229.32485,-39.81843 231.97574,-39.83703 6.93223,-0.0486 16.85845,5.28129 21.06572,11.31135 3.25359,4.66319 5.17176,14.82847 43.48613,230.45211 22.04533,124.06553 40.0977,227.72751 40.11646,230.35993 0.0492,6.88396 -5.31835,16.74103 -11.39068,20.91901 -4.69593,3.23092 -14.9325,5.13574 -232.06856,43.18318 -124.93576,21.89182 -229.32485,39.81832 -231.97573,39.83702 -2.9684,0.021 -7.28627,-1.2083 -11.2409,-3.1996 z"
         style="fill:#ffffff" />
      <path
         style="fill:#d12a21"
         d="m 98.633875,1048.9602 c -4.33305,-2.1973 -8.07541,-5.3088 -10.3723,-8.6239 -3.43489,-4.9575 -5.45995,-15.7645 -45.90928,-244.99992 C 19.078547,663.43888 0.02022703,553.23297 4.4703131e-4,550.43437 -0.05125297,543.11584 5.615137,532.63651 12.025847,528.19481 c 4.95758,-3.43489 15.76456,-5.45996 245.000003,-45.90929 131.8975,-23.27374 242.10342,-42.33207 244.90202,-42.35184 7.31852,-0.0517 17.79785,5.61468 22.23956,12.0254 3.43489,4.95757 5.45995,15.76456 45.90929,245 23.27375,131.8975 42.33205,242.10341 42.35185,244.90201 0.052,7.31853 -5.6147,17.79785 -12.0254,22.23957 -4.9576,3.43488 -15.76457,5.45995 -245.00001,45.90924 -131.8975,23.2738 -242.10342,42.332 -244.90201,42.3518 -3.13381,0.022 -7.69228,-1.2845 -11.867265,-3.4015 z M 159.34678,874.26632 c 53.88124,-9.63968 56.38929,-10.22635 60.88271,-14.24121 3.65995,-3.27018 3.88049,-4.05583 5.48155,-19.52777 0.9175,-8.86628 2.80794,-19.87291 4.20097,-24.45916 3.23511,-10.65089 11.39002,-21.79605 20.25242,-27.67857 33.60738,-22.3073 96.8743,-11.18765 131.1046,23.04265 12.89799,12.89798 20.97094,26.6167 27.43441,46.62047 3.72929,11.54174 7.5199,16.52888 13.40199,17.63236 5.40658,1.01428 5.55348,0.99192 74.10908,-11.28425 38.13587,-6.82893 54.00671,-10.1603 56.25,-11.80712 4.8231,-3.5407 4.8358,-12.18134 0.039,-26.499 -8.24207,-24.6009 -22.54467,-42.5265 -49.02833,-61.4477 -13.10171,-9.36045 -29.63212,-18.21018 -57.6428,-30.85962 -26.64281,-12.03171 -32.11788,-15.27206 -32.11788,-19.00857 0,-3.08915 3.24408,-4.47899 24.375,-10.44286 46.30765,-13.06961 64.375,-31.41386 64.375,-65.3616 0,-14.89755 -2.96283,-26.91205 -7.59858,-30.81278 -6.16548,-5.18791 -12.76265,-5.347 -38.65142,-0.93205 -82.98633,14.15207 -80.57292,13.59506 -84.43342,19.48692 -2.04145,3.11564 -1.96924,3.84706 1.77777,18.00846 2.14812,8.1185 3.8933,16.68846 3.8782,19.04436 -0.0321,5.01066 -3.60508,13.38717 -6.98351,16.37222 -8.26146,7.2995 -27.0104,12.28623 -46.19341,12.28623 -23.20093,0 -40.68144,-7.51496 -58.04563,-24.95413 -12.54676,-12.60093 -18.96141,-23.25603 -27.50855,-45.69332 -8.57927,-22.52162 -8.68088,-22.63321 -19.99145,-21.95277 -5.38856,0.32417 -106.98746,18.27131 -113.45535,20.04153 -6.834895,1.87069 -12.681355,5.84794 -14.106535,9.59645 -2.42217,6.3708 4.59959,27.0738 13.897415,40.97519 15.99235,23.91055 39.293,39.15486 88.25715,57.74171 26.8904,10.20763 32.45514,12.78825 35.97977,16.6855 4.62993,5.11937 0.79492,7.59663 -34.72085,22.42834 -55.51258,23.18256 -80.45136,42.92125 -91.08351,72.0913 -3.14165,8.61934 -4.611055,31.4005 -2.39532,37.13625 2.87221,7.43515 4.6247,7.36815 58.25951,-2.22746 z"
         id="path3403"
         inkscape:connector-curvature="0" />
    </g>
  </g>
</svg>

